<?xml version="1.0" encoding="utf-8"?>
<!-- Generator: Adobe Illustrator 26.0.2, SVG Export Plug-In . SVG Version: 6.00 Build 0)  -->
<svg version="1.1" id="Calque_1" xmlns="http://www.w3.org/2000/svg" xmlns:xlink="http://www.w3.org/1999/xlink" x="0px" y="0px"
	 viewBox="0 0 566.93 155.91" style="enable-background:new 0 0 566.93 155.91;" xml:space="preserve">
<style type="text/css">
	.st0{fill:#222221;}
</style>
<path class="st0" d="M16.82,18.1H22l-2.77,10.6h2.25l0.62-12.25h5.37l-1.7,18.4h-4.65l0.25-3.97l-2.82,0.42l-0.92,3.55h-4.07
	L16.82,18.1z"/>
<path class="st0" d="M31.05,19h5.17l-2.75,15.85h-4.32L31.05,19z M39.1,15.82c2.75,1.72,4.55,3.1,4.55,5.1c0,2.05-1.6,4.25-4.2,7.27
	c1.5,0.85,2.32,1.47,2.32,2.47c0,0.95-0.5,1.57-1.6,2.95l-0.97,1.22h-5.55l1.92-2.4c0.67-0.88,1.2-1.62,1.2-2.3
	c0-1.1-1.72-1.87-1.97-1.97c2.3-3.37,3.55-5.25,3.55-6.65c0-1.5-1.2-2.42-5.1-4.47L39.1,15.82z"/>
<path class="st0" d="M53.37,18.55h-0.05c-1.85,3.62-3.17,6.5-3.17,9.2c0,2.55,2.75,5.35,5.37,7.1h-6.55c-3.27-3-4.27-4.62-4.27-7.1
	C44.7,25,46,22,48.3,18.1h5.15l0.3-1.65h4.62l-1.62,9.17h-4.7L53.37,18.55z"/>
<path class="st0" d="M60.47,19.7h5.2l-2.6,15.15h-4.45L60.47,19.7z M63.25,34.84c1.65-2.42,4.72-6.97,4.72-11.37
	c0-2.97-2.4-4.52-5.52-6.1l5.45-1.22c2.02,1.07,5.52,3.17,5.52,6.8c0,4.3-3.12,8.82-5.25,11.9H63.25z"/>
<path class="st0" d="M83.85,34.84H75.3c-0.03-0.12-0.05-0.3-0.05-0.6c0-2.85,0.48-8.45,1.65-12.27l3.9-1v-0.05l-4.65,0.15l1-4.02
	h9.7l-0.6,3.67l-4.15,0.15l-0.72,3.95h4.17l-0.5,2.9l-4.27,0.2l-0.65,3.77l4.22,0.2L83.85,34.84z"/>
<path class="st0" d="M89.22,21.95l4-0.98v-0.05l-4.57,0.15l1-4.02h9.7l-0.6,3.67l-4.15,0.15l-0.95,4.7h4.2l-0.52,2.9l-4.25,0.3
	l-1.1,6.07h-4.5L89.22,21.95z"/>
<path class="st0" d="M110.85,34.84h-9.37c-1.33-2.15-1.97-3.55-1.97-6.3c0-5.4,3.75-9.9,6.3-11.7h7.67
	c-4.42,2.7-8.67,7.4-8.67,11.75c0,1.77,0.38,3.57,1.7,5.8h0.05l1.05-9.22h4.9L110.85,34.84z"/>
<path class="st0" d="M116.12,18.1h5.32l-1.22,8.1h2.95l1.2-9.75h5.37l-3.2,18.4h-4.4l0.77-6.42l-3.07,0.38l-0.9,6.05h-4.35
	L116.12,18.1z"/>
<path class="st0" d="M137.97,17.37l-3,17.47h-4.45l2.02-17.47H137.97z"/>
<path class="st0" d="M140.9,16.45h5.4l-2.5,14.35c-0.55,3-1.15,3.75-3.27,5.5h-4.02c1.88-2.45,2.32-3.05,2.77-6.65L140.9,16.45z"/>
<path class="st0" d="M149.05,18.1h5.3l-1.95,10.57l0.05,0.05l4.52-12.27h5.65l-5.47,12.27l3.87,6.12h-5.62l-2.97-5.87h-0.05
	l-0.92,5.87h-4.42L149.05,18.1z"/>
<path class="st0" d="M170.5,17.05l-2.52,14.7l4.37,0.1l-0.53,3h-8.77l2.15-17.8H170.5z"/>
<path class="st0" d="M175.77,18.1h6.97l-0.1,12.72h0.05l3.65-14.37l6.8,0.6l-3.02,17.8h-4.12l1.7-13.35h-0.05l-3.6,13.35l-3.92,0.45
	l-0.05-13.1h-0.05l-1.92,12.65h-3.8L175.77,18.1z"/>
<path class="st0" d="M195.6,18.1h6.8l1,12.95h0.05l1.42-14.6l4.47,0.6l-3,17.77l-5.4,0.48l-1.1-12.45h-0.05l-1.77,12h-3.82
	L195.6,18.1z"/>
<path class="st0" d="M220.79,16.15c2.17,2,3.52,4.3,3.52,6.92c0,3.67-2.05,8.07-4.87,11.77h-7.07c-1-1.75-2.25-4.05-2.25-6.45
	c0-3.1,1.35-6.17,2.87-8.7h4.4c-1.12-1.1-1.95-1.85-3.02-2.65L220.79,16.15z M217.59,19.82c-0.25,0.65-2.17,4.82-2.17,9.05
	c0,1.02,0.15,3.02,0.67,4.77c1.77-3.47,2.77-6.7,2.77-9.92C218.87,21.9,218.3,20.82,217.59,19.82z"/>
<path class="st0" d="M227.77,19h5.17l-2.75,15.85h-4.32L227.77,19z M236.14,15.82c2.65,1.67,3.8,2.72,3.8,4.82
	c0,2.65-2.1,6.35-3.75,9.22h-4.95c1.87-3.1,3.4-5.67,3.4-8.3c0-2.05-1.52-2.95-4.67-4.52L236.14,15.82z"/>
<path class="st0" d="M247.97,19.7c-1.12-1.1-1.95-1.85-3.02-2.65l6.42-0.9c2.17,2,3.52,4.3,3.52,6.92c0,4.1-2.02,7.67-3.5,10.3
	h-4.12c0.92,1.12,3.47,2.87,4.77,3.47h-6.9c-2.6-1.9-4.45-4.6-4.45-8.45c0-3.1,1.35-6.17,2.87-8.7H247.97z M247.27,33.24
	c1.7-3.32,2.17-6.57,2.17-8.95c0-1.9-0.42-3.22-1.25-4.42c-0.33,0.67-2.2,5.15-2.2,8.52C246,29.87,246.22,31.52,247.27,33.24z"/>
<path class="st0" d="M258.35,19h5.17l-2.75,15.85h-4.32L258.35,19z M266.72,15.82c2.87,1.52,4.45,3.27,4.45,5.37
	c0,1.85-1.08,3.75-2.88,5.67l-1.87,2.02l3.22,5.95h-5.42l-2.27-5.47l2.55-4.45c0.6-1.02,1.22-2.67,1.22-3.3
	c0-1.08-0.8-2.15-2.37-3.12l-2.8-1.45L266.72,15.82z"/>
<path class="st0" d="M280.27,18.1c-0.55,0.88-1.77,2.92-1.77,4.37c0,2.72,3.82,3.6,3.82,6.5c0,2.42-3.27,5.67-3.5,5.87h-6.97
	l1.6-1.45c1.87-1.7,2.97-2.9,2.97-4.1c0-1.85-3.52-2.97-3.52-5.97c0-1.65,0.87-3.17,2.05-5.22H280.27z M285.22,16.45l-1.3,6.55
	h-4.22l1.02-6.55H285.22z"/>
<path class="st0" d="M288.75,22l3.97-0.92v-0.05l-6.95,0.25l0.55-4.22h10.92l-0.67,3.9l-2.52,0.1l-2.38,13.8h-4.47L288.75,22z"/>
<path class="st0" d="M308.54,34.84h-8.8c-1.4-1.12-2.58-2.32-2.58-4.87c0-0.77,0.05-1.15,0.35-3.42l1.3-8.45h5l-1.62,9.45
	c-0.17,0.97-0.28,1.7-0.28,2.4c0,1.75,1.12,3.35,2.25,4.3l2.1-17.4h5.35L308.54,34.84z"/>
<path class="st0" d="M313.77,18.1h5.22l-1.08,15.85h0.05l3.8-17.5h5.15l-4.95,18.4h-8.2V18.1z"/>
<path class="st0" d="M328.34,18.1h5l-1.4,14h0.05l3.65-14h3.97l0.2,14h0.05l2.2-15.65h5.15l-3.92,18.4h-6.15l-0.05-11.87h-0.05
	l-3.07,11.87h-6.3L328.34,18.1z"/>
<path class="st0" d="M353.02,30.62l-2.57,4.22h-3.65l4.75-8.35l-3.12-8.4h5.15l1.25,3.47l2.75-5.12h4.42l-5.67,9.45l3.07,8.95h-4.82
	L353.02,30.62z"/>
<path class="st0" d="M367.17,30.45h-3.97c-0.6-1.4-0.8-2.75-0.8-6.15c0-2.72,0.12-4,0.35-6.2h5.1c-0.55,3.9-0.85,6.45-0.85,9.07
	c0,1.65,0.1,2.05,0.28,2.97h0.05l2.87-13.7h5.45l-5,18.4h-4.45L367.17,30.45z"/>
<path class="st0" d="M381.29,20.8h-5.15l0.88-3.75h11.95l-8.25,14.6l4.47,0.3l-0.57,2.9H374.5L381.29,20.8z"/>
<path class="st0" d="M396.97,24.57h6.2l-0.55,3.6h-6.2L396.97,24.57z"/>
<path class="st0" d="M425.02,17.05c0.57,2.35,0.8,4.2,0.8,5.8c0,3.65-1.85,8.75-4.17,12h-7.2c-1.03-1.85-1.67-3.75-1.67-6.27
	c0-3.67,1.45-7.1,3.57-11.52H425.02z M418.07,33.65h0.05c1.35-3.08,2.55-7.37,2.55-10.75c0-1.37-0.25-2.97-0.5-4.35h-0.05
	c-1.5,3.9-2.35,7.45-2.35,11.62C417.77,31.12,417.89,32.94,418.07,33.65z"/>
<path class="st0" d="M429.64,23.95h-1.62l1.72-6.9h6.1l-3.12,17.8h-4.45L429.64,23.95z"/>
<path class="st0" d="M438.59,16.45h4.82l-0.22,1.2h5.07c0.37,1.17,0.62,3.6,0.62,4.75c0,3.1-1.2,5.4-5.32,9.7h4.65l-0.42,2.75
	h-11.87l1.52-2c5.5-7,6.3-8.9,6.3-11.25c0-1.02-0.3-2.37-0.62-3.5h-0.05l-1.15,5.95h-4.45L438.59,16.45z"/>
<path class="st0" d="M451.84,16.45h4.7l-0.22,1.2h4.57c0.17,0.3,1.45,2.75,1.45,4.32c0,1.62-1.17,3.27-3.92,4.6
	c1.55,0.73,2.4,1.67,2.4,3c0,1.82-1.52,3.12-4.22,5.27h-7.1c3.9-2.92,5.72-4.3,5.72-5.65c0-1.05-0.75-1.75-3.1-2.87
	c4.15-2.22,5.22-3.27,5.22-4.65c0-0.92-0.35-2-1.1-3.57h-0.05l-0.88,4.8h-4.4L451.84,16.45z"/>
<path class="st0" d="M469.67,32.42h-6.62l3.62-15.97h5.17L467.82,30l2.15,0.15l1.45-12.05h5.25l-2.12,12.37l1.55,0.1l-0.27,1.85
	h-1.62l-0.45,2.42h-4.35L469.67,32.42z"/>
<path class="st0" d="M479.89,17.05h9.67l-0.65,3.05h-4.65l-1,3.77c2.42,0.28,5.07,1.17,5.07,3.82c0,2.17-2.55,5.05-4.67,7.15h-6.25
	v-0.3c2.37-1.7,5.62-5.2,5.62-7.25c0-1.58-1.83-2.4-4.8-2.8L479.89,17.05z"/>
<path class="st0" d="M501.07,17.05c-1.5,2.25-3.17,5.05-4.02,7.12h4.75c0.45,0.67,0.88,2.27,0.88,3.55c0,2.12-0.92,4.22-3.05,7.12
	h-7.7c-0.4-0.67-1.5-2.77-1.5-5.32c0-3.67,2.47-8.27,4.97-12.47H501.07z M495.92,34.24c0.47-0.75,2-3.67,2-6.2
	c0-1.22-0.35-2.35-0.97-3.57c-0.75,1.9-1.52,4.1-1.52,6.62C495.42,32.6,495.64,33.42,495.92,34.24z"/>
<path class="st0" d="M510.52,20.1h-5.42l0.42-3.05h11.52l0.33,0.45l-7.95,17.35h-4.77L510.52,20.1z"/>
<path class="st0" d="M523.64,17.65l-0.8-1.2h5.27c0.3,0.67,1,2.37,1,3.87c0,2.02-0.83,3.3-2.82,5.87c0.97,0.85,1.47,2.12,1.47,3.42
	c0,1.65-1.38,4.15-2.35,5.22h-7.67c-0.5-1.02-1.05-2.12-1.05-3.27c0-1.9,1.22-3.6,2.47-5.2c-0.6-0.53-1.7-1.83-1.7-3.27
	c0-1.95,0.9-3.55,2.15-5.45H523.64z M521.74,34.09c0.68-0.75,1.58-2.5,1.58-3.25c0-0.88-0.85-1.62-1.47-2.12
	c-0.62,0.85-1.15,2.27-1.15,3C520.69,32.79,521.12,33.37,521.74,34.09z M523.74,23.77c0.52-0.9,0.92-2.25,0.92-2.87
	c0-0.95-0.28-1.67-0.77-2.8c-0.83,0.97-1.67,2.52-1.67,3.37C522.22,22.5,523.22,23.45,523.74,23.77z"/>
<path class="st0" d="M537.67,17.65l-0.15-0.6h5.07c0.12,0.35,0.52,2.22,0.52,4.85c0,5-2.47,9-5.37,12.95h-5.72
	c1.12-1.5,3.22-4.45,4.25-6.45h-4.42c-0.62-0.92-1.3-2.22-1.3-3.97c0-1.72,0.75-4.35,2.22-6.77H537.67z M536.49,28.1
	c1.05-2.22,1.47-4.62,1.47-6.92c0-0.52-0.03-1.75-0.22-3.07c-0.8,1.17-2.45,4.27-2.45,7.05C535.29,26.47,535.82,27.55,536.49,28.1z"
	/>
<path class="st0" d="M16.82,55.1H22l-2.77,10.6h2.25l0.62-12.25h5.37l-1.7,18.4h-4.65l0.25-3.97l-2.82,0.42l-0.92,3.55h-4.07
	L16.82,55.1z"/>
<path class="st0" d="M31.05,56h5.17l-2.75,15.85h-4.32L31.05,56z M39.1,52.82c2.75,1.72,4.55,3.1,4.55,5.1c0,2.05-1.6,4.25-4.2,7.27
	c1.5,0.85,2.32,1.47,2.32,2.47c0,0.95-0.5,1.57-1.6,2.95l-0.97,1.22h-5.55l1.92-2.4c0.67-0.88,1.2-1.62,1.2-2.3
	c0-1.1-1.72-1.87-1.97-1.97c2.3-3.37,3.55-5.25,3.55-6.65c0-1.5-1.2-2.42-5.1-4.47L39.1,52.82z"/>
<path class="st0" d="M53.37,55.55h-0.05c-1.85,3.62-3.17,6.5-3.17,9.2c0,2.55,2.75,5.35,5.37,7.1h-6.55c-3.27-3-4.27-4.62-4.27-7.1
	C44.7,62,46,59,48.3,55.1h5.15l0.3-1.65h4.62l-1.62,9.17h-4.7L53.37,55.55z"/>
<path class="st0" d="M60.47,56.7h5.2l-2.6,15.15h-4.45L60.47,56.7z M63.25,71.84c1.65-2.42,4.72-6.97,4.72-11.37
	c0-2.97-2.4-4.52-5.52-6.1l5.45-1.22c2.02,1.07,5.52,3.17,5.52,6.8c0,4.3-3.12,8.82-5.25,11.9H63.25z"/>
<path class="st0" d="M83.85,71.84H75.3c-0.03-0.12-0.05-0.3-0.05-0.6c0-2.85,0.48-8.45,1.65-12.27l3.9-1v-0.05l-4.65,0.15l1-4.02
	h9.7l-0.6,3.67l-4.15,0.15l-0.72,3.95h4.17l-0.5,2.9l-4.27,0.2l-0.65,3.77l4.22,0.2L83.85,71.84z"/>
<path class="st0" d="M89.22,58.95l4-0.98v-0.05l-4.57,0.15l1-4.02h9.7l-0.6,3.67l-4.15,0.15l-0.95,4.7h4.2l-0.52,2.9l-4.25,0.3
	l-1.1,6.07h-4.5L89.22,58.95z"/>
<path class="st0" d="M110.85,71.84h-9.37c-1.33-2.15-1.97-3.55-1.97-6.3c0-5.4,3.75-9.9,6.3-11.7h7.67
	c-4.42,2.7-8.67,7.4-8.67,11.75c0,1.77,0.38,3.57,1.7,5.8h0.05l1.05-9.22h4.9L110.85,71.84z"/>
<path class="st0" d="M116.12,55.1h5.32l-1.22,8.1h2.95l1.2-9.75h5.37l-3.2,18.4h-4.4l0.77-6.42l-3.07,0.38l-0.9,6.05h-4.35
	L116.12,55.1z"/>
<path class="st0" d="M137.97,54.37l-3,17.47h-4.45l2.02-17.47H137.97z"/>
<path class="st0" d="M140.9,53.45h5.4l-2.5,14.35c-0.55,3-1.15,3.75-3.27,5.5h-4.02c1.88-2.45,2.32-3.05,2.77-6.65L140.9,53.45z"/>
<path class="st0" d="M149.05,55.1h5.3l-1.95,10.57l0.05,0.05l4.52-12.27h5.65l-5.47,12.27l3.87,6.12h-5.62l-2.97-5.87h-0.05
	l-0.92,5.87h-4.42L149.05,55.1z"/>
<path class="st0" d="M170.5,54.05l-2.52,14.7l4.37,0.1l-0.53,3h-8.77l2.15-17.8H170.5z"/>
<path class="st0" d="M175.77,55.1h6.97l-0.1,12.72h0.05l3.65-14.37l6.8,0.6l-3.02,17.8h-4.12l1.7-13.35h-0.05l-3.6,13.35l-3.92,0.45
	l-0.05-13.1h-0.05l-1.92,12.65h-3.8L175.77,55.1z"/>
<path class="st0" d="M195.6,55.1h6.8l1,12.95h0.05l1.42-14.6l4.47,0.6l-3,17.77l-5.4,0.48l-1.1-12.45h-0.05l-1.77,12h-3.82
	L195.6,55.1z"/>
<path class="st0" d="M220.79,53.15c2.17,2,3.52,4.3,3.52,6.92c0,3.67-2.05,8.07-4.87,11.77h-7.07c-1-1.75-2.25-4.05-2.25-6.45
	c0-3.1,1.35-6.17,2.87-8.7h4.4c-1.12-1.1-1.95-1.85-3.02-2.65L220.79,53.15z M217.59,56.82c-0.25,0.65-2.17,4.82-2.17,9.05
	c0,1.02,0.15,3.02,0.67,4.77c1.77-3.47,2.77-6.7,2.77-9.92C218.87,58.9,218.3,57.82,217.59,56.82z"/>
<path class="st0" d="M227.77,56h5.17l-2.75,15.85h-4.32L227.77,56z M236.14,52.82c2.65,1.67,3.8,2.72,3.8,4.82
	c0,2.65-2.1,6.35-3.75,9.22h-4.95c1.87-3.1,3.4-5.67,3.4-8.3c0-2.05-1.52-2.95-4.67-4.52L236.14,52.82z"/>
<path class="st0" d="M247.97,56.7c-1.12-1.1-1.95-1.85-3.02-2.65l6.42-0.9c2.17,2,3.52,4.3,3.52,6.92c0,4.1-2.02,7.67-3.5,10.3
	h-4.12c0.92,1.12,3.47,2.87,4.77,3.47h-6.9c-2.6-1.9-4.45-4.6-4.45-8.45c0-3.1,1.35-6.17,2.87-8.7H247.97z M247.27,70.24
	c1.7-3.32,2.17-6.57,2.17-8.95c0-1.9-0.42-3.22-1.25-4.42c-0.33,0.67-2.2,5.15-2.2,8.52C246,66.87,246.22,68.52,247.27,70.24z"/>
<path class="st0" d="M258.35,56h5.17l-2.75,15.85h-4.32L258.35,56z M266.72,52.82c2.87,1.52,4.45,3.27,4.45,5.37
	c0,1.85-1.08,3.75-2.88,5.67l-1.87,2.02l3.22,5.95h-5.42l-2.27-5.47l2.55-4.45c0.6-1.02,1.22-2.67,1.22-3.3
	c0-1.08-0.8-2.15-2.37-3.12l-2.8-1.45L266.72,52.82z"/>
<path class="st0" d="M280.27,55.1c-0.55,0.88-1.77,2.92-1.77,4.37c0,2.72,3.82,3.6,3.82,6.5c0,2.42-3.27,5.67-3.5,5.87h-6.97
	l1.6-1.45c1.87-1.7,2.97-2.9,2.97-4.1c0-1.85-3.52-2.97-3.52-5.97c0-1.65,0.87-3.17,2.05-5.22H280.27z M285.22,53.45l-1.3,6.55
	h-4.22l1.02-6.55H285.22z"/>
<path class="st0" d="M288.75,59l3.97-0.92v-0.05l-6.95,0.25l0.55-4.22h10.92l-0.67,3.9l-2.52,0.1l-2.38,13.8h-4.47L288.75,59z"/>
<path class="st0" d="M308.54,71.84h-8.8c-1.4-1.12-2.58-2.32-2.58-4.87c0-0.77,0.05-1.15,0.35-3.42l1.3-8.45h5l-1.62,9.45
	c-0.17,0.97-0.28,1.7-0.28,2.4c0,1.75,1.12,3.35,2.25,4.3l2.1-17.4h5.35L308.54,71.84z"/>
<path class="st0" d="M313.77,55.1h5.22l-1.08,15.85h0.05l3.8-17.5h5.15l-4.95,18.4h-8.2V55.1z"/>
<path class="st0" d="M328.34,55.1h5l-1.4,14h0.05l3.65-14h3.97l0.2,14h0.05l2.2-15.65h5.15l-3.92,18.4h-6.15l-0.05-11.87h-0.05
	l-3.07,11.87h-6.3L328.34,55.1z"/>
<path class="st0" d="M353.02,67.62l-2.57,4.22h-3.65l4.75-8.35l-3.12-8.4h5.15l1.25,3.47l2.75-5.12h4.42l-5.67,9.45l3.07,8.95h-4.82
	L353.02,67.62z"/>
<path class="st0" d="M367.17,67.45h-3.97c-0.6-1.4-0.8-2.75-0.8-6.15c0-2.72,0.12-4,0.35-6.2h5.1c-0.55,3.9-0.85,6.45-0.85,9.07
	c0,1.65,0.1,2.05,0.28,2.97h0.05l2.87-13.7h5.45l-5,18.4h-4.45L367.17,67.45z"/>
<path class="st0" d="M381.29,57.8h-5.15l0.88-3.75h11.95l-8.25,14.6l4.47,0.3l-0.57,2.9H374.5L381.29,57.8z"/>
<path class="st0" d="M15.29,91.85h2.28l-1.22,4.67h0.99l0.27-5.39h2.37l-0.75,8.1h-2.05l0.11-1.75l-1.24,0.19l-0.41,1.56h-1.79
	L15.29,91.85z"/>
<path class="st0" d="M24.65,92.05h-0.02c-0.81,1.59-1.4,2.86-1.4,4.05c0,1.12,1.21,2.35,2.37,3.12h-2.88
	c-1.44-1.32-1.88-2.04-1.88-3.12c0-1.21,0.57-2.53,1.58-4.25h2.27l0.13-0.73h2.04l-0.71,4.04h-2.07L24.65,92.05z"/>
<path class="st0" d="M30.93,99.22h-3.76c-0.01-0.05-0.02-0.13-0.02-0.26c0-1.25,0.21-3.72,0.73-5.4l1.72-0.44v-0.02l-2.05,0.07
	l0.44-1.77h4.27L31.98,93l-1.83,0.07l-0.32,1.74h1.84l-0.22,1.28l-1.88,0.09l-0.29,1.66l1.86,0.09L30.93,99.22z"/>
<path class="st0" d="M33.36,92.24h2.28l-1.21,6.97h-1.9L33.36,92.24z M37.04,90.85c1.26,0.67,1.96,1.44,1.96,2.37
	c0,0.81-0.47,1.65-1.26,2.5l-0.83,0.89l1.42,2.62h-2.39l-1-2.41l1.12-1.96c0.26-0.45,0.54-1.18,0.54-1.45
	c0-0.47-0.35-0.95-1.04-1.38l-1.23-0.64L37.04,90.85z"/>
<path class="st0" d="M40.55,91.85h2.28l-1.22,4.67h0.99l0.27-5.39h2.37l-0.75,8.1h-2.05l0.11-1.75l-1.24,0.19l-0.41,1.56h-1.79
	L40.55,91.85z"/>
<path class="st0" d="M47.36,93.56l1.75-0.41v-0.02l-3.06,0.11l0.24-1.86h4.81l-0.3,1.72l-1.11,0.04l-1.04,6.07h-1.97L47.36,93.56z"
	/>
<path class="st0" d="M51.99,91.85h2.28l-1.22,4.67h0.99l0.27-5.39h2.37l-0.75,8.1h-2.05l0.11-1.75l-1.24,0.19l-0.41,1.56h-1.79
	L51.99,91.85z"/>
<path class="st0" d="M58.8,93.56l1.75-0.41v-0.02l-3.06,0.11l0.24-1.86h4.81l-0.3,1.72l-1.11,0.04l-1.04,6.07h-1.97L58.8,93.56z"/>
<path class="st0" d="M65.61,91.53l-1.32,7.69h-1.96l0.89-7.69H65.61z"/>
<path class="st0" d="M66.73,91.85h2.99l0.44,5.7h0.02l0.63-6.42l1.97,0.26l-1.32,7.82l-2.38,0.21l-0.48-5.48h-0.02l-0.78,5.28h-1.68
	L66.73,91.85z"/>
<path class="st0" d="M79.07,92.24h2.28l-1.21,6.97h-1.9L79.07,92.24z M82.76,90.85c1.17,0.74,1.67,1.2,1.67,2.12
	c0,1.17-0.92,2.79-1.65,4.06H80.6c0.83-1.36,1.5-2.5,1.5-3.65c0-0.9-0.67-1.3-2.06-1.99L82.76,90.85z"/>
<path class="st0" d="M88.67,99.22H84.9c-0.01-0.05-0.02-0.13-0.02-0.26c0-1.25,0.21-3.72,0.73-5.4l1.72-0.44v-0.02l-2.05,0.07
	l0.44-1.77h4.27L89.72,93l-1.83,0.07l-0.32,1.74h1.84l-0.22,1.28l-1.88,0.09l-0.29,1.66l1.86,0.09L88.67,99.22z"/>
<path class="st0" d="M91.1,92.24h2.28l-1.21,6.97h-1.9L91.1,92.24z M94.78,90.85c1.26,0.67,1.96,1.44,1.96,2.37
	c0,0.81-0.47,1.65-1.26,2.5l-0.83,0.89l1.42,2.62h-2.39l-1-2.41l1.12-1.96c0.26-0.45,0.54-1.18,0.54-1.45
	c0-0.47-0.35-0.95-1.04-1.38l-1.23-0.64L94.78,90.85z"/>
<path class="st0" d="M102.37,99.22H98.5c-0.62-0.5-1.13-1.02-1.13-2.15c0-0.34,0.02-0.51,0.15-1.51l0.57-3.72h2.2l-0.72,4.16
	c-0.08,0.43-0.12,0.75-0.12,1.06c0,0.77,0.5,1.47,0.99,1.89l0.92-7.66h2.35L102.37,99.22z"/>
<path class="st0" d="M104.89,91.85h3.07l-0.04,5.6h0.02l1.61-6.33l2.99,0.26l-1.33,7.83h-1.82l0.75-5.88h-0.02l-1.58,5.88l-1.73,0.2
	l-0.02-5.76h-0.02l-0.85,5.57h-1.67L104.89,91.85z"/>
<path class="st0" d="M119.09,91.85h2.28l-1.22,4.67h0.99l0.27-5.39h2.37l-0.75,8.1h-2.05l0.11-1.75l-1.24,0.19l-0.41,1.56h-1.79
	L119.09,91.85z"/>
<path class="st0" d="M128.07,91.85c-0.24,0.38-0.78,1.29-0.78,1.93c0,1.2,1.68,1.58,1.68,2.86c0,1.07-1.44,2.5-1.54,2.58h-3.07
	l0.7-0.64c0.83-0.75,1.31-1.28,1.31-1.8c0-0.81-1.55-1.31-1.55-2.63c0-0.73,0.38-1.4,0.9-2.3H128.07z M130.25,91.12L129.67,94h-1.86
	l0.45-2.88H130.25z"/>
<path class="st0" d="M131.06,92.24h2.28l-1.21,6.97h-1.9L131.06,92.24z M134.74,90.85c1.17,0.74,1.67,1.2,1.67,2.12
	c0,1.17-0.92,2.79-1.65,4.06h-2.18c0.83-1.36,1.5-2.5,1.5-3.65c0-0.9-0.67-1.3-2.06-1.99L134.74,90.85z"/>
<path class="st0" d="M140.65,99.22h-3.76c-0.01-0.05-0.02-0.13-0.02-0.26c0-1.25,0.21-3.72,0.73-5.4l1.72-0.44v-0.02l-2.05,0.07
	l0.44-1.77h4.27L141.71,93l-1.83,0.07l-0.32,1.74h1.84l-0.22,1.28l-1.88,0.09l-0.29,1.66l1.86,0.09L140.65,99.22z"/>
<path class="st0" d="M143.08,92.24h2.28l-1.21,6.97h-1.9L143.08,92.24z M146.77,90.85c1.26,0.67,1.96,1.44,1.96,2.37
	c0,0.81-0.47,1.65-1.26,2.5l-0.83,0.89l1.42,2.62h-2.39l-1-2.41l1.12-1.96c0.26-0.45,0.54-1.18,0.54-1.45
	c0-0.47-0.35-0.95-1.04-1.38l-1.23-0.64L146.77,90.85z"/>
<path class="st0" d="M149.82,92.24h2.28l-1.21,6.97h-1.9L149.82,92.24z M153.51,90.85c1.26,0.67,1.96,1.44,1.96,2.37
	c0,0.81-0.47,1.65-1.26,2.5l-0.83,0.89l1.42,2.62h-2.39l-1-2.41l1.12-1.96c0.26-0.45,0.54-1.18,0.54-1.45
	c0-0.47-0.35-0.95-1.04-1.38l-1.23-0.64L153.51,90.85z"/>
<path class="st0" d="M160.43,90.99c0.96,0.88,1.55,1.89,1.55,3.05c0,1.62-0.9,3.55-2.15,5.18h-3.11c-0.44-0.77-0.99-1.78-0.99-2.84
	c0-1.36,0.59-2.72,1.26-3.83h1.94c-0.5-0.48-0.86-0.81-1.33-1.17L160.43,90.99z M159.02,92.61c-0.11,0.29-0.96,2.12-0.96,3.98
	c0,0.45,0.07,1.33,0.3,2.1c0.78-1.53,1.22-2.95,1.22-4.37C159.58,93.52,159.33,93.05,159.02,92.61z"/>
<path class="st0" d="M163.21,91.85h2.3l-0.47,6.97h0.02l1.67-7.7H169l-2.18,8.1h-3.61V91.85z"/>
<path class="st0" d="M172.15,91.53l-1.32,7.69h-1.96l0.89-7.69H172.15z"/>
<path class="st0" d="M173.29,92.55h2.29l-1.14,6.67h-1.96L173.29,92.55z M174.51,99.22c0.73-1.07,2.08-3.07,2.08-5.01
	c0-1.31-1.06-1.99-2.43-2.68l2.4-0.54c0.89,0.47,2.43,1.4,2.43,2.99c0,1.89-1.38,3.88-2.31,5.24H174.51z"/>
<path class="st0" d="M188.69,99.22h-3.76c-0.01-0.05-0.02-0.13-0.02-0.26c0-1.25,0.21-3.72,0.73-5.4l1.72-0.44v-0.02l-2.05,0.07
	l0.44-1.77h4.27L189.74,93l-1.83,0.07l-0.32,1.74h1.84l-0.22,1.28l-1.88,0.09l-0.29,1.66l1.86,0.09L188.69,99.22z"/>
<path class="st0" d="M195.46,99.22h-3.87c-0.62-0.5-1.13-1.02-1.13-2.15c0-0.34,0.02-0.51,0.15-1.51l0.57-3.72h2.2l-0.72,4.16
	c-0.08,0.43-0.12,0.75-0.12,1.06c0,0.77,0.5,1.47,0.99,1.89l0.92-7.66h2.35L195.46,99.22z"/>
<path class="st0" d="M197.98,91.85h3.07l-0.04,5.6h0.02l1.61-6.33l2.99,0.26l-1.33,7.83h-1.82l0.75-5.88h-0.02l-1.58,5.88l-1.73,0.2
	l-0.02-5.76h-0.02l-0.85,5.57h-1.67L197.98,91.85z"/>
<path class="st0" d="M211.82,91.85h2.99l0.44,5.7h0.02l0.63-6.42l1.97,0.26l-1.32,7.82l-2.38,0.21l-0.48-5.48h-0.02l-0.78,5.28
	h-1.68L211.82,91.85z"/>
<path class="st0" d="M222.12,99.22h-3.76c-0.01-0.05-0.02-0.13-0.02-0.26c0-1.25,0.21-3.72,0.73-5.4l1.72-0.44v-0.02l-2.05,0.07
	l0.44-1.77h4.27L223.17,93l-1.83,0.07l-0.32,1.74h1.84l-0.22,1.28l-1.88,0.09l-0.29,1.66l1.86,0.09L222.12,99.22z"/>
<path class="st0" d="M224.48,91.85h3.07l-0.04,5.6h0.02l1.61-6.33l2.99,0.26l-1.33,7.83h-1.82l0.75-5.88h-0.02l-1.58,5.88l-1.73,0.2
	l-0.02-5.76h-0.02l-0.85,5.57h-1.67L224.48,91.85z"/>
<path class="st0" d="M237.16,90.99c0.96,0.88,1.55,1.89,1.55,3.05c0,1.62-0.9,3.55-2.15,5.18h-3.11c-0.44-0.77-0.99-1.78-0.99-2.84
	c0-1.36,0.59-2.72,1.26-3.83h1.94c-0.5-0.48-0.86-0.81-1.33-1.17L237.16,90.99z M235.76,92.61c-0.11,0.29-0.96,2.12-0.96,3.98
	c0,0.45,0.07,1.33,0.3,2.1c0.78-1.53,1.22-2.95,1.22-4.37C236.32,93.52,236.06,93.05,235.76,92.61z"/>
<path class="st0" d="M242.73,91.39l-1.11,6.47l1.93,0.04l-0.23,1.32h-3.86l0.95-7.83H242.73z"/>
<path class="st0" d="M249.46,99.22h-3.87c-0.62-0.5-1.13-1.02-1.13-2.15c0-0.34,0.02-0.51,0.15-1.51l0.57-3.72h2.2l-0.72,4.16
	c-0.08,0.43-0.12,0.75-0.12,1.06c0,0.77,0.5,1.47,0.99,1.89l0.92-7.66h2.35L249.46,99.22z"/>
<path class="st0" d="M252.05,92.24h2.28l-1.21,6.97h-1.9L252.05,92.24z M255.73,90.85c1.17,0.74,1.67,1.2,1.67,2.12
	c0,1.17-0.92,2.79-1.65,4.06h-2.18c0.83-1.36,1.5-2.5,1.5-3.65c0-0.9-0.67-1.3-2.06-1.99L255.73,90.85z"/>
<path class="st0" d="M259.31,93.56l1.75-0.41v-0.02L258,93.24l0.24-1.86h4.81l-0.3,1.72l-1.11,0.04l-1.04,6.07h-1.97L259.31,93.56z"
	/>
<path class="st0" d="M263.92,91.85h2.28l-1.22,4.67h0.99l0.27-5.39h2.37l-0.75,8.1h-2.05l0.11-1.75l-1.24,0.19l-0.41,1.56h-1.79
	L263.92,91.85z"/>
<path class="st0" d="M272.9,91.85c-0.24,0.38-0.78,1.29-0.78,1.93c0,1.2,1.68,1.58,1.68,2.86c0,1.07-1.44,2.5-1.54,2.58h-3.07
	l0.7-0.64c0.83-0.75,1.31-1.28,1.31-1.8c0-0.81-1.55-1.31-1.55-2.63c0-0.73,0.38-1.4,0.9-2.3H272.9z M275.08,91.12L274.51,94h-1.86
	l0.45-2.88H275.08z"/>
<path class="st0" d="M18.09,112.42h-3.76c-0.01-0.05-0.02-0.13-0.02-0.26c0-1.25,0.21-3.72,0.73-5.4l1.72-0.44v-0.02l-2.05,0.07
	l0.44-1.77h4.27l-0.26,1.62l-1.83,0.07L17,108.01h1.84l-0.22,1.28l-1.88,0.09l-0.29,1.66l1.86,0.09L18.09,112.42z"/>
<path class="st0" d="M21.26,106.76l1.75-0.41v-0.02l-3.06,0.11l0.24-1.86H25l-0.3,1.72l-1.11,0.04l-1.04,6.07h-1.97L21.26,106.76z"
	/>
<path class="st0" d="M29.97,112.42H26.1c-0.62-0.5-1.13-1.02-1.13-2.15c0-0.34,0.02-0.51,0.15-1.51l0.57-3.72h2.2l-0.72,4.16
	c-0.08,0.43-0.12,0.75-0.12,1.06c0,0.77,0.5,1.47,0.99,1.89l0.92-7.66h2.35L29.97,112.42z"/>
<path class="st0" d="M32.56,105.44h2.28l-1.21,6.97h-1.9L32.56,105.44z M36.24,104.05c1.26,0.67,1.96,1.44,1.96,2.37
	c0,0.81-0.47,1.65-1.26,2.5l-0.83,0.89l1.42,2.62h-2.39l-1-2.41l1.12-1.96c0.26-0.45,0.54-1.18,0.54-1.45
	c0-0.47-0.35-0.95-1.04-1.38l-1.23-0.64L36.24,104.05z"/>
<path class="st0" d="M43.06,105.05h2.28l-1.22,4.67h0.99l0.27-5.39h2.37l-0.75,8.1h-2.05l0.11-1.75l-1.24,0.19l-0.41,1.56h-1.79
	L43.06,105.05z"/>
<path class="st0" d="M53.67,112.42h-3.87c-0.62-0.5-1.13-1.02-1.13-2.15c0-0.34,0.02-0.51,0.15-1.51l0.57-3.72h2.2l-0.72,4.16
	c-0.08,0.43-0.12,0.75-0.12,1.06c0,0.77,0.5,1.47,0.99,1.89l0.92-7.66h2.35L53.67,112.42z"/>
<path class="st0" d="M56.99,106.76l1.75-0.41v-0.02l-3.06,0.11l0.24-1.86h4.81l-0.3,1.72l-1.11,0.04l-1.04,6.07H56.3L56.99,106.76z"
	/>
<path class="st0" d="M68.71,104.19c0.96,0.88,1.55,1.89,1.55,3.05c0,1.62-0.9,3.55-2.15,5.18h-3.11c-0.44-0.77-0.99-1.78-0.99-2.84
	c0-1.36,0.59-2.72,1.26-3.83h1.94c-0.5-0.48-0.86-0.81-1.33-1.17L68.71,104.19z M67.3,105.81c-0.11,0.29-0.96,2.12-0.96,3.98
	c0,0.45,0.07,1.33,0.3,2.1c0.78-1.53,1.22-2.95,1.22-4.37C67.87,106.72,67.61,106.25,67.3,105.81z"/>
<path class="st0" d="M71.71,106.74l1.76-0.43v-0.02l-2.01,0.07l0.44-1.77h4.27l-0.26,1.62l-1.83,0.07l-0.42,2.07h1.85l-0.23,1.28
	l-1.87,0.13l-0.48,2.67h-1.98L71.71,106.74z"/>
<path class="st0" d="M76.82,106.74l1.76-0.43v-0.02l-2.01,0.07l0.44-1.77h4.27l-0.26,1.62l-1.83,0.07l-0.42,2.07h1.85l-0.23,1.28
	l-1.87,0.13l-0.48,2.67h-1.98L76.82,106.74z"/>
<path class="st0" d="M84.62,104.73l-1.32,7.69h-1.96l0.89-7.69H84.62z"/>
<path class="st0" d="M88.94,105.24h-0.02c-0.81,1.59-1.4,2.86-1.4,4.05c0,1.12,1.21,2.35,2.37,3.12H87
	c-1.44-1.32-1.88-2.04-1.88-3.12c0-1.21,0.57-2.53,1.58-4.25h2.27l0.13-0.73h2.04l-0.71,4.04h-2.07L88.94,105.24z"/>
<path class="st0" d="M94.59,104.73l-1.32,7.69h-1.96l0.89-7.69H94.59z"/>
<path class="st0" d="M96.08,105.05h2.28l-1.22,4.67h0.99l0.27-5.39h2.37l-0.75,8.1h-2.05l0.11-1.75l-1.24,0.19l-0.41,1.56h-1.79
	L96.08,105.05z"/>
<path class="st0" d="M102.24,105.05h2.99l0.44,5.7h0.02l0.63-6.42l1.97,0.26l-1.32,7.82l-2.38,0.21l-0.48-5.48h-0.02l-0.78,5.28
	h-1.68L102.24,105.05z"/>
<path class="st0" d="M110.2,106.76l1.75-0.41v-0.02l-3.06,0.11l0.24-1.86h4.81l-0.3,1.72l-1.11,0.04l-1.04,6.07h-1.97L110.2,106.76z
	"/>
<path class="st0" d="M121.14,112.42h-3.76c-0.01-0.05-0.02-0.13-0.02-0.26c0-1.25,0.21-3.72,0.73-5.4l1.72-0.44v-0.02l-2.05,0.07
	l0.44-1.77h4.27l-0.26,1.62l-1.83,0.07l-0.32,1.74h1.84l-0.22,1.28l-1.88,0.09l-0.29,1.66l1.86,0.09L121.14,112.42z"/>
<path class="st0" d="M126.28,105.05c-0.24,0.38-0.78,1.29-0.78,1.93c0,1.2,1.68,1.58,1.68,2.86c0,1.07-1.44,2.5-1.54,2.58h-3.07
	l0.7-0.64c0.83-0.75,1.31-1.28,1.31-1.8c0-0.81-1.55-1.31-1.55-2.63c0-0.73,0.38-1.4,0.9-2.3H126.28z M128.46,104.32l-0.57,2.88
	h-1.86l0.45-2.88H128.46z"/>
<path class="st0" d="M132.52,105.05h3.07l-0.04,5.6h0.02l1.61-6.33l2.99,0.26l-1.33,7.83h-1.82l0.75-5.88h-0.02l-1.58,5.88
	l-1.73,0.2l-0.02-5.76h-0.02l-0.85,5.57h-1.67L132.52,105.05z"/>
<path class="st0" d="M145.2,104.19c0.96,0.88,1.55,1.89,1.55,3.05c0,1.62-0.9,3.55-2.15,5.18h-3.11c-0.44-0.77-0.99-1.78-0.99-2.84
	c0-1.36,0.59-2.72,1.26-3.83h1.94c-0.5-0.48-0.86-0.81-1.33-1.17L145.2,104.19z M143.8,105.81c-0.11,0.29-0.96,2.12-0.96,3.98
	c0,0.45,0.07,1.33,0.3,2.1c0.78-1.53,1.22-2.95,1.22-4.37C144.36,106.72,144.1,106.25,143.8,105.81z"/>
<path class="st0" d="M150.99,105.05c-0.24,0.38-0.78,1.29-0.78,1.93c0,1.2,1.68,1.58,1.68,2.86c0,1.07-1.44,2.5-1.54,2.58h-3.07
	l0.7-0.64c0.83-0.75,1.31-1.28,1.31-1.8c0-0.81-1.55-1.31-1.55-2.63c0-0.73,0.38-1.4,0.9-2.3H150.99z M153.17,104.32l-0.57,2.88
	h-1.86l0.45-2.88H153.17z"/>
<path class="st0" d="M157.19,105.05h2.99l0.44,5.7h0.02l0.63-6.42l1.97,0.26l-1.32,7.82l-2.38,0.21l-0.48-5.48h-0.02l-0.78,5.28
	h-1.68L157.19,105.05z"/>
<path class="st0" d="M167.49,112.42h-3.76c-0.01-0.05-0.02-0.13-0.02-0.26c0-1.25,0.21-3.72,0.73-5.4l1.72-0.44v-0.02l-2.05,0.07
	l0.44-1.77h4.27l-0.26,1.62l-1.83,0.07l-0.32,1.74h1.84l-0.22,1.28l-1.88,0.09l-0.29,1.66l1.86,0.09L167.49,112.42z"/>
<path class="st0" d="M170.66,106.76l1.75-0.41v-0.02l-3.06,0.11l0.24-1.86h4.81l-0.3,1.72l-1.11,0.04l-1.04,6.07h-1.97
	L170.66,106.76z"/>
<path class="st0" d="M181.59,112.42h-3.76c-0.01-0.05-0.02-0.13-0.02-0.26c0-1.25,0.21-3.72,0.73-5.4l1.72-0.44v-0.02l-2.05,0.07
	l0.44-1.77h4.27l-0.26,1.62l-1.83,0.07l-0.32,1.74h1.84l-0.22,1.28l-1.88,0.09l-0.29,1.66l1.86,0.09L181.59,112.42z"/>
<path class="st0" d="M183.92,105.05h2.99l0.44,5.7h0.02l0.63-6.42l1.97,0.26l-1.32,7.82l-2.38,0.21l-0.48-5.48h-0.02l-0.78,5.28
	h-1.68L183.92,105.05z"/>
<path class="st0" d="M193.59,104.73l-1.32,7.69h-1.96l0.89-7.69H193.59z"/>
<path class="st0" d="M194.75,105.05h3.07l-0.04,5.6h0.02l1.61-6.33l2.99,0.26l-1.33,7.83h-1.82l0.75-5.88h-0.02l-1.58,5.88
	l-1.73,0.2l-0.02-5.76h-0.02l-0.85,5.57h-1.67L194.75,105.05z"/>
<path class="st0" d="M209.95,112.42h-3.76c-0.01-0.05-0.02-0.13-0.02-0.26c0-1.25,0.21-3.72,0.73-5.4l1.72-0.44v-0.02l-2.05,0.07
	l0.44-1.77h4.27l-0.26,1.62l-1.83,0.07l-0.32,1.74h1.84l-0.22,1.28l-1.88,0.09l-0.29,1.66l1.86,0.09L209.95,112.42z"/>
<path class="st0" d="M216.73,112.42h-3.87c-0.62-0.5-1.13-1.02-1.13-2.15c0-0.34,0.02-0.51,0.15-1.51l0.57-3.72h2.2l-0.72,4.16
	c-0.08,0.43-0.12,0.75-0.12,1.06c0,0.77,0.5,1.47,0.99,1.89l0.92-7.66h2.35L216.73,112.42z"/>
<path class="st0" d="M219.24,105.05h3.07l-0.04,5.6h0.02l1.61-6.33l2.99,0.26l-1.33,7.83h-1.82l0.75-5.88h-0.02l-1.58,5.88
	l-1.73,0.2l-0.02-5.76h-0.02l-0.85,5.57h-1.67L219.24,105.05z"/>
<path class="st0" d="M234.48,105.24h-0.02c-0.81,1.59-1.4,2.86-1.4,4.05c0,1.12,1.21,2.35,2.37,3.12h-2.88
	c-1.44-1.32-1.88-2.04-1.88-3.12c0-1.21,0.57-2.53,1.58-4.25h2.27l0.13-0.73h2.04l-0.71,4.04h-2.07L234.48,105.24z"/>
<path class="st0" d="M241.55,104.19c0.96,0.88,1.55,1.89,1.55,3.05c0,1.62-0.9,3.55-2.15,5.18h-3.11c-0.44-0.77-0.99-1.78-0.99-2.84
	c0-1.36,0.59-2.72,1.26-3.83h1.94c-0.5-0.48-0.86-0.81-1.33-1.17L241.55,104.19z M240.14,105.81c-0.11,0.29-0.96,2.12-0.96,3.98
	c0,0.45,0.07,1.33,0.3,2.1c0.78-1.53,1.22-2.95,1.22-4.37C240.71,106.72,240.45,106.25,240.14,105.81z"/>
<path class="st0" d="M244.52,105.05h2.99l0.44,5.7h0.02l0.63-6.42l1.97,0.26l-1.32,7.82l-2.38,0.21l-0.48-5.48h-0.02l-0.78,5.28
	h-1.68L244.52,105.05z"/>
<path class="st0" d="M254.47,105.05c-0.24,0.38-0.78,1.29-0.78,1.93c0,1.2,1.68,1.58,1.68,2.86c0,1.07-1.44,2.5-1.54,2.58h-3.07
	l0.7-0.64c0.83-0.75,1.31-1.28,1.31-1.8c0-0.81-1.55-1.31-1.55-2.63c0-0.73,0.38-1.4,0.9-2.3H254.47z M256.64,104.32l-0.57,2.88
	h-1.86l0.45-2.88H256.64z"/>
<path class="st0" d="M260.53,112.42h-3.76c-0.01-0.05-0.02-0.13-0.02-0.26c0-1.25,0.21-3.72,0.73-5.4l1.72-0.44v-0.02l-2.05,0.07
	l0.44-1.77h4.27l-0.26,1.62l-1.83,0.07l-0.32,1.74h1.84l-0.22,1.28l-1.88,0.09l-0.29,1.66l1.86,0.09L260.53,112.42z"/>
<path class="st0" d="M266.06,105.24h-0.02c-0.81,1.59-1.4,2.86-1.4,4.05c0,1.12,1.21,2.35,2.37,3.12h-2.88
	c-1.44-1.32-1.88-2.04-1.88-3.12c0-1.21,0.57-2.53,1.58-4.25h2.27l0.13-0.73h2.04l-0.71,4.04h-2.07L266.06,105.24z"/>
<path class="st0" d="M269.54,105.05h2.28l-1.22,4.67h0.99l0.27-5.39h2.37l-0.75,8.1h-2.05l0.11-1.75l-1.24,0.19l-0.41,1.56h-1.79
	L269.54,105.05z"/>
<path class="st0" d="M18.09,125.62h-3.76c-0.01-0.05-0.02-0.13-0.02-0.26c0-1.25,0.21-3.72,0.73-5.4l1.72-0.44v-0.02l-2.05,0.07
	l0.44-1.77h4.27l-0.26,1.62l-1.83,0.07L17,121.21h1.84l-0.22,1.28l-1.88,0.09l-0.29,1.66l1.86,0.09L18.09,125.62z"/>
<path class="st0" d="M23.24,118.25c-0.24,0.38-0.78,1.29-0.78,1.93c0,1.2,1.68,1.58,1.68,2.86c0,1.07-1.44,2.5-1.54,2.58h-3.07
	l0.7-0.64c0.83-0.75,1.31-1.28,1.31-1.8c0-0.81-1.55-1.31-1.55-2.63c0-0.73,0.38-1.4,0.9-2.3H23.24z M25.42,117.52l-0.57,2.88h-1.86
	l0.45-2.88H25.42z"/>
<path class="st0" d="M28.95,118.25c-0.24,0.38-0.78,1.29-0.78,1.93c0,1.2,1.68,1.58,1.68,2.86c0,1.07-1.44,2.5-1.54,2.58h-3.07
	l0.7-0.64c0.83-0.75,1.31-1.28,1.31-1.8c0-0.81-1.55-1.31-1.55-2.63c0-0.73,0.38-1.4,0.9-2.3H28.95z M31.13,117.52l-0.57,2.88h-1.86
	l0.45-2.88H31.13z"/>
<path class="st0" d="M34.38,117.93l-1.32,7.69H31.1l0.89-7.69H34.38z"/>
<path class="st0" d="M36.34,119.96l1.75-0.41v-0.02l-3.06,0.11l0.24-1.86h4.81l-0.3,1.72l-1.11,0.04l-1.04,6.07h-1.97L36.34,119.96z
	"/>
<path class="st0" d="M40.97,118.25h2.28l-1.22,4.67h0.99l0.27-5.39h2.37l-0.75,8.1h-2.05l0.11-1.75l-1.24,0.19l-0.41,1.56h-1.79
	L40.97,118.25z"/>
<path class="st0" d="M47.78,119.96l1.75-0.41v-0.02l-3.06,0.11l0.24-1.86h4.81l-0.3,1.72l-1.11,0.04l-1.04,6.07H47.1L47.78,119.96z"
	/>
<path class="st0" d="M54.59,117.93l-1.32,7.69h-1.96l0.89-7.69H54.59z"/>
<path class="st0" d="M56.07,118.25h2.28l-1.22,4.67h0.99l0.27-5.39h2.37l-0.75,8.1h-2.05l0.11-1.75l-1.24,0.19l-0.41,1.56h-1.79
	L56.07,118.25z"/>
<path class="st0" d="M65.4,125.62h-3.76c-0.01-0.05-0.02-0.13-0.02-0.26c0-1.25,0.21-3.72,0.73-5.4l1.72-0.44v-0.02l-2.05,0.07
	l0.44-1.77h4.27l-0.26,1.62l-1.83,0.07l-0.32,1.74h1.84l-0.22,1.28l-1.88,0.09l-0.29,1.66l1.86,0.09L65.4,125.62z"/>
<path class="st0" d="M74.01,118.95c-0.5-0.48-0.86-0.81-1.33-1.17l2.83-0.4c0.96,0.88,1.55,1.89,1.55,3.05
	c0,1.8-0.89,3.38-1.54,4.53h-1.81c0.41,0.5,1.53,1.27,2.1,1.53h-3.04c-1.14-0.84-1.96-2.02-1.96-3.72c0-1.36,0.59-2.72,1.26-3.83
	H74.01z M73.71,124.91c0.75-1.46,0.96-2.89,0.96-3.94c0-0.84-0.19-1.42-0.55-1.95c-0.14,0.3-0.97,2.27-0.97,3.75
	C73.14,123.43,73.24,124.15,73.71,124.91z"/>
<path class="st0" d="M82.92,125.62h-3.87c-0.62-0.5-1.13-1.02-1.13-2.15c0-0.34,0.02-0.51,0.15-1.51l0.57-3.72h2.2l-0.72,4.16
	c-0.08,0.43-0.12,0.75-0.12,1.06c0,0.77,0.5,1.47,0.99,1.89l0.92-7.66h2.35L82.92,125.62z"/>
<path class="st0" d="M87.95,117.93l-1.32,7.69h-1.96l0.89-7.69H87.95z"/>
<path class="st0" d="M89.08,118.95h2.29l-1.14,6.67h-1.96L89.08,118.95z M90.3,125.62c0.73-1.07,2.08-3.07,2.08-5.01
	c0-1.31-1.06-1.99-2.43-2.68l2.4-0.54c0.89,0.47,2.43,1.4,2.43,2.99c0,1.89-1.38,3.88-2.31,5.24H90.3z"/>
<path class="st0" d="M99.37,125.62h-3.76c-0.01-0.05-0.02-0.13-0.02-0.26c0-1.25,0.21-3.72,0.73-5.4l1.72-0.44v-0.02l-2.05,0.07
	l0.44-1.77h4.27l-0.26,1.62l-1.83,0.07l-0.32,1.74h1.84l-0.22,1.28l-1.88,0.09l-0.29,1.66l1.86,0.09L99.37,125.62z"/>
<path class="st0" d="M101.8,118.64h2.28l-1.21,6.97h-1.9L101.8,118.64z M105.34,117.25c1.21,0.76,2,1.36,2,2.24
	c0,0.9-0.7,1.87-1.85,3.2c0.66,0.37,1.02,0.65,1.02,1.09c0,0.42-0.22,0.69-0.7,1.3l-0.43,0.54h-2.44l0.85-1.06
	c0.3-0.38,0.53-0.71,0.53-1.01c0-0.48-0.76-0.83-0.87-0.87c1.01-1.49,1.56-2.31,1.56-2.93c0-0.66-0.53-1.07-2.24-1.97L105.34,117.25
	z"/>
<path class="st0" d="M110.96,117.93l-1.32,7.69h-1.96l0.89-7.69H110.96z"/>
<path class="st0" d="M114.9,118.25c-0.24,0.38-0.78,1.29-0.78,1.93c0,1.2,1.68,1.58,1.68,2.86c0,1.07-1.44,2.5-1.54,2.58h-3.07
	l0.7-0.64c0.83-0.75,1.31-1.28,1.31-1.8c0-0.81-1.55-1.31-1.55-2.63c0-0.73,0.38-1.4,0.9-2.3H114.9z M117.08,117.52l-0.57,2.88
	h-1.86l0.45-2.88H117.08z"/>
<path class="st0" d="M120.99,118.44h-0.02c-0.81,1.59-1.4,2.86-1.4,4.05c0,1.12,1.21,2.35,2.37,3.12h-2.88
	c-1.44-1.32-1.88-2.04-1.88-3.12c0-1.21,0.57-2.53,1.58-4.25h2.27l0.13-0.73h2.04l-0.71,4.04h-2.07L120.99,118.44z"/>
<path class="st0" d="M126.65,117.93l-1.32,7.69h-1.96l0.89-7.69H126.65z"/>
<path class="st0" d="M128.61,119.96l1.75-0.41v-0.02l-3.06,0.11l0.24-1.86h4.81l-0.3,1.72l-1.11,0.04l-1.04,6.07h-1.97
	L128.61,119.96z"/>
<path class="st0" d="M132.01,123.59h2.06l-0.71,3.04h-1.85L132.01,123.59z"/>
<path class="st0" d="M140.57,119.96l1.75-0.41v-0.02l-3.06,0.11l0.24-1.86h4.81l-0.3,1.72l-1.11,0.04l-1.04,6.07h-1.97
	L140.57,119.96z"/>
<path class="st0" d="M148.01,125.62h-3.76c-0.01-0.05-0.02-0.13-0.02-0.26c0-1.25,0.21-3.72,0.73-5.4l1.72-0.44v-0.02l-2.05,0.07
	l0.44-1.77h4.27l-0.26,1.62l-1.83,0.07l-0.32,1.74h1.84l-0.22,1.28l-1.88,0.09l-0.29,1.66l1.86,0.09L148.01,125.62z"/>
<path class="st0" d="M151.18,119.96l1.75-0.41v-0.02l-3.06,0.11l0.24-1.86h4.81l-0.3,1.72l-1.11,0.04l-1.04,6.07h-1.97
	L151.18,119.96z"/>
<path class="st0" d="M159.89,125.62h-3.87c-0.62-0.5-1.13-1.02-1.13-2.15c0-0.34,0.02-0.51,0.15-1.51l0.57-3.72h2.2l-0.72,4.16
	c-0.08,0.43-0.12,0.75-0.12,1.06c0,0.77,0.5,1.47,0.99,1.89l0.92-7.66h2.35L159.89,125.62z"/>
<path class="st0" d="M162.47,118.64h2.28l-1.21,6.97h-1.9L162.47,118.64z M166.16,117.25c1.26,0.67,1.96,1.44,1.96,2.37
	c0,0.81-0.47,1.65-1.26,2.5l-0.83,0.89l1.42,2.62h-2.39l-1-2.41l1.12-1.96c0.26-0.45,0.54-1.18,0.54-1.45
	c0-0.47-0.35-0.95-1.04-1.38l-1.23-0.64L166.16,117.25z"/>
<path class="st0" d="M173.22,118.64h2.28l-1.21,6.97h-1.9L173.22,118.64z M176.91,117.25c1.26,0.67,1.96,1.44,1.96,2.37
	c0,0.81-0.47,1.65-1.26,2.5l-0.83,0.89l1.42,2.62h-2.39l-1-2.41l1.12-1.96c0.26-0.45,0.54-1.18,0.54-1.45
	c0-0.47-0.35-0.95-1.04-1.38l-1.23-0.64L176.91,117.25z"/>
<path class="st0" d="M183.03,125.62h-3.76c-0.01-0.05-0.02-0.13-0.02-0.26c0-1.25,0.21-3.72,0.73-5.4l1.72-0.44v-0.02l-2.05,0.07
	l0.44-1.77h4.27l-0.26,1.62l-1.83,0.07l-0.32,1.74h1.84l-0.22,1.28l-1.88,0.09l-0.29,1.66l1.86,0.09L183.03,125.62z"/>
<path class="st0" d="M188.18,118.25c-0.24,0.38-0.78,1.29-0.78,1.93c0,1.2,1.68,1.58,1.68,2.86c0,1.07-1.44,2.5-1.54,2.58h-3.07
	l0.7-0.64c0.83-0.75,1.31-1.28,1.31-1.8c0-0.81-1.55-1.31-1.55-2.63c0-0.73,0.38-1.4,0.9-2.3H188.18z M190.36,117.52l-0.57,2.88
	h-1.86l0.45-2.88H190.36z"/>
<path class="st0" d="M194.24,125.62h-3.76c-0.01-0.05-0.02-0.13-0.02-0.26c0-1.25,0.21-3.72,0.73-5.4l1.72-0.44v-0.02l-2.05,0.07
	l0.44-1.77h4.27l-0.26,1.62l-1.83,0.07l-0.32,1.74h1.84l-0.22,1.28l-1.88,0.09l-0.29,1.66l1.86,0.09L194.24,125.62z"/>
<path class="st0" d="M196.67,118.64h2.28l-1.21,6.97h-1.9L196.67,118.64z M200.36,117.25c1.26,0.67,1.96,1.44,1.96,2.37
	c0,0.81-0.47,1.65-1.26,2.5l-0.83,0.89l1.42,2.62h-2.39l-1-2.41l1.12-1.96c0.26-0.45,0.54-1.18,0.54-1.45
	c0-0.47-0.35-0.95-1.04-1.38l-1.23-0.64L200.36,117.25z"/>
<path class="st0" d="M207.95,125.62h-3.87c-0.62-0.5-1.13-1.02-1.13-2.15c0-0.34,0.02-0.51,0.15-1.51l0.57-3.72h2.2l-0.72,4.16
	c-0.08,0.43-0.12,0.75-0.12,1.06c0,0.77,0.5,1.47,0.99,1.89l0.92-7.66h2.35L207.95,125.62z"/>
<path class="st0" d="M210.53,118.64h2.28l-1.21,6.97h-1.9L210.53,118.64z M214.22,117.25c1.17,0.74,1.67,1.2,1.67,2.12
	c0,1.17-0.92,2.79-1.65,4.06h-2.18c0.83-1.36,1.5-2.5,1.5-3.65c0-0.9-0.67-1.3-2.06-1.99L214.22,117.25z"/>
<path class="st0" d="M217.79,119.96l1.75-0.41v-0.02l-3.06,0.11l0.24-1.86h4.81l-0.3,1.72l-1.11,0.04l-1.04,6.07h-1.97
	L217.79,119.96z"/>
<path class="st0" d="M222.41,118.25h2.28l-1.22,4.67h0.99l0.27-5.39h2.37l-0.75,8.1h-2.05l0.11-1.75l-1.24,0.19l-0.41,1.56h-1.79
	L222.41,118.25z"/>
<path class="st0" d="M232.4,118.95h2.29l-1.14,6.67h-1.96L232.4,118.95z M233.62,125.62c0.73-1.07,2.08-3.07,2.08-5.01
	c0-1.31-1.06-1.99-2.43-2.68l2.4-0.54c0.89,0.47,2.43,1.4,2.43,2.99c0,1.89-1.38,3.88-2.31,5.24H233.62z"/>
<path class="st0" d="M243.48,117.39c0.96,0.88,1.55,1.89,1.55,3.05c0,1.62-0.9,3.55-2.15,5.18h-3.11c-0.44-0.77-0.99-1.78-0.99-2.84
	c0-1.36,0.59-2.72,1.26-3.83h1.94c-0.5-0.48-0.86-0.81-1.33-1.17L243.48,117.39z M242.07,119.01c-0.11,0.29-0.96,2.12-0.96,3.98
	c0,0.45,0.07,1.33,0.3,2.1c0.78-1.53,1.22-2.95,1.22-4.37C242.63,119.92,242.38,119.45,242.07,119.01z"/>
<path class="st0" d="M249.04,117.78l-1.11,6.47l1.93,0.04l-0.23,1.32h-3.86l0.95-7.83H249.04z"/>
<path class="st0" d="M255.29,117.39c0.96,0.88,1.55,1.89,1.55,3.05c0,1.62-0.9,3.55-2.15,5.18h-3.11c-0.44-0.77-0.99-1.78-0.99-2.84
	c0-1.36,0.59-2.72,1.26-3.83h1.94c-0.5-0.48-0.86-0.81-1.33-1.17L255.29,117.39z M253.88,119.01c-0.11,0.29-0.96,2.12-0.96,3.98
	c0,0.45,0.07,1.33,0.3,2.1c0.78-1.53,1.22-2.95,1.22-4.37C254.44,119.92,254.19,119.45,253.88,119.01z"/>
<path class="st0" d="M258.36,118.64h2.28l-1.21,6.97h-1.9L258.36,118.64z M262.05,117.25c1.26,0.67,1.96,1.44,1.96,2.37
	c0,0.81-0.47,1.65-1.26,2.5l-0.83,0.89l1.42,2.62h-2.39l-1-2.41l1.12-1.96c0.26-0.45,0.54-1.18,0.54-1.45
	c0-0.47-0.35-0.95-1.04-1.38l-1.23-0.64L262.05,117.25z"/>
<path class="st0" d="M267.73,117.93l-1.32,7.69h-1.96l0.89-7.69H267.73z"/>
<path class="st0" d="M272.81,117.39c0.96,0.88,1.55,1.89,1.55,3.05c0,1.62-0.9,3.55-2.15,5.18h-3.11c-0.44-0.77-0.99-1.78-0.99-2.84
	c0-1.36,0.59-2.72,1.26-3.83h1.94c-0.5-0.48-0.86-0.81-1.33-1.17L272.81,117.39z M271.41,119.01c-0.11,0.29-0.96,2.12-0.96,3.98
	c0,0.45,0.07,1.33,0.3,2.1c0.78-1.53,1.22-2.95,1.22-4.37C271.97,119.92,271.71,119.45,271.41,119.01z"/>
<path class="st0" d="M15.02,131.84h2.28l-1.21,6.97h-1.9L15.02,131.84z M18.71,130.45c1.26,0.67,1.96,1.44,1.96,2.37
	c0,0.81-0.47,1.65-1.26,2.5l-0.83,0.89l1.42,2.62h-2.39l-1-2.41l1.12-1.96c0.26-0.45,0.54-1.18,0.54-1.45
	c0-0.47-0.35-0.95-1.04-1.38l-1.23-0.64L18.71,130.45z"/>
<path class="st0" d="M26.3,138.82h-3.87c-0.62-0.5-1.13-1.02-1.13-2.15c0-0.34,0.02-0.51,0.15-1.51l0.57-3.72h2.2l-0.72,4.16
	c-0.08,0.43-0.12,0.75-0.12,1.06c0,0.77,0.5,1.47,0.99,1.89l0.92-7.66h2.35L26.3,138.82z"/>
<path class="st0" d="M28.88,131.84h2.28l-1.21,6.97h-1.9L28.88,131.84z M32.57,130.45c1.17,0.74,1.67,1.2,1.67,2.12
	c0,1.17-0.92,2.79-1.65,4.06h-2.18c0.83-1.36,1.5-2.5,1.5-3.65c0-0.9-0.67-1.3-2.06-1.99L32.57,130.45z"/>
<path class="st0" d="M36.14,133.16l1.75-0.41v-0.02l-3.06,0.11l0.24-1.86h4.81l-0.3,1.72l-1.11,0.04l-1.04,6.07h-1.97L36.14,133.16z
	"/>
<path class="st0" d="M44.85,138.82h-3.87c-0.62-0.5-1.13-1.02-1.13-2.15c0-0.34,0.02-0.51,0.15-1.51l0.57-3.72h2.2l-0.72,4.16
	c-0.08,0.43-0.12,0.75-0.12,1.06c0,0.77,0.5,1.47,0.99,1.89l0.92-7.66h2.35L44.85,138.82z"/>
<path class="st0" d="M47.44,131.84h2.28l-1.21,6.97h-1.9L47.44,131.84z M51.12,130.45c1.26,0.67,1.96,1.44,1.96,2.37
	c0,0.81-0.47,1.65-1.26,2.5l-0.83,0.89l1.42,2.62h-2.39l-1-2.41l1.12-1.96c0.26-0.45,0.54-1.18,0.54-1.45
	c0-0.47-0.35-0.95-1.04-1.38l-1.23-0.64L51.12,130.45z"/>
<path class="st0" d="M53.41,136.79h2.06l-0.71,3.04H52.9L53.41,136.79z"/>
<path class="st0" d="M63.33,131.45h2.99l0.44,5.7h0.02l0.63-6.42l1.97,0.26l-1.32,7.82l-2.38,0.21l-0.48-5.48h-0.02l-0.78,5.28
	h-1.68L63.33,131.45z"/>
<path class="st0" d="M73.63,138.82h-3.76c-0.01-0.05-0.02-0.13-0.02-0.26c0-1.25,0.21-3.72,0.73-5.4l1.72-0.44v-0.02l-2.05,0.07
	l0.44-1.77h4.27l-0.26,1.62l-1.83,0.07l-0.32,1.74h1.84l-0.22,1.28l-1.88,0.09l-0.29,1.66l1.86,0.09L73.63,138.82z"/>
<path class="st0" d="M78.78,131.45c-0.24,0.38-0.78,1.29-0.78,1.93c0,1.2,1.68,1.58,1.68,2.86c0,1.07-1.44,2.5-1.54,2.58h-3.07
	l0.7-0.64c0.83-0.75,1.31-1.28,1.31-1.8c0-0.81-1.55-1.31-1.55-2.63c0-0.73,0.38-1.4,0.9-2.3H78.78z M80.96,130.72l-0.57,2.88h-1.86
	l0.45-2.88H80.96z"/>
<path class="st0" d="M82.51,133.16l1.75-0.41v-0.02l-3.06,0.11l0.24-1.86h4.81l-0.3,1.72l-1.11,0.04l-1.04,6.07h-1.97L82.51,133.16z
	"/>
<path class="st0" d="M90.73,130.59c0.96,0.88,1.55,1.89,1.55,3.05c0,1.62-0.9,3.55-2.15,5.18h-3.11c-0.44-0.77-0.99-1.78-0.99-2.84
	c0-1.36,0.59-2.72,1.26-3.83h1.94c-0.5-0.48-0.86-0.81-1.33-1.17L90.73,130.59z M89.33,132.21c-0.11,0.29-0.96,2.12-0.96,3.98
	c0,0.45,0.07,1.33,0.3,2.1c0.78-1.53,1.22-2.95,1.22-4.37C89.89,133.12,89.63,132.65,89.33,132.21z"/>
<path class="st0" d="M100.55,133.16l1.75-0.41v-0.02l-3.06,0.11l0.24-1.86h4.81l-0.3,1.72l-1.11,0.04l-1.04,6.07h-1.97
	L100.55,133.16z"/>
<path class="st0" d="M108.77,130.59c0.96,0.88,1.55,1.89,1.55,3.05c0,1.62-0.9,3.55-2.15,5.18h-3.11c-0.44-0.77-0.99-1.78-0.99-2.84
	c0-1.36,0.59-2.72,1.26-3.83h1.94c-0.5-0.48-0.86-0.81-1.33-1.17L108.77,130.59z M107.37,132.21c-0.11,0.29-0.96,2.12-0.96,3.98
	c0,0.45,0.07,1.33,0.3,2.1c0.78-1.53,1.22-2.95,1.22-4.37C107.93,133.12,107.67,132.65,107.37,132.21z"/>
<path class="st0" d="M120.95,131.65h-0.02c-0.81,1.59-1.4,2.86-1.4,4.05c0,1.12,1.21,2.35,2.37,3.12h-2.88
	c-1.44-1.32-1.88-2.04-1.88-3.12c0-1.21,0.57-2.53,1.58-4.25h2.27l0.13-0.73h2.04l-0.71,4.04h-2.07L120.95,131.65z"/>
<path class="st0" d="M128.51,138.82h-3.87c-0.62-0.5-1.13-1.02-1.13-2.15c0-0.34,0.02-0.51,0.15-1.51l0.57-3.72h2.2l-0.72,4.16
	c-0.08,0.43-0.12,0.75-0.12,1.06c0,0.77,0.5,1.47,0.99,1.89l0.92-7.66h2.35L128.51,138.82z"/>
<path class="st0" d="M131.03,131.45h3.07l-0.04,5.6h0.02l1.61-6.33l2.99,0.26l-1.33,7.83h-1.82l0.75-5.88h-0.02l-1.58,5.88
	l-1.73,0.2l-0.02-5.76h-0.02l-0.85,5.57h-1.67L131.03,131.45z"/>
<path class="st0" d="M145.85,131.84h2.28l-1.21,6.97h-1.9L145.85,131.84z M149.54,130.45c1.26,0.67,1.96,1.44,1.96,2.37
	c0,0.81-0.47,1.65-1.26,2.5l-0.83,0.89l1.42,2.62h-2.39l-1-2.41l1.12-1.96c0.26-0.45,0.54-1.18,0.54-1.45
	c0-0.47-0.35-0.95-1.04-1.38l-1.23-0.64L149.54,130.45z"/>
<path class="st0" d="M155.67,138.82h-3.76c-0.01-0.05-0.02-0.13-0.02-0.26c0-1.25,0.21-3.72,0.73-5.4l1.72-0.44v-0.02l-2.05,0.07
	l0.44-1.77h4.27l-0.26,1.62l-1.83,0.07l-0.32,1.74h1.84l-0.22,1.28l-1.88,0.09l-0.29,1.66l1.86,0.09L155.67,138.82z"/>
<path class="st0" d="M158.1,131.84h2.28l-1.21,6.97h-1.9L158.1,131.84z M161.78,130.45c1.17,0.74,1.67,1.2,1.67,2.12
	c0,1.17-0.92,2.79-1.65,4.06h-2.18c0.83-1.36,1.5-2.5,1.5-3.65c0-0.9-0.67-1.3-2.06-1.99L161.78,130.45z"/>
<path class="st0" d="M167.69,138.82h-3.76c-0.01-0.05-0.02-0.13-0.02-0.26c0-1.25,0.21-3.72,0.73-5.4l1.72-0.44v-0.02l-2.05,0.07
	l0.44-1.77h4.27l-0.26,1.62l-1.83,0.07l-0.32,1.74h1.84l-0.22,1.28l-1.88,0.09l-0.29,1.66l1.86,0.09L167.69,138.82z"/>
<path class="st0" d="M170.12,131.84h2.28l-1.21,6.97h-1.9L170.12,131.84z M173.8,130.45c1.26,0.67,1.96,1.44,1.96,2.37
	c0,0.81-0.47,1.65-1.26,2.5l-0.83,0.89l1.42,2.62h-2.39l-1-2.41l1.12-1.96c0.26-0.45,0.54-1.18,0.54-1.45
	c0-0.47-0.35-0.95-1.04-1.38l-1.23-0.64L173.8,130.45z"/>
<path class="st0" d="M181.39,138.82h-3.87c-0.62-0.5-1.13-1.02-1.13-2.15c0-0.34,0.02-0.51,0.15-1.51l0.57-3.72h2.2l-0.72,4.16
	c-0.08,0.43-0.12,0.75-0.12,1.06c0,0.77,0.5,1.47,0.99,1.89l0.92-7.66h2.35L181.39,138.82z"/>
<path class="st0" d="M183.91,131.45h3.07l-0.04,5.6h0.02l1.61-6.33l2.99,0.26l-1.33,7.83h-1.82l0.75-5.88h-0.02l-1.58,5.88
	l-1.73,0.2l-0.02-5.76h-0.02l-0.85,5.57h-1.67L183.91,131.45z"/>
<path class="st0" d="M201.46,131.45c-0.24,0.38-0.78,1.29-0.78,1.93c0,1.2,1.68,1.58,1.68,2.86c0,1.07-1.44,2.5-1.54,2.58h-3.07
	l0.7-0.64c0.83-0.75,1.31-1.28,1.31-1.8c0-0.81-1.55-1.31-1.55-2.63c0-0.73,0.38-1.4,0.9-2.3H201.46z M203.64,130.72l-0.57,2.88
	h-1.86l0.45-2.88H203.64z"/>
<path class="st0" d="M207.52,138.82h-3.76c-0.01-0.05-0.02-0.13-0.02-0.26c0-1.25,0.21-3.72,0.73-5.4l1.72-0.44v-0.02l-2.05,0.07
	l0.44-1.77h4.27l-0.26,1.62l-1.83,0.07l-0.32,1.74h1.84l-0.22,1.28l-1.88,0.09l-0.29,1.66l1.86,0.09L207.52,138.82z"/>
<path class="st0" d="M209.86,132.15h2.29l-1.14,6.67h-1.96L209.86,132.15z M211.08,138.82c0.73-1.07,2.08-3.07,2.08-5.01
	c0-1.31-1.06-1.99-2.43-2.68l2.4-0.54c0.89,0.47,2.43,1.4,2.43,2.99c0,1.89-1.38,3.88-2.31,5.24H211.08z"/>
<path class="st0" d="M219.52,131.13l-1.32,7.69h-1.96l0.89-7.69H219.52z"/>
<path class="st0" d="M221.48,133.16l1.75-0.41v-0.02l-3.06,0.11l0.24-1.86h4.81l-0.3,1.72l-1.11,0.04l-1.04,6.07h-1.97
	L221.48,133.16z"/>
<path class="st0" d="M228.91,138.82h-3.76c-0.01-0.05-0.02-0.13-0.02-0.26c0-1.25,0.21-3.72,0.73-5.4l1.72-0.44v-0.02l-2.05,0.07
	l0.44-1.77h4.27l-0.26,1.62l-1.83,0.07l-0.32,1.74h1.84l-0.22,1.28l-1.88,0.09l-0.29,1.66l1.86,0.09L228.91,138.82z"/>
<path class="st0" d="M231.28,131.45h3.07l-0.04,5.6h0.02l1.61-6.33l2.99,0.26l-1.33,7.83h-1.82l0.75-5.88h-0.02l-1.58,5.88
	l-1.73,0.2l-0.02-5.76h-0.02l-0.85,5.57h-1.67L231.28,131.45z"/>
<path class="st0" d="M248.55,131.13l-1.32,7.69h-1.96l0.89-7.69H248.55z"/>
<path class="st0" d="M249.68,132.15h2.29l-1.14,6.67h-1.96L249.68,132.15z M250.9,138.82c0.73-1.07,2.08-3.07,2.08-5.01
	c0-1.31-1.06-1.99-2.43-2.68l2.4-0.54c0.89,0.47,2.43,1.4,2.43,2.99c0,1.89-1.38,3.88-2.31,5.24H250.9z"/>
<path class="st0" d="M259.97,138.82h-3.76c-0.01-0.05-0.02-0.13-0.02-0.26c0-1.25,0.21-3.72,0.73-5.4l1.72-0.44v-0.02l-2.05,0.07
	l0.44-1.77h4.27l-0.26,1.62l-1.83,0.07l-0.32,1.74h1.84l-0.22,1.28l-1.88,0.09l-0.29,1.66l1.86,0.09L259.97,138.82z"/>
<path class="st0" d="M262.4,131.84h2.28l-1.21,6.97h-1.9L262.4,131.84z M266.08,130.45c1.26,0.67,1.96,1.44,1.96,2.37
	c0,0.81-0.47,1.65-1.26,2.5l-0.83,0.89l1.42,2.62h-2.39l-1-2.41l1.12-1.96c0.26-0.45,0.54-1.18,0.54-1.45
	c0-0.47-0.35-0.95-1.04-1.38l-1.23-0.64L266.08,130.45z"/>
<path class="st0" d="M269.59,131.45h2.28l-1.22,4.67h0.99l0.27-5.39h2.37l-0.75,8.1h-2.05l0.11-1.75l-1.24,0.19l-0.41,1.56h-1.79
	L269.59,131.45z"/>
<path class="st0" d="M293.08,91.85h2.28l-1.22,4.67h0.99l0.27-5.39h2.37l-0.75,8.1h-2.05l0.11-1.75l-1.24,0.19l-0.41,1.56h-1.79
	L293.08,91.85z"/>
<path class="st0" d="M301.84,91.39l-1.11,6.47l1.93,0.04l-0.23,1.32h-3.86l0.95-7.83H301.84z"/>
<path class="st0" d="M306.66,91.53l-1.32,7.69h-1.96l0.89-7.69H306.66z"/>
<path class="st0" d="M308.15,91.85h2.28l-1.22,4.67h0.99l0.27-5.39h2.37l-0.75,8.1h-2.05l0.11-1.75l-1.24,0.19l-0.41,1.56h-1.79
	L308.15,91.85z"/>
<path class="st0" d="M314.31,91.85h2.99l0.44,5.7h0.02l0.63-6.42l1.97,0.26l-1.32,7.82l-2.38,0.21l-0.48-5.48h-0.02l-0.78,5.28
	h-1.68L314.31,91.85z"/>
<path class="st0" d="M321.45,92.55h2.29l-1.14,6.67h-1.96L321.45,92.55z M322.67,99.22c0.73-1.07,2.08-3.07,2.08-5.01
	c0-1.31-1.06-1.99-2.43-2.68l2.4-0.54c0.89,0.47,2.43,1.4,2.43,2.99c0,1.89-1.38,3.88-2.31,5.24H322.67z"/>
<path class="st0" d="M328.93,91.85h2.28l-1.22,4.67h0.99l0.27-5.39h2.37l-0.75,8.1h-2.05l0.11-1.75l-1.24,0.19l-0.41,1.56h-1.79
	L328.93,91.85z"/>
<path class="st0" d="M335.12,91.85h3.07l-0.04,5.6h0.02l1.61-6.33l2.99,0.26l-1.33,7.83h-1.82l0.75-5.88h-0.02l-1.58,5.88l-1.73,0.2
	l-0.02-5.76h-0.02l-0.85,5.57h-1.67L335.12,91.85z"/>
<path class="st0" d="M343.18,97.19h2.06l-0.71,3.04h-1.85L343.18,97.19z"/>
<path class="st0" d="M351.73,99.22h-3.76c-0.01-0.05-0.02-0.13-0.02-0.26c0-1.25,0.21-3.72,0.73-5.4l1.72-0.44v-0.02l-2.05,0.07
	l0.44-1.77h4.27L352.79,93l-1.83,0.07l-0.32,1.74h1.84l-0.22,1.28l-1.88,0.09l-0.29,1.66l1.86,0.09L351.73,99.22z"/>
<path class="st0" d="M355.67,97.36l-1.13,1.86h-1.61l2.09-3.67l-1.38-3.7h2.27l0.55,1.53l1.21-2.25h1.95l-2.5,4.16l1.35,3.94h-2.12
	L355.67,97.36z"/>
<path class="st0" d="M360.28,92.24h2.28l-1.21,6.97h-1.9L360.28,92.24z M363.96,90.85c1.17,0.74,1.67,1.2,1.67,2.12
	c0,1.17-0.92,2.79-1.65,4.06h-2.18c0.83-1.36,1.5-2.5,1.5-3.65c0-0.9-0.67-1.3-2.06-1.99L363.96,90.85z"/>
<path class="st0" d="M369.87,99.22h-3.76c-0.01-0.05-0.02-0.13-0.02-0.26c0-1.25,0.21-3.72,0.73-5.4l1.72-0.44v-0.02l-2.05,0.07
	l0.44-1.77h4.27L370.92,93l-1.83,0.07l-0.32,1.74h1.84l-0.22,1.28l-1.88,0.09l-0.29,1.66l1.86,0.09L369.87,99.22z"/>
<path class="st0" d="M372.3,92.24h2.28l-1.21,6.97h-1.9L372.3,92.24z M375.99,90.85c1.26,0.67,1.96,1.44,1.96,2.37
	c0,0.81-0.47,1.65-1.26,2.5l-0.83,0.89l1.42,2.62h-2.39l-1-2.41l1.12-1.96c0.26-0.45,0.54-1.18,0.54-1.45
	c0-0.47-0.35-0.95-1.04-1.38l-1.23-0.64L375.99,90.85z"/>
<path class="st0" d="M381.67,91.53l-1.32,7.69h-1.96l0.89-7.69H381.67z"/>
<path class="st0" d="M386.75,90.99c0.96,0.88,1.55,1.89,1.55,3.05c0,1.62-0.9,3.55-2.15,5.18h-3.11c-0.44-0.77-0.99-1.78-0.99-2.84
	c0-1.36,0.59-2.72,1.26-3.83h1.94c-0.5-0.48-0.86-0.81-1.33-1.17L386.75,90.99z M385.35,92.61c-0.11,0.29-0.96,2.12-0.96,3.98
	c0,0.45,0.07,1.33,0.3,2.1c0.78-1.53,1.22-2.95,1.22-4.37C385.91,93.52,385.65,93.05,385.35,92.61z"/>
<path class="st0" d="M389.06,97.19h2.06l-0.35,2.02h-2.05L389.06,97.19z"/>
<path class="st0" d="M394.45,91.85h2.99l0.44,5.7h0.02l0.63-6.42l1.97,0.26l-1.32,7.82l-2.38,0.21l-0.48-5.48h-0.02l-0.78,5.28
	h-1.68L394.45,91.85z"/>
<path class="st0" d="M404.75,99.22h-3.76c-0.01-0.05-0.02-0.13-0.02-0.26c0-1.25,0.21-3.72,0.73-5.4l1.72-0.44v-0.02l-2.05,0.07
	l0.44-1.77h4.27L405.81,93l-1.83,0.07l-0.32,1.74h1.84l-0.22,1.28l-1.88,0.09l-0.29,1.66l1.86,0.09L404.75,99.22z"/>
<path class="st0" d="M407.11,91.85h3.07l-0.04,5.6h0.02l1.61-6.33l2.99,0.26l-1.33,7.83h-1.82l0.75-5.88h-0.02l-1.58,5.88l-1.73,0.2
	l-0.02-5.76h-0.02l-0.85,5.57h-1.67L407.11,91.85z"/>
<path class="st0" d="M418.3,92.55c-0.5-0.48-0.86-0.81-1.33-1.17l2.83-0.4c0.96,0.88,1.55,1.89,1.55,3.05c0,1.8-0.89,3.38-1.54,4.53
	h-1.81c0.41,0.5,1.53,1.27,2.1,1.53h-3.04c-1.14-0.84-1.96-2.02-1.96-3.72c0-1.36,0.59-2.72,1.26-3.83H418.3z M417.99,98.51
	c0.75-1.46,0.96-2.89,0.96-3.94c0-0.84-0.19-1.42-0.55-1.95c-0.14,0.3-0.97,2.27-0.97,3.75C417.43,97.03,417.53,97.76,417.99,98.51z
	"/>
<path class="st0" d="M427.21,99.22h-3.87c-0.62-0.5-1.13-1.02-1.13-2.15c0-0.34,0.02-0.51,0.15-1.51l0.57-3.72h2.2l-0.72,4.16
	c-0.08,0.43-0.12,0.75-0.12,1.06c0,0.77,0.5,1.47,0.99,1.89l0.92-7.66h2.35L427.21,99.22z"/>
<path class="st0" d="M432.24,91.53l-1.32,7.69h-1.96l0.89-7.69H432.24z"/>
<path class="st0" d="M435.2,91.85h2.28l-1.22,4.67h0.99l0.27-5.39h2.37l-0.75,8.1h-2.05l0.11-1.75l-1.24,0.19l-0.41,1.56h-1.79
	L435.2,91.85z"/>
<path class="st0" d="M441.46,92.24h2.28l-1.21,6.97h-1.9L441.46,92.24z M445.14,90.85c1.17,0.74,1.67,1.2,1.67,2.12
	c0,1.17-0.92,2.79-1.65,4.06h-2.18c0.83-1.36,1.5-2.5,1.5-3.65c0-0.9-0.67-1.3-2.06-1.99L445.14,90.85z"/>
<path class="st0" d="M451.05,99.22h-3.76c-0.01-0.05-0.02-0.13-0.02-0.26c0-1.25,0.21-3.72,0.73-5.4l1.72-0.44v-0.02l-2.05,0.07
	l0.44-1.77h4.27L452.1,93l-1.83,0.07l-0.32,1.74h1.84l-0.22,1.28l-1.88,0.09l-0.29,1.66l1.86,0.09L451.05,99.22z"/>
<path class="st0" d="M453.39,92.55h2.29l-1.14,6.67h-1.96L453.39,92.55z M454.61,99.22c0.73-1.07,2.08-3.07,2.08-5.01
	c0-1.31-1.06-1.99-2.43-2.68l2.4-0.54c0.89,0.47,2.43,1.4,2.43,2.99c0,1.89-1.38,3.88-2.31,5.24H454.61z"/>
<path class="st0" d="M466.43,99.22h-3.87c-0.62-0.5-1.13-1.02-1.13-2.15c0-0.34,0.02-0.51,0.15-1.51l0.57-3.72h2.2l-0.72,4.16
	c-0.08,0.43-0.12,0.75-0.12,1.06c0,0.77,0.5,1.47,0.99,1.89l0.92-7.66h2.35L466.43,99.22z"/>
<path class="st0" d="M469.75,93.56l1.75-0.41v-0.02l-3.06,0.11l0.24-1.86h4.81l-0.3,1.72l-1.11,0.04l-1.04,6.07h-1.97L469.75,93.56z
	"/>
<path class="st0" d="M478.14,92.55c-0.5-0.48-0.86-0.81-1.33-1.17l2.83-0.4c0.96,0.88,1.55,1.89,1.55,3.05
	c0,1.8-0.89,3.38-1.54,4.53h-1.81c0.41,0.5,1.53,1.27,2.1,1.53h-3.04c-1.14-0.84-1.96-2.02-1.96-3.72c0-1.36,0.59-2.72,1.26-3.83
	H478.14z M477.83,98.51c0.75-1.46,0.96-2.89,0.96-3.94c0-0.84-0.19-1.42-0.55-1.95c-0.14,0.3-0.97,2.27-0.97,3.75
	C477.27,97.03,477.37,97.76,477.83,98.51z"/>
<path class="st0" d="M487.05,99.22h-3.87c-0.62-0.5-1.13-1.02-1.13-2.15c0-0.34,0.02-0.51,0.15-1.51l0.57-3.72h2.2l-0.72,4.16
	c-0.08,0.43-0.12,0.75-0.12,1.06c0,0.77,0.5,1.47,0.99,1.89l0.92-7.66h2.35L487.05,99.22z"/>
<path class="st0" d="M493.5,90.99c0.96,0.88,1.55,1.89,1.55,3.05c0,1.62-0.9,3.55-2.15,5.18h-3.11c-0.44-0.77-0.99-1.78-0.99-2.84
	c0-1.36,0.59-2.72,1.26-3.83H492c-0.5-0.48-0.86-0.81-1.33-1.17L493.5,90.99z M492.09,92.61c-0.11,0.29-0.96,2.12-0.96,3.98
	c0,0.45,0.07,1.33,0.3,2.1c0.78-1.53,1.22-2.95,1.22-4.37C492.65,93.52,492.4,93.05,492.09,92.61z"/>
<path class="st0" d="M497.95,92.55h2.29l-1.14,6.67h-1.96L497.95,92.55z M499.17,99.22c0.73-1.07,2.08-3.07,2.08-5.01
	c0-1.31-1.06-1.99-2.43-2.68l2.4-0.54c0.89,0.47,2.43,1.4,2.43,2.99c0,1.89-1.38,3.88-2.31,5.24H499.17z"/>
<path class="st0" d="M508.24,99.22h-3.76c-0.01-0.05-0.02-0.13-0.02-0.26c0-1.25,0.21-3.72,0.73-5.4l1.72-0.44v-0.02l-2.05,0.07
	l0.44-1.77h4.27L509.29,93l-1.83,0.07l-0.32,1.74h1.84l-0.22,1.28l-1.88,0.09l-0.29,1.66l1.86,0.09L508.24,99.22z"/>
<path class="st0" d="M510.57,91.85h2.99l0.44,5.7h0.02l0.63-6.42l1.97,0.26l-1.32,7.82l-2.38,0.21l-0.48-5.48h-0.02l-0.78,5.28
	h-1.68L510.57,91.85z"/>
<path class="st0" d="M518.53,93.56l1.75-0.41v-0.02l-3.06,0.11l0.24-1.86h4.81l-0.3,1.72l-1.11,0.04l-1.04,6.07h-1.97L518.53,93.56z
	"/>
<path class="st0" d="M526.91,92.55c-0.5-0.48-0.86-0.81-1.33-1.17l2.83-0.4c0.96,0.88,1.55,1.89,1.55,3.05
	c0,1.8-0.89,3.38-1.54,4.53h-1.81c0.41,0.5,1.53,1.27,2.1,1.53h-3.04c-1.14-0.84-1.96-2.02-1.96-3.72c0-1.36,0.59-2.72,1.26-3.83
	H526.91z M526.61,98.51c0.75-1.46,0.96-2.89,0.96-3.94c0-0.84-0.19-1.42-0.55-1.95c-0.14,0.3-0.97,2.27-0.97,3.75
	C526.05,97.03,526.14,97.76,526.61,98.51z"/>
<path class="st0" d="M535.82,99.22h-3.87c-0.62-0.5-1.13-1.02-1.13-2.15c0-0.34,0.02-0.51,0.15-1.51l0.57-3.72h2.2l-0.72,4.16
	c-0.08,0.43-0.12,0.75-0.12,1.06c0,0.77,0.5,1.47,0.99,1.89l0.92-7.66h2.35L535.82,99.22z"/>
<path class="st0" d="M538.67,91.85h2.28l-1.22,4.67h0.99l0.27-5.39h2.37l-0.75,8.1h-2.05l0.11-1.75l-1.24,0.19l-0.41,1.56h-1.79
	L538.67,91.85z"/>
<path class="st0" d="M544.86,91.85h3.07l-0.04,5.6h0.02l1.61-6.33l2.99,0.26l-1.33,7.83h-1.82l0.75-5.88h-0.02l-1.58,5.88l-1.73,0.2
	l-0.02-5.76h-0.02l-0.85,5.57h-1.67L544.86,91.85z"/>
<path class="st0" d="M295.88,112.42h-3.76c-0.01-0.05-0.02-0.13-0.02-0.26c0-1.25,0.21-3.72,0.73-5.4l1.72-0.44v-0.02l-2.05,0.07
	l0.44-1.77h4.27l-0.26,1.62l-1.83,0.07l-0.32,1.74h1.84l-0.22,1.28l-1.88,0.09l-0.29,1.66l1.86,0.09L295.88,112.42z"/>
<path class="st0" d="M299.05,106.76l1.75-0.41v-0.02l-3.06,0.11l0.24-1.86h4.81l-0.3,1.72l-1.11,0.04l-1.04,6.07h-1.97
	L299.05,106.76z"/>
<path class="st0" d="M312.42,104.19c0.96,0.88,1.55,1.89,1.55,3.05c0,1.62-0.9,3.55-2.15,5.18h-3.11c-0.44-0.77-0.99-1.78-0.99-2.84
	c0-1.36,0.59-2.72,1.26-3.83h1.94c-0.5-0.48-0.86-0.81-1.33-1.17L312.42,104.19z M311.01,105.81c-0.11,0.29-0.96,2.12-0.96,3.98
	c0,0.45,0.07,1.33,0.3,2.1c0.78-1.53,1.22-2.95,1.22-4.37C311.57,106.72,311.32,106.25,311.01,105.81z"/>
<path class="st0" d="M315.49,105.44h2.28l-1.21,6.97h-1.9L315.49,105.44z M319.17,104.05c1.17,0.74,1.67,1.2,1.67,2.12
	c0,1.17-0.92,2.79-1.65,4.06h-2.18c0.83-1.36,1.5-2.5,1.5-3.65c0-0.9-0.67-1.3-2.06-1.99L319.17,104.05z"/>
<path class="st0" d="M322.75,106.76l1.75-0.41v-0.02l-3.06,0.11l0.24-1.86h4.81l-0.3,1.72l-1.11,0.04l-1.04,6.07h-1.97
	L322.75,106.76z"/>
<path class="st0" d="M327.37,105.05h2.28l-1.22,4.67h0.99l0.27-5.39h2.37l-0.75,8.1h-2.05l0.11-1.75l-1.24,0.19l-0.41,1.56h-1.79
	L327.37,105.05z"/>
<path class="st0" d="M334.17,106.76l1.75-0.41v-0.02l-3.06,0.11l0.24-1.86h4.81l-0.3,1.72l-1.11,0.04l-1.04,6.07h-1.97
	L334.17,106.76z"/>
<path class="st0" d="M340.98,104.73l-1.32,7.69h-1.96l0.89-7.69H340.98z"/>
<path class="st0" d="M346.07,104.19c0.96,0.88,1.55,1.89,1.55,3.05c0,1.62-0.9,3.55-2.15,5.18h-3.11c-0.44-0.77-0.99-1.78-0.99-2.84
	c0-1.36,0.59-2.72,1.26-3.83h1.94c-0.5-0.48-0.86-0.81-1.33-1.17L346.07,104.19z M344.66,105.81c-0.11,0.29-0.96,2.12-0.96,3.98
	c0,0.45,0.07,1.33,0.3,2.1c0.78-1.53,1.22-2.95,1.22-4.37C345.22,106.72,344.97,106.25,344.66,105.81z"/>
<path class="st0" d="M349.04,105.05h2.99l0.44,5.7h0.02l0.63-6.42l1.97,0.26l-1.32,7.82l-2.38,0.21l-0.48-5.48h-0.02l-0.78,5.28
	h-1.68L349.04,105.05z"/>
<path class="st0" d="M364.28,112.42h-3.76c-0.01-0.05-0.02-0.13-0.02-0.26c0-1.25,0.21-3.72,0.73-5.4l1.72-0.44v-0.02l-2.05,0.07
	l0.44-1.77h4.27l-0.26,1.62l-1.83,0.07l-0.32,1.74h1.84l-0.22,1.28l-1.88,0.09l-0.29,1.66l1.86,0.09L364.28,112.42z"/>
<path class="st0" d="M371.06,112.42h-3.87c-0.62-0.5-1.13-1.02-1.13-2.15c0-0.34,0.02-0.51,0.15-1.51l0.57-3.72h2.2l-0.72,4.16
	c-0.08,0.43-0.12,0.75-0.12,1.06c0,0.77,0.5,1.47,0.99,1.89l0.92-7.66h2.35L371.06,112.42z"/>
<path class="st0" d="M373.58,105.05h3.07l-0.04,5.6h0.02l1.61-6.33l2.99,0.26l-1.33,7.83h-1.82l0.75-5.88h-0.02l-1.58,5.88
	l-1.73,0.2l-0.02-5.76h-0.02l-0.85,5.57h-1.67L373.58,105.05z"/>
<path class="st0" d="M389.71,105.75c-0.5-0.48-0.86-0.81-1.33-1.17l2.83-0.4c0.96,0.88,1.55,1.89,1.55,3.05
	c0,1.8-0.89,3.38-1.54,4.53h-1.81c0.41,0.5,1.53,1.27,2.1,1.53h-3.04c-1.14-0.84-1.96-2.02-1.96-3.72c0-1.36,0.59-2.72,1.26-3.83
	H389.71z M389.41,111.71c0.75-1.46,0.96-2.89,0.96-3.94c0-0.84-0.19-1.42-0.55-1.95c-0.14,0.3-0.97,2.27-0.97,3.75
	C388.84,110.23,388.94,110.95,389.41,111.71z"/>
<path class="st0" d="M398.62,112.42h-3.87c-0.62-0.5-1.13-1.02-1.13-2.15c0-0.34,0.02-0.51,0.15-1.51l0.57-3.72h2.2l-0.72,4.16
	c-0.08,0.43-0.12,0.75-0.12,1.06c0,0.77,0.5,1.47,0.99,1.89l0.92-7.66h2.35L398.62,112.42z"/>
<path class="st0" d="M404.28,112.42h-3.76c-0.01-0.05-0.02-0.13-0.02-0.26c0-1.25,0.21-3.72,0.73-5.4l1.72-0.44v-0.02l-2.05,0.07
	l0.44-1.77h4.27l-0.26,1.62l-1.83,0.07l-0.32,1.74h1.84l-0.22,1.28l-1.88,0.09l-0.29,1.66l1.86,0.09L404.28,112.42z"/>
<path class="st0" d="M415.52,104.19c0.96,0.88,1.55,1.89,1.55,3.05c0,1.62-0.9,3.55-2.15,5.18h-3.11c-0.44-0.77-0.99-1.78-0.99-2.84
	c0-1.36,0.59-2.72,1.26-3.83h1.94c-0.5-0.48-0.86-0.81-1.33-1.17L415.52,104.19z M414.11,105.81c-0.11,0.29-0.96,2.12-0.96,3.98
	c0,0.45,0.07,1.33,0.3,2.1c0.78-1.53,1.22-2.95,1.22-4.37C414.67,106.72,414.42,106.25,414.11,105.81z"/>
<path class="st0" d="M418.52,105.05h3.07l-0.04,5.6h0.02l1.61-6.33l2.99,0.26l-1.33,7.83h-1.82l0.75-5.88h-0.02l-1.58,5.88
	l-1.73,0.2l-0.02-5.76h-0.02l-0.85,5.57h-1.67L418.52,105.05z"/>
<path class="st0" d="M427.24,105.05h2.99l0.44,5.7h0.02l0.63-6.42l1.97,0.26l-1.32,7.82l-2.38,0.21l-0.48-5.48h-0.02l-0.78,5.28
	h-1.68L427.24,105.05z"/>
<path class="st0" d="M436.91,104.73l-1.32,7.69h-1.96l0.89-7.69H436.91z"/>
<path class="st0" d="M438.07,105.05h3.07l-0.04,5.6h0.02l1.61-6.33l2.99,0.26l-1.33,7.83h-1.82l0.75-5.88h-0.02l-1.58,5.88
	l-1.73,0.2l-0.02-5.76h-0.02l-0.85,5.57h-1.67L438.07,105.05z"/>
<path class="st0" d="M452.1,105.05h2.28l-1.22,4.67h0.99l0.27-5.39h2.37l-0.75,8.1H454l0.11-1.75l-1.24,0.19l-0.41,1.56h-1.79
	L452.1,105.05z"/>
<path class="st0" d="M462.71,112.42h-3.87c-0.62-0.5-1.13-1.02-1.13-2.15c0-0.34,0.02-0.51,0.15-1.51l0.57-3.72h2.2l-0.72,4.16
	c-0.08,0.43-0.12,0.75-0.12,1.06c0,0.77,0.5,1.47,0.99,1.89l0.92-7.66h2.35L462.71,112.42z"/>
<path class="st0" d="M466.03,106.76l1.75-0.41v-0.02l-3.06,0.11l0.24-1.86h4.81l-0.3,1.72l-1.11,0.04l-1.04,6.07h-1.97
	L466.03,106.76z"/>
<path class="st0" d="M478.6,112.42h-3.76c-0.01-0.05-0.02-0.13-0.02-0.26c0-1.25,0.21-3.72,0.73-5.4l1.72-0.44v-0.02l-2.05,0.07
	l0.44-1.77h4.27l-0.26,1.62l-1.83,0.07l-0.32,1.74h1.84l-0.22,1.28l-1.88,0.09l-0.29,1.66l1.86,0.09L478.6,112.42z"/>
<path class="st0" d="M483.75,105.05c-0.24,0.38-0.78,1.29-0.78,1.93c0,1.2,1.68,1.58,1.68,2.86c0,1.07-1.44,2.5-1.54,2.58h-3.07
	l0.7-0.64c0.83-0.75,1.31-1.28,1.31-1.8c0-0.81-1.55-1.31-1.55-2.63c0-0.73,0.38-1.4,0.9-2.3H483.75z M485.93,104.32l-0.57,2.88
	h-1.86l0.45-2.88H485.93z"/>
<path class="st0" d="M489.81,112.42h-3.76c-0.01-0.05-0.02-0.13-0.02-0.26c0-1.25,0.21-3.72,0.73-5.4l1.72-0.44v-0.02l-2.05,0.07
	l0.44-1.77h4.27l-0.26,1.62l-1.83,0.07l-0.32,1.74h1.84l-0.22,1.28l-1.88,0.09l-0.29,1.66l1.86,0.09L489.81,112.42z"/>
<path class="st0" d="M499.91,105.05c-0.24,0.38-0.78,1.29-0.78,1.93c0,1.2,1.68,1.58,1.68,2.86c0,1.07-1.44,2.5-1.54,2.58h-3.07
	l0.7-0.64c0.83-0.75,1.31-1.28,1.31-1.8c0-0.81-1.55-1.31-1.55-2.63c0-0.73,0.38-1.4,0.9-2.3H499.91z M502.09,104.32l-0.57,2.88
	h-1.86l0.45-2.88H502.09z"/>
<path class="st0" d="M506.76,104.19c0.96,0.88,1.55,1.89,1.55,3.05c0,1.62-0.9,3.55-2.15,5.18h-3.11c-0.44-0.77-0.99-1.78-0.99-2.84
	c0-1.36,0.59-2.72,1.26-3.83h1.94c-0.5-0.48-0.86-0.81-1.33-1.17L506.76,104.19z M505.35,105.81c-0.11,0.29-0.96,2.12-0.96,3.98
	c0,0.45,0.07,1.33,0.3,2.1c0.78-1.53,1.22-2.95,1.22-4.37C505.92,106.72,505.66,106.25,505.35,105.81z"/>
<path class="st0" d="M512.33,104.58l-1.11,6.47l1.93,0.04l-0.23,1.32h-3.86l0.95-7.83H512.33z"/>
<path class="st0" d="M517.78,112.42h-3.76c-0.01-0.05-0.02-0.13-0.02-0.26c0-1.25,0.21-3.72,0.73-5.4l1.72-0.44v-0.02l-2.05,0.07
	l0.44-1.77h4.27l-0.26,1.62l-1.83,0.07l-0.32,1.74h1.84l-0.22,1.28l-1.88,0.09l-0.29,1.66l1.86,0.09L517.78,112.42z"/>
<path class="st0" d="M522.93,105.05c-0.24,0.38-0.78,1.29-0.78,1.93c0,1.2,1.68,1.58,1.68,2.86c0,1.07-1.44,2.5-1.54,2.58h-3.07
	l0.7-0.64c0.83-0.75,1.31-1.28,1.31-1.8c0-0.81-1.55-1.31-1.55-2.63c0-0.73,0.38-1.4,0.9-2.3H522.93z M525.11,104.32l-0.57,2.88
	h-1.86l0.45-2.88H525.11z"/>
<path class="st0" d="M526.66,106.76l1.75-0.41v-0.02l-3.06,0.11l0.24-1.86h4.81l-0.3,1.72l-1.11,0.04l-1.04,6.07h-1.97
	L526.66,106.76z"/>
<path class="st0" d="M531.02,105.44h2.28l-1.21,6.97h-1.9L531.02,105.44z M534.7,104.05c1.26,0.67,1.96,1.44,1.96,2.37
	c0,0.81-0.47,1.65-1.26,2.5l-0.83,0.89l1.42,2.62h-2.39l-1-2.41l1.12-1.96c0.26-0.45,0.54-1.18,0.54-1.45
	c0-0.47-0.35-0.95-1.04-1.38l-1.23-0.64L534.7,104.05z"/>
<path class="st0" d="M542.29,112.42h-3.87c-0.62-0.5-1.13-1.02-1.13-2.15c0-0.34,0.02-0.51,0.15-1.51l0.57-3.72h2.2l-0.72,4.16
	c-0.08,0.43-0.12,0.75-0.12,1.06c0,0.77,0.5,1.47,0.99,1.89l0.92-7.66h2.35L542.29,112.42z"/>
<path class="st0" d="M544.81,105.05h3.07l-0.04,5.6h0.02l1.61-6.33l2.99,0.26l-1.33,7.83h-1.82l0.75-5.88h-0.02l-1.58,5.88
	l-1.73,0.2l-0.02-5.76h-0.02l-0.85,5.57h-1.67L544.81,105.05z"/>
<path class="st0" d="M293.08,118.25h2.28l-1.22,4.67h0.99l0.27-5.39h2.37l-0.75,8.1h-2.05l0.11-1.75l-1.24,0.19l-0.41,1.56h-1.79
	L293.08,118.25z"/>
<path class="st0" d="M303.68,125.62h-3.87c-0.62-0.5-1.13-1.02-1.13-2.15c0-0.34,0.02-0.51,0.15-1.51l0.57-3.72h2.2l-0.72,4.16
	c-0.08,0.43-0.12,0.75-0.12,1.06c0,0.77,0.5,1.47,0.99,1.89l0.92-7.66h2.35L303.68,125.62z"/>
<path class="st0" d="M307.01,119.96l1.75-0.41v-0.02l-3.06,0.11l0.24-1.86h4.81l-0.3,1.72l-1.11,0.04l-1.04,6.07h-1.97
	L307.01,119.96z"/>
<path class="st0" d="M314.44,125.62h-3.76c-0.01-0.05-0.02-0.13-0.02-0.26c0-1.25,0.21-3.72,0.73-5.4l1.72-0.44v-0.02l-2.05,0.07
	l0.44-1.77h4.27l-0.26,1.62l-1.83,0.07l-0.32,1.74h1.84l-0.22,1.28l-1.88,0.09l-0.29,1.66l1.86,0.09L314.44,125.62z"/>
<path class="st0" d="M319.59,118.25c-0.24,0.38-0.78,1.29-0.78,1.93c0,1.2,1.68,1.58,1.68,2.86c0,1.07-1.44,2.5-1.54,2.58h-3.07
	l0.7-0.64c0.83-0.75,1.31-1.28,1.31-1.8c0-0.81-1.55-1.31-1.55-2.63c0-0.73,0.38-1.4,0.9-2.3H319.59z M321.77,117.52l-0.57,2.88
	h-1.86l0.45-2.88H321.77z"/>
<path class="st0" d="M328.3,118.95h2.29l-1.14,6.67h-1.96L328.3,118.95z M329.52,125.62c0.73-1.07,2.08-3.07,2.08-5.01
	c0-1.31-1.06-1.99-2.43-2.68l2.4-0.54c0.89,0.47,2.43,1.4,2.43,2.99c0,1.89-1.38,3.88-2.31,5.24H329.52z"/>
<path class="st0" d="M339.38,117.39c0.96,0.88,1.55,1.89,1.55,3.05c0,1.62-0.9,3.55-2.15,5.18h-3.11c-0.44-0.77-0.99-1.78-0.99-2.84
	c0-1.36,0.59-2.72,1.26-3.83h1.94c-0.5-0.48-0.86-0.81-1.33-1.17L339.38,117.39z M337.97,119.01c-0.11,0.29-0.96,2.12-0.96,3.98
	c0,0.45,0.07,1.33,0.3,2.1c0.78-1.53,1.22-2.95,1.22-4.37C338.53,119.92,338.28,119.45,337.97,119.01z"/>
<path class="st0" d="M344.94,117.78l-1.11,6.47l1.93,0.04l-0.23,1.32h-3.86l0.95-7.83H344.94z"/>
<path class="st0" d="M351.68,125.62h-3.87c-0.62-0.5-1.13-1.02-1.13-2.15c0-0.34,0.02-0.51,0.15-1.51l0.57-3.72h2.2l-0.72,4.16
	c-0.08,0.43-0.12,0.75-0.12,1.06c0,0.77,0.5,1.47,0.99,1.89l0.92-7.66h2.35L351.68,125.62z"/>
<path class="st0" d="M354.26,118.64h2.28l-1.21,6.97h-1.9L354.26,118.64z M357.95,117.25c1.17,0.74,1.67,1.2,1.67,2.12
	c0,1.17-0.92,2.79-1.65,4.06h-2.18c0.83-1.36,1.5-2.5,1.5-3.65c0-0.9-0.67-1.3-2.06-1.99L357.95,117.25z"/>
<path class="st0" d="M361.52,119.96l1.75-0.41v-0.02l-3.06,0.11l0.24-1.86h4.81l-0.3,1.72l-1.11,0.04l-1.04,6.07h-1.97
	L361.52,119.96z"/>
<path class="st0" d="M366.15,118.25h2.28l-1.22,4.67h0.99l0.27-5.39h2.37l-0.75,8.1h-2.05l0.11-1.75l-1.24,0.19l-0.41,1.56h-1.79
	L366.15,118.25z"/>
<path class="st0" d="M375.13,118.25c-0.24,0.38-0.78,1.29-0.78,1.93c0,1.2,1.68,1.58,1.68,2.86c0,1.07-1.44,2.5-1.54,2.58h-3.07
	l0.7-0.64c0.83-0.75,1.31-1.28,1.31-1.8c0-0.81-1.55-1.31-1.55-2.63c0-0.73,0.38-1.4,0.9-2.3H375.13z M377.31,117.52l-0.57,2.88
	h-1.86l0.45-2.88H377.31z"/>
<path class="st0" d="M380.84,118.25c-0.24,0.38-0.78,1.29-0.78,1.93c0,1.2,1.68,1.58,1.68,2.86c0,1.07-1.44,2.5-1.54,2.58h-3.07
	l0.7-0.64c0.83-0.75,1.31-1.28,1.31-1.8c0-0.81-1.55-1.31-1.55-2.63c0-0.73,0.38-1.4,0.9-2.3H380.84z M383.01,117.52l-0.57,2.88
	h-1.86l0.45-2.88H383.01z"/>
<path class="st0" d="M388.17,125.62h-3.87c-0.62-0.5-1.13-1.02-1.13-2.15c0-0.34,0.02-0.51,0.15-1.51l0.57-3.72h2.2l-0.72,4.16
	c-0.08,0.43-0.12,0.75-0.12,1.06c0,0.77,0.5,1.47,0.99,1.89l0.92-7.66h2.35L388.17,125.62z"/>
<path class="st0" d="M390.69,118.25h3.07l-0.04,5.6h0.02l1.61-6.33l2.99,0.26l-1.33,7.83h-1.82l0.75-5.88h-0.02l-1.58,5.88
	l-1.73,0.2l-0.02-5.76h-0.02l-0.85,5.57h-1.67L390.69,118.25z"/>
<path class="st0" d="M405.26,119.94l1.76-0.43v-0.02l-2.01,0.07l0.44-1.77h4.27l-0.26,1.62l-1.83,0.07l-0.42,2.07h1.85l-0.23,1.28
	l-1.87,0.13l-0.48,2.67h-1.98L405.26,119.94z"/>
<path class="st0" d="M410.78,118.25h2.28l-1.22,4.67h0.99l0.27-5.39h2.37l-0.75,8.1h-2.05l0.11-1.75l-1.24,0.19l-0.41,1.56h-1.79
	L410.78,118.25z"/>
<path class="st0" d="M420.14,118.44h-0.02c-0.81,1.59-1.4,2.86-1.4,4.05c0,1.12,1.21,2.35,2.37,3.12h-2.88
	c-1.44-1.32-1.88-2.04-1.88-3.12c0-1.21,0.57-2.53,1.58-4.25h2.27l0.13-0.73h2.04l-0.71,4.04h-2.07L420.14,118.44z"/>
<path class="st0" d="M426.42,125.62h-3.76c-0.01-0.05-0.02-0.13-0.02-0.26c0-1.25,0.21-3.72,0.73-5.4l1.72-0.44v-0.02l-2.05,0.07
	l0.44-1.77h4.27l-0.26,1.62l-1.83,0.07l-0.32,1.74h1.84l-0.22,1.28l-1.88,0.09l-0.29,1.66l1.86,0.09L426.42,125.62z"/>
<path class="st0" d="M428.85,118.64h2.28l-1.21,6.97h-1.9L428.85,118.64z M432.54,117.25c1.17,0.74,1.67,1.2,1.67,2.12
	c0,1.17-0.92,2.79-1.65,4.06h-2.18c0.83-1.36,1.5-2.5,1.5-3.65c0-0.9-0.67-1.3-2.06-1.99L432.54,117.25z"/>
<path class="st0" d="M436.11,119.96l1.75-0.41v-0.02l-3.06,0.11l0.24-1.86h4.81l-0.3,1.72l-1.11,0.04l-1.04,6.07h-1.97
	L436.11,119.96z"/>
<path class="st0" d="M440.74,118.25h2.28l-1.22,4.67h0.99l0.27-5.39h2.37l-0.75,8.1h-2.05l0.11-1.75l-1.24,0.19l-0.41,1.56h-1.79
	L440.74,118.25z"/>
<path class="st0" d="M447.55,119.96l1.75-0.41v-0.02l-3.06,0.11l0.24-1.86h4.81l-0.3,1.72l-1.11,0.04l-1.04,6.07h-1.97
	L447.55,119.96z"/>
<path class="st0" d="M460.98,125.62h-3.76c-0.01-0.05-0.02-0.13-0.02-0.26c0-1.25,0.21-3.72,0.73-5.4l1.72-0.44v-0.02l-2.05,0.07
	l0.44-1.77h4.27l-0.26,1.62l-1.83,0.07l-0.32,1.74h1.84l-0.22,1.28l-1.88,0.09l-0.29,1.66l1.86,0.09L460.98,125.62z"/>
<path class="st0" d="M463.67,118.25h2.28l-1.22,4.67h0.99l0.27-5.39h2.37l-0.75,8.1h-2.05l0.11-1.75l-1.24,0.19l-0.41,1.56h-1.79
	L463.67,118.25z"/>
<path class="st0" d="M478.84,118.44h-0.02c-0.81,1.59-1.4,2.86-1.4,4.05c0,1.12,1.21,2.35,2.37,3.12h-2.88
	c-1.44-1.32-1.88-2.04-1.88-3.12c0-1.21,0.57-2.53,1.58-4.25h2.27l0.13-0.73h2.04l-0.71,4.04h-2.07L478.84,118.44z"/>
<path class="st0" d="M486.4,125.62h-3.87c-0.62-0.5-1.13-1.02-1.13-2.15c0-0.34,0.02-0.51,0.15-1.51l0.57-3.72h2.2l-0.72,4.16
	c-0.08,0.43-0.12,0.75-0.12,1.06c0,0.77,0.5,1.47,0.99,1.89l0.92-7.66h2.35L486.4,125.62z"/>
<path class="st0" d="M488.99,118.64h2.28l-1.21,6.97h-1.9L488.99,118.64z M492.67,117.25c1.17,0.74,1.67,1.2,1.67,2.12
	c0,1.17-0.92,2.79-1.65,4.06h-2.18c0.83-1.36,1.5-2.5,1.5-3.65c0-0.9-0.67-1.3-2.06-1.99L492.67,117.25z"/>
<path class="st0" d="M496.25,119.96l1.75-0.41v-0.02l-3.06,0.11l0.24-1.86h4.81l-0.3,1.72l-1.11,0.04l-1.04,6.07h-1.97
	L496.25,119.96z"/>
<path class="st0" d="M500.88,118.25h2.28l-1.22,4.67h0.99l0.27-5.39h2.37l-0.75,8.1h-2.05l0.11-1.75l-1.24,0.19l-0.41,1.56h-1.79
	L500.88,118.25z"/>
<path class="st0" d="M507.69,119.96l1.75-0.41v-0.02l-3.06,0.11l0.24-1.86h4.81l-0.3,1.72l-1.11,0.04l-1.04,6.07H507L507.69,119.96z
	"/>
<path class="st0" d="M515.11,125.62h-3.76c-0.01-0.05-0.02-0.13-0.02-0.26c0-1.25,0.21-3.72,0.73-5.4l1.72-0.44v-0.02l-2.05,0.07
	l0.44-1.77h4.27l-0.26,1.62l-1.83,0.07l-0.32,1.74h1.84l-0.22,1.28l-1.88,0.09l-0.29,1.66l1.86,0.09L515.11,125.62z"/>
<path class="st0" d="M523.25,118.25h2.99l0.44,5.7h0.02l0.63-6.43l1.97,0.26l-1.32,7.82l-2.38,0.21l-0.48-5.48h-0.02l-0.78,5.28
	h-1.68L523.25,118.25z"/>
<path class="st0" d="M532.92,117.93l-1.32,7.69h-1.96l0.89-7.69H532.92z"/>
<path class="st0" d="M534.07,118.25h3.07l-0.04,5.6h0.02l1.61-6.33l2.99,0.26l-1.33,7.83h-1.82l0.75-5.88h-0.02l-1.58,5.88
	l-1.73,0.2l-0.02-5.76h-0.02l-0.85,5.57h-1.67L534.07,118.25z"/>
<path class="st0" d="M545.97,125.62h-3.76c-0.01-0.05-0.02-0.13-0.02-0.26c0-1.25,0.21-3.72,0.73-5.4l1.72-0.44v-0.02l-2.05,0.07
	l0.44-1.77h4.27l-0.26,1.62l-1.83,0.07l-0.32,1.74h1.84l-0.22,1.28l-1.88,0.09l-0.29,1.66l1.86,0.09L545.97,125.62z"/>
<path class="st0" d="M549.13,119.96l1.75-0.41v-0.02l-3.06,0.11l0.24-1.86h4.81l-0.3,1.72l-1.11,0.04l-1.04,6.07h-1.97
	L549.13,119.96z"/>
<path class="st0" d="M295.31,130.98l-1.11,6.47l1.93,0.04l-0.23,1.32h-3.86l0.95-7.83H295.31z"/>
<path class="st0" d="M297.96,131.45h2.28l-1.22,4.67h0.99l0.27-5.39h2.37l-0.75,8.1h-2.05l0.11-1.75l-1.24,0.19l-0.41,1.56h-1.79
	L297.96,131.45z"/>
<path class="st0" d="M304.12,131.45h2.99l0.44,5.7h0.02l0.63-6.42l1.97,0.26l-1.32,7.82l-2.38,0.21l-0.48-5.48h-0.02l-0.78,5.28
	h-1.68L304.12,131.45z"/>
<path class="st0" d="M312.09,133.16l1.75-0.41v-0.02l-3.06,0.11l0.24-1.86h4.81l-0.3,1.72l-1.11,0.04l-1.04,6.07h-1.97
	L312.09,133.16z"/>
<path class="st0" d="M322.34,131.13l-1.32,7.69h-1.96l0.89-7.69H322.34z"/>
<path class="st0" d="M323.49,131.45h3.07l-0.04,5.6h0.02l1.61-6.33l2.99,0.26l-1.33,7.83h-1.82l0.75-5.88h-0.02l-1.58,5.88
	l-1.73,0.2l-0.02-5.76h-0.02l-0.85,5.57h-1.67L323.49,131.45z"/>
<path class="st0" d="M335.57,131.84h2.28l-1.21,6.97h-1.9L335.57,131.84z M339.26,130.45c1.26,0.67,1.96,1.44,1.96,2.37
	c0,0.81-0.47,1.65-1.26,2.5l-0.83,0.89l1.42,2.62h-2.39l-1-2.41l1.12-1.96c0.26-0.45,0.54-1.18,0.54-1.45
	c0-0.47-0.35-0.95-1.04-1.38l-1.23-0.64L339.26,130.45z"/>
<path class="st0" d="M345.37,138.82h-3.76c-0.01-0.05-0.02-0.13-0.02-0.26c0-1.25,0.21-3.72,0.73-5.4l1.72-0.44v-0.02l-2.05,0.07
	l0.44-1.77h4.27l-0.26,1.62l-1.83,0.07l-0.32,1.74h1.84l-0.22,1.28l-1.88,0.09l-0.29,1.66l1.86,0.09L345.37,138.82z"/>
<path class="st0" d="M347.8,131.84h2.28l-1.21,6.97h-1.9L347.8,131.84z M351.49,130.45c1.17,0.74,1.67,1.2,1.67,2.12
	c0,1.17-0.92,2.79-1.65,4.06h-2.18c0.83-1.36,1.5-2.5,1.5-3.65c0-0.9-0.67-1.3-2.06-1.99L351.49,130.45z"/>
<path class="st0" d="M357.4,138.82h-3.76c-0.01-0.05-0.02-0.13-0.02-0.26c0-1.25,0.21-3.72,0.73-5.4l1.72-0.44v-0.02l-2.05,0.07
	l0.44-1.77h4.27l-0.26,1.62l-1.83,0.07l-0.32,1.74h1.84l-0.22,1.28l-1.88,0.09l-0.29,1.66l1.86,0.09L357.4,138.82z"/>
<path class="st0" d="M362.32,130.98l-1.11,6.47l1.93,0.04l-0.23,1.32h-3.86l0.95-7.83H362.32z"/>
<path class="st0" d="M367.21,130.98l-1.11,6.47l1.93,0.04l-0.23,1.32h-3.86l0.95-7.83H367.21z"/>
<path class="st0" d="M373.94,138.82h-3.87c-0.62-0.5-1.13-1.02-1.13-2.15c0-0.34,0.02-0.51,0.15-1.51l0.57-3.72h2.2l-0.72,4.16
	c-0.08,0.43-0.12,0.75-0.12,1.06c0,0.77,0.5,1.47,0.99,1.89l0.92-7.66h2.35L373.94,138.82z"/>
<path class="st0" d="M376.52,131.84h2.28l-1.21,6.97h-1.9L376.52,131.84z M380.21,130.45c1.17,0.74,1.67,1.2,1.67,2.12
	c0,1.17-0.92,2.79-1.65,4.06h-2.18c0.83-1.36,1.5-2.5,1.5-3.65c0-0.9-0.67-1.3-2.06-1.99L380.21,130.45z"/>
<path class="st0" d="M383.78,133.16l1.75-0.41v-0.02l-3.06,0.11l0.24-1.86h4.81l-0.3,1.72l-1.11,0.04l-1.04,6.07h-1.97
	L383.78,133.16z"/>
<path class="st0" d="M388.41,131.45h2.28l-1.22,4.67h0.99l0.27-5.39h2.37l-0.75,8.1h-2.05l0.11-1.75l-1.24,0.19l-0.41,1.56h-1.79
	L388.41,131.45z"/>
<path class="st0" d="M397.39,131.45c-0.24,0.38-0.78,1.29-0.78,1.93c0,1.2,1.68,1.58,1.68,2.86c0,1.07-1.44,2.5-1.54,2.58h-3.07
	l0.7-0.64c0.83-0.75,1.31-1.28,1.31-1.8c0-0.81-1.55-1.31-1.55-2.63c0-0.73,0.38-1.4,0.9-2.3H397.39z M399.57,130.72L399,133.6
	h-1.86l0.45-2.88H399.57z"/>
<path class="st0" d="M403.55,132.15h2.29l-1.14,6.67h-1.96L403.55,132.15z M404.77,138.82c0.73-1.07,2.08-3.07,2.08-5.01
	c0-1.31-1.06-1.99-2.43-2.68l2.4-0.54c0.89,0.47,2.43,1.4,2.43,2.99c0,1.89-1.38,3.88-2.31,5.24H404.77z"/>
<path class="st0" d="M414.63,130.59c0.96,0.88,1.55,1.89,1.55,3.05c0,1.62-0.9,3.55-2.15,5.18h-3.11c-0.44-0.77-0.99-1.78-0.99-2.84
	c0-1.36,0.59-2.72,1.26-3.83h1.94c-0.5-0.48-0.86-0.81-1.33-1.17L414.63,130.59z M413.22,132.21c-0.11,0.29-0.96,2.12-0.96,3.98
	c0,0.45,0.07,1.33,0.3,2.1c0.78-1.53,1.22-2.95,1.22-4.37C413.78,133.12,413.53,132.65,413.22,132.21z"/>
<path class="st0" d="M420.19,130.98l-1.11,6.47l1.93,0.04l-0.23,1.32h-3.86l0.95-7.83H420.19z"/>
<path class="st0" d="M426.44,130.59c0.96,0.88,1.55,1.89,1.55,3.05c0,1.62-0.9,3.55-2.15,5.18h-3.11c-0.44-0.77-0.99-1.78-0.99-2.84
	c0-1.36,0.59-2.72,1.26-3.83h1.94c-0.5-0.48-0.86-0.81-1.33-1.17L426.44,130.59z M425.03,132.21c-0.11,0.29-0.96,2.12-0.96,3.98
	c0,0.45,0.07,1.33,0.3,2.1c0.78-1.53,1.22-2.95,1.22-4.37C425.59,133.12,425.34,132.65,425.03,132.21z"/>
<path class="st0" d="M429.51,131.84h2.28l-1.21,6.97h-1.9L429.51,131.84z M433.2,130.45c1.26,0.67,1.96,1.44,1.96,2.37
	c0,0.81-0.47,1.65-1.26,2.5l-0.83,0.89l1.42,2.62h-2.39l-1-2.41l1.12-1.96c0.26-0.45,0.54-1.18,0.54-1.45
	c0-0.47-0.35-0.95-1.04-1.38l-1.23-0.64L433.2,130.45z"/>
<path class="st0" d="M436.24,131.84h2.28l-1.21,6.97h-1.9L436.24,131.84z M439.93,130.45c1.26,0.67,1.96,1.44,1.96,2.37
	c0,0.81-0.47,1.65-1.26,2.5l-0.83,0.89l1.42,2.62h-2.39l-1-2.41l1.12-1.96c0.26-0.45,0.54-1.18,0.54-1.45
	c0-0.47-0.35-0.95-1.04-1.38l-1.23-0.64L439.93,130.45z"/>
<path class="st0" d="M447.52,138.82h-3.87c-0.62-0.5-1.13-1.02-1.13-2.15c0-0.34,0.02-0.51,0.15-1.51l0.57-3.72h2.2l-0.72,4.16
	c-0.08,0.43-0.12,0.75-0.12,1.06c0,0.77,0.5,1.47,0.99,1.89l0.92-7.66h2.35L447.52,138.82z"/>
<path class="st0" d="M450.04,131.45h3.07l-0.04,5.6h0.02l1.61-6.33l2.99,0.26l-1.33,7.83h-1.82l0.75-5.88h-0.02l-1.58,5.88
	l-1.73,0.2l-0.02-5.76h-0.02l-0.85,5.57h-1.67L450.04,131.45z"/>
<path class="st0" d="M458.1,136.79h2.06l-0.35,2.02h-2.05L458.1,136.79z"/>
</svg>
