<?xml version="1.0" encoding="utf-8"?>
<!-- Generator: Adobe Illustrator 26.0.2, SVG Export Plug-In . SVG Version: 6.00 Build 0)  -->
<svg version="1.1" id="Calque_1" xmlns="http://www.w3.org/2000/svg" xmlns:xlink="http://www.w3.org/1999/xlink" x="0px" y="0px"
	 viewBox="0 0 566.93 155.91" style="enable-background:new 0 0 566.93 155.91;" xml:space="preserve">
<style type="text/css">
	.st0{fill:#222221;}
</style>
<path class="st0" d="M22.46,29.91C21.71,30.62,20.71,31,19.7,31c-1.84,0-3.42-1.01-3.42-2.94c0-2.47,2.32-3.21,4.41-3.21h1.77V24.5
	c0-1.08-0.15-1.88-1.77-1.88c-1.01,0-2.03,0.15-2.03,1.08H16.7c0.13-2.11,2.15-2.56,3.89-2.56c2.75,0,3.82,0.97,3.82,3.76v5.93
	h-1.96V29.91z M20.42,26.32c-1.06,0-2.18,0.4-2.18,1.65c0,0.99,0.7,1.54,1.65,1.54c1.73,0,2.56-1.31,2.56-2.87v-0.32H20.42z"/>
<path class="st0" d="M30.13,17h1.96v5.36h0.06c0.65-0.85,1.81-1.22,2.83-1.22c2.93,0,4.12,2.53,4.12,5.09
	c0,2.55-1.54,4.77-4.26,4.77c-1.03,0-2.05-0.38-2.75-1.14v0.97h-1.96V17z M32.09,26.08c0,1.6,0.68,3.29,2.55,3.29
	c1.77,0,2.51-1.65,2.51-3.19s-0.57-3.4-2.41-3.4C32.81,22.77,32.09,24.39,32.09,26.08z"/>
<path class="st0" d="M50.2,23.87c-0.04-0.68-0.82-1.1-1.54-1.1c-1.9,0-2.3,1.67-2.3,3.23c0,1.5,0.36,3.36,2.2,3.36
	c0.84,0,1.63-0.63,1.63-1.44h1.96c0,2.01-1.96,3.08-3.72,3.08c-2.81,0-4.03-2.41-4.03-4.98c0-2.54,1.42-4.88,4.2-4.88
	c1.77,0,3.27,0.87,3.55,2.74H50.2z"/>
<path class="st0" d="M64.08,29.84C63.42,30.5,62.34,31,61.37,31c-2.85,0-4.24-2.3-4.24-4.9c0-2.56,1.25-4.96,4.1-4.96
	c1.04,0,2.18,0.34,2.81,1.18h0.04V17h1.96v13.83h-1.96V29.84z M64.08,25.94c0-1.69-0.72-3.17-2.62-3.17c-1.75,0-2.37,1.69-2.37,3.17
	c0,1.6,0.63,3.42,2.51,3.42C63.44,29.36,64.08,27.54,64.08,25.94z"/>
<path class="st0" d="M73.15,26.46c-0.1,1.73,1.03,2.91,2.77,2.91c0.57,0,1.29-0.06,1.5-0.67h1.94c-0.1,1.8-2.05,2.3-3.53,2.3
	c-3.02,0-4.64-1.9-4.64-4.86c0-2.83,1.39-5,4.39-5c2.98,0,4.14,1.96,4.14,4.73v0.59H73.15z M77.76,24.82
	c-0.02-1.27-0.97-2.05-2.22-2.05c-1.2,0-2.32,0.78-2.39,2.05H77.76z"/>
<path class="st0" d="M92.72,21.31v1.63h-2.68v7.88h-1.96v-7.88h-2.72v-1.63h2.72v-0.46c0-2.41,0.93-3.86,3.63-3.86h1.01v1.63h-0.44
	c-1.86,0-2.24,0.36-2.24,2.22v0.46H92.72z"/>
<path class="st0" d="M106.85,30.48c0,2.93-1.98,3.61-4.5,3.61c-1.5,0-3.59-0.21-3.59-2.2v-0.21h1.96c-0.06,0.86,0.97,0.95,1.61,0.95
	c2.2,0,2.56-0.51,2.56-2v-1.41l-0.08,0.06c-0.82,0.65-1.5,0.95-2.55,0.95c-2.75,0-3.91-2.17-3.91-4.69c0-2.43,1.27-4.43,3.88-4.43
	c0.95,0,2.07,0.27,2.64,1.03v0.02h0.04v-0.85h1.96L106.85,30.48z M104.91,25.62c0-1.58-0.55-3.02-2.36-3.02
	c-1.77,0-2.22,1.58-2.22,3.08c0,1.6,0.47,3.12,2.32,3.12C104.4,28.79,104.91,27.12,104.91,25.62z"/>
<path class="st0" d="M114.59,22.09c0.61-0.63,1.58-0.95,2.47-0.95c2.45,0,3.31,1.77,3.31,3.95v5.74h-1.96v-5.89
	c0-1.2-0.25-2.01-1.63-2.01c-1.94,0-2.18,1.21-2.18,2.81v5.09h-1.96V17h1.96V22.09z"/>
<path class="st0" d="M131.91,21.31v9.52h-1.96V23.1h-3.06v-1.79H131.91z M131.91,17v2.41h-2.7V17H131.91z"/>
<path class="st0" d="M146.09,21.31v8.99c0,2.79-1.06,3.82-4.05,3.82h-1.42v-1.79h1.35c0.72,0,1.29,0.08,1.77-0.4
	c0.4-0.4,0.4-1.04,0.4-1.73v-7.1h-2.26v-1.79H146.09z M146.09,17v2.41h-2.7V17H146.09z"/>
<path class="st0" d="M156.06,24.71l3.63-3.4h2.58l-4.54,4.12l4.96,5.4h-2.55l-4.08-4.45v4.45h-1.96V17h1.96V24.71z"/>
<path class="st0" d="M170.98,27.16c0,1.58,0.59,2.03,2.15,2.03h1.27v1.63h-1.77c-2.85,0-3.61-1.48-3.61-4.16V17h1.96V27.16z"/>
<path class="st0" d="M182,22.01c0.25-0.29,0.53-0.49,0.84-0.65c0.32-0.15,0.67-0.23,1.04-0.23c0.67,0,1.25,0.21,1.65,0.74
	c0.53-0.51,1.18-0.74,1.92-0.74c1.54,0,2.3,1.27,2.3,2.68v7.01h-1.96v-7.01c0-0.59-0.04-1.22-0.82-1.22c-1.14,0-1.1,1.22-1.1,2.01
	v6.21h-1.96v-7.01c0-0.53-0.09-1.22-0.8-1.22c-1.1,0-1.12,1.22-1.12,2.01v6.21h-1.96v-9.52H182V22.01z"/>
<path class="st0" d="M196.28,22.37h0.04c0.61-0.8,1.84-1.23,2.89-1.23c2.26,0,3.63,1.5,3.63,3.7v5.98h-1.96v-6.12
	c0-1.25-0.57-1.94-1.88-1.94c-1.92,0-2.72,1.31-2.72,3.1v4.96h-1.96v-9.52h1.96V22.37z"/>
<path class="st0" d="M216.88,26.02c0,2.81-1.69,4.98-4.62,4.98c-2.93,0-4.62-2.17-4.62-4.98c0-2.89,1.73-4.88,4.62-4.88
	C215.13,21.14,216.88,23.13,216.88,26.02z M209.6,26.04c0,1.77,0.61,3.5,2.66,3.5s2.66-1.73,2.66-3.5s-0.7-3.44-2.66-3.44
	C210.31,22.6,209.6,24.27,209.6,26.04z"/>
<path class="st0" d="M223.61,22.2l0.13-0.08c0.82-0.65,1.44-0.99,2.55-0.99c2.83,0,4.31,2.34,4.31,4.94c0,2.58-1.46,4.92-4.24,4.92
	c-0.89,0-2.11-0.36-2.75-1.06v4.18h-1.96v-12.8h1.96V22.2z M223.61,26.06c0,1.67,0.63,3.31,2.55,3.31c1.88,0,2.49-1.58,2.49-3.21
	c0-1.69-0.48-3.38-2.49-3.38C224.23,22.77,223.61,24.41,223.61,26.06z"/>
<path class="st0" d="M243.9,34.11h-1.96v-4.24c-0.68,0.76-1.71,1.12-2.74,1.12c-2.72,0-4.24-2.17-4.24-4.77
	c0-2.62,1.35-5.09,4.22-5.09c1.04,0,2.01,0.4,2.75,1.12v-0.95h1.96V34.11z M236.92,26c0,1.67,0.42,3.36,2.43,3.36
	s2.58-1.63,2.58-3.4c0-1.56-0.67-3.19-2.45-3.19C237.57,22.77,236.92,24.33,236.92,26z"/>
<path class="st0" d="M252.07,22.35h0.04c0.59-0.78,1.46-1.22,2.47-1.22c1.67,0,2.89,1.2,2.89,2.89v0.38h-1.96v-0.29
	c0-0.74-0.36-1.52-1.2-1.52c-1.86,0-2.24,1.86-2.24,3.31v4.92h-1.96v-9.52h1.96V22.35z"/>
<path class="st0" d="M268.65,23.68c-0.04-0.86-1.03-1.06-1.61-1.06c-0.7,0-1.8,0.17-1.8,1.14c0,0.82,0.53,1.08,1.25,1.22
	c1.92,0.38,4.54,0.65,4.54,3.21c0,2.3-2.49,2.81-4.33,2.81c-1.77,0-3.76-0.59-3.76-2.7h1.96c0.04,1.12,1.22,1.22,1.84,1.22
	c0.82,0,2.34-0.23,2.34-1.33c0-0.97-0.78-1.12-1.56-1.25c-0.84-0.15-2.05-0.44-2.83-0.8c-0.95-0.4-1.41-1.29-1.41-2.28
	c0-2.22,2.26-2.72,3.76-2.72c1.75,0,3.57,0.74,3.57,2.26v0.29H268.65z"/>
<path class="st0" d="M280.78,21.14h3.4v1.63h-3.4v4.77c0,0.89,0.15,1.82,1.27,1.82c0.67,0,1.6-0.34,2.13-0.74v1.8
	c-0.61,0.36-1.44,0.57-2.17,0.57c-2.3,0-3.19-1.52-3.19-3.65v-4.58h-1.96v-1.63h1.96v-2.17l1.96-0.51V21.14z"/>
<path class="st0" d="M296.64,29.76c-0.74,0.87-2.07,1.23-3.17,1.23c-2.15,0-3.38-1.39-3.38-3.46v-6.23h1.96v6.23
	c0,1.29,0.42,1.82,1.77,1.82c2.11,0,2.83-1.31,2.83-3.23v-4.83h1.96v9.52h-1.96V29.76z"/>
<path class="st0" d="M307.98,29.21h0.04l2.68-7.9h2.17l-3.46,9.52h-2.79l-3.46-9.52h2.17L307.98,29.21z"/>
<path class="st0" d="M319.72,28.15h0.04l0.97-3.15h1.92l0.99,3.36h0.04l0.68-7.05h1.99l-1.16,9.52h-2.36l-1.12-3.89h-0.04
	l-1.12,3.89h-2.3l-1.22-9.52h1.99L319.72,28.15z"/>
<path class="st0" d="M335.4,24.5l2.01-3.19h2.26l-3.27,4.67l3.63,4.84h-2.45l-2.32-3.48l-2.32,3.48h-2.24l3.5-4.79l-3.5-4.73h2.64
	L335.4,24.5z"/>
<path class="st0" d="M352.14,21.31h2.05l-5.81,10.73c-0.8,1.48-1.44,2.07-3.13,2.07h-0.44v-1.63h0.3c0.7,0,1.16-0.38,1.48-0.93
	l1.71-3l-4.22-7.24h2.39l2.83,5.34L352.14,21.31z"/>
<path class="st0" d="M366.18,23.19l-5.21,6h5.62v1.63h-7.73v-1.98l5.15-5.91h-4.81v-1.63h6.97V23.19z"/>
<path class="st0" d="M385.33,23.4h9.54v1.96h-9.54V23.4z"/>
<path class="st0" d="M421.47,18.84c0.51,1.5,0.61,3.27,0.61,4.84c0,1.69-0.09,5.26-1.37,6.48c-0.68,0.68-2.17,0.84-3.25,0.84
	c-1.1,0-2.56-0.15-3.27-0.84c-1.25-1.22-1.35-4.79-1.35-6.48c0-1.58,0.1-3.34,0.61-4.84c0.65-1.88,2.15-2.09,4.01-2.09
	C419.3,16.75,420.82,16.96,421.47,18.84z M415.01,20.06c-0.19,1.04-0.21,2.75-0.21,3.84c0,1.01,0.04,4.08,0.59,4.81
	c0.36,0.49,1.42,0.51,2.07,0.51s1.71-0.02,2.07-0.51c0.53-0.72,0.59-3.8,0.59-4.81c0-1.08-0.04-2.79-0.21-3.84
	c-0.25-1.46-0.93-1.52-2.45-1.52C415.94,18.54,415.25,18.59,415.01,20.06z"/>
<path class="st0" d="M427.41,22.24v-2.43l3.36-2.81h2.11v13.83h-1.96V19.2L427.41,22.24z"/>
<path class="st0" d="M448.69,29.04v1.79h-8.21v-1.04c0-3.27,1.2-4.58,3.86-6.27c1.03-0.65,2.56-1.52,2.56-2.89
	c0-1.12-1.03-2.09-2.13-2.09c-1.35,0-2.98,0.7-4.05,1.48v-2.11c1.03-0.78,2.49-1.16,3.74-1.16c2.37,0,4.39,1.25,4.39,3.8
	c0,2.51-1.82,3.48-3.69,4.67c-1.23,0.82-2.74,1.94-2.74,3.53v0.28H448.69z"/>
<path class="st0" d="M462.39,18.93l-3.48,3.48c2.37,0.11,4.03,1.65,4.03,4.1c0,3.08-2.56,4.48-5.34,4.48
	c-1.27,0-2.41-0.32-3.57-0.82v-1.96c1.08,0.7,2.28,0.99,3.53,0.99c1.75,0,3.42-0.76,3.42-2.75c0-1.84-1.44-2.55-3.12-2.55h-1.52
	v-1.5l3.55-3.63h-5.87V17h8.36V18.93z"/>
<path class="st0" d="M476.62,26v1.79h-1.69v3.04h-1.96v-3.04h-5.24v-2.05L471.8,17h2.01l-4.18,9h3.34v-2.85h1.96V26H476.62z"/>
<path class="st0" d="M483.88,21.46h0.46c2.85,0,5.4,1.23,5.4,4.43c0,4.67-5.41,5.11-7.12,5.11h-0.65v-1.79h1.12
	c2.22,0,4.69-0.72,4.69-3.34c0-2.45-2.34-2.7-3.46-2.62l-2.36,0.17l0.42-6.42h6.97v1.79h-5.24L483.88,21.46z"/>
<path class="st0" d="M502.77,17c-1.31,1.22-2.62,2.7-3.69,4.07l-0.91,1.2l0.02,0.04c0.55-0.25,1.12-0.36,1.75-0.36
	c2.51,0,4.24,2.13,4.24,4.54c0,2.74-1.96,4.52-4.62,4.52c-2.96,0-4.65-1.77-4.65-4.71c0-2.09,0.59-3.72,1.94-5.28l3.48-4.01H502.77z
	 M496.86,26.42c0,1.63,1.04,2.79,2.68,2.79c1.6,0,2.68-1.1,2.68-2.77c0-1.61-1.14-2.72-2.72-2.72
	C497.96,23.72,496.86,24.88,496.86,26.42z"/>
<path class="st0" d="M508.75,18.78V17h9.1v0.23c0,0.8-0.02,1.41-0.36,2.13c-0.28,0.59-1.01,1.46-1.42,1.98
	c-2.01,2.38-3.38,4.03-3.38,7.28v2.22h-1.96V28.6c0-3.06,1.41-5.45,3.34-7.73l0.68-0.8c0.34-0.38,0.7-0.8,0.76-1.29H508.75z"/>
<path class="st0" d="M530.98,19.81c0,1.6-1.16,2.51-2.37,3.29c1.73,0.84,2.91,2.01,2.91,4.07c0,2.81-2.11,3.84-4.62,3.84
	c-2.53,0-4.62-1.03-4.62-3.84c0-2.05,1.18-3.23,2.89-4.07c-1.2-0.78-2.36-1.69-2.36-3.29c0-2.2,2.15-3.06,4.08-3.06
	C528.83,16.75,530.98,17.61,530.98,19.81z M529.56,26.99c0-1.5-1.31-2.18-2.66-2.92c-1.37,0.74-2.66,1.42-2.66,2.92
	c0,1.58,1.35,2.22,2.66,2.22C528.21,29.21,529.56,28.57,529.56,26.99z M524.77,19.98c0,1.08,1.27,1.82,2.13,2.17
	c0.85-0.34,2.13-1.08,2.13-2.17c0-1.16-1.2-1.44-2.13-1.44C525.97,18.54,524.77,18.82,524.77,19.98z"/>
<path class="st0" d="M537.19,30.83c1.71-1.65,3.42-3.36,4.71-5.34l-0.02,0.02l-0.04-0.04c-0.46,0.23-1.04,0.36-1.61,0.36
	c-2.51,0-4.33-1.94-4.33-4.45c0-2.81,1.9-4.64,4.71-4.64c2.93,0,4.62,1.98,4.62,4.88c0,3.38-3.06,6.69-5.43,9.19H537.19z
	 M537.86,21.33c0,1.62,1.14,2.72,2.75,2.72c1.58,0,2.66-1.16,2.66-2.75c0-1.63-1.04-2.75-2.66-2.75
	C538.87,18.54,537.86,19.56,537.86,21.33z"/>
<path class="st0" d="M18.87,53.11l-0.91,3.7h-1.98l3.51-12.88h2.49l3.51,12.88h-1.98l-0.93-3.7H18.87z M20.76,45.74h-0.04
	l-1.41,5.58h2.83L20.76,45.74z"/>
<path class="st0" d="M30,56.82V43.94h4.16c2.41,0,4.79,0.84,4.79,3.69c0,1.08-0.61,2.07-1.65,2.43v0.04
	c1.29,0.28,1.96,1.63,1.96,2.89c0,1.96-1.31,3.84-4.29,3.84H30z M31.96,49.22h2.58c1.22,0,2.45-0.13,2.45-1.69
	c0-1.6-1.48-1.8-2.72-1.8h-2.32V49.22z M31.96,55.03h2.64c1.41,0,2.7-0.34,2.7-2.05c0-1.8-1.29-2.15-2.79-2.15h-2.55V55.03z"/>
<path class="st0" d="M50.18,46.85c-0.06-0.78-0.78-1.29-1.6-1.29c-2.07,0-2.39,3.25-2.39,4.77c0,1.54,0.28,4.88,2.39,4.88
	c0.82,0,1.54-0.57,1.6-1.41h1.96c0,1.92-1.65,3.19-3.48,3.19c-3.48,0-4.43-3.76-4.43-6.57c0-2.96,0.95-6.65,4.43-6.65
	c1.82,0,3.48,1.23,3.48,3.08H50.18z"/>
<path class="st0" d="M58.08,43.94h1.22c3.84,0,6.74,2.81,6.74,6.71c0,3.91-2.74,6.17-6.5,6.17h-1.46V43.94z M60.04,55.03
	c2.58,0.06,4.05-1.99,4.05-4.43c0-2.32-1.58-4.77-4.05-4.88V55.03z"/>
<path class="st0" d="M73.76,49.2h5.02v1.79h-5.02v4.05h5.98v1.79H71.8V43.94h7.71v1.79h-5.76V49.2z"/>
<path class="st0" d="M88.37,49.2h3.88v1.79h-3.88v5.83h-1.96V43.94h6.76v1.79h-4.81V49.2z"/>
<path class="st0" d="M102.44,51.71v-1.79h4.62v6.29c-1.14,0.47-2.47,0.78-3.7,0.78c-3.89,0-4.96-3.32-4.96-6.63
	c0-3.46,1.14-6.59,5.15-6.59c1.88,0,3.51,1.29,3.51,2.6v0.15h-1.96c-0.19-0.76-0.7-0.97-1.56-0.97c-2.74,0-3.19,2.2-3.19,4.64
	c0,2.26,0.32,5.01,3.17,5.01c0.57,0,1.08-0.11,1.58-0.3v-3.19H102.44z"/>
<path class="st0" d="M114.36,51.02v5.79h-1.96V43.94h1.96v5.3h4.29v-5.3h1.96v12.88h-1.96v-5.79H114.36z"/>
<path class="st0" d="M131.15,55.03h2.32v1.79h-6.59v-1.79h2.32v-9.31h-1.94v-1.79h5.81v1.79h-1.92V55.03z"/>
<path class="st0" d="M146.6,43.94v9.33c0,2.53-1.22,3.72-3.32,3.72c-2.03,0-3.32-1.27-3.32-3.25v-1.1h1.96v1.2
	c0,0.85,0.46,1.37,1.35,1.37c1.48,0,1.39-1.18,1.39-2.3v-8.97H146.6z"/>
<path class="st0" d="M160.41,43.94h2.55l-6.21,6.14l6.59,6.74h-2.7l-5.45-5.78v5.78h-1.96V43.94h1.96v5.26L160.41,43.94z"/>
<path class="st0" d="M176.07,55.03v1.79h-8.55V43.94h1.96v11.09H176.07z"/>
<path class="st0" d="M186.42,43.94h3.02v12.88h-1.96V46.09h-0.04l-1.77,6.55h-1.56l-1.77-6.55h-0.04v10.73h-1.96V43.94h3.02
	l1.5,4.96h0.04L186.42,43.94z"/>
<path class="st0" d="M201.07,43.94h1.79v12.88h-2.13l-4.6-9.75h-0.04v9.75h-1.79V43.94h2.28l4.45,9.35h0.04V43.94z"/>
<path class="st0" d="M216.82,50.36c0,2.83-1.27,6.63-4.56,6.63s-4.56-3.8-4.56-6.63c0-2.6,1.29-6.59,4.56-6.59
	S216.82,47.76,216.82,50.36z M209.66,50.45c0,1.62,0.36,4.75,2.6,4.75c2.22,0,2.6-3.13,2.6-4.75c0-1.65-0.34-4.9-2.6-4.9
	C209.98,45.55,209.66,48.8,209.66,50.45z"/>
<path class="st0" d="M222.07,43.94h4.35c2.56,0,4.37,1.16,4.37,3.84s-2.11,3.72-4.5,3.72h-2.26v5.32h-1.96V43.94z M226.32,49.71
	c1.35,0,2.51-0.42,2.51-1.98c0-1.69-1.03-2.01-2.49-2.01h-2.32v3.99H226.32z"/>
<path class="st0" d="M241.46,55.38c-0.59,0.49-1.42,0.78-2.26,0.78c-3.29,0-4.35-3.31-4.35-6.1c0-2.74,0.95-6.29,4.35-6.29
	c3.42,0,4.35,3.55,4.35,6.29c0,1.31-0.11,2.77-0.85,3.89l2.24,2.87h-2.36L241.46,55.38z M237.74,50.53h2.32l1.33,1.67
	c0.21-0.68,0.21-1.42,0.21-2.36c0-1.58-0.28-4.29-2.39-4.29c-2.11,0-2.39,2.72-2.39,4.29c0,1.54,0.3,4.52,2.39,4.52
	c0.4,0,0.85-0.1,1.16-0.42L237.74,50.53z"/>
<path class="st0" d="M251.4,56.82h-1.96V43.94h3.74c2.36,0,4.16,1.22,4.16,3.76c0,1.62-0.89,3.08-2.56,3.38l3.36,5.74h-2.24
	l-2.94-5.34h-1.56V56.82z M252.85,49.69c1.58,0,2.55-0.38,2.55-2.07c0-1.69-1.18-1.9-2.56-1.9h-1.42v3.97H252.85z"/>
<path class="st0" d="M262.92,53.65v-0.4h1.96c0.02,1.22,0.87,1.96,2.09,1.96c1.1,0,2.13-0.53,2.13-1.79c0-1.41-1.46-1.96-2.93-2.64
	c-1.46-0.7-2.94-1.52-2.94-3.44c0-2.22,1.84-3.57,3.97-3.57c1.77,0,3.72,1.23,3.72,3.17v0.25h-1.96c0.08-1.08-0.78-1.63-1.81-1.63
	s-1.98,0.4-1.98,1.62c0,0.93,0.74,1.42,1.48,1.77l1.14,0.53c1.75,0.84,3.25,1.75,3.25,3.93c0,2.26-1.96,3.59-4.08,3.59
	C265.02,56.99,262.92,55.77,262.92,53.65z"/>
<path class="st0" d="M281.63,56.82h-1.96V45.72h-3.48v-1.79h8.91v1.79h-3.48V56.82z"/>
<path class="st0" d="M291.95,43.94v8.43c0,1.8,0.44,2.83,2.39,2.83c1.96,0,2.39-1.03,2.39-2.83v-8.43h1.96v8.57
	c0,2.79-1.35,4.48-4.35,4.48c-3.02,0-4.35-1.69-4.35-4.48v-8.57H291.95z"/>
<path class="st0" d="M310.91,43.94h1.96l-3.51,12.88h-2.72l-3.48-12.88h1.96L308,54.88h0.04L310.91,43.94z"/>
<path class="st0" d="M322.42,48.88l1.31,4.58h0.04c0.36-2.87,0.61-5.95,0.61-8.45v-1.06h1.96V45c0,1.29-0.15,4.65-0.42,6.17
	l-0.97,5.64h-2.13l-1.1-4.48h-0.04l-1.12,4.48h-2.13l-0.97-5.64c-0.27-1.52-0.42-4.88-0.42-6.17v-1.06H319V45
	c0,2.51,0.25,5.58,0.61,8.45h0.04l1.31-4.58H322.42z"/>
<path class="st0" d="M337.74,43.94h2.3l-3.46,6.25l3.46,6.63h-2.3l-2.36-4.88l-2.37,4.88h-2.28l3.61-6.63l-3.61-6.25h2.28l2.37,4.46
	L337.74,43.94z"/>
<path class="st0" d="M351.55,43.94h2.15l-3.65,6.86v6.02h-1.96V50.8l-3.67-6.86h2.15l2.49,4.84L351.55,43.94z"/>
<path class="st0" d="M366.61,55.03v1.79h-7.77v-1.35l5.02-9.75h-4.84v-1.79h6.97v1.5l-4.88,9.59H366.61z"/>
<path class="st0" d="M15.72,76.74h0.7c2.22,0,3.91,1.63,3.91,3.88c0,2.27-1.58,3.58-3.76,3.58h-0.85V76.74z M16.86,83.17
	c1.5,0.03,2.34-1.16,2.34-2.56c0-1.34-0.91-2.76-2.34-2.83V83.17z"/>
<path class="st0" d="M24.45,81.67c-0.05,1,0.59,1.68,1.61,1.68c0.33,0,0.75-0.03,0.87-0.39h1.12c-0.06,1.04-1.19,1.33-2.05,1.33
	c-1.75,0-2.68-1.1-2.68-2.82c0-1.64,0.8-2.89,2.54-2.89c1.73,0,2.4,1.13,2.4,2.74v0.34H24.45z M27.12,80.72
	c-0.01-0.74-0.56-1.19-1.29-1.19c-0.69,0-1.34,0.45-1.39,1.19H27.12z"/>
<path class="st0" d="M32.02,79.1c0.14-0.17,0.31-0.29,0.48-0.37c0.19-0.09,0.39-0.13,0.61-0.13c0.38,0,0.73,0.12,0.96,0.43
	c0.31-0.3,0.68-0.43,1.11-0.43c0.89,0,1.33,0.74,1.33,1.55v4.06h-1.13v-4.06c0-0.34-0.02-0.7-0.47-0.7c-0.66,0-0.64,0.7-0.64,1.17
	v3.6h-1.13v-4.06c0-0.31-0.06-0.7-0.46-0.7c-0.64,0-0.65,0.7-0.65,1.17v3.6h-1.13v-5.51h1.13V79.1z"/>
<path class="st0" d="M44.3,81.42c0,1.63-0.98,2.88-2.67,2.88s-2.67-1.25-2.67-2.88c0-1.67,1-2.83,2.67-2.83
	C43.29,78.59,44.3,79.74,44.3,81.42z M40.09,81.43c0,1.02,0.35,2.02,1.54,2.02c1.19,0,1.54-1,1.54-2.02s-0.41-1.99-1.54-1.99
	C40.49,79.44,40.09,80.4,40.09,81.43z"/>
<path class="st0" d="M62.54,83.26h0.02l1.55-4.58h1.25l-2,5.51h-1.62l-2-5.51H61L62.54,83.26z"/>
<path class="st0" d="M73.15,81.42c0,1.63-0.98,2.88-2.67,2.88s-2.67-1.25-2.67-2.88c0-1.67,1-2.83,2.67-2.83
	C72.14,78.59,73.15,79.74,73.15,81.42z M68.94,81.43c0,1.02,0.35,2.02,1.54,2.02c1.19,0,1.54-1,1.54-2.02s-0.41-1.99-1.54-1.99
	C69.35,79.44,68.94,80.4,68.94,81.43z"/>
<path class="st0" d="M78.26,82.08c0,0.91,0.34,1.18,1.24,1.18h0.74v0.95h-1.02c-1.65,0-2.09-0.86-2.09-2.41v-5.6h1.13V82.08z"/>
<path class="st0" d="M88.99,81.42c0,1.63-0.98,2.88-2.67,2.88s-2.67-1.25-2.67-2.88c0-1.67,1-2.83,2.67-2.83
	C87.98,78.59,88.99,79.74,88.99,81.42z M84.78,81.43c0,1.02,0.35,2.02,1.54,2.02c1.19,0,1.54-1,1.54-2.02s-0.41-1.99-1.54-1.99
	C85.19,79.44,84.78,80.4,84.78,81.43z"/>
<path class="st0" d="M93.52,79.29h0.02c0.34-0.45,0.85-0.7,1.43-0.7c0.97,0,1.67,0.69,1.67,1.67v0.22h-1.13v-0.17
	c0-0.43-0.21-0.88-0.69-0.88c-1.08,0-1.3,1.08-1.3,1.91v2.85h-1.13v-5.51h1.13V79.29z"/>
<path class="st0" d="M101.44,79.29h0.02c0.34-0.45,0.85-0.7,1.43-0.7c0.97,0,1.67,0.69,1.67,1.67v0.22h-1.13v-0.17
	c0-0.43-0.21-0.88-0.69-0.88c-1.08,0-1.3,1.08-1.3,1.91v2.85h-1.13v-5.51h1.13V79.29z"/>
<path class="st0" d="M112.75,81.42c0,1.63-0.98,2.88-2.67,2.88s-2.67-1.25-2.67-2.88c0-1.67,1-2.83,2.67-2.83
	C111.74,78.59,112.75,79.74,112.75,81.42z M108.54,81.43c0,1.02,0.35,2.02,1.54,2.02c1.19,0,1.54-1,1.54-2.02s-0.41-1.99-1.54-1.99
	C108.95,79.44,108.54,80.4,108.54,81.43z"/>
<path class="st0" d="M117.28,79.29h0.02c0.34-0.45,0.85-0.7,1.43-0.7c0.97,0,1.67,0.69,1.67,1.67v0.22h-1.13v-0.17
	c0-0.43-0.21-0.88-0.69-0.88c-1.08,0-1.3,1.08-1.3,1.91v2.85h-1.13v-5.51h1.13V79.29z"/>
<path class="st0" d="M125.2,79.29h0.02c0.34-0.45,0.85-0.7,1.43-0.7c0.97,0,1.67,0.69,1.67,1.67v0.22h-1.13v-0.17
	c0-0.43-0.21-0.88-0.69-0.88c-1.08,0-1.3,1.08-1.3,1.91v2.85h-1.13v-5.51h1.13V79.29z"/>
<path class="st0" d="M136.51,81.42c0,1.63-0.98,2.88-2.67,2.88s-2.67-1.25-2.67-2.88c0-1.67,1-2.83,2.67-2.83
	C135.5,78.59,136.51,79.74,136.51,81.42z M132.3,81.43c0,1.02,0.35,2.02,1.54,2.02c1.19,0,1.54-1,1.54-2.02s-0.41-1.99-1.54-1.99
	C132.71,79.44,132.3,80.4,132.3,81.43z"/>
<path class="st0" d="M153.09,79.1c0.14-0.17,0.31-0.29,0.48-0.37c0.19-0.09,0.39-0.13,0.61-0.13c0.38,0,0.73,0.12,0.96,0.43
	c0.31-0.3,0.68-0.43,1.11-0.43c0.89,0,1.33,0.74,1.33,1.55v4.06h-1.13v-4.06c0-0.34-0.02-0.7-0.47-0.7c-0.66,0-0.64,0.7-0.64,1.17
	v3.6h-1.13v-4.06c0-0.31-0.06-0.7-0.46-0.7c-0.64,0-0.65,0.7-0.65,1.17v3.6h-1.13v-5.51h1.13V79.1z"/>
<path class="st0" d="M165.36,81.42c0,1.63-0.98,2.88-2.67,2.88s-2.67-1.25-2.67-2.88c0-1.67,1-2.83,2.67-2.83
	C164.35,78.59,165.36,79.74,165.36,81.42z M161.15,81.43c0,1.02,0.35,2.02,1.54,2.02c1.19,0,1.54-1,1.54-2.02s-0.41-1.99-1.54-1.99
	C161.56,79.44,161.15,80.4,161.15,81.43z"/>
<path class="st0" d="M170.47,82.08c0,0.91,0.34,1.18,1.24,1.18h0.74v0.95h-1.02c-1.65,0-2.09-0.86-2.09-2.41v-5.6h1.13V82.08z"/>
<path class="st0" d="M179.86,83.58c-0.43,0.51-1.2,0.71-1.84,0.71c-1.24,0-1.96-0.8-1.96-2v-3.61h1.13v3.61
	c0,0.75,0.24,1.06,1.02,1.06c1.22,0,1.64-0.76,1.64-1.87v-2.79h1.13v5.51h-1.13V83.58z"/>
<path class="st0" d="M185.1,79.2l0.08-0.04c0.47-0.37,0.84-0.57,1.47-0.57c1.64,0,2.5,1.35,2.5,2.86c0,1.5-0.85,2.85-2.45,2.85
	c-0.52,0-1.22-0.21-1.6-0.62v2.42h-1.13v-7.42h1.13V79.2z M185.1,81.44c0,0.97,0.36,1.92,1.47,1.92c1.09,0,1.44-0.91,1.44-1.86
	c0-0.98-0.28-1.96-1.44-1.96C185.46,79.53,185.1,80.48,185.1,81.44z"/>
<path class="st0" d="M194.44,78.59h1.97v0.95h-1.97v2.76c0,0.52,0.09,1.06,0.74,1.06c0.39,0,0.92-0.2,1.23-0.43v1.04
	c-0.35,0.21-0.84,0.33-1.25,0.33c-1.33,0-1.85-0.88-1.85-2.11v-2.65h-1.13v-0.95h1.13v-1.25l1.13-0.3V78.59z"/>
<path class="st0" d="M203.28,83.67c-0.43,0.41-1.01,0.63-1.6,0.63c-1.07,0-1.98-0.58-1.98-1.71c0-1.43,1.34-1.86,2.55-1.86h1.02
	v-0.2c0-0.63-0.09-1.09-1.02-1.09c-0.58,0-1.18,0.09-1.18,0.63h-1.13c0.08-1.22,1.24-1.48,2.26-1.48c1.6,0,2.21,0.56,2.21,2.18v3.43
	h-1.13V83.67z M202.1,81.59c-0.62,0-1.27,0.23-1.27,0.96c0,0.57,0.41,0.89,0.96,0.89c1,0,1.49-0.76,1.49-1.66v-0.19H202.1z"/>
<path class="st0" d="M224.19,80.06c-0.02-0.5-0.59-0.62-0.94-0.62c-0.41,0-1.05,0.1-1.05,0.66c0,0.47,0.31,0.63,0.73,0.7
	c1.11,0.22,2.63,0.37,2.63,1.86c0,1.33-1.44,1.63-2.51,1.63c-1.02,0-2.18-0.34-2.18-1.56h1.13c0.02,0.65,0.7,0.7,1.07,0.7
	c0.47,0,1.35-0.13,1.35-0.77c0-0.56-0.45-0.65-0.9-0.73c-0.48-0.09-1.19-0.25-1.64-0.46c-0.55-0.23-0.81-0.75-0.81-1.32
	c0-1.29,1.31-1.57,2.18-1.57c1.01,0,2.07,0.43,2.07,1.31v0.17H224.19z"/>
<path class="st0" d="M229.79,79.2l0.08-0.04c0.47-0.37,0.84-0.57,1.47-0.57c1.64,0,2.5,1.35,2.5,2.86c0,1.5-0.85,2.85-2.45,2.85
	c-0.52,0-1.22-0.21-1.6-0.62v2.42h-1.13v-7.42h1.13V79.2z M229.79,81.44c0,0.97,0.36,1.92,1.47,1.92c1.09,0,1.44-0.91,1.44-1.86
	c0-0.98-0.28-1.96-1.44-1.96C230.15,79.53,229.79,80.48,229.79,81.44z"/>
<path class="st0" d="M237.72,81.67c-0.05,1,0.59,1.68,1.61,1.68c0.33,0,0.75-0.03,0.87-0.39h1.12c-0.05,1.04-1.19,1.33-2.05,1.33
	c-1.75,0-2.68-1.1-2.68-2.82c0-1.64,0.8-2.89,2.54-2.89c1.73,0,2.4,1.13,2.4,2.74v0.34H237.72z M240.39,80.72
	c-0.01-0.74-0.56-1.19-1.29-1.19c-0.69,0-1.34,0.45-1.39,1.19H240.39z"/>
<path class="st0" d="M246.84,82.08c0,0.91,0.34,1.18,1.24,1.18h0.74v0.95h-1.02c-1.65,0-2.09-0.86-2.09-2.41v-5.6h1.13V82.08z"/>
<path class="st0" d="M254.76,82.08c0,0.91,0.34,1.18,1.24,1.18h0.74v0.95h-1.02c-1.65,0-2.09-0.86-2.09-2.41v-5.6h1.13V82.08z"/>
<path class="st0" d="M263.81,83.67c-0.43,0.41-1.01,0.63-1.6,0.63c-1.07,0-1.98-0.58-1.98-1.71c0-1.43,1.34-1.86,2.55-1.86h1.02
	v-0.2c0-0.63-0.09-1.09-1.02-1.09c-0.58,0-1.18,0.09-1.18,0.63h-1.13c0.08-1.22,1.24-1.48,2.26-1.48c1.6,0,2.21,0.56,2.21,2.18v3.43
	h-1.13V83.67z M262.63,81.59c-0.62,0-1.27,0.23-1.27,0.96c0,0.57,0.41,0.89,0.96,0.89c1,0,1.49-0.76,1.49-1.66v-0.19H262.63z"/>
<path class="st0" d="M268.26,76.19h1.13v3.1h0.03c0.37-0.5,1.04-0.7,1.64-0.7c1.69,0,2.39,1.46,2.39,2.95
	c0,1.47-0.89,2.76-2.46,2.76c-0.59,0-1.19-0.22-1.6-0.66v0.56h-1.13V76.19z M269.39,81.45c0,0.92,0.4,1.9,1.47,1.9
	c1.02,0,1.45-0.96,1.45-1.85c0-0.89-0.33-1.97-1.4-1.97C269.81,79.53,269.39,80.47,269.39,81.45z"/>
<path class="st0" d="M20.54,94.62c0,1.63-0.98,2.88-2.67,2.88s-2.67-1.25-2.67-2.88c0-1.67,1-2.83,2.67-2.83
	C19.53,91.79,20.54,92.94,20.54,94.62z M16.33,94.63c0,1.02,0.35,2.02,1.54,2.02c1.19,0,1.54-1,1.54-2.02s-0.41-1.99-1.54-1.99
	C16.73,92.64,16.33,93.6,16.33,94.63z"/>
<path class="st0" d="M25.07,92.49h0.02c0.34-0.45,0.85-0.7,1.43-0.7c0.97,0,1.67,0.69,1.67,1.67v0.22h-1.13v-0.17
	c0-0.43-0.21-0.88-0.69-0.88c-1.08,0-1.3,1.08-1.3,1.91v2.85h-1.13v-5.51h1.13V92.49z"/>
<path class="st0" d="M34.71,91.89v5.51h-1.13v-4.48H31.8v-1.03H34.71z M34.71,89.39v1.4h-1.56v-1.4H34.71z"/>
<path class="st0" d="M42.62,96.87c-0.43,0.41-1.01,0.63-1.6,0.63c-1.07,0-1.98-0.58-1.98-1.71c0-1.43,1.34-1.86,2.55-1.86h1.02v-0.2
	c0-0.63-0.09-1.09-1.02-1.09c-0.58,0-1.18,0.09-1.18,0.63h-1.13c0.08-1.22,1.24-1.48,2.26-1.48c1.6,0,2.21,0.56,2.21,2.18v3.43
	h-1.13V96.87z M41.44,94.79c-0.62,0-1.27,0.23-1.27,0.96c0,0.57,0.41,0.89,0.96,0.89c1,0,1.49-0.76,1.49-1.66v-0.19H41.44z"/>
<path class="st0" d="M48.2,94.87c-0.05,1,0.59,1.68,1.61,1.68c0.33,0,0.75-0.03,0.87-0.39h1.12c-0.05,1.04-1.19,1.33-2.05,1.33
	c-1.75,0-2.68-1.1-2.68-2.82c0-1.64,0.8-2.89,2.54-2.89c1.73,0,2.4,1.13,2.4,2.74v0.34H48.2z M50.88,93.92
	c-0.01-0.74-0.56-1.19-1.29-1.19c-0.69,0-1.34,0.45-1.39,1.19H50.88z"/>
<path class="st0" d="M58.68,93.37c-0.02-0.4-0.47-0.64-0.89-0.64c-1.1,0-1.33,0.97-1.33,1.87c0,0.87,0.21,1.95,1.28,1.95
	c0.48,0,0.95-0.36,0.95-0.84h1.13c0,1.17-1.13,1.78-2.16,1.78c-1.63,0-2.33-1.4-2.33-2.88c0-1.47,0.83-2.83,2.43-2.83
	c1.02,0,1.89,0.51,2.06,1.58H58.68z"/>
<path class="st0" d="M65.45,91.79h1.97v0.95h-1.97v2.76c0,0.52,0.09,1.06,0.74,1.06c0.39,0,0.92-0.2,1.23-0.43v1.04
	c-0.35,0.21-0.84,0.33-1.25,0.33c-1.33,0-1.85-0.88-1.85-2.11v-2.65h-1.13v-0.95h1.13v-1.25l1.13-0.3V91.79z"/>
<path class="st0" d="M71.96,94.87c-0.05,1,0.59,1.68,1.61,1.68c0.33,0,0.75-0.03,0.87-0.39h1.12c-0.05,1.04-1.19,1.33-2.05,1.33
	c-1.75,0-2.68-1.1-2.68-2.82c0-1.64,0.8-2.89,2.54-2.89c1.73,0,2.4,1.13,2.4,2.74v0.34H71.96z M74.64,93.92
	c-0.01-0.74-0.56-1.19-1.29-1.19c-0.69,0-1.34,0.45-1.39,1.19H74.64z"/>
<path class="st0" d="M100.85,96.83c-0.39,0.38-1.01,0.67-1.57,0.67c-1.65,0-2.45-1.33-2.45-2.84c0-1.49,0.73-2.87,2.38-2.87
	c0.6,0,1.27,0.2,1.63,0.68h0.02v-3.08h1.13v8.01h-1.13V96.83z M100.85,94.57c0-0.98-0.42-1.84-1.52-1.84
	c-1.01,0-1.38,0.98-1.38,1.84c0,0.92,0.36,1.98,1.45,1.98C100.48,96.55,100.85,95.5,100.85,94.57z"/>
<path class="st0" d="M110.11,94.62c0,1.63-0.98,2.88-2.67,2.88s-2.67-1.25-2.67-2.88c0-1.67,1-2.83,2.67-2.83
	C109.1,91.79,110.11,92.94,110.11,94.62z M105.9,94.63c0,1.02,0.35,2.02,1.54,2.02c1.19,0,1.54-1,1.54-2.02s-0.41-1.99-1.54-1.99
	C106.31,92.64,105.9,93.6,105.9,94.63z"/>
<path class="st0" d="M115.22,95.28c0,0.91,0.34,1.18,1.24,1.18h0.74v0.95h-1.02c-1.65,0-2.09-0.86-2.09-2.41v-5.6h1.13V95.28z"/>
<path class="st0" d="M125.95,94.62c0,1.63-0.98,2.88-2.67,2.88s-2.67-1.25-2.67-2.88c0-1.67,1-2.83,2.67-2.83
	C124.94,91.79,125.95,92.94,125.95,94.62z M121.74,94.63c0,1.02,0.35,2.02,1.54,2.02c1.19,0,1.54-1,1.54-2.02s-0.41-1.99-1.54-1.99
	C122.15,92.64,121.74,93.6,121.74,94.63z"/>
<path class="st0" d="M130.48,92.49h0.02c0.34-0.45,0.85-0.7,1.43-0.7c0.97,0,1.67,0.69,1.67,1.67v0.22h-1.13v-0.17
	c0-0.43-0.21-0.88-0.69-0.88c-1.08,0-1.3,1.08-1.3,1.91v2.85h-1.13v-5.51h1.13V92.49z"/>
<path class="st0" d="M158.38,93.26c-0.02-0.5-0.59-0.62-0.94-0.62c-0.41,0-1.05,0.1-1.05,0.66c0,0.47,0.31,0.63,0.73,0.7
	c1.11,0.22,2.63,0.37,2.63,1.86c0,1.33-1.44,1.63-2.51,1.63c-1.02,0-2.18-0.34-2.18-1.56h1.13c0.02,0.65,0.7,0.7,1.07,0.7
	c0.47,0,1.35-0.13,1.35-0.77c0-0.56-0.45-0.65-0.9-0.73c-0.48-0.09-1.19-0.25-1.64-0.46c-0.55-0.23-0.81-0.75-0.81-1.32
	c0-1.29,1.31-1.57,2.18-1.57c1.01,0,2.07,0.43,2.07,1.31v0.17H158.38z"/>
<path class="st0" d="M166.33,91.89v5.51h-1.13v-4.48h-1.77v-1.03H166.33z M166.33,89.39v1.4h-1.56v-1.4H166.33z"/>
<path class="st0" d="M171.57,92.3c0.14-0.17,0.31-0.29,0.48-0.37c0.19-0.09,0.39-0.13,0.61-0.13c0.38,0,0.73,0.12,0.96,0.43
	c0.31-0.3,0.68-0.43,1.11-0.43c0.89,0,1.33,0.74,1.33,1.55v4.06h-1.13v-4.06c0-0.34-0.02-0.7-0.47-0.7c-0.66,0-0.64,0.7-0.64,1.17
	v3.6h-1.13v-4.06c0-0.31-0.06-0.7-0.46-0.7c-0.64,0-0.65,0.7-0.65,1.17v3.6h-1.13v-5.51h1.13V92.3z"/>
<path class="st0" d="M182.16,96.87c-0.43,0.41-1.01,0.63-1.6,0.63c-1.07,0-1.98-0.58-1.98-1.71c0-1.43,1.34-1.86,2.55-1.86h1.02
	v-0.2c0-0.63-0.09-1.09-1.02-1.09c-0.58,0-1.18,0.09-1.18,0.63h-1.13c0.08-1.22,1.24-1.48,2.26-1.48c1.6,0,2.21,0.56,2.21,2.18v3.43
	h-1.13V96.87z M180.98,94.79c-0.62,0-1.27,0.23-1.27,0.96c0,0.57,0.41,0.89,0.96,0.89c1,0,1.49-0.76,1.49-1.66v-0.19H180.98z"/>
<path class="st0" d="M191.42,97.2c0,1.69-1.14,2.09-2.61,2.09c-0.87,0-2.08-0.12-2.08-1.28V97.9h1.13c-0.03,0.5,0.56,0.55,0.94,0.55
	c1.28,0,1.49-0.3,1.49-1.16v-0.81l-0.04,0.03c-0.47,0.38-0.87,0.55-1.47,0.55c-1.6,0-2.27-1.25-2.27-2.72
	c0-1.41,0.74-2.56,2.24-2.56c0.55,0,1.2,0.15,1.53,0.59v0.01h0.02v-0.5h1.13L191.42,97.2z M190.3,94.39c0-0.91-0.32-1.75-1.36-1.75
	c-1.02,0-1.29,0.91-1.29,1.78c0,0.92,0.27,1.8,1.34,1.8C190,96.22,190.3,95.25,190.3,94.39z"/>
<path class="st0" d="M195.68,92.5h0.02c0.35-0.46,1.07-0.71,1.67-0.71c1.31,0,2.1,0.87,2.1,2.14v3.47h-1.13v-3.54
	c0-0.73-0.33-1.12-1.09-1.12c-1.11,0-1.57,0.76-1.57,1.79v2.87h-1.13v-5.51h1.13V92.5z"/>
<path class="st0" d="M205.93,91.89v5.51h-1.13v-4.48h-1.77v-1.03H205.93z M205.93,89.39v1.4h-1.56v-1.4H205.93z"/>
<path class="st0" d="M213.82,93.26c-0.02-0.5-0.59-0.62-0.94-0.62c-0.41,0-1.05,0.1-1.05,0.66c0,0.47,0.31,0.63,0.73,0.7
	c1.11,0.22,2.63,0.37,2.63,1.86c0,1.33-1.44,1.63-2.51,1.63c-1.02,0-2.18-0.34-2.18-1.56h1.13c0.02,0.65,0.7,0.7,1.07,0.7
	c0.47,0,1.35-0.13,1.35-0.77c0-0.56-0.45-0.65-0.9-0.73c-0.48-0.09-1.19-0.25-1.64-0.46c-0.55-0.23-0.81-0.75-0.81-1.32
	c0-1.29,1.31-1.57,2.18-1.57c1.01,0,2.07,0.43,2.07,1.31v0.17H213.82z"/>
<path class="st0" d="M240.39,96.83c-0.39,0.38-1.01,0.67-1.57,0.67c-1.65,0-2.45-1.33-2.45-2.84c0-1.49,0.73-2.87,2.38-2.87
	c0.6,0,1.27,0.2,1.63,0.68h0.02v-3.08h1.13v8.01h-1.13V96.83z M240.39,94.57c0-0.98-0.42-1.84-1.52-1.84
	c-1.01,0-1.38,0.98-1.38,1.84c0,0.92,0.36,1.98,1.45,1.98C240.02,96.55,240.39,95.5,240.39,94.57z"/>
<path class="st0" d="M249.66,94.62c0,1.63-0.98,2.88-2.67,2.88s-2.67-1.25-2.67-2.88c0-1.67,1-2.83,2.67-2.83
	C248.64,91.79,249.66,92.94,249.66,94.62z M245.44,94.63c0,1.02,0.35,2.02,1.54,2.02c1.19,0,1.54-1,1.54-2.02s-0.41-1.99-1.54-1.99
	C245.85,92.64,245.44,93.6,245.44,94.63z"/>
<path class="st0" d="M254.76,95.28c0,0.91,0.34,1.18,1.24,1.18h0.74v0.95h-1.02c-1.65,0-2.09-0.86-2.09-2.41v-5.6h1.13V95.28z"/>
<path class="st0" d="M264.15,96.78c-0.43,0.51-1.2,0.71-1.84,0.71c-1.24,0-1.96-0.8-1.96-2v-3.61h1.13v3.61
	c0,0.75,0.24,1.06,1.02,1.06c1.22,0,1.64-0.76,1.64-1.87v-2.79h1.13v5.51h-1.13V96.78z"/>
<path class="st0" d="M269.06,92.3c0.14-0.17,0.31-0.29,0.48-0.37c0.19-0.09,0.39-0.13,0.61-0.13c0.38,0,0.73,0.12,0.96,0.43
	c0.31-0.3,0.68-0.43,1.11-0.43c0.89,0,1.33,0.74,1.33,1.55v4.06h-1.13v-4.06c0-0.34-0.02-0.7-0.47-0.7c-0.66,0-0.64,0.7-0.64,1.17
	v3.6h-1.13v-4.06c0-0.31-0.06-0.7-0.46-0.7c-0.64,0-0.65,0.7-0.65,1.17v3.6h-1.13v-5.51h1.13V92.3z"/>
<path class="st0" d="M16.54,105.7h0.02c0.35-0.46,1.07-0.71,1.67-0.71c1.31,0,2.1,0.87,2.1,2.14v3.47H19.2v-3.54
	c0-0.73-0.33-1.12-1.09-1.12c-1.11,0-1.57,0.76-1.57,1.79v2.87H15.4v-5.51h1.13V105.7z"/>
<path class="st0" d="M28.46,107.82c0,1.63-0.98,2.88-2.67,2.88s-2.67-1.25-2.67-2.88c0-1.67,1-2.83,2.67-2.83
	C27.45,104.99,28.46,106.14,28.46,107.82z M24.25,107.83c0,1.02,0.35,2.02,1.54,2.02c1.19,0,1.54-1,1.54-2.02s-0.41-1.99-1.54-1.99
	C24.65,105.84,24.25,106.8,24.25,107.83z"/>
<path class="st0" d="M32.38,105.7h0.02c0.35-0.46,1.07-0.71,1.67-0.71c1.31,0,2.1,0.87,2.1,2.14v3.47h-1.13v-3.54
	c0-0.73-0.33-1.12-1.09-1.12c-1.11,0-1.57,0.76-1.57,1.79v2.87h-1.13v-5.51h1.13V105.7z"/>
<path class="st0" d="M42.6,106.46c-0.02-0.5-0.59-0.62-0.94-0.62c-0.41,0-1.05,0.1-1.05,0.66c0,0.47,0.31,0.63,0.73,0.7
	c1.11,0.22,2.63,0.37,2.63,1.86c0,1.33-1.44,1.63-2.51,1.63c-1.02,0-2.18-0.34-2.18-1.56h1.13c0.02,0.65,0.7,0.7,1.07,0.7
	c0.47,0,1.35-0.13,1.35-0.77c0-0.56-0.45-0.65-0.9-0.73c-0.48-0.09-1.19-0.25-1.64-0.46c-0.55-0.23-0.81-0.75-0.81-1.32
	c0-1.29,1.31-1.57,2.18-1.57c1.01,0,2.07,0.43,2.07,1.31v0.17H42.6z"/>
<path class="st0" d="M48.2,108.07c-0.05,1,0.59,1.68,1.61,1.68c0.33,0,0.75-0.03,0.87-0.39h1.12c-0.05,1.04-1.19,1.33-2.05,1.33
	c-1.75,0-2.68-1.1-2.68-2.82c0-1.64,0.8-2.89,2.54-2.89c1.73,0,2.4,1.13,2.4,2.74v0.34H48.2z M50.88,107.12
	c-0.01-0.74-0.56-1.19-1.29-1.19c-0.69,0-1.34,0.45-1.39,1.19H50.88z"/>
<path class="st0" d="M59.94,112.5h-1.13v-2.45c-0.4,0.44-0.99,0.65-1.58,0.65c-1.57,0-2.45-1.25-2.45-2.76
	c0-1.52,0.78-2.95,2.44-2.95c0.6,0,1.17,0.23,1.6,0.65v-0.55h1.13V112.5z M55.9,107.81c0,0.97,0.24,1.95,1.41,1.95
	s1.5-0.95,1.5-1.97c0-0.9-0.39-1.85-1.42-1.85C56.28,105.94,55.9,106.84,55.9,107.81z"/>
<path class="st0" d="M66.72,109.98c-0.43,0.51-1.2,0.71-1.84,0.71c-1.24,0-1.96-0.8-1.96-2v-3.61h1.13v3.61
	c0,0.75,0.24,1.06,1.02,1.06c1.22,0,1.64-0.76,1.64-1.87v-2.79h1.13v5.51h-1.13V109.98z"/>
<path class="st0" d="M74.31,105.09v5.51h-1.13v-4.48H71.4v-1.03H74.31z M74.31,102.59v1.4h-1.56v-1.4H74.31z"/>
<path class="st0" d="M87.53,112.5H86.4v-2.45c-0.4,0.44-0.99,0.65-1.58,0.65c-1.57,0-2.45-1.25-2.45-2.76
	c0-1.52,0.78-2.95,2.44-2.95c0.6,0,1.17,0.23,1.6,0.65v-0.55h1.13V112.5z M83.49,107.81c0,0.97,0.24,1.95,1.41,1.95
	c1.17,0,1.5-0.95,1.5-1.97c0-0.9-0.39-1.85-1.42-1.85C83.87,105.94,83.49,106.84,83.49,107.81z"/>
<path class="st0" d="M94.31,109.98c-0.43,0.51-1.2,0.71-1.84,0.71c-1.24,0-1.96-0.8-1.96-2v-3.61h1.13v3.61
	c0,0.75,0.24,1.06,1.02,1.06c1.22,0,1.64-0.76,1.64-1.87v-2.79h1.13v5.51h-1.13V109.98z"/>
<path class="st0" d="M103.57,107.82c0,1.63-0.98,2.88-2.67,2.88s-2.67-1.25-2.67-2.88c0-1.67,1-2.83,2.67-2.83
	C102.55,104.99,103.57,106.14,103.57,107.82z M99.35,107.83c0,1.02,0.35,2.02,1.54,2.02c1.19,0,1.54-1,1.54-2.02
	s-0.41-1.99-1.54-1.99C99.76,105.84,99.35,106.8,99.35,107.83z"/>
<path class="st0" d="M109.78,106.46c-0.02-0.5-0.59-0.62-0.94-0.62c-0.41,0-1.05,0.1-1.05,0.66c0,0.47,0.31,0.63,0.73,0.7
	c1.11,0.22,2.63,0.37,2.63,1.86c0,1.33-1.44,1.63-2.51,1.63c-1.02,0-2.18-0.34-2.18-1.56h1.13c0.02,0.65,0.7,0.7,1.07,0.7
	c0.47,0,1.35-0.13,1.35-0.77c0-0.56-0.45-0.65-0.9-0.73c-0.48-0.09-1.19-0.25-1.64-0.46c-0.55-0.23-0.81-0.75-0.81-1.32
	c0-1.29,1.31-1.57,2.18-1.57c1.01,0,2.07,0.43,2.07,1.31v0.17H109.78z"/>
<path class="st0" d="M121.55,110.07c-0.43,0.41-1.01,0.63-1.6,0.63c-1.07,0-1.98-0.58-1.98-1.71c0-1.43,1.34-1.86,2.55-1.86h1.02
	v-0.2c0-0.63-0.09-1.09-1.02-1.09c-0.58,0-1.18,0.09-1.18,0.63h-1.13c0.08-1.22,1.24-1.48,2.26-1.48c1.6,0,2.21,0.56,2.21,2.18v3.43
	h-1.13V110.07z M120.37,107.99c-0.62,0-1.27,0.23-1.27,0.96c0,0.57,0.41,0.89,0.96,0.89c1,0,1.49-0.76,1.49-1.66v-0.19H120.37z"/>
<path class="st0" d="M132.29,109.66h0.02l1.55-4.58h1.25l-2,5.51h-1.62l-2-5.51h1.25L132.29,109.66z"/>
<path class="st0" d="M138.89,108.07c-0.05,1,0.59,1.68,1.61,1.68c0.33,0,0.75-0.03,0.87-0.39h1.12c-0.06,1.04-1.19,1.33-2.05,1.33
	c-1.75,0-2.68-1.1-2.68-2.82c0-1.64,0.8-2.89,2.54-2.89c1.73,0,2.4,1.13,2.4,2.74v0.34H138.89z M141.56,107.12
	c-0.01-0.74-0.56-1.19-1.29-1.19c-0.69,0-1.34,0.45-1.39,1.19H141.56z"/>
<path class="st0" d="M146.82,105.7h0.02c0.35-0.46,1.07-0.71,1.67-0.71c1.31,0,2.1,0.87,2.1,2.14v3.47h-1.13v-3.54
	c0-0.73-0.33-1.12-1.09-1.12c-1.11,0-1.57,0.76-1.57,1.79v2.87h-1.13v-5.51h1.13V105.7z"/>
<path class="st0" d="M157.07,105.09v5.51h-1.13v-4.48h-1.77v-1.03H157.07z M157.07,102.59v1.4h-1.56v-1.4H157.07z"/>
<path class="st0" d="M162.31,105.5c0.14-0.17,0.31-0.29,0.48-0.37c0.19-0.09,0.39-0.13,0.61-0.13c0.38,0,0.73,0.12,0.96,0.43
	c0.31-0.3,0.68-0.43,1.11-0.43c0.89,0,1.33,0.74,1.33,1.55v4.06h-1.13v-4.06c0-0.34-0.02-0.7-0.47-0.7c-0.66,0-0.64,0.7-0.64,1.17
	v3.6h-1.13v-4.06c0-0.31-0.06-0.7-0.46-0.7c-0.64,0-0.65,0.7-0.65,1.17v3.6h-1.13v-5.51h1.13V105.5z"/>
<path class="st0" d="M174.58,107.82c0,1.63-0.98,2.88-2.67,2.88s-2.67-1.25-2.67-2.88c0-1.67,1-2.83,2.67-2.83
	C173.57,104.99,174.58,106.14,174.58,107.82z M170.37,107.83c0,1.02,0.35,2.02,1.54,2.02c1.19,0,1.54-1,1.54-2.02
	s-0.41-1.99-1.54-1.99C170.78,105.84,170.37,106.8,170.37,107.83z"/>
<path class="st0" d="M181.16,110.03c-0.39,0.38-1.01,0.67-1.57,0.67c-1.65,0-2.45-1.33-2.45-2.84c0-1.49,0.73-2.87,2.38-2.87
	c0.6,0,1.27,0.2,1.63,0.68h0.02v-3.08h1.13v8.01h-1.13V110.03z M181.16,107.77c0-0.98-0.42-1.84-1.52-1.84
	c-1.01,0-1.38,0.98-1.38,1.84c0,0.92,0.36,1.98,1.45,1.98C180.78,109.75,181.16,108.7,181.16,107.77z"/>
<path class="st0" d="M189.89,105.5c0.14-0.17,0.31-0.29,0.48-0.37c0.19-0.09,0.39-0.13,0.61-0.13c0.38,0,0.73,0.12,0.96,0.43
	c0.31-0.3,0.68-0.43,1.11-0.43c0.89,0,1.33,0.74,1.33,1.55v4.06h-1.13v-4.06c0-0.34-0.02-0.7-0.47-0.7c-0.66,0-0.64,0.7-0.64,1.17
	v3.6H191v-4.06c0-0.31-0.06-0.7-0.46-0.7c-0.64,0-0.65,0.7-0.65,1.17v3.6h-1.13v-5.51h1.13V105.5z"/>
<path class="st0" d="M202.17,107.82c0,1.63-0.98,2.88-2.67,2.88s-2.67-1.25-2.67-2.88c0-1.67,1-2.83,2.67-2.83
	C201.16,104.99,202.17,106.14,202.17,107.82z M197.96,107.83c0,1.02,0.35,2.02,1.54,2.02c1.19,0,1.54-1,1.54-2.02
	s-0.41-1.99-1.54-1.99C198.36,105.84,197.96,106.8,197.96,107.83z"/>
<path class="st0" d="M207.27,108.48c0,0.91,0.34,1.18,1.24,1.18h0.74v0.95h-1.02c-1.65,0-2.09-0.86-2.09-2.41v-5.6h1.13V108.48z"/>
<path class="st0" d="M216.67,109.98c-0.43,0.51-1.2,0.71-1.84,0.71c-1.24,0-1.96-0.8-1.96-2v-3.61H214v3.61
	c0,0.75,0.24,1.06,1.02,1.06c1.22,0,1.64-0.76,1.64-1.87v-2.79h1.13v5.51h-1.13V109.98z"/>
<path class="st0" d="M221.9,105.61l0.08-0.04c0.47-0.37,0.84-0.57,1.47-0.57c1.64,0,2.5,1.35,2.5,2.86c0,1.5-0.85,2.85-2.45,2.85
	c-0.52,0-1.22-0.21-1.6-0.62v2.42h-1.13v-7.42h1.13V105.61z M221.9,107.84c0,0.97,0.36,1.92,1.47,1.92c1.09,0,1.44-0.91,1.44-1.86
	c0-0.98-0.28-1.96-1.44-1.96C222.26,105.94,221.9,106.88,221.9,107.84z"/>
<path class="st0" d="M231.24,104.99h1.97v0.95h-1.97v2.76c0,0.52,0.09,1.06,0.74,1.06c0.39,0,0.92-0.2,1.23-0.43v1.04
	c-0.35,0.21-0.84,0.33-1.25,0.33c-1.33,0-1.85-0.88-1.85-2.11v-2.65h-1.13v-0.95h1.13v-1.25l1.13-0.3V104.99z"/>
<path class="st0" d="M240.09,110.07c-0.43,0.41-1.01,0.63-1.6,0.63c-1.07,0-1.98-0.58-1.98-1.71c0-1.43,1.34-1.86,2.55-1.86h1.02
	v-0.2c0-0.63-0.09-1.09-1.02-1.09c-0.58,0-1.18,0.09-1.18,0.63h-1.13c0.08-1.22,1.24-1.48,2.26-1.48c1.6,0,2.21,0.56,2.21,2.18v3.43
	h-1.13V110.07z M238.91,107.99c-0.62,0-1.27,0.23-1.27,0.96c0,0.57,0.41,0.89,0.96,0.89c1,0,1.49-0.76,1.49-1.66v-0.19H238.91z"/>
<path class="st0" d="M247.08,104.99h1.97v0.95h-1.97v2.76c0,0.52,0.09,1.06,0.74,1.06c0.39,0,0.92-0.2,1.23-0.43v1.04
	c-0.35,0.21-0.84,0.33-1.25,0.33c-1.33,0-1.85-0.88-1.85-2.11v-2.65h-1.13v-0.95h1.13v-1.25l1.13-0.3V104.99z"/>
<path class="st0" d="M255.94,105.09v5.51h-1.13v-4.48h-1.77v-1.03H255.94z M255.94,102.59v1.4h-1.56v-1.4H255.94z"/>
<path class="st0" d="M265.53,107.82c0,1.63-0.98,2.88-2.67,2.88s-2.67-1.25-2.67-2.88c0-1.67,1-2.83,2.67-2.83
	C264.52,104.99,265.53,106.14,265.53,107.82z M261.31,107.83c0,1.02,0.35,2.02,1.54,2.02c1.19,0,1.54-1,1.54-2.02
	s-0.41-1.99-1.54-1.99C261.72,105.84,261.31,106.8,261.31,107.83z"/>
<path class="st0" d="M271.82,108.88v1.72h-2.1v-1.72H271.82z"/>
<path class="st0" d="M16.88,119.39h2.9v1.03h-2.9v2.34h3.47v1.03h-4.6v-7.46h4.47v1.03h-3.33V119.39z"/>
<path class="st0" d="M25.85,118.19h1.97v0.95h-1.97v2.76c0,0.52,0.09,1.06,0.74,1.06c0.39,0,0.92-0.2,1.23-0.43v1.04
	c-0.35,0.21-0.84,0.33-1.25,0.33c-1.33,0-1.85-0.88-1.85-2.11v-2.65h-1.13v-0.95h1.13v-1.25l1.13-0.3V118.19z"/>
<path class="st0" d="M42.81,118.81l0.08-0.04c0.47-0.37,0.84-0.57,1.47-0.57c1.64,0,2.5,1.35,2.5,2.86c0,1.5-0.85,2.85-2.45,2.85
	c-0.52,0-1.22-0.21-1.6-0.62v2.42h-1.13v-7.42h1.13V118.81z M42.81,121.04c0,0.97,0.36,1.92,1.47,1.92c1.09,0,1.44-0.91,1.44-1.86
	c0-0.98-0.28-1.96-1.44-1.96C43.18,119.14,42.81,120.08,42.81,121.04z"/>
<path class="st0" d="M51.94,121.68c0,0.91,0.34,1.18,1.24,1.18h0.74v0.95H52.9c-1.65,0-2.09-0.86-2.09-2.41v-5.6h1.13V121.68z"/>
<path class="st0" d="M61,123.27c-0.43,0.41-1.01,0.63-1.6,0.63c-1.07,0-1.98-0.58-1.98-1.71c0-1.43,1.34-1.86,2.55-1.86H61v-0.2
	c0-0.63-0.09-1.09-1.02-1.09c-0.58,0-1.18,0.09-1.18,0.63h-1.13c0.08-1.22,1.24-1.48,2.26-1.48c1.6,0,2.21,0.56,2.21,2.18v3.43H61
	V123.27z M59.82,121.19c-0.62,0-1.27,0.23-1.27,0.96c0,0.57,0.41,0.89,0.96,0.89c1,0,1.49-0.76,1.49-1.66v-0.19H59.82z"/>
<path class="st0" d="M65.44,115.79h1.13v3.1h0.03c0.37-0.5,1.04-0.7,1.64-0.7c1.69,0,2.39,1.46,2.39,2.95
	c0,1.47-0.89,2.76-2.46,2.76c-0.59,0-1.19-0.22-1.6-0.66v0.56h-1.13V115.79z M66.57,121.05c0,0.92,0.4,1.9,1.47,1.9
	c1.02,0,1.45-0.96,1.45-1.85c0-0.89-0.33-1.97-1.4-1.97C66.99,119.14,66.57,120.07,66.57,121.05z"/>
<path class="st0" d="M87.31,118.29v5.51h-1.13v-4.48H84.4v-1.03H87.31z M87.31,115.79v1.4h-1.56v-1.4H87.31z"/>
<path class="st0" d="M92.55,118.7c0.14-0.17,0.31-0.29,0.48-0.37c0.19-0.09,0.39-0.13,0.61-0.13c0.38,0,0.73,0.12,0.96,0.43
	c0.31-0.3,0.68-0.43,1.11-0.43c0.89,0,1.33,0.74,1.33,1.55v4.06H95.9v-4.06c0-0.34-0.02-0.7-0.47-0.7c-0.66,0-0.64,0.7-0.64,1.17
	v3.6h-1.13v-4.06c0-0.31-0.06-0.7-0.46-0.7c-0.64,0-0.65,0.7-0.65,1.17v3.6h-1.13v-5.51h1.13V118.7z"/>
<path class="st0" d="M104.82,121.02c0,1.63-0.98,2.88-2.67,2.88s-2.67-1.25-2.67-2.88c0-1.67,1-2.83,2.67-2.83
	C103.81,118.19,104.82,119.34,104.82,121.02z M100.61,121.03c0,1.02,0.35,2.02,1.54,2.02c1.19,0,1.54-1,1.54-2.02
	s-0.41-1.99-1.54-1.99C101.01,119.04,100.61,120,100.61,121.03z"/>
<path class="st0" d="M119.19,121.27c-0.05,1,0.59,1.68,1.61,1.68c0.33,0,0.75-0.03,0.87-0.39h1.12c-0.06,1.04-1.19,1.33-2.05,1.33
	c-1.75,0-2.68-1.1-2.68-2.82c0-1.64,0.8-2.89,2.54-2.89c1.73,0,2.4,1.13,2.4,2.74v0.34H119.19z M121.86,120.32
	c-0.01-0.74-0.56-1.19-1.29-1.19c-0.69,0-1.34,0.45-1.39,1.19H121.86z"/>
<path class="st0" d="M129.42,119.66c-0.02-0.5-0.59-0.62-0.94-0.62c-0.41,0-1.05,0.1-1.05,0.66c0,0.47,0.31,0.63,0.73,0.7
	c1.11,0.22,2.63,0.37,2.63,1.86c0,1.33-1.44,1.63-2.51,1.63c-1.02,0-2.18-0.34-2.18-1.56h1.13c0.02,0.65,0.7,0.7,1.07,0.7
	c0.47,0,1.35-0.13,1.35-0.77c0-0.56-0.45-0.65-0.9-0.73c-0.48-0.09-1.19-0.25-1.64-0.46c-0.55-0.23-0.81-0.75-0.81-1.32
	c0-1.29,1.31-1.57,2.18-1.57c1.01,0,2.07,0.43,2.07,1.31v0.17H129.42z"/>
<path class="st0" d="M137.34,119.66c-0.02-0.5-0.59-0.62-0.94-0.62c-0.41,0-1.05,0.1-1.05,0.66c0,0.47,0.31,0.63,0.73,0.7
	c1.11,0.22,2.63,0.37,2.63,1.86c0,1.33-1.44,1.63-2.51,1.63c-1.02,0-2.18-0.34-2.18-1.56h1.13c0.02,0.65,0.7,0.7,1.07,0.7
	c0.47,0,1.35-0.13,1.35-0.77c0-0.56-0.45-0.65-0.9-0.73c-0.48-0.09-1.19-0.25-1.64-0.46c-0.55-0.23-0.81-0.75-0.81-1.32
	c0-1.29,1.31-1.57,2.18-1.57c1.01,0,2.07,0.43,2.07,1.31v0.17H137.34z"/>
<path class="st0" d="M145.29,118.29v5.51h-1.13v-4.48h-1.77v-1.03H145.29z M145.29,115.79v1.4h-1.56v-1.4H145.29z"/>
<path class="st0" d="M152.27,118.19h1.97v0.95h-1.97v2.76c0,0.52,0.09,1.06,0.74,1.06c0.39,0,0.92-0.2,1.23-0.43v1.04
	c-0.35,0.21-0.84,0.33-1.25,0.33c-1.33,0-1.85-0.88-1.85-2.11v-2.65h-1.13v-0.95h1.13v-1.25l1.13-0.3V118.19z"/>
<path class="st0" d="M169.25,121.27c-0.05,1,0.59,1.68,1.61,1.68c0.33,0,0.75-0.03,0.87-0.39h1.12c-0.05,1.04-1.19,1.33-2.05,1.33
	c-1.75,0-2.68-1.1-2.68-2.82c0-1.64,0.8-2.89,2.54-2.89c1.73,0,2.4,1.13,2.4,2.74v0.34H169.25z M171.92,120.32
	c-0.01-0.74-0.56-1.19-1.29-1.19c-0.69,0-1.34,0.45-1.39,1.19H171.92z"/>
<path class="st0" d="M179.84,123.18c-0.43,0.51-1.2,0.71-1.84,0.71c-1.24,0-1.96-0.8-1.96-2v-3.61h1.13v3.61
	c0,0.75,0.24,1.06,1.02,1.06c1.22,0,1.64-0.76,1.64-1.87v-2.79h1.13v5.51h-1.13V123.18z"/>
<path class="st0" d="M184.75,118.7c0.14-0.17,0.31-0.29,0.48-0.37c0.19-0.09,0.39-0.13,0.61-0.13c0.38,0,0.73,0.12,0.96,0.43
	c0.31-0.3,0.68-0.43,1.11-0.43c0.89,0,1.33,0.74,1.33,1.55v4.06h-1.13v-4.06c0-0.34-0.02-0.7-0.47-0.7c-0.66,0-0.64,0.7-0.64,1.17
	v3.6h-1.13v-4.06c0-0.31-0.06-0.7-0.46-0.7c-0.64,0-0.65,0.7-0.65,1.17v3.6h-1.13v-5.51h1.13V118.7z"/>
<path class="st0" d="M205.78,119.66c-0.02-0.5-0.59-0.62-0.94-0.62c-0.41,0-1.05,0.1-1.05,0.66c0,0.47,0.31,0.63,0.73,0.7
	c1.11,0.22,2.63,0.37,2.63,1.86c0,1.33-1.44,1.63-2.51,1.63c-1.02,0-2.18-0.34-2.18-1.56h1.13c0.02,0.65,0.7,0.7,1.07,0.7
	c0.47,0,1.35-0.13,1.35-0.77c0-0.56-0.45-0.65-0.9-0.73c-0.48-0.09-1.19-0.25-1.64-0.46c-0.55-0.23-0.81-0.75-0.81-1.32
	c0-1.29,1.31-1.57,2.18-1.57c1.01,0,2.07,0.43,2.07,1.31v0.17H205.78z"/>
<path class="st0" d="M214.06,123.18c-0.43,0.51-1.2,0.71-1.84,0.71c-1.24,0-1.96-0.8-1.96-2v-3.61h1.13v3.61
	c0,0.75,0.24,1.06,1.02,1.06c1.22,0,1.64-0.76,1.64-1.87v-2.79h1.13v5.51h-1.13V123.18z"/>
<path class="st0" d="M219.32,118.9h0.02c0.35-0.46,1.07-0.71,1.67-0.71c1.31,0,2.1,0.87,2.1,2.14v3.47h-1.13v-3.54
	c0-0.73-0.33-1.12-1.09-1.12c-1.11,0-1.57,0.76-1.57,1.79v2.87h-1.13v-5.51h1.13V118.9z"/>
<path class="st0" d="M228.63,118.19h1.97v0.95h-1.97v2.76c0,0.52,0.09,1.06,0.74,1.06c0.39,0,0.92-0.2,1.23-0.43v1.04
	c-0.35,0.21-0.84,0.33-1.25,0.33c-1.33,0-1.85-0.88-1.85-2.11v-2.65h-1.13v-0.95h1.13v-1.25l1.13-0.3V118.19z"/>
<path class="st0" d="M249.43,125.7h-1.13v-2.45c-0.4,0.44-0.99,0.65-1.58,0.65c-1.57,0-2.45-1.25-2.45-2.76
	c0-1.52,0.78-2.95,2.44-2.95c0.6,0,1.17,0.23,1.6,0.65v-0.55h1.13V125.7z M245.39,121.01c0,0.97,0.24,1.95,1.41,1.95
	c1.17,0,1.5-0.95,1.5-1.97c0-0.9-0.39-1.85-1.42-1.85C245.76,119.14,245.39,120.04,245.39,121.01z"/>
<path class="st0" d="M256.2,123.18c-0.43,0.51-1.2,0.71-1.84,0.71c-1.24,0-1.96-0.8-1.96-2v-3.61h1.13v3.61
	c0,0.75,0.24,1.06,1.02,1.06c1.22,0,1.64-0.76,1.64-1.87v-2.79h1.13v5.51h-1.13V123.18z"/>
<path class="st0" d="M263.79,118.29v5.51h-1.13v-4.48h-1.77v-1.03H263.79z M263.79,115.79v1.4h-1.56v-1.4H263.79z"/>
<path class="st0" d="M271.68,119.66c-0.02-0.5-0.59-0.62-0.94-0.62c-0.41,0-1.05,0.1-1.05,0.66c0,0.47,0.31,0.63,0.73,0.7
	c1.11,0.22,2.63,0.37,2.63,1.86c0,1.33-1.44,1.63-2.51,1.63c-1.02,0-2.18-0.34-2.18-1.56h1.13c0.02,0.65,0.7,0.7,1.07,0.7
	c0.47,0,1.35-0.13,1.35-0.77c0-0.56-0.45-0.65-0.9-0.73c-0.48-0.09-1.19-0.25-1.64-0.46c-0.55-0.23-0.81-0.75-0.81-1.32
	c0-1.29,1.31-1.57,2.18-1.57c1.01,0,2.07,0.43,2.07,1.31v0.17H271.68z"/>
<path class="st0" d="M16.18,131.9c0.14-0.17,0.31-0.29,0.48-0.37c0.19-0.09,0.39-0.13,0.61-0.13c0.38,0,0.73,0.12,0.96,0.43
	c0.31-0.3,0.68-0.43,1.11-0.43c0.89,0,1.33,0.74,1.33,1.55V137h-1.13v-4.06c0-0.34-0.02-0.7-0.47-0.7c-0.66,0-0.64,0.7-0.64,1.17
	v3.6H17.3v-4.06c0-0.31-0.06-0.7-0.46-0.7c-0.64,0-0.65,0.7-0.65,1.17v3.6h-1.13v-5.51h1.13V131.9z"/>
<path class="st0" d="M26.79,131.49V137h-1.13v-4.48h-1.77v-1.03H26.79z M26.79,128.99v1.4h-1.56v-1.4H26.79z"/>
<path class="st0" d="M35.56,135.05v0.84l-2.99,3.01h-1.28l2.26-3.85H35.56z"/>
<path class="st0" d="M50.43,132.86c-0.02-0.5-0.59-0.62-0.94-0.62c-0.41,0-1.05,0.1-1.05,0.66c0,0.47,0.31,0.63,0.73,0.7
	c1.11,0.22,2.63,0.37,2.63,1.86c0,1.33-1.44,1.63-2.51,1.63c-1.02,0-2.18-0.34-2.18-1.56h1.13c0.02,0.65,0.7,0.7,1.07,0.7
	c0.47,0,1.35-0.13,1.35-0.77c0-0.56-0.45-0.65-0.9-0.73c-0.48-0.09-1.19-0.25-1.64-0.46c-0.55-0.23-0.81-0.75-0.81-1.32
	c0-1.29,1.31-1.57,2.18-1.57c1.01,0,2.07,0.43,2.07,1.31v0.17H50.43z"/>
<path class="st0" d="M56.04,134.47c-0.05,1,0.59,1.68,1.61,1.68c0.33,0,0.75-0.03,0.87-0.39h1.12c-0.05,1.04-1.19,1.33-2.05,1.33
	c-1.75,0-2.68-1.1-2.68-2.82c0-1.64,0.8-2.89,2.54-2.89c1.73,0,2.4,1.13,2.4,2.74v0.34H56.04z M58.71,133.52
	c-0.01-0.74-0.56-1.19-1.29-1.19c-0.69,0-1.34,0.45-1.39,1.19H58.71z"/>
<path class="st0" d="M66.63,136.43c-0.39,0.38-1.01,0.67-1.57,0.67c-1.65,0-2.45-1.33-2.45-2.84c0-1.49,0.73-2.87,2.38-2.87
	c0.6,0,1.27,0.2,1.63,0.68h0.02v-3.08h1.13V137h-1.13V136.43z M66.63,134.17c0-0.98-0.42-1.84-1.52-1.84
	c-1.01,0-1.38,0.98-1.38,1.84c0,0.92,0.36,1.98,1.45,1.98C66.26,136.15,66.63,135.1,66.63,134.17z"/>
<path class="st0" d="M74.22,131.49V137h-1.13v-4.48h-1.77v-1.03H74.22z M74.22,128.99v1.4h-1.56v-1.4H74.22z"/>
<path class="st0" d="M82.35,132.97c-0.02-0.4-0.47-0.64-0.89-0.64c-1.1,0-1.33,0.97-1.33,1.87c0,0.87,0.21,1.95,1.28,1.95
	c0.48,0,0.95-0.36,0.95-0.84h1.13c0,1.17-1.13,1.78-2.16,1.78c-1.63,0-2.33-1.4-2.33-2.88c0-1.47,0.83-2.83,2.43-2.83
	c1.02,0,1.89,0.51,2.06,1.58H82.35z"/>
<path class="st0" d="M90.05,136.47c-0.43,0.41-1.01,0.63-1.6,0.63c-1.07,0-1.98-0.58-1.98-1.71c0-1.43,1.34-1.86,2.55-1.86h1.02
	v-0.2c0-0.63-0.09-1.09-1.02-1.09c-0.58,0-1.18,0.09-1.18,0.63h-1.13c0.08-1.22,1.24-1.48,2.26-1.48c1.6,0,2.21,0.56,2.21,2.18V137
	h-1.13V136.47z M88.87,134.39c-0.62,0-1.27,0.23-1.27,0.96c0,0.57,0.41,0.89,0.96,0.89c1,0,1.49-0.76,1.49-1.66v-0.19H88.87z"/>
<path class="st0" d="M95.64,134.47c-0.05,1,0.59,1.68,1.61,1.68c0.33,0,0.75-0.03,0.87-0.39h1.12c-0.06,1.04-1.19,1.33-2.05,1.33
	c-1.75,0-2.68-1.1-2.68-2.82c0-1.64,0.8-2.89,2.54-2.89c1.73,0,2.4,1.13,2.4,2.74v0.34H95.64z M98.31,133.52
	c-0.01-0.74-0.56-1.19-1.29-1.19c-0.69,0-1.34,0.45-1.39,1.19H98.31z"/>
<path class="st0" d="M104.18,132.09h0.02c0.34-0.45,0.85-0.7,1.43-0.7c0.97,0,1.67,0.69,1.67,1.67v0.22h-1.13v-0.17
	c0-0.43-0.21-0.88-0.69-0.88c-1.08,0-1.3,1.08-1.3,1.91V137h-1.13v-5.51h1.13V132.09z"/>
<path class="st0" d="M113.82,131.49V137h-1.13v-4.48h-1.77v-1.03H113.82z M113.82,128.99v1.4h-1.56v-1.4H113.82z"/>
<path class="st0" d="M120.8,131.39h1.97v0.95h-1.97v2.76c0,0.52,0.09,1.06,0.74,1.06c0.39,0,0.92-0.2,1.23-0.43v1.04
	c-0.35,0.21-0.84,0.33-1.25,0.33c-1.33,0-1.85-0.88-1.85-2.11v-2.65h-1.13v-0.95h1.13v-1.25l1.13-0.3V131.39z"/>
<path class="st0" d="M129.66,131.49V137h-1.13v-4.48h-1.77v-1.03H129.66z M129.66,128.99v1.4h-1.56v-1.4H129.66z"/>
<path class="st0" d="M146.88,138.9h-1.13v-2.45c-0.4,0.44-0.99,0.65-1.58,0.65c-1.57,0-2.45-1.25-2.45-2.76
	c0-1.52,0.78-2.95,2.44-2.95c0.6,0,1.17,0.23,1.6,0.65v-0.55h1.13V138.9z M142.85,134.21c0,0.97,0.24,1.95,1.41,1.95
	s1.5-0.95,1.5-1.97c0-0.9-0.39-1.85-1.42-1.85C143.22,132.34,142.85,133.24,142.85,134.21z"/>
<path class="st0" d="M153.66,136.38c-0.43,0.51-1.2,0.71-1.84,0.71c-1.24,0-1.96-0.8-1.96-2v-3.61H151v3.61
	c0,0.75,0.24,1.06,1.02,1.06c1.22,0,1.64-0.76,1.64-1.87v-2.79h1.13V137h-1.13V136.38z"/>
<path class="st0" d="M161.25,131.49V137h-1.13v-4.48h-1.77v-1.03H161.25z M161.25,128.99v1.4h-1.56v-1.4H161.25z"/>
<path class="st0" d="M178.67,134.22c0,1.63-0.98,2.88-2.67,2.88s-2.67-1.25-2.67-2.88c0-1.67,1-2.83,2.67-2.83
	C177.66,131.39,178.67,132.54,178.67,134.22z M174.46,134.23c0,1.02,0.35,2.02,1.54,2.02c1.19,0,1.54-1,1.54-2.02
	s-0.41-1.99-1.54-1.99C174.87,132.24,174.46,133.2,174.46,134.23z"/>
<path class="st0" d="M185.25,136.43c-0.39,0.38-1.01,0.67-1.57,0.67c-1.65,0-2.45-1.33-2.45-2.84c0-1.49,0.73-2.87,2.38-2.87
	c0.6,0,1.27,0.2,1.63,0.68h0.02v-3.08h1.13V137h-1.13V136.43z M185.25,134.17c0-0.98-0.42-1.84-1.52-1.84
	c-1.01,0-1.38,0.98-1.38,1.84c0,0.92,0.36,1.98,1.45,1.98C184.88,136.15,185.25,135.1,185.25,134.17z"/>
<path class="st0" d="M202.15,138.9h-1.13v-2.45c-0.4,0.44-0.99,0.65-1.58,0.65c-1.57,0-2.45-1.25-2.45-2.76
	c0-1.52,0.78-2.95,2.44-2.95c0.6,0,1.17,0.23,1.6,0.65v-0.55h1.13V138.9z M198.11,134.21c0,0.97,0.24,1.95,1.41,1.95
	s1.5-0.95,1.5-1.97c0-0.9-0.39-1.85-1.42-1.85C198.48,132.34,198.11,133.24,198.11,134.21z"/>
<path class="st0" d="M208.92,136.38c-0.43,0.51-1.2,0.71-1.84,0.71c-1.24,0-1.96-0.8-1.96-2v-3.61h1.13v3.61
	c0,0.75,0.24,1.06,1.02,1.06c1.22,0,1.64-0.76,1.64-1.87v-2.79h1.13V137h-1.13V136.38z"/>
<path class="st0" d="M214.17,134.47c-0.05,1,0.59,1.68,1.61,1.68c0.33,0,0.75-0.03,0.87-0.39h1.12c-0.05,1.04-1.19,1.33-2.05,1.33
	c-1.75,0-2.68-1.1-2.68-2.82c0-1.64,0.8-2.89,2.54-2.89c1.73,0,2.4,1.13,2.4,2.74v0.34H214.17z M216.84,133.52
	c-0.01-0.74-0.56-1.19-1.29-1.19c-0.69,0-1.34,0.45-1.39,1.19H216.84z"/>
<path class="st0" d="M232.26,131.49V137h-1.13v-4.48h-1.77v-1.03H232.26z M232.26,128.99v1.4h-1.56v-1.4H232.26z"/>
<path class="st0" d="M240.51,136.38c-0.43,0.51-1.2,0.71-1.84,0.71c-1.24,0-1.96-0.8-1.96-2v-3.61h1.13v3.61
	c0,0.75,0.24,1.06,1.02,1.06c1.22,0,1.64-0.76,1.64-1.87v-2.79h1.13V137h-1.13V136.38z"/>
<path class="st0" d="M245.42,131.9c0.14-0.17,0.31-0.29,0.48-0.37c0.19-0.09,0.39-0.13,0.61-0.13c0.38,0,0.73,0.12,0.96,0.43
	c0.31-0.3,0.68-0.43,1.11-0.43c0.89,0,1.33,0.74,1.33,1.55V137h-1.13v-4.06c0-0.34-0.02-0.7-0.47-0.7c-0.66,0-0.64,0.7-0.64,1.17
	v3.6h-1.13v-4.06c0-0.31-0.06-0.7-0.46-0.7c-0.64,0-0.65,0.7-0.65,1.17v3.6h-1.13v-5.51h1.13V131.9z"/>
<path class="st0" d="M261.51,134.47c-0.05,1,0.59,1.68,1.61,1.68c0.33,0,0.75-0.03,0.87-0.39h1.12c-0.06,1.04-1.19,1.33-2.05,1.33
	c-1.75,0-2.68-1.1-2.68-2.82c0-1.64,0.8-2.89,2.54-2.89c1.73,0,2.4,1.13,2.4,2.74v0.34H261.51z M264.19,133.52
	c-0.01-0.74-0.56-1.19-1.29-1.19c-0.69,0-1.34,0.45-1.39,1.19H264.19z"/>
<path class="st0" d="M270.84,131.39h1.97v0.95h-1.97v2.76c0,0.52,0.09,1.06,0.74,1.06c0.39,0,0.92-0.2,1.23-0.43v1.04
	c-0.35,0.21-0.84,0.33-1.25,0.33c-1.33,0-1.85-0.88-1.85-2.11v-2.65h-1.13v-0.95h1.13v-1.25l1.13-0.3V131.39z"/>
<path class="st0" d="M293.98,79.1c0.14-0.17,0.31-0.29,0.48-0.37c0.19-0.09,0.39-0.13,0.61-0.13c0.38,0,0.73,0.12,0.96,0.43
	c0.31-0.3,0.68-0.43,1.11-0.43c0.89,0,1.33,0.74,1.33,1.55v4.06h-1.13v-4.06c0-0.34-0.02-0.7-0.47-0.7c-0.66,0-0.64,0.7-0.64,1.17
	v3.6h-1.13v-4.06c0-0.31-0.06-0.7-0.46-0.7c-0.64,0-0.65,0.7-0.65,1.17v3.6h-1.13v-5.51h1.13V79.1z"/>
<path class="st0" d="M306.26,81.42c0,1.63-0.98,2.88-2.67,2.88s-2.67-1.25-2.67-2.88c0-1.67,1-2.83,2.67-2.83
	C305.24,78.59,306.26,79.74,306.26,81.42z M302.04,81.43c0,1.02,0.35,2.02,1.54,2.02c1.19,0,1.54-1,1.54-2.02s-0.41-1.99-1.54-1.99
	C302.45,79.44,302.04,80.4,302.04,81.43z"/>
<path class="st0" d="M312.83,83.63c-0.39,0.38-1.01,0.67-1.57,0.67c-1.65,0-2.45-1.33-2.45-2.84c0-1.49,0.73-2.87,2.38-2.87
	c0.6,0,1.27,0.2,1.63,0.68h0.02v-3.08h1.13v8.01h-1.13V83.63z M312.83,81.37c0-0.98-0.42-1.84-1.52-1.84
	c-1.01,0-1.38,0.98-1.38,1.84c0,0.92,0.36,1.98,1.45,1.98C312.46,83.35,312.83,82.3,312.83,81.37z"/>
<path class="st0" d="M320.42,78.69v5.51h-1.13v-4.48h-1.77v-1.03H320.42z M320.42,76.19v1.4h-1.56v-1.4H320.42z"/>
<path class="st0" d="M328.55,80.17c-0.02-0.4-0.47-0.64-0.89-0.64c-1.1,0-1.33,0.97-1.33,1.87c0,0.87,0.21,1.95,1.28,1.95
	c0.48,0,0.95-0.36,0.95-0.84h1.13c0,1.17-1.13,1.78-2.16,1.78c-1.63,0-2.33-1.4-2.33-2.88c0-1.47,0.82-2.83,2.43-2.83
	c1.02,0,1.89,0.51,2.06,1.58H328.55z"/>
<path class="st0" d="M336.25,83.67c-0.43,0.41-1.01,0.63-1.6,0.63c-1.07,0-1.98-0.58-1.98-1.71c0-1.43,1.34-1.86,2.55-1.86h1.02
	v-0.2c0-0.63-0.09-1.09-1.02-1.09c-0.58,0-1.18,0.09-1.18,0.63h-1.13c0.08-1.22,1.24-1.48,2.26-1.48c1.6,0,2.21,0.56,2.21,2.18v3.43
	h-1.13V83.67z M335.07,81.59c-0.62,0-1.27,0.23-1.27,0.96c0,0.57,0.41,0.89,0.96,0.89c1,0,1.49-0.76,1.49-1.66v-0.19H335.07z"/>
<path class="st0" d="M341.84,81.67c-0.05,1,0.59,1.68,1.61,1.68c0.33,0,0.75-0.03,0.87-0.39h1.12c-0.06,1.04-1.19,1.33-2.05,1.33
	c-1.75,0-2.68-1.1-2.68-2.82c0-1.64,0.8-2.89,2.54-2.89c1.73,0,2.4,1.13,2.4,2.74v0.34H341.84z M344.51,80.72
	c-0.01-0.74-0.56-1.19-1.29-1.19c-0.69,0-1.34,0.45-1.39,1.19H344.51z"/>
<path class="st0" d="M362.12,79.29h0.02c0.34-0.45,0.85-0.7,1.43-0.7c0.97,0,1.67,0.69,1.67,1.67v0.22h-1.13v-0.17
	c0-0.43-0.21-0.88-0.69-0.88c-1.08,0-1.3,1.08-1.3,1.91v2.85h-1.13v-5.51h1.13V79.29z"/>
<path class="st0" d="M369.42,81.67c-0.05,1,0.59,1.68,1.61,1.68c0.33,0,0.75-0.03,0.87-0.39h1.12c-0.05,1.04-1.19,1.33-2.05,1.33
	c-1.75,0-2.68-1.1-2.68-2.82c0-1.64,0.8-2.89,2.54-2.89c1.73,0,2.4,1.13,2.4,2.74v0.34H369.42z M372.09,80.72
	c-0.01-0.74-0.56-1.19-1.29-1.19c-0.69,0-1.34,0.45-1.39,1.19H372.09z"/>
<path class="st0" d="M377.96,79.29h0.02c0.34-0.45,0.85-0.7,1.43-0.7c0.97,0,1.67,0.69,1.67,1.67v0.22h-1.13v-0.17
	c0-0.43-0.21-0.88-0.69-0.88c-1.08,0-1.3,1.08-1.3,1.91v2.85h-1.13v-5.51h1.13V79.29z"/>
<path class="st0" d="M387.93,83.58c-0.43,0.51-1.2,0.71-1.84,0.71c-1.24,0-1.96-0.8-1.96-2v-3.61h1.13v3.61
	c0,0.75,0.24,1.06,1.02,1.06c1.22,0,1.64-0.76,1.64-1.87v-2.79h1.13v5.51h-1.13V83.58z"/>
<path class="st0" d="M392.83,79.1c0.14-0.17,0.31-0.29,0.48-0.37c0.19-0.09,0.39-0.13,0.61-0.13c0.38,0,0.73,0.12,0.96,0.43
	c0.31-0.3,0.68-0.43,1.11-0.43c0.89,0,1.33,0.74,1.33,1.55v4.06h-1.13v-4.06c0-0.34-0.02-0.7-0.47-0.7c-0.66,0-0.64,0.7-0.64,1.17
	v3.6h-1.13v-4.06c0-0.31-0.06-0.7-0.46-0.7c-0.64,0-0.65,0.7-0.65,1.17v3.6h-1.13v-5.51h1.13V79.1z"/>
<path class="st0" d="M404.29,82.25v0.84l-2.99,3.01h-1.28l2.26-3.85H404.29z"/>
<path class="st0" d="M423.3,80.17c-0.02-0.4-0.47-0.64-0.89-0.64c-1.1,0-1.33,0.97-1.33,1.87c0,0.87,0.21,1.95,1.28,1.95
	c0.48,0,0.95-0.36,0.95-0.84h1.13c0,1.17-1.13,1.78-2.16,1.78c-1.63,0-2.33-1.4-2.33-2.88c0-1.47,0.83-2.83,2.43-2.83
	c1.02,0,1.89,0.51,2.06,1.58H423.3z"/>
<path class="st0" d="M432.69,81.42c0,1.63-0.98,2.88-2.67,2.88s-2.67-1.25-2.67-2.88c0-1.67,1-2.83,2.67-2.83
	C431.67,78.59,432.69,79.74,432.69,81.42z M428.47,81.43c0,1.02,0.35,2.02,1.54,2.02c1.19,0,1.54-1,1.54-2.02s-0.41-1.99-1.54-1.99
	C428.88,79.44,428.47,80.4,428.47,81.43z"/>
<path class="st0" d="M436.6,79.3h0.02c0.35-0.46,1.07-0.71,1.67-0.71c1.31,0,2.1,0.87,2.1,2.14v3.47h-1.13v-3.54
	c0-0.73-0.33-1.12-1.09-1.12c-1.11,0-1.57,0.76-1.57,1.79v2.87h-1.13v-5.51h1.13V79.3z"/>
<path class="st0" d="M446.82,80.06c-0.02-0.5-0.59-0.62-0.94-0.62c-0.41,0-1.05,0.1-1.05,0.66c0,0.47,0.31,0.63,0.73,0.7
	c1.11,0.22,2.63,0.37,2.63,1.86c0,1.33-1.44,1.63-2.51,1.63c-1.02,0-2.18-0.34-2.18-1.56h1.13c0.02,0.65,0.7,0.7,1.07,0.7
	c0.47,0,1.35-0.13,1.35-0.77c0-0.56-0.45-0.65-0.9-0.73c-0.48-0.09-1.19-0.25-1.64-0.46c-0.55-0.23-0.81-0.75-0.81-1.32
	c0-1.29,1.31-1.57,2.18-1.57c1.01,0,2.07,0.43,2.07,1.31v0.17H446.82z"/>
<path class="st0" d="M452.43,81.67c-0.05,1,0.59,1.68,1.61,1.68c0.33,0,0.75-0.03,0.87-0.39h1.12c-0.06,1.04-1.19,1.33-2.05,1.33
	c-1.75,0-2.68-1.1-2.68-2.82c0-1.64,0.8-2.89,2.54-2.89c1.73,0,2.4,1.13,2.4,2.74v0.34H452.43z M455.1,80.72
	c-0.01-0.74-0.56-1.19-1.29-1.19c-0.69,0-1.34,0.45-1.39,1.19H455.1z"/>
<path class="st0" d="M472.1,79.3h0.02c0.35-0.46,1.07-0.71,1.67-0.71c1.31,0,2.1,0.87,2.1,2.14v3.47h-1.13v-3.54
	c0-0.73-0.33-1.12-1.09-1.12c-1.11,0-1.57,0.76-1.57,1.79v2.87h-1.13v-5.51h1.13V79.3z"/>
<path class="st0" d="M484.02,81.42c0,1.63-0.98,2.88-2.67,2.88s-2.67-1.25-2.67-2.88c0-1.67,1-2.83,2.67-2.83
	C483.01,78.59,484.02,79.74,484.02,81.42z M479.81,81.43c0,1.02,0.35,2.02,1.54,2.02c1.19,0,1.54-1,1.54-2.02s-0.41-1.99-1.54-1.99
	C480.22,79.44,479.81,80.4,479.81,81.43z"/>
<path class="st0" d="M490.24,80.06c-0.02-0.5-0.59-0.62-0.94-0.62c-0.41,0-1.05,0.1-1.05,0.66c0,0.47,0.31,0.63,0.73,0.7
	c1.11,0.22,2.63,0.37,2.63,1.86c0,1.33-1.44,1.63-2.51,1.63c-1.02,0-2.18-0.34-2.18-1.56h1.13c0.02,0.65,0.7,0.7,1.07,0.7
	c0.47,0,1.35-0.13,1.35-0.77c0-0.56-0.45-0.65-0.9-0.73c-0.48-0.09-1.19-0.25-1.64-0.46c-0.55-0.23-0.81-0.75-0.81-1.32
	c0-1.29,1.31-1.57,2.18-1.57c1.01,0,2.07,0.43,2.07,1.31v0.17H490.24z"/>
<path class="st0" d="M507.59,79.3h0.02c0.35-0.46,1.07-0.71,1.67-0.71c1.31,0,2.1,0.87,2.1,2.14v3.47h-1.13v-3.54
	c0-0.73-0.33-1.12-1.09-1.12c-1.11,0-1.57,0.76-1.57,1.79v2.87h-1.13v-5.51h1.13V79.3z"/>
<path class="st0" d="M517.85,78.69v5.51h-1.13v-4.48h-1.77v-1.03H517.85z M517.85,76.19v1.4h-1.56v-1.4H517.85z"/>
<path class="st0" d="M525.76,83.67c-0.43,0.41-1.01,0.63-1.6,0.63c-1.07,0-1.98-0.58-1.98-1.71c0-1.43,1.34-1.86,2.55-1.86h1.02
	v-0.2c0-0.63-0.09-1.09-1.02-1.09c-0.58,0-1.18,0.09-1.18,0.63h-1.13c0.08-1.22,1.24-1.48,2.26-1.48c1.6,0,2.21,0.56,2.21,2.18v3.43
	h-1.13V83.67z M524.58,81.59c-0.62,0-1.27,0.23-1.27,0.96c0,0.57,0.41,0.89,0.96,0.89c1,0,1.49-0.76,1.49-1.66v-0.19H524.58z"/>
<path class="st0" d="M532.75,78.59h1.97v0.95h-1.97v2.76c0,0.52,0.09,1.06,0.74,1.06c0.39,0,0.92-0.2,1.23-0.43v1.04
	c-0.35,0.21-0.84,0.33-1.25,0.33c-1.33,0-1.85-0.88-1.85-2.11v-2.65h-1.13v-0.95h1.13v-1.25l1.13-0.3V78.59z"/>
<path class="st0" d="M539.26,81.67c-0.05,1,0.59,1.68,1.61,1.68c0.33,0,0.75-0.03,0.87-0.39h1.12c-0.05,1.04-1.19,1.33-2.05,1.33
	c-1.75,0-2.68-1.1-2.68-2.82c0-1.64,0.8-2.89,2.54-2.89c1.73,0,2.4,1.13,2.4,2.74v0.34H539.26z M541.94,80.72
	c-0.01-0.74-0.56-1.19-1.29-1.19c-0.69,0-1.34,0.45-1.39,1.19H541.94z"/>
<path class="st0" d="M546.84,79.1c0.14-0.17,0.31-0.29,0.48-0.37c0.19-0.09,0.39-0.13,0.61-0.13c0.38,0,0.73,0.12,0.96,0.43
	c0.31-0.3,0.68-0.43,1.11-0.43c0.89,0,1.33,0.74,1.33,1.55v4.06h-1.13v-4.06c0-0.34-0.02-0.7-0.47-0.7c-0.66,0-0.64,0.7-0.64,1.17
	v3.6h-1.13v-4.06c0-0.31-0.06-0.7-0.46-0.7c-0.64,0-0.65,0.7-0.65,1.17v3.6h-1.13v-5.51h1.13V79.1z"/>
<path class="st0" d="M294.32,94.87c-0.05,1,0.59,1.68,1.61,1.68c0.33,0,0.75-0.03,0.87-0.39h1.12c-0.05,1.04-1.19,1.33-2.05,1.33
	c-1.75,0-2.68-1.1-2.68-2.82c0-1.64,0.8-2.89,2.54-2.89c1.73,0,2.4,1.13,2.4,2.74v0.34H294.32z M296.99,93.92
	c-0.01-0.74-0.56-1.19-1.29-1.19c-0.69,0-1.34,0.45-1.39,1.19H296.99z"/>
<path class="st0" d="M306.26,94.62c0,1.63-0.98,2.88-2.67,2.88s-2.67-1.25-2.67-2.88c0-1.67,1-2.83,2.67-2.83
	C305.24,91.79,306.26,92.94,306.26,94.62z M302.04,94.63c0,1.02,0.35,2.02,1.54,2.02c1.19,0,1.54-1,1.54-2.02s-0.41-1.99-1.54-1.99
	C302.45,92.64,302.04,93.6,302.04,94.63z"/>
<path class="st0" d="M312.47,93.26c-0.02-0.5-0.59-0.62-0.94-0.62c-0.41,0-1.05,0.1-1.05,0.66c0,0.47,0.31,0.63,0.73,0.7
	c1.11,0.22,2.63,0.37,2.63,1.86c0,1.33-1.44,1.63-2.51,1.63c-1.02,0-2.18-0.34-2.18-1.56h1.13c0.02,0.65,0.7,0.7,1.07,0.7
	c0.47,0,1.35-0.13,1.35-0.77c0-0.56-0.45-0.65-0.9-0.73c-0.48-0.09-1.19-0.25-1.64-0.46c-0.55-0.23-0.81-0.75-0.81-1.32
	c0-1.29,1.31-1.57,2.18-1.57c1.01,0,2.07,0.43,2.07,1.31v0.17H312.47z"/>
<path class="st0" d="M341.32,93.26c-0.02-0.5-0.59-0.62-0.94-0.62c-0.41,0-1.05,0.1-1.05,0.66c0,0.47,0.31,0.63,0.73,0.7
	c1.11,0.22,2.63,0.37,2.63,1.86c0,1.33-1.44,1.63-2.51,1.63c-1.02,0-2.18-0.34-2.18-1.56h1.13c0.02,0.65,0.7,0.7,1.07,0.7
	c0.47,0,1.35-0.13,1.35-0.77c0-0.56-0.45-0.65-0.9-0.73c-0.48-0.09-1.19-0.25-1.64-0.46c-0.55-0.23-0.81-0.75-0.81-1.32
	c0-1.29,1.31-1.57,2.18-1.57c1.01,0,2.07,0.43,2.07,1.31v0.17H341.32z"/>
<path class="st0" d="M346.93,94.87c-0.05,1,0.59,1.68,1.61,1.68c0.33,0,0.75-0.03,0.87-0.39h1.12c-0.05,1.04-1.19,1.33-2.05,1.33
	c-1.75,0-2.68-1.1-2.68-2.82c0-1.64,0.8-2.89,2.54-2.89c1.73,0,2.4,1.13,2.4,2.74v0.34H346.93z M349.61,93.92
	c-0.01-0.74-0.56-1.19-1.29-1.19c-0.69,0-1.34,0.45-1.39,1.19H349.61z"/>
<path class="st0" d="M357.4,93.37c-0.02-0.4-0.47-0.64-0.89-0.64c-1.1,0-1.33,0.97-1.33,1.87c0,0.87,0.21,1.95,1.28,1.95
	c0.48,0,0.95-0.36,0.95-0.84h1.13c0,1.17-1.13,1.78-2.16,1.78c-1.63,0-2.33-1.4-2.33-2.88c0-1.47,0.83-2.83,2.43-2.83
	c1.02,0,1.89,0.51,2.06,1.58H357.4z"/>
<path class="st0" d="M365.45,96.78c-0.43,0.51-1.2,0.71-1.84,0.71c-1.24,0-1.96-0.8-1.96-2v-3.61h1.13v3.61
	c0,0.75,0.24,1.06,1.02,1.06c1.22,0,1.64-0.76,1.64-1.87v-2.79h1.13v5.51h-1.13V96.78z"/>
<path class="st0" d="M371.89,95.28c0,0.91,0.34,1.18,1.24,1.18h0.74v0.95h-1.02c-1.65,0-2.09-0.86-2.09-2.41v-5.6h1.13V95.28z"/>
<path class="st0" d="M379.81,95.28c0,0.91,0.34,1.18,1.24,1.18h0.74v0.95h-1.02c-1.65,0-2.09-0.86-2.09-2.41v-5.6h1.13V95.28z"/>
<path class="st0" d="M386.53,94.87c-0.05,1,0.59,1.68,1.61,1.68c0.33,0,0.75-0.03,0.87-0.39h1.12c-0.06,1.04-1.19,1.33-2.05,1.33
	c-1.75,0-2.68-1.1-2.68-2.82c0-1.64,0.8-2.89,2.54-2.89c1.73,0,2.4,1.13,2.4,2.74v0.34H386.53z M389.2,93.92
	c-0.01-0.74-0.56-1.19-1.29-1.19c-0.69,0-1.34,0.45-1.39,1.19H389.2z"/>
<path class="st0" d="M396.76,93.26c-0.02-0.5-0.59-0.62-0.94-0.62c-0.41,0-1.05,0.1-1.05,0.66c0,0.47,0.31,0.63,0.73,0.7
	c1.11,0.22,2.63,0.37,2.63,1.86c0,1.33-1.44,1.63-2.51,1.63c-1.02,0-2.18-0.34-2.18-1.56h1.13c0.02,0.65,0.7,0.7,1.07,0.7
	c0.47,0,1.35-0.13,1.35-0.77c0-0.56-0.45-0.65-0.9-0.73c-0.48-0.09-1.19-0.25-1.64-0.46c-0.55-0.23-0.81-0.75-0.81-1.32
	c0-1.29,1.31-1.57,2.18-1.57c1.01,0,2.07,0.43,2.07,1.31v0.17H396.76z"/>
<path class="st0" d="M403.78,91.79h1.97v0.95h-1.97v2.76c0,0.52,0.09,1.06,0.74,1.06c0.39,0,0.92-0.2,1.23-0.43v1.04
	c-0.35,0.21-0.84,0.33-1.25,0.33c-1.33,0-1.85-0.88-1.85-2.11v-2.65h-1.13v-0.95h1.13v-1.25l1.13-0.3V91.79z"/>
<path class="st0" d="M412.63,91.89v5.51h-1.13v-4.48h-1.77v-1.03H412.63z M412.63,89.39v1.4h-1.56v-1.4H412.63z"/>
<path class="st0" d="M420.52,93.26c-0.02-0.5-0.59-0.62-0.94-0.62c-0.41,0-1.05,0.1-1.05,0.66c0,0.47,0.31,0.63,0.73,0.7
	c1.11,0.22,2.63,0.37,2.63,1.86c0,1.33-1.44,1.63-2.51,1.63c-1.02,0-2.18-0.34-2.18-1.56h1.13c0.02,0.65,0.7,0.7,1.07,0.7
	c0.47,0,1.35-0.13,1.35-0.77c0-0.56-0.45-0.65-0.9-0.73c-0.48-0.09-1.19-0.25-1.64-0.46c-0.55-0.23-0.81-0.75-0.81-1.32
	c0-1.29,1.31-1.57,2.18-1.57c1.01,0,2.07,0.43,2.07,1.31v0.17H420.52z"/>
<path class="st0" d="M449.74,96.83c-0.39,0.38-1.01,0.67-1.57,0.67c-1.65,0-2.45-1.33-2.45-2.84c0-1.49,0.73-2.87,2.38-2.87
	c0.6,0,1.27,0.2,1.63,0.68h0.02v-3.08h1.13v8.01h-1.13V96.83z M449.74,94.57c0-0.98-0.42-1.84-1.52-1.84
	c-1.01,0-1.38,0.98-1.38,1.84c0,0.92,0.36,1.98,1.45,1.98C449.36,96.55,449.74,95.5,449.74,94.57z"/>
<path class="st0" d="M454.98,94.87c-0.05,1,0.59,1.68,1.61,1.68c0.33,0,0.75-0.03,0.87-0.39h1.12c-0.06,1.04-1.19,1.33-2.05,1.33
	c-1.75,0-2.68-1.1-2.68-2.82c0-1.64,0.8-2.89,2.54-2.89c1.73,0,2.4,1.13,2.4,2.74v0.34H454.98z M457.66,93.92
	c-0.01-0.74-0.56-1.19-1.29-1.19c-0.69,0-1.34,0.45-1.39,1.19H457.66z"/>
<path class="st0" d="M461.76,89.39h1.13v3.1h0.03c0.37-0.5,1.04-0.7,1.64-0.7c1.69,0,2.39,1.46,2.39,2.95
	c0,1.47-0.89,2.76-2.46,2.76c-0.59,0-1.19-0.22-1.6-0.66v0.56h-1.13V89.39z M462.89,94.65c0,0.92,0.4,1.9,1.47,1.9
	c1.02,0,1.45-0.96,1.45-1.85c0-0.89-0.33-1.97-1.4-1.97C463.31,92.73,462.89,93.67,462.89,94.65z"/>
<path class="st0" d="M473.17,91.89v5.51h-1.13v-4.48h-1.77v-1.03H473.17z M473.17,89.39v1.4h-1.56v-1.4H473.17z"/>
<path class="st0" d="M480.15,91.79h1.97v0.95h-1.97v2.76c0,0.52,0.09,1.06,0.74,1.06c0.39,0,0.92-0.2,1.23-0.43v1.04
	c-0.35,0.21-0.84,0.33-1.25,0.33c-1.33,0-1.85-0.88-1.85-2.11v-2.65h-1.13v-0.95h1.13v-1.25l1.13-0.3V91.79z"/>
<path class="st0" d="M508.79,95.28c0,0.91,0.34,1.18,1.24,1.18h0.74v0.95h-1.02c-1.65,0-2.09-0.86-2.09-2.41v-5.6h1.13V95.28z"/>
<path class="st0" d="M517.86,91.89v5.51h-1.13v-4.48h-1.77v-1.03H517.86z M517.86,89.39v1.4h-1.56v-1.4H517.86z"/>
<path class="st0" d="M527.25,99.3h-1.13v-2.45c-0.4,0.44-0.99,0.65-1.58,0.65c-1.57,0-2.45-1.25-2.45-2.76
	c0-1.52,0.78-2.95,2.44-2.95c0.6,0,1.17,0.23,1.6,0.65v-0.55h1.13V99.3z M523.22,94.61c0,0.97,0.24,1.95,1.41,1.95
	s1.5-0.95,1.5-1.97c0-0.9-0.39-1.85-1.42-1.85C523.59,92.73,523.22,93.64,523.22,94.61z"/>
<path class="st0" d="M534.03,96.78c-0.43,0.51-1.2,0.71-1.84,0.71c-1.24,0-1.96-0.8-1.96-2v-3.61h1.13v3.61
	c0,0.75,0.24,1.06,1.02,1.06c1.22,0,1.64-0.76,1.64-1.87v-2.79h1.13v5.51h-1.13V96.78z"/>
<path class="st0" d="M543.29,94.62c0,1.63-0.98,2.88-2.67,2.88s-2.67-1.25-2.67-2.88c0-1.67,1-2.83,2.67-2.83
	C542.28,91.79,543.29,92.94,543.29,94.62z M539.08,94.63c0,1.02,0.35,2.02,1.54,2.02c1.19,0,1.54-1,1.54-2.02s-0.41-1.99-1.54-1.99
	C539.48,92.64,539.08,93.6,539.08,94.63z"/>
<path class="st0" d="M549.87,96.83c-0.39,0.38-1.01,0.67-1.57,0.67c-1.65,0-2.45-1.33-2.45-2.84c0-1.49,0.73-2.87,2.38-2.87
	c0.6,0,1.27,0.2,1.63,0.68h0.02v-3.08H551v8.01h-1.13V96.83z M549.87,94.57c0-0.98-0.42-1.84-1.52-1.84c-1.01,0-1.38,0.98-1.38,1.84
	c0,0.92,0.36,1.98,1.45,1.98C549.49,96.55,549.87,95.5,549.87,94.57z"/>
<path class="st0" d="M294.32,108.07c-0.05,1,0.59,1.68,1.61,1.68c0.33,0,0.75-0.03,0.87-0.39h1.12c-0.05,1.04-1.19,1.33-2.05,1.33
	c-1.75,0-2.68-1.1-2.68-2.82c0-1.64,0.8-2.89,2.54-2.89c1.73,0,2.4,1.13,2.4,2.74v0.34H294.32z M296.99,107.12
	c-0.01-0.74-0.56-1.19-1.29-1.19c-0.69,0-1.34,0.45-1.39,1.19H296.99z"/>
<path class="st0" d="M303.59,106.94l1.17-1.85h1.31l-1.89,2.71l2.1,2.81h-1.42l-1.34-2.01l-1.34,2.01h-1.3l2.02-2.77l-2.02-2.74
	h1.53L303.59,106.94z"/>
<path class="st0" d="M310.15,105.61l0.08-0.04c0.47-0.37,0.84-0.57,1.47-0.57c1.64,0,2.5,1.35,2.5,2.86c0,1.5-0.85,2.85-2.45,2.85
	c-0.52,0-1.22-0.21-1.6-0.62v2.42h-1.13v-7.42h1.13V105.61z M310.15,107.84c0,0.97,0.36,1.92,1.47,1.92c1.09,0,1.44-0.91,1.44-1.86
	c0-0.98-0.28-1.96-1.44-1.96C310.51,105.94,310.15,106.88,310.15,107.84z"/>
<path class="st0" d="M318.08,108.07c-0.05,1,0.59,1.68,1.61,1.68c0.33,0,0.75-0.03,0.87-0.39h1.12c-0.05,1.04-1.19,1.33-2.05,1.33
	c-1.75,0-2.68-1.1-2.68-2.82c0-1.64,0.8-2.89,2.54-2.89c1.73,0,2.4,1.13,2.4,2.74v0.34H318.08z M320.75,107.12
	c-0.01-0.74-0.56-1.19-1.29-1.19c-0.69,0-1.34,0.45-1.39,1.19H320.75z"/>
<path class="st0" d="M326.63,105.69h0.02c0.34-0.45,0.85-0.7,1.43-0.7c0.97,0,1.67,0.69,1.67,1.67v0.22h-1.13v-0.17
	c0-0.43-0.21-0.88-0.69-0.88c-1.08,0-1.3,1.08-1.3,1.91v2.85h-1.13v-5.51h1.13V105.69z"/>
<path class="st0" d="M336.47,106.57c-0.02-0.4-0.47-0.64-0.89-0.64c-1.1,0-1.33,0.97-1.33,1.87c0,0.87,0.21,1.95,1.28,1.95
	c0.48,0,0.95-0.36,0.95-0.84h1.13c0,1.17-1.13,1.78-2.16,1.78c-1.63,0-2.33-1.4-2.33-2.88c0-1.47,0.82-2.83,2.43-2.83
	c1.02,0,1.89,0.51,2.06,1.58H336.47z"/>
<path class="st0" d="M344.18,105.09v5.51h-1.13v-4.48h-1.77v-1.03H344.18z M344.18,102.59v1.4h-1.56v-1.4H344.18z"/>
<path class="st0" d="M355.56,105.61l0.08-0.04c0.47-0.37,0.84-0.57,1.47-0.57c1.64,0,2.5,1.35,2.5,2.86c0,1.5-0.85,2.85-2.45,2.85
	c-0.52,0-1.22-0.21-1.6-0.62v2.42h-1.13v-7.42h1.13V105.61z M355.56,107.84c0,0.97,0.36,1.92,1.47,1.92c1.09,0,1.44-0.91,1.44-1.86
	c0-0.98-0.28-1.96-1.44-1.96C355.92,105.94,355.56,106.88,355.56,107.84z"/>
<path class="st0" d="M365.83,105.09v5.51h-1.13v-4.48h-1.77v-1.03H365.83z M365.83,102.59v1.4h-1.56v-1.4H365.83z"/>
<path class="st0" d="M371.41,108.07c-0.05,1,0.59,1.68,1.61,1.68c0.33,0,0.75-0.03,0.87-0.39H375c-0.06,1.04-1.19,1.33-2.05,1.33
	c-1.75,0-2.68-1.1-2.68-2.82c0-1.64,0.8-2.89,2.54-2.89c1.73,0,2.4,1.13,2.4,2.74v0.34H371.41z M374.08,107.12
	c-0.01-0.74-0.56-1.19-1.29-1.19c-0.69,0-1.34,0.45-1.39,1.19H374.08z"/>
<path class="st0" d="M379.34,105.7h0.02c0.35-0.46,1.07-0.71,1.67-0.71c1.31,0,2.1,0.87,2.1,2.14v3.47H382v-3.54
	c0-0.73-0.33-1.12-1.09-1.12c-1.11,0-1.57,0.76-1.57,1.79v2.87h-1.13v-5.51h1.13V105.7z"/>
<path class="st0" d="M389.92,110.03c-0.39,0.38-1.01,0.67-1.57,0.67c-1.65,0-2.45-1.33-2.45-2.84c0-1.49,0.73-2.87,2.38-2.87
	c0.6,0,1.27,0.2,1.63,0.68h0.02v-3.08h1.13v8.01h-1.13V110.03z M389.92,107.77c0-0.98-0.42-1.84-1.52-1.84
	c-1.01,0-1.38,0.98-1.38,1.84c0,0.92,0.36,1.98,1.45,1.98C389.55,109.75,389.92,108.7,389.92,107.77z"/>
<path class="st0" d="M397.51,105.09v5.51h-1.13v-4.48h-1.77v-1.03H397.51z M397.51,102.59v1.4h-1.56v-1.4H397.51z"/>
<path class="st0" d="M404.49,104.99h1.97v0.95h-1.97v2.76c0,0.52,0.09,1.06,0.74,1.06c0.39,0,0.92-0.2,1.23-0.43v1.04
	c-0.35,0.21-0.84,0.33-1.25,0.33c-1.33,0-1.85-0.88-1.85-2.11v-2.65h-1.13v-0.95h1.13v-1.25l1.13-0.3V104.99z"/>
<path class="st0" d="M420.83,107.82c0,1.63-0.98,2.88-2.67,2.88s-2.67-1.25-2.67-2.88c0-1.67,1-2.83,2.67-2.83
	C419.82,104.99,420.83,106.14,420.83,107.82z M416.62,107.83c0,1.02,0.35,2.02,1.54,2.02c1.19,0,1.54-1,1.54-2.02
	s-0.41-1.99-1.54-1.99C417.02,105.84,416.62,106.8,416.62,107.83z"/>
<path class="st0" d="M424.72,105.61l0.08-0.04c0.47-0.37,0.84-0.57,1.47-0.57c1.64,0,2.5,1.35,2.5,2.86c0,1.5-0.85,2.85-2.45,2.85
	c-0.52,0-1.22-0.21-1.6-0.62v2.42h-1.13v-7.42h1.13V105.61z M424.72,107.84c0,0.97,0.36,1.92,1.47,1.92c1.09,0,1.44-0.91,1.44-1.86
	c0-0.98-0.28-1.96-1.44-1.96C425.09,105.94,424.72,106.88,424.72,107.84z"/>
<path class="st0" d="M434.06,104.99h1.97v0.95h-1.97v2.76c0,0.52,0.09,1.06,0.74,1.06c0.39,0,0.92-0.2,1.23-0.43v1.04
	c-0.35,0.21-0.84,0.33-1.25,0.33c-1.33,0-1.85-0.88-1.85-2.11v-2.65h-1.13v-0.95h1.13v-1.25l1.13-0.3V104.99z"/>
<path class="st0" d="M442.9,110.07c-0.43,0.41-1.01,0.63-1.6,0.63c-1.07,0-1.98-0.58-1.98-1.71c0-1.43,1.34-1.86,2.55-1.86h1.02
	v-0.2c0-0.63-0.09-1.09-1.02-1.09c-0.58,0-1.18,0.09-1.18,0.63h-1.13c0.08-1.22,1.24-1.48,2.26-1.48c1.6,0,2.21,0.56,2.21,2.18v3.43
	h-1.13V110.07z M441.73,107.99c-0.62,0-1.27,0.23-1.27,0.96c0,0.57,0.41,0.89,0.96,0.89c1,0,1.49-0.76,1.49-1.66v-0.19H441.73z"/>
<path class="st0" d="M449.9,104.99h1.97v0.95h-1.97v2.76c0,0.52,0.09,1.06,0.74,1.06c0.39,0,0.92-0.2,1.23-0.43v1.04
	c-0.35,0.21-0.84,0.33-1.25,0.33c-1.33,0-1.85-0.88-1.85-2.11v-2.65h-1.13v-0.95h1.13v-1.25l1.13-0.3V104.99z"/>
<path class="st0" d="M458.74,110.07c-0.43,0.41-1.01,0.63-1.6,0.63c-1.07,0-1.98-0.58-1.98-1.71c0-1.43,1.34-1.86,2.55-1.86h1.02
	v-0.2c0-0.63-0.09-1.09-1.02-1.09c-0.58,0-1.18,0.09-1.18,0.63h-1.13c0.08-1.22,1.24-1.48,2.26-1.48c1.6,0,2.21,0.56,2.21,2.18v3.43
	h-1.13V110.07z M457.57,107.99c-0.62,0-1.27,0.23-1.27,0.96c0,0.57,0.41,0.89,0.96,0.89c1,0,1.49-0.76,1.49-1.66v-0.19H457.57z"/>
<path class="st0" d="M463.99,105.5c0.14-0.17,0.31-0.29,0.48-0.37c0.19-0.09,0.39-0.13,0.61-0.13c0.38,0,0.73,0.12,0.96,0.43
	c0.31-0.3,0.68-0.43,1.11-0.43c0.89,0,1.33,0.74,1.33,1.55v4.06h-1.13v-4.06c0-0.34-0.02-0.7-0.47-0.7c-0.66,0-0.64,0.7-0.64,1.17
	v3.6h-1.13v-4.06c0-0.31-0.06-0.7-0.46-0.7c-0.64,0-0.65,0.7-0.65,1.17v3.6h-1.13v-5.51h1.13V105.5z"/>
<path class="st0" d="M475.44,108.65v0.84l-2.99,3.01h-1.28l2.26-3.85H475.44z"/>
<path class="st0" d="M489.8,112.5h-1.13v-2.45c-0.4,0.44-0.99,0.65-1.58,0.65c-1.57,0-2.45-1.25-2.45-2.76
	c0-1.52,0.78-2.95,2.44-2.95c0.6,0,1.17,0.23,1.6,0.65v-0.55h1.13V112.5z M485.76,107.81c0,0.97,0.24,1.95,1.41,1.95
	s1.5-0.95,1.5-1.97c0-0.9-0.39-1.85-1.42-1.85C486.13,105.94,485.76,106.84,485.76,107.81z"/>
<path class="st0" d="M496.57,109.98c-0.43,0.51-1.2,0.71-1.84,0.71c-1.24,0-1.96-0.8-1.96-2v-3.61h1.13v3.61
	c0,0.75,0.24,1.06,1.02,1.06c1.22,0,1.64-0.76,1.64-1.87v-2.79h1.13v5.51h-1.13V109.98z"/>
<path class="st0" d="M501.82,108.07c-0.05,1,0.59,1.68,1.61,1.68c0.33,0,0.75-0.03,0.87-0.39h1.12c-0.05,1.04-1.19,1.33-2.05,1.33
	c-1.75,0-2.68-1.1-2.68-2.82c0-1.64,0.8-2.89,2.54-2.89c1.73,0,2.4,1.13,2.4,2.74v0.34H501.82z M504.49,107.12
	c-0.01-0.74-0.56-1.19-1.29-1.19c-0.69,0-1.34,0.45-1.39,1.19H504.49z"/>
<path class="st0" d="M516.75,108.48c0,0.91,0.34,1.18,1.24,1.18h0.74v0.95h-1.02c-1.65,0-2.09-0.86-2.09-2.41v-5.6h1.13V108.48z"/>
<path class="st0" d="M525.81,105.09v5.51h-1.13v-4.48h-1.77v-1.03H525.81z M525.81,102.59v1.4h-1.56v-1.4H525.81z"/>
<path class="st0" d="M532.8,104.99h1.97v0.95h-1.97v2.76c0,0.52,0.09,1.06,0.74,1.06c0.39,0,0.92-0.2,1.23-0.43v1.04
	c-0.35,0.21-0.84,0.33-1.25,0.33c-1.33,0-1.85-0.88-1.85-2.11v-2.65h-1.13v-0.95h1.13v-1.25l1.13-0.3V104.99z"/>
<path class="st0" d="M541.64,110.07c-0.43,0.41-1.01,0.63-1.6,0.63c-1.07,0-1.98-0.58-1.98-1.71c0-1.43,1.34-1.86,2.55-1.86h1.02
	v-0.2c0-0.63-0.09-1.09-1.02-1.09c-0.58,0-1.18,0.09-1.18,0.63h-1.13c0.08-1.22,1.24-1.48,2.26-1.48c1.6,0,2.21,0.56,2.21,2.18v3.43
	h-1.13V110.07z M540.46,107.99c-0.62,0-1.27,0.23-1.27,0.96c0,0.57,0.41,0.89,0.96,0.89c1,0,1.49-0.76,1.49-1.66v-0.19H540.46z"/>
<path class="st0" d="M546.89,105.5c0.14-0.17,0.31-0.29,0.48-0.37c0.19-0.09,0.39-0.13,0.61-0.13c0.38,0,0.73,0.12,0.96,0.43
	c0.31-0.3,0.68-0.43,1.11-0.43c0.89,0,1.33,0.74,1.33,1.55v4.06h-1.13v-4.06c0-0.34-0.02-0.7-0.47-0.7c-0.66,0-0.64,0.7-0.64,1.17
	v3.6H548v-4.06c0-0.31-0.06-0.7-0.46-0.7c-0.64,0-0.65,0.7-0.65,1.17v3.6h-1.13v-5.51h1.13V105.5z"/>
<path class="st0" d="M296.99,123.23c-0.39,0.38-1.01,0.67-1.57,0.67c-1.65,0-2.45-1.33-2.45-2.84c0-1.49,0.73-2.87,2.38-2.87
	c0.6,0,1.27,0.2,1.63,0.68h0.02v-3.08h1.13v8.01h-1.13V123.23z M296.99,120.97c0-0.98-0.42-1.84-1.52-1.84
	c-1.01,0-1.38,0.98-1.38,1.84c0,0.92,0.36,1.98,1.45,1.98C296.62,122.95,296.99,121.9,296.99,120.97z"/>
<path class="st0" d="M306.26,121.02c0,1.63-0.98,2.88-2.67,2.88s-2.67-1.25-2.67-2.88c0-1.67,1-2.83,2.67-2.83
	C305.24,118.19,306.26,119.34,306.26,121.02z M302.04,121.03c0,1.02,0.35,2.02,1.54,2.02c1.19,0,1.54-1,1.54-2.02
	s-0.41-1.99-1.54-1.99C302.45,119.04,302.04,120,302.04,121.03z"/>
<path class="st0" d="M311.36,121.68c0,0.91,0.34,1.18,1.24,1.18h0.74v0.95h-1.02c-1.65,0-2.09-0.86-2.09-2.41v-5.6h1.13V121.68z"/>
<path class="st0" d="M320.75,123.18c-0.43,0.51-1.2,0.71-1.84,0.71c-1.24,0-1.96-0.8-1.96-2v-3.61h1.13v3.61
	c0,0.75,0.24,1.06,1.02,1.06c1.22,0,1.64-0.76,1.64-1.87v-2.79h1.13v5.51h-1.13V123.18z"/>
<path class="st0" d="M325.99,118.81l0.08-0.04c0.47-0.37,0.84-0.57,1.47-0.57c1.64,0,2.5,1.35,2.5,2.86c0,1.5-0.85,2.85-2.45,2.85
	c-0.52,0-1.22-0.21-1.6-0.62v2.42h-1.13v-7.42h1.13V118.81z M325.99,121.04c0,0.97,0.36,1.92,1.47,1.92c1.09,0,1.44-0.91,1.44-1.86
	c0-0.98-0.28-1.96-1.44-1.96C326.35,119.14,325.99,120.08,325.99,121.04z"/>
<path class="st0" d="M335.33,118.19h1.97v0.95h-1.97v2.76c0,0.52,0.09,1.06,0.74,1.06c0.39,0,0.92-0.2,1.23-0.43v1.04
	c-0.35,0.21-0.84,0.33-1.25,0.33c-1.33,0-1.85-0.88-1.85-2.11v-2.65h-1.13v-0.95h1.13v-1.25l1.13-0.3V118.19z"/>
<path class="st0" d="M344.17,123.27c-0.43,0.41-1.01,0.63-1.6,0.63c-1.07,0-1.98-0.58-1.98-1.71c0-1.43,1.34-1.86,2.55-1.86h1.02
	v-0.2c0-0.63-0.09-1.09-1.02-1.09c-0.58,0-1.18,0.09-1.18,0.63h-1.13c0.08-1.22,1.24-1.48,2.26-1.48c1.6,0,2.21,0.56,2.21,2.18v3.43
	h-1.13V123.27z M342.99,121.19c-0.62,0-1.27,0.23-1.27,0.96c0,0.57,0.41,0.89,0.96,0.89c1,0,1.49-0.76,1.49-1.66v-0.19H342.99z"/>
<path class="st0" d="M349.42,118.7c0.14-0.17,0.31-0.29,0.48-0.37c0.19-0.09,0.39-0.13,0.61-0.13c0.38,0,0.73,0.12,0.96,0.43
	c0.31-0.3,0.68-0.43,1.11-0.43c0.89,0,1.33,0.74,1.33,1.55v4.06h-1.13v-4.06c0-0.34-0.02-0.7-0.47-0.7c-0.66,0-0.64,0.7-0.64,1.17
	v3.6h-1.13v-4.06c0-0.31-0.06-0.7-0.46-0.7c-0.64,0-0.65,0.7-0.65,1.17v3.6h-1.13v-5.51h1.13V118.7z"/>
<path class="st0" d="M365.48,118.9h0.02c0.35-0.46,1.07-0.71,1.67-0.71c1.31,0,2.1,0.87,2.1,2.14v3.47h-1.13v-3.54
	c0-0.73-0.33-1.12-1.09-1.12c-1.11,0-1.57,0.76-1.57,1.79v2.87h-1.13v-5.51h1.13V118.9z"/>
<path class="st0" d="M377.4,121.02c0,1.63-0.98,2.88-2.67,2.88s-2.67-1.25-2.67-2.88c0-1.67,1-2.83,2.67-2.83
	C376.39,118.19,377.4,119.34,377.4,121.02z M373.19,121.03c0,1.02,0.35,2.02,1.54,2.02c1.19,0,1.54-1,1.54-2.02
	s-0.41-1.99-1.54-1.99C373.6,119.04,373.19,120,373.19,121.03z"/>
<path class="st0" d="M383.62,119.66c-0.02-0.5-0.59-0.62-0.94-0.62c-0.41,0-1.05,0.1-1.05,0.66c0,0.47,0.31,0.63,0.73,0.7
	c1.11,0.22,2.63,0.37,2.63,1.86c0,1.33-1.44,1.63-2.51,1.63c-1.02,0-2.18-0.34-2.18-1.56h1.13c0.02,0.65,0.7,0.7,1.07,0.7
	c0.47,0,1.35-0.13,1.35-0.77c0-0.56-0.45-0.65-0.9-0.73c-0.48-0.09-1.19-0.25-1.64-0.46c-0.55-0.23-0.81-0.75-0.81-1.32
	c0-1.29,1.31-1.57,2.18-1.57c1.01,0,2.07,0.43,2.07,1.31v0.17H383.62z"/>
<path class="st0" d="M399.36,118.29v5.51h-1.13v-4.48h-1.77v-1.03H399.36z M399.36,115.79v1.4h-1.56v-1.4H399.36z"/>
<path class="st0" d="M406.13,121.68c0,0.91,0.34,1.18,1.24,1.18h0.74v0.95h-1.02c-1.65,0-2.09-0.86-2.09-2.41v-5.6h1.13V121.68z"/>
<path class="st0" d="M414.05,121.68c0,0.91,0.34,1.18,1.24,1.18h0.74v0.95h-1.02c-1.65,0-2.09-0.86-2.09-2.41v-5.6h1.13V121.68z"/>
<path class="st0" d="M423.11,123.27c-0.43,0.41-1.01,0.63-1.6,0.63c-1.07,0-1.98-0.58-1.98-1.71c0-1.43,1.34-1.86,2.55-1.86h1.02
	v-0.2c0-0.63-0.09-1.09-1.02-1.09c-0.58,0-1.18,0.09-1.18,0.63h-1.13c0.08-1.22,1.24-1.48,2.26-1.48c1.6,0,2.21,0.56,2.21,2.18v3.43
	h-1.13V123.27z M421.93,121.19c-0.62,0-1.27,0.23-1.27,0.96c0,0.57,0.41,0.89,0.96,0.89c1,0,1.49-0.76,1.49-1.66v-0.19H421.93z"/>
<path class="st0" d="M427.55,115.79h1.13v3.1h0.03c0.37-0.5,1.05-0.7,1.64-0.7c1.69,0,2.39,1.46,2.39,2.95
	c0,1.47-0.89,2.76-2.46,2.76c-0.59,0-1.19-0.22-1.6-0.66v0.56h-1.13V115.79z M428.68,121.05c0,0.92,0.4,1.9,1.47,1.9
	c1.02,0,1.45-0.96,1.45-1.85c0-0.89-0.33-1.97-1.4-1.97C429.1,119.14,428.68,120.07,428.68,121.05z"/>
<path class="st0" d="M446.74,118.29v5.51h-1.13v-4.48h-1.77v-1.03H446.74z M446.74,115.79v1.4h-1.56v-1.4H446.74z"/>
<path class="st0" d="M452.31,118.81l0.08-0.04c0.47-0.37,0.84-0.57,1.47-0.57c1.64,0,2.5,1.35,2.5,2.86c0,1.5-0.85,2.85-2.45,2.85
	c-0.52,0-1.22-0.21-1.6-0.62v2.42h-1.13v-7.42h1.13V118.81z M452.31,121.04c0,0.97,0.36,1.92,1.47,1.92c1.09,0,1.44-0.91,1.44-1.86
	c0-0.98-0.28-1.96-1.44-1.96C452.67,119.14,452.31,120.08,452.31,121.04z"/>
<path class="st0" d="M462.55,119.66c-0.02-0.5-0.59-0.62-0.94-0.62c-0.41,0-1.05,0.1-1.05,0.66c0,0.47,0.31,0.63,0.73,0.7
	c1.11,0.22,2.63,0.37,2.63,1.86c0,1.33-1.44,1.63-2.51,1.63c-1.02,0-2.18-0.34-2.18-1.56h1.13c0.02,0.65,0.7,0.7,1.07,0.7
	c0.47,0,1.35-0.13,1.35-0.77c0-0.56-0.45-0.65-0.9-0.73c-0.48-0.09-1.19-0.25-1.64-0.46c-0.55-0.23-0.81-0.75-0.81-1.32
	c0-1.29,1.31-1.57,2.18-1.57c1.01,0,2.07,0.43,2.07,1.31v0.17H462.55z"/>
<path class="st0" d="M470.83,123.18c-0.43,0.51-1.2,0.71-1.84,0.71c-1.24,0-1.96-0.8-1.96-2v-3.61h1.13v3.61
	c0,0.75,0.24,1.06,1.02,1.06c1.22,0,1.64-0.76,1.64-1.87v-2.79h1.13v5.51h-1.13V123.18z"/>
<path class="st0" d="M475.74,118.7c0.14-0.17,0.31-0.29,0.48-0.37c0.19-0.09,0.39-0.13,0.61-0.13c0.38,0,0.73,0.12,0.96,0.43
	c0.31-0.3,0.68-0.43,1.11-0.43c0.89,0,1.33,0.74,1.33,1.55v4.06h-1.13v-4.06c0-0.34-0.02-0.7-0.47-0.7c-0.66,0-0.64,0.7-0.64,1.17
	v3.6h-1.13v-4.06c0-0.31-0.06-0.7-0.46-0.7c-0.64,0-0.65,0.7-0.65,1.17v3.6h-1.13v-5.51h1.13V118.7z"/>
<path class="st0" d="M491.8,118.9h0.02c0.35-0.46,1.07-0.71,1.67-0.71c1.31,0,2.1,0.87,2.1,2.14v3.47h-1.13v-3.54
	c0-0.73-0.33-1.12-1.09-1.12c-1.11,0-1.57,0.76-1.57,1.79v2.87h-1.13v-5.51h1.13V118.9z"/>
<path class="st0" d="M503.72,121.02c0,1.63-0.98,2.88-2.67,2.88s-2.67-1.25-2.67-2.88c0-1.67,1-2.83,2.67-2.83
	C502.71,118.19,503.72,119.34,503.72,121.02z M499.51,121.03c0,1.02,0.35,2.02,1.54,2.02c1.19,0,1.54-1,1.54-2.02
	s-0.41-1.99-1.54-1.99C499.92,119.04,499.51,120,499.51,121.03z"/>
<path class="st0" d="M507.64,118.9h0.02c0.35-0.46,1.07-0.71,1.67-0.71c1.31,0,2.1,0.87,2.1,2.14v3.47h-1.13v-3.54
	c0-0.73-0.33-1.12-1.09-1.12c-1.11,0-1.57,0.76-1.57,1.79v2.87h-1.13v-5.51h1.13V118.9z"/>
<path class="st0" d="M517.86,119.66c-0.02-0.5-0.59-0.62-0.94-0.62c-0.41,0-1.05,0.1-1.05,0.66c0,0.47,0.31,0.63,0.73,0.7
	c1.11,0.22,2.63,0.37,2.63,1.86c0,1.33-1.44,1.63-2.51,1.63c-1.02,0-2.18-0.34-2.18-1.56h1.13c0.02,0.65,0.7,0.7,1.07,0.7
	c0.47,0,1.35-0.13,1.35-0.77c0-0.56-0.45-0.65-0.9-0.73c-0.48-0.09-1.19-0.25-1.64-0.46c-0.55-0.23-0.81-0.75-0.81-1.32
	c0-1.29,1.31-1.57,2.18-1.57c1.01,0,2.07,0.43,2.07,1.31v0.17H517.86z"/>
<path class="st0" d="M523.47,121.27c-0.05,1,0.59,1.68,1.61,1.68c0.33,0,0.75-0.03,0.87-0.39h1.12c-0.05,1.04-1.19,1.33-2.05,1.33
	c-1.75,0-2.68-1.1-2.68-2.82c0-1.64,0.8-2.89,2.54-2.89c1.73,0,2.4,1.13,2.4,2.74v0.34H523.47z M526.14,120.32
	c-0.01-0.74-0.56-1.19-1.29-1.19c-0.69,0-1.34,0.45-1.39,1.19H526.14z"/>
<path class="st0" d="M535.2,125.7h-1.13v-2.45c-0.4,0.44-0.99,0.65-1.58,0.65c-1.57,0-2.45-1.25-2.45-2.76
	c0-1.52,0.78-2.95,2.44-2.95c0.6,0,1.17,0.23,1.6,0.65v-0.55h1.13V125.7z M531.17,121.01c0,0.97,0.24,1.95,1.41,1.95
	s1.5-0.95,1.5-1.97c0-0.9-0.39-1.85-1.42-1.85C531.54,119.14,531.17,120.04,531.17,121.01z"/>
<path class="st0" d="M541.98,123.18c-0.43,0.51-1.2,0.71-1.84,0.71c-1.24,0-1.96-0.8-1.96-2v-3.61h1.13v3.61
	c0,0.75,0.24,1.06,1.02,1.06c1.22,0,1.64-0.76,1.64-1.87v-2.79h1.13v5.51h-1.13V123.18z"/>
<path class="st0" d="M547.23,121.27c-0.05,1,0.59,1.68,1.61,1.68c0.33,0,0.75-0.03,0.87-0.39h1.12c-0.05,1.04-1.19,1.33-2.05,1.33
	c-1.75,0-2.68-1.1-2.68-2.82c0-1.64,0.8-2.89,2.54-2.89c1.73,0,2.4,1.13,2.4,2.74v0.34H547.23z M549.9,120.32
	c-0.01-0.74-0.56-1.19-1.29-1.19c-0.69,0-1.34,0.45-1.39,1.19H549.9z"/>
<path class="st0" d="M294.32,134.47c-0.05,1,0.59,1.68,1.61,1.68c0.33,0,0.75-0.03,0.87-0.39h1.12c-0.05,1.04-1.19,1.33-2.05,1.33
	c-1.75,0-2.68-1.1-2.68-2.82c0-1.64,0.8-2.89,2.54-2.89c1.73,0,2.4,1.13,2.4,2.74v0.34H294.32z M296.99,133.52
	c-0.01-0.74-0.56-1.19-1.29-1.19c-0.69,0-1.34,0.45-1.39,1.19H296.99z"/>
<path class="st0" d="M303.59,133.34l1.17-1.85h1.31l-1.89,2.71l2.1,2.81h-1.42l-1.34-2.01l-1.34,2.01h-1.3l2.02-2.77l-2.02-2.74
	h1.53L303.59,133.34z"/>
<path class="st0" d="M310.16,134.47c-0.05,1,0.59,1.68,1.61,1.68c0.33,0,0.75-0.03,0.87-0.39h1.12c-0.05,1.04-1.19,1.33-2.05,1.33
	c-1.75,0-2.68-1.1-2.68-2.82c0-1.64,0.8-2.89,2.54-2.89c1.73,0,2.4,1.13,2.4,2.74v0.34H310.16z M312.83,133.52
	c-0.01-0.74-0.56-1.19-1.29-1.19c-0.69,0-1.34,0.45-1.39,1.19H312.83z"/>
<path class="st0" d="M318.71,132.09h0.02c0.34-0.45,0.85-0.7,1.43-0.7c0.97,0,1.67,0.69,1.67,1.67v0.22h-1.13v-0.17
	c0-0.43-0.21-0.88-0.69-0.88c-1.08,0-1.3,1.08-1.3,1.91V137h-1.13v-5.51h1.13V132.09z"/>
<path class="st0" d="M328.34,131.49V137h-1.13v-4.48h-1.77v-1.03H328.34z M328.34,128.99v1.4h-1.56v-1.4H328.34z"/>
<path class="st0" d="M337.93,134.22c0,1.63-0.98,2.88-2.67,2.88s-2.67-1.25-2.67-2.88c0-1.67,1-2.83,2.67-2.83
	C336.92,131.39,337.93,132.54,337.93,134.22z M333.72,134.23c0,1.02,0.35,2.02,1.54,2.02c1.19,0,1.54-1,1.54-2.02
	s-0.41-1.99-1.54-1.99C334.13,132.24,333.72,133.2,333.72,134.23z"/>
<path class="st0" d="M341.85,132.11h0.02c0.35-0.46,1.07-0.71,1.67-0.71c1.31,0,2.1,0.87,2.1,2.14V137h-1.13v-3.54
	c0-0.73-0.33-1.12-1.09-1.12c-1.11,0-1.57,0.76-1.57,1.79V137h-1.13v-5.51h1.13V132.11z"/>
<path class="st0" d="M352.07,132.86c-0.02-0.5-0.59-0.62-0.94-0.62c-0.41,0-1.05,0.1-1.05,0.66c0,0.47,0.31,0.63,0.73,0.7
	c1.11,0.22,2.63,0.37,2.63,1.86c0,1.33-1.44,1.63-2.51,1.63c-1.02,0-2.18-0.34-2.18-1.56h1.13c0.02,0.65,0.7,0.7,1.07,0.7
	c0.47,0,1.35-0.13,1.35-0.77c0-0.56-0.45-0.65-0.9-0.73c-0.48-0.09-1.19-0.25-1.64-0.46c-0.55-0.23-0.81-0.75-0.81-1.32
	c0-1.29,1.31-1.57,2.18-1.57c1.01,0,2.07,0.43,2.07,1.31v0.17H352.07z"/>
<path class="st0" d="M357.68,134.47c-0.05,1,0.59,1.68,1.61,1.68c0.33,0,0.75-0.03,0.87-0.39h1.12c-0.06,1.04-1.19,1.33-2.05,1.33
	c-1.75,0-2.68-1.1-2.68-2.82c0-1.64,0.8-2.89,2.54-2.89c1.73,0,2.4,1.13,2.4,2.74v0.34H357.68z M360.35,133.52
	c-0.01-0.74-0.56-1.19-1.29-1.19c-0.69,0-1.34,0.45-1.39,1.19H360.35z"/>
<path class="st0" d="M369.42,138.9h-1.13v-2.45c-0.4,0.44-0.99,0.65-1.58,0.65c-1.57,0-2.45-1.25-2.45-2.76
	c0-1.52,0.78-2.95,2.44-2.95c0.6,0,1.17,0.23,1.6,0.65v-0.55h1.13V138.9z M365.38,134.21c0,0.97,0.24,1.95,1.41,1.95
	c1.17,0,1.5-0.95,1.5-1.97c0-0.9-0.39-1.85-1.42-1.85C365.75,132.34,365.38,133.24,365.38,134.21z"/>
<path class="st0" d="M376.19,136.38c-0.43,0.51-1.2,0.71-1.84,0.71c-1.24,0-1.96-0.8-1.96-2v-3.61h1.13v3.61
	c0,0.75,0.24,1.06,1.02,1.06c1.22,0,1.64-0.76,1.64-1.87v-2.79h1.13V137h-1.13V136.38z"/>
<path class="st0" d="M383.78,131.49V137h-1.13v-4.48h-1.77v-1.03H383.78z M383.78,128.99v1.4h-1.56v-1.4H383.78z"/>
<path class="st0" d="M399.83,132.97c-0.02-0.4-0.47-0.64-0.89-0.64c-1.1,0-1.33,0.97-1.33,1.87c0,0.87,0.21,1.95,1.28,1.95
	c0.48,0,0.95-0.36,0.95-0.84h1.13c0,1.17-1.13,1.78-2.16,1.78c-1.63,0-2.33-1.4-2.33-2.88c0-1.47,0.83-2.83,2.43-2.83
	c1.02,0,1.89,0.51,2.06,1.58H399.83z"/>
<path class="st0" d="M407.87,136.38c-0.43,0.51-1.2,0.71-1.84,0.71c-1.24,0-1.96-0.8-1.96-2v-3.61h1.13v3.61
	c0,0.75,0.24,1.06,1.02,1.06c1.22,0,1.64-0.76,1.64-1.87v-2.79H409V137h-1.13V136.38z"/>
<path class="st0" d="M414.32,134.88c0,0.91,0.34,1.18,1.24,1.18h0.74V137h-1.02c-1.65,0-2.09-0.86-2.09-2.41v-5.6h1.13V134.88z"/>
<path class="st0" d="M422.24,134.88c0,0.91,0.34,1.18,1.24,1.18h0.74V137h-1.02c-1.65,0-2.09-0.86-2.09-2.41v-5.6h1.13V134.88z"/>
<path class="st0" d="M432.97,134.22c0,1.63-0.98,2.88-2.67,2.88s-2.67-1.25-2.67-2.88c0-1.67,1-2.83,2.67-2.83
	C431.96,131.39,432.97,132.54,432.97,134.22z M428.76,134.23c0,1.02,0.35,2.02,1.54,2.02c1.19,0,1.54-1,1.54-2.02
	s-0.41-1.99-1.54-1.99C429.17,132.24,428.76,133.2,428.76,134.23z"/>
<path class="st0" d="M437.5,132.09h0.02c0.34-0.45,0.85-0.7,1.43-0.7c0.97,0,1.67,0.69,1.67,1.67v0.22h-1.13v-0.17
	c0-0.43-0.21-0.88-0.69-0.88c-1.08,0-1.3,1.08-1.3,1.91V137h-1.13v-5.51h1.13V132.09z"/>
<path class="st0" d="M445.42,132.09h0.02c0.34-0.45,0.85-0.7,1.43-0.7c0.97,0,1.67,0.69,1.67,1.67v0.22h-1.13v-0.17
	c0-0.43-0.21-0.88-0.69-0.88c-1.08,0-1.3,1.08-1.3,1.91V137h-1.13v-5.51h1.13V132.09z"/>
<path class="st0" d="M456.73,134.22c0,1.63-0.98,2.88-2.67,2.88s-2.67-1.25-2.67-2.88c0-1.67,1-2.83,2.67-2.83
	C455.72,131.39,456.73,132.54,456.73,134.22z M452.52,134.23c0,1.02,0.35,2.02,1.54,2.02c1.19,0,1.54-1,1.54-2.02
	s-0.41-1.99-1.54-1.99C452.93,132.24,452.52,133.2,452.52,134.23z"/>
<path class="st0" d="M470.89,136.47c-0.43,0.41-1.01,0.63-1.6,0.63c-1.07,0-1.98-0.58-1.98-1.71c0-1.43,1.34-1.86,2.55-1.86h1.02
	v-0.2c0-0.63-0.09-1.09-1.02-1.09c-0.58,0-1.18,0.09-1.18,0.63h-1.13c0.08-1.22,1.24-1.48,2.26-1.48c1.6,0,2.21,0.56,2.21,2.18V137
	h-1.13V136.47z M469.71,134.39c-0.62,0-1.27,0.23-1.27,0.96c0,0.57,0.41,0.89,0.96,0.89c1,0,1.49-0.76,1.49-1.66v-0.19H469.71z"/>
<path class="st0" d="M477.88,131.39h1.97v0.95h-1.97v2.76c0,0.52,0.09,1.06,0.74,1.06c0.39,0,0.92-0.2,1.23-0.43v1.04
	c-0.35,0.21-0.84,0.33-1.25,0.33c-1.33,0-1.85-0.88-1.85-2.11v-2.65h-1.13v-0.95h1.13v-1.25l1.13-0.3V131.39z"/>
<path class="st0" d="M493.64,136.07h0.02l1.55-4.58h1.25l-2,5.51h-1.62l-2-5.51h1.25L493.64,136.07z"/>
<path class="st0" d="M500.24,134.47c-0.05,1,0.59,1.68,1.61,1.68c0.33,0,0.75-0.03,0.87-0.39h1.12c-0.05,1.04-1.19,1.33-2.05,1.33
	c-1.75,0-2.68-1.1-2.68-2.82c0-1.64,0.8-2.89,2.54-2.89c1.73,0,2.4,1.13,2.4,2.74v0.34H500.24z M502.91,133.52
	c-0.01-0.74-0.56-1.19-1.29-1.19c-0.69,0-1.34,0.45-1.39,1.19H502.91z"/>
<path class="st0" d="M508.78,132.09h0.02c0.34-0.45,0.85-0.7,1.43-0.7c0.97,0,1.67,0.69,1.67,1.67v0.22h-1.13v-0.17
	c0-0.43-0.21-0.88-0.69-0.88c-1.08,0-1.3,1.08-1.3,1.91V137h-1.13v-5.51h1.13V132.09z"/>
<path class="st0" d="M518.42,131.49V137h-1.13v-4.48h-1.77v-1.03H518.42z M518.42,128.99v1.4h-1.56v-1.4H518.42z"/>
<path class="st0" d="M526.33,136.47c-0.43,0.41-1.01,0.63-1.6,0.63c-1.07,0-1.98-0.58-1.98-1.71c0-1.43,1.34-1.86,2.55-1.86h1.02
	v-0.2c0-0.63-0.09-1.09-1.02-1.09c-0.58,0-1.18,0.09-1.18,0.63h-1.13c0.08-1.22,1.24-1.48,2.26-1.48c1.6,0,2.21,0.56,2.21,2.18V137
	h-1.13V136.47z M525.15,134.39c-0.62,0-1.27,0.23-1.27,0.96c0,0.57,0.41,0.89,0.96,0.89c1,0,1.49-0.76,1.49-1.66v-0.19H525.15z"/>
<path class="st0" d="M534.23,132.86c-0.02-0.5-0.59-0.62-0.94-0.62c-0.41,0-1.05,0.1-1.05,0.66c0,0.47,0.31,0.63,0.73,0.7
	c1.11,0.22,2.63,0.37,2.63,1.86c0,1.33-1.44,1.63-2.51,1.63c-1.02,0-2.18-0.34-2.18-1.56h1.13c0.02,0.65,0.7,0.7,1.07,0.7
	c0.47,0,1.35-0.13,1.35-0.77c0-0.56-0.45-0.65-0.9-0.73c-0.48-0.09-1.19-0.25-1.64-0.46c-0.55-0.23-0.81-0.75-0.81-1.32
	c0-1.29,1.31-1.57,2.18-1.57c1.01,0,2.07,0.43,2.07,1.31v0.17H534.23z"/>
<path class="st0" d="M542.22,135.28V137h-2.1v-1.72H542.22z"/>
</svg>
