<?xml version="1.0" encoding="utf-8"?>
<!-- Generator: Adobe Illustrator 26.0.2, SVG Export Plug-In . SVG Version: 6.00 Build 0)  -->
<svg version="1.1" id="Calque_1" xmlns="http://www.w3.org/2000/svg" xmlns:xlink="http://www.w3.org/1999/xlink" x="0px" y="0px"
	 viewBox="0 0 566.93 155.91" style="enable-background:new 0 0 566.93 155.91;" xml:space="preserve">
<style type="text/css">
	.st0{fill:#222221;}
</style>
<path class="st0" d="M28.26,35.13h-4.82c-4.8,0-8.77-4.25-8.77-9.3c0-2.97,1.45-5.8,6.27-5.8h7.32V35.13z M23.46,24.1h-1.55
	c-0.75,0-2.35,0-2.35,2.07c0,2.25,1.55,4.57,3.9,4.87V24.1z"/>
<path class="st0" d="M35.86,20.03h2.5c4.82,0,6.3,2.82,6.3,5.8c0,5.05-4,9.3-8.65,9.3h-4.95V14.71h4.8V20.03z M35.86,31.05
	c2.35-0.3,3.9-2.62,3.9-4.87c0-2.07-1.6-2.07-2.35-2.07h-1.55V31.05z"/>
<path class="st0" d="M56.16,24.1h-3.25c-0.75,0-2.35,0-2.35,2.07c0,2.25,1.8,4.87,4.15,4.87h1.7l-1.2,4.07h-0.77
	c-4.8,0-8.77-4.25-8.77-9.3c0-2.97,1.45-5.8,6.27-5.8h3.02L56.16,24.1z"/>
<path class="st0" d="M70.91,14.71v20.42h-4.97c-4.8,0-8.77-4.25-8.77-9.3c0-2.97,1.45-5.8,6.27-5.8h2.67v-5.32H70.91z M64.41,24.1
	c-0.75,0-2.35,0-2.35,2.07c0,2.25,1.55,4.57,3.9,4.87h0.15V24.1H64.41z"/>
<path class="st0" d="M84.33,35.13h-2.9c-4.8,0-8.77-4.25-8.77-9.3c0.05-4.25,1.97-6.22,6.92-6.15h1c5.9,0,5.67,3.42,5.67,4.17
	c0,3.35-2.85,5.45-5.47,6.92c1.25,0.27,2.05,0.27,2.85,0.27h1.9L84.33,35.13z M79.88,23.75c-1.5,0-2.32,0.75-2.32,2.25
	c0,0.6,0.12,1.22,0.33,1.8c1.02-0.52,3.47-1.97,3.47-3.27C81.36,23.75,80.46,23.75,79.88,23.75z"/>
<path class="st0" d="M87.28,23.98v-3.95h1.05c-0.25-3.15,0.87-5.32,4.62-5.32h2.55l1.2,4.07h-1.77c-1.05,0-1.9-0.17-1.8,1.25h2.82
	v3.95h-2.82v11.15h-4.8V23.98H87.28z"/>
<path class="st0" d="M110.26,35c0,4.17-1.32,5.45-5.8,5.45h-5.32l-1.22-4.07h5.4c0.9,0,2.15,0.25,2.15-1.25
	c-4.82,0-8.8-4.25-8.8-9.3c0-2.97,1.45-5.8,6.27-5.8h7.32V35z M103.91,24.1c-0.75,0-2.35,0-2.35,2.07c0,2.25,1.55,4.57,3.9,4.87
	V24.1H103.91z"/>
<path class="st0" d="M117.78,20.03h2.65c4.1,0,5.4,1.8,5.4,5.8v9.3h-4.8v-8.6c-0.05-1.95-0.07-2.38-2.1-2.42h-1.15v11.02h-4.8V14.71
	h4.8V20.03z"/>
<path class="st0" d="M133.31,18.78h-4.8v-4.07h4.8V18.78z M133.31,35.13h-4.8v-15.1h4.8V35.13z"/>
<path class="st0" d="M141.28,31.93c0,4.32-1.27,6.45-3.6,8.82l-3.75-2.7c2.57-2.67,2.55-5.32,2.55-6.65V20.03h4.8V31.93z
	 M141.28,18.78h-4.8v-4.07h4.8V18.78z"/>
<path class="st0" d="M148.86,35.13h-4.8V14.71h4.8V35.13z M154,26.65l3.8,8.47h-5.3l-3.62-8.32l3.02-6.77h5.22L154,26.65z"/>
<path class="st0" d="M163.81,35.13h-4.8V14.71h4.8V35.13z"/>
<path class="st0" d="M180.88,20.03c4.1,0,5.4,1.8,5.4,5.8v9.3h-4.67v-8.6c-0.05-1.95-0.07-2.38-2.1-2.42h-0.77v11.02h-4.67V24.1
	h-2.87v11.02h-4.67v-15.1H180.88z"/>
<path class="st0" d="M196.43,20.03c4.1,0,5.4,1.8,5.4,5.8v9.3h-4.8v-8.6c-0.05-1.95-0.07-2.38-2.1-2.42h-1.15v11.02h-4.8v-15.1
	H196.43z"/>
<path class="st0" d="M211.95,19.68c6.22,0,6.17,4.92,6.17,5.72c0,4.75-2.7,10.17-7.22,10.17s-7.22-5.42-7.22-10.17
	c0-0.8-0.05-5.72,6.17-5.72H211.95z M213.23,25.83c0-1.47-0.85-2.07-2.32-2.07s-2.32,0.6-2.32,2.07c0,3.15,1.45,5.4,2.32,5.4
	C211.78,31.23,213.23,28.98,213.23,25.83z"/>
<path class="st0" d="M227.35,20.03c4.82,0,6.3,2.82,6.3,5.8c0,4.25-2.85,8.4-8.8,9.65v4.87h-4.8V20.03H227.35z M224.86,31.05
	c2.35-0.3,3.9-2.62,3.9-4.87c-0.02-2.07-1.62-2.07-2.37-2.07h-1.52V31.05z"/>
<path class="st0" d="M248.35,40.35h-4.8v-5.22h-2.62c-4.82,0-6.27-2.82-6.27-5.8c0-5.05,3.97-9.3,8.77-9.3h4.92V40.35z M243.55,24.1
	h-0.1c-2.35,0.3-3.9,2.62-3.9,4.87c0,2.07,1.6,2.07,2.35,2.07h1.65V24.1z"/>
<path class="st0" d="M255.71,20.03v0.88c0.95-0.9,2.05-1.2,3.35-1.22V24c-1.27,0.05-2.47,0.47-3.15,1.62v9.5h-4.8v-15.1H255.71z"/>
<path class="st0" d="M269.53,23.98h-2.15c-1.02,0-1.37,0.1-1.37,0.58c0,0.27,0.25,0.55,0.4,0.75l2.12,2.67
	c0.8,1,1.45,2.12,1.45,3.45c0,1.92-1.45,3.7-3.77,3.7h-4.87l-1.2-4.07h2.65c0.35,0,1.65,0.28,1.65-0.35c0-0.38-0.48-0.9-0.67-1.17
	l-2.02-2.62c-0.8-1.03-1.48-2.05-1.48-3.4c0-1.05,0.8-3.47,4.05-3.47h4.02L269.53,23.98z"/>
<path class="st0" d="M277.03,20.03h2.52v3.95h-2.52v5.75c0,0.7,0.23,1.27,1.22,1.32h1.9l-1.2,4.07h-2.17
	c-2.62,0-4.55-0.97-4.55-4.62v-6.52h-1.07v-3.95h1.07v-2.95l4.8-1.42V20.03z"/>
<path class="st0" d="M294.4,35.13h-7.67c-4.7,0-6.05-2.87-6.05-6.3c0-2.77,1.4-6.3,2.57-8.8h4.92c-0.87,2.38-2.42,6-2.42,8.47
	c0,2.42,1.35,2.55,3.32,2.55h0.52V20.03h4.8V35.13z"/>
<path class="st0" d="M305.43,35.13h-5.55l-4.75-15.1h5.05l2.45,9.67h0.05l2.45-9.67h5.05L305.43,35.13z"/>
<path class="st0" d="M328.08,35.13h-5.17L320.68,26h-0.08l-2.22,9.12h-5.17l-4.07-15.1h5.12l1.85,10.17h0.08l2.2-10.17h4.52
	l2.2,10.17h0.07l1.85-10.17h5.12L328.08,35.13z"/>
<path class="st0" d="M339.68,20.03h5.42l-3.77,7.02l4.27,8.07h-5.57l-1.85-5.4h-0.05l-1.85,5.4h-5.57l4.27-8.07l-3.77-7.02h5.42
	l1.55,4.52h0.05L339.68,20.03z"/>
<path class="st0" d="M352.15,40.32H347l2.35-6.5l-5.4-13.8h5.7l2.17,7.15h0.05l2.17-7.15h5.3L352.15,40.32z"/>
<path class="st0" d="M370.63,20.03l-5.12,11.02h4.82l-1.2,4.07h-10.72l5.2-11.15h-4.52l1.2-3.95H370.63z"/>
<rect x="379.38" y="24.4" class="st0" width="8.05" height="3.95"/>
<path class="st0" d="M396.93,22.43c0-4,1.32-8.17,8.97-8.17c7.65,0,8.97,4.17,8.97,8.17c0,5.12-2.77,13.15-8.97,13.15
	C399.71,35.58,396.93,27.55,396.93,22.43z M409.31,22.83c0-2.4-0.9-3.8-3.4-3.8s-3.4,1.4-3.4,3.8c0,2.57,1.25,7.7,3.4,7.7
	S409.31,25.4,409.31,22.83z"/>
<path class="st0" d="M424.11,14.71v20.42h-5.35V19.3h-3.35l1.25-4.6H424.11z"/>
<path class="st0" d="M434.36,14.71c3.85,0,4.87,2.35,4.87,4.07s-0.77,3.05-1.52,4.52l-3.7,7.22h5.77l-1.25,4.6h-12.87l6.92-13.45
	c0.2-0.4,0.6-1.08,0.6-1.53c0-1-1.35-0.82-2-0.85h-4.47l1.25-4.6H434.36z"/>
<path class="st0" d="M448.21,14.71c4.77,0,5.97,2.47,5.97,4.72c0,2.02-1.25,3.37-2.82,4.8c1.87,1.6,3.45,3.22,3.45,5.85
	c0,2.07-1.27,5.05-5.77,5.05h-7.02l-1.25-4.6h5.22c0.87,0,2.75,0.17,2.75-1.2c0-1.65-3.55-4-4.87-4.95l1.67-1.28
	c0.77-0.55,2.57-1.77,2.57-2.85c0-0.95-0.73-0.95-2.5-0.95h-4.52l1.25-4.6H448.21z"/>
<path class="st0" d="M464.86,22.2h4.45v3.87h2.02v4.6h-2.02v4.45h-4.45v-4.45h-8.8V26.6l5.12-11.9h5.65l-4.95,11.37h2.97V22.2z"/>
<path class="st0" d="M472.98,25.68l0.6-10.97h10l1.25,4.6h-6.42l-0.1,2.07h1.57c4.65,0,5.77,2.88,5.77,5.5
	c0,1.95-0.77,8.25-11.47,8.25l-1.25-4.6c5.67,0,7.15-1.77,7.15-3.15c0-1.9-2.22-1.7-3.55-1.7H472.98z"/>
<path class="st0" d="M499.58,14.71c-0.15,0.2-3.27,4.55-4.37,6.77c4.1,0.05,7.57,2.42,7.57,6.8c0,3.57-1.97,7.3-7.95,7.3
	c-5.15,0-7.57-2.82-7.57-7.02c0-4.9,3.4-9.95,6.12-13.85H499.58z M493.21,25.85c-0.35,0.72-0.57,1.55-0.57,2.35
	c0,1.45,0.87,2.67,2.4,2.67c1.42,0,2.37-0.97,2.37-2.4c0-1.92-1.75-2.62-3.42-2.62H493.21z"/>
<path class="st0" d="M517.08,14.71l-6.25,20.42h-5.57l4.87-15.82h-6.82l1.25-4.6H517.08z"/>
<path class="st0" d="M518.13,19.33c0-1.92,0.5-5.07,7.02-5.07s7.02,3.15,7.02,5.07c0,2.35-1.32,3.57-3.02,4.97
	c1.9,1.5,3.52,3.17,3.52,5.77c0,2.27-0.67,5.5-7.52,5.5c-6.85,0-7.52-3.22-7.52-5.5c0-2.6,1.62-4.27,3.52-5.77
	C519.46,22.9,518.13,21.68,518.13,19.33z M523.01,29.73c0,1,1.37,1.22,2.15,1.22s2.15-0.22,2.15-1.22c0-1.05-1.37-2.1-2.15-2.67
	C524.38,27.63,523.01,28.68,523.01,29.73z M526.71,19.68c0-0.88-0.9-1.05-1.6-1.05c-0.7,0-1.6,0.17-1.6,1.05s0.98,1.6,1.65,2.02
	C525.73,21.28,526.71,20.55,526.71,19.68z"/>
<path class="st0" d="M536.16,30.53c2.05-0.15,4.5-0.33,6.07-2.02c-5.35-0.88-8.3-3.72-8.3-7.85c0-2.87,1.77-6.4,7.6-6.4
	c5.95,0,8.22,3.05,8.22,7.9c0,6.27-4.17,13.45-12.35,12.97L536.16,30.53z M544.38,21.88c0-1.62-0.92-2.8-2.65-2.8
	c-1.23,0-2.22,0.62-2.22,1.9c0,2.1,2.85,2.85,4.55,3.1C544.25,23.38,544.38,22.6,544.38,21.88z"/>
<path class="st0" d="M31.46,72.13h-5.35v-6.47h-5.85c0.02,2.3,0.87,4.52,2.05,6.47L17.96,75c-1.97-2.97-3.17-6.55-3.17-10.15
	c0-3.55,1.12-7.25,3.67-9.8c2.85-2.87,6.17-3.35,10.02-3.35h2.62l1.25,4.6h-4.2c-5.72,0-6.7,3-7.37,4.75h5.32v-4.12h5.35V72.13z"/>
<path class="st0" d="M34.98,72.13v-15.2h5.35v10.6h3.07c0.95,0,2.32,0,2.32-1.22c0-2-3.6-4.2-5.15-4.92l1.67-1.28
	c0.77-0.55,2.57-1.77,2.57-2.85c0-0.95-0.73-0.95-2.5-0.95h-8.35l1.25-4.6h9.65c4.77,0,5.97,2.47,5.97,4.72c0,2-1.25,3.35-2.7,4.6
	c2.02,1.45,3.6,3.5,3.6,6.1c0,2.32-1.32,5-6.92,5H34.98z"/>
<path class="st0" d="M65.93,72.13h-0.92c-6.9,0-11.7-5.85-11.7-12.42c0-4.12,2.07-8,8.17-8h4.17l1.25,4.6h-4.17
	c-1.05,0-3.95,0-3.95,3.87c0,4.1,3.07,7.65,8.4,7.35L65.93,72.13z"/>
<path class="st0" d="M68.98,72.13v-15.2h5.35v10.6c3.67-0.17,6.27-3.7,6.27-7.35c0-3.87-2.9-3.87-3.95-3.87h-8.67l1.25-4.6h8.67
	c6.1,0,8.17,3.87,8.17,8c0,7.7-5.95,12.42-12.75,12.42H68.98z"/>
<path class="st0" d="M101.98,56.3h-8.22v3.02h7.47l-1.25,4.6h-6.22v3.6h8.77l-1.25,4.6H88.41V51.71h12.32L101.98,56.3z"/>
<path class="st0" d="M117.76,56.3h-8v3.27h7.22l-1.25,4.6h-5.97v5.05c0,0.97,0,1.97,0.33,2.9l-4.85,3.1c-0.7-1.4-0.82-2.95-0.82-4.5
	V51.71h12.1L117.76,56.3z"/>
<path class="st0" d="M130.06,62.75h-2.02v-4.6h7.37v13.97h-4.35c-6.8,0-12.75-4.72-12.75-12.42c0-4.12,2.07-8,8.17-8h7.42l1.25,4.6
	h-7.42c-1.05,0-3.95,0-3.95,3.87c0,3.65,2.6,7.17,6.27,7.35V62.75z"/>
<path class="st0" d="M154.8,72.13h-5.35v-9.37h-5.62v6.47c0,0.97,0,1.97,0.32,2.9l-4.85,3.1c-0.7-1.4-0.82-2.95-0.82-4.5V51.71h5.35
	v6.45h5.62v-6.45h5.35V72.13z"/>
<path class="st0" d="M163.83,72.13h-5.35V51.71h5.35V72.13z"/>
<path class="st0" d="M175.31,51.71v15.67c0,5.92-1.82,7.95-7.62,10.4l-2.15-4.17c3.72-1.75,4.42-2.75,4.42-6.45V56.3h-4.1l1.25-4.6
	H175.31z"/>
<path class="st0" d="M184.26,72.13h-5.35V51.71h5.35V72.13z M190.28,60.7l5.85,11.42h-6.37l-5.45-11.22l4.82-9.2h6.02L190.28,60.7z"
	/>
<path class="st0" d="M202.26,67.53h7.02l-1.25,4.6h-11.12V51.71h5.35V67.53z"/>
<path class="st0" d="M229.38,72.13h-5.35V59.78h-0.05l-4.12,5.5l-4.02-5.5h-0.05v12.35h-5.35V51.71h5.07l4.35,6l4.45-6h5.07V72.13z"
	/>
<path class="st0" d="M249.35,72.13H244V66.1l-5.65-6.87h-0.05v12.9h-5.35V51.71h5.1l5.95,6.95v-6.95h5.35V72.13z"/>
<path class="st0" d="M251.86,59.38c0-4.42,2.12-8.12,9.3-8.12c7.17,0,9.3,3.7,9.3,8.12c0,5.42-3,13.2-9.3,13.2
	C254.86,72.58,251.86,64.8,251.86,59.38z M264.88,59.63c0-2.72-1.1-3.6-3.72-3.6s-3.72,0.87-3.72,3.6c0,3.7,1.7,8.12,3.72,8.12
	S264.88,63.33,264.88,59.63z"/>
<path class="st0" d="M278.33,72.13h-5.35v-15.2h5.35v5.4c1.5-0.77,4.42-2.62,4.42-4.47c0-1.52-1.52-1.52-2.62-1.55h-8.15l1.25-4.6
	h8.3c5.05,0,6.7,2.82,6.7,5.62c0,3.15-2.25,7.02-9.9,10.27V72.13z"/>
<path class="st0" d="M306.7,72.13h-8.07c-5.65,0-9.3-5.92-9.3-12.75c0-4.42,2.12-8.12,9.3-8.12s9.2,3.7,9.2,8.12
	c0,2.9-0.95,5.85-2.67,8.15h2.8L306.7,72.13z M302.35,59.63c0-2.72-1.1-3.6-3.72-3.6c-2.72,0-3.82,0.87-3.82,3.6
	c0,1.95,1.25,7.72,3.77,7.72C301.1,67.35,302.35,61.58,302.35,59.63z"/>
<path class="st0" d="M320.58,51.71c4.85,0,6.2,2.95,6.2,5.27c0,2.97-2.02,4.95-4.37,6.45c1.57,3.13,3.62,6.02,5.92,8.7l-4.47,3.1
	c-3.3-3.75-5.82-8.15-7.85-12.72c1.4-1.07,4.72-3,4.72-4.92c0-1.37-1.62-1.27-2.57-1.27h-8.67l1.25-4.6H320.58z M315.83,72.13h-5.35
	v-15.2h5.35V72.13z"/>
<path class="st0" d="M340.8,56.3h-4.5c-0.52,0-1.97-0.12-1.97,0.67c0,0.58,0.5,1.03,0.88,1.42l3.72,4.12
	c1.27,1.4,2.52,2.85,2.52,4.87c0,1.82-1.02,4.72-5.5,4.72h-6.22l-1.25-4.6h4.85c0.52,0,1.97,0.12,1.97-0.67
	c0-0.58-0.5-1.03-0.87-1.42l-3.62-4.1c-1.25-1.42-2.5-2.88-2.5-4.9c0-1.82,1.02-4.72,5.5-4.72h5.75L340.8,56.3z"/>
<path class="st0" d="M357.78,56.3h-5.7v15.82h-5.35V56.3h-5.7l1.25-4.6h14.25L357.78,56.3z"/>
<path class="st0" d="M374.58,72.13h-8.67c-5.97,0-8.1-3.67-8.1-8.4c0-4.27,1.65-8.25,3.55-12.02h5.77
	c-1.17,2.62-3.85,7.65-3.85,11.95c0,3.87,2.9,3.87,3.95,3.87h2V51.71h5.35V72.13z"/>
<path class="st0" d="M384.13,65.2h0.05l2.95-13.5h5.72l-5.57,20.42H381l-5.57-20.42h5.72L384.13,65.2z"/>
<path class="st0" d="M413.43,72.13h-5.82l-2.42-11.9h-0.08l-2.42,11.9h-5.82l-5.17-20.42h5.85l2.37,12.92h0.08l2.45-12.92h5.42
	l2.7,12.85h0.08l2.12-12.85h5.85L413.43,72.13z"/>
<path class="st0" d="M423.33,72.13h-6.07l5.35-10.7l-4.9-9.72h6.07l2.37,5.62l2.37-5.62h6.07l-4.9,9.72l5.35,10.7h-6.07l-2.82-6.52
	L423.33,72.13z"/>
<path class="st0" d="M444.58,64v5.22c0,0.97,0,1.97,0.33,2.9l-4.85,3.1c-0.7-1.4-0.82-2.95-0.82-4.5V64l-6-12.3h6.07l2.6,6.1
	l2.6-6.1h6.07L444.58,64z"/>
<path class="st0" d="M464.28,51.71l-7.05,15.82h6.8l-1.25,4.6h-13.47l7.05-15.82h-6.17l1.25-4.6H464.28z"/>
<path class="st0" d="M17.69,92.85h2.39l-1.66,3.09l1.88,3.55h-2.45l-0.81-2.38h-0.02l-0.81,2.38h-2.45l1.88-3.55l-1.66-3.09h2.39
	l0.68,1.99h0.02L17.69,92.85z"/>
<path class="st0" d="M25.72,99.5h-0.41c-3.04,0-5.15-2.57-5.15-5.47c0-1.82,0.91-3.52,3.6-3.52h1.84l0.55,2.02h-1.84
	c-0.46,0-1.74,0-1.74,1.71c0,1.8,1.35,3.37,3.7,3.23L25.72,99.5z"/>
<path class="st0" d="M32.46,99.5h-2.12c-2.11,0-3.86-1.87-3.86-4.09c0-1.31,0.64-2.55,2.76-2.55h3.22V99.5z M30.35,94.65h-0.68
	c-0.33,0-1.03,0-1.03,0.91c0,0.99,0.68,2.01,1.72,2.15V94.65z"/>
<path class="st0" d="M35.88,92.85H37v1.74h-1.11v2.53c0,0.31,0.1,0.56,0.54,0.58h0.84l-0.53,1.79h-0.96c-1.16,0-2-0.43-2-2.04v-2.87
	H33.3v-1.74h0.47v-1.3l2.11-0.63V92.85z"/>
<path class="st0" d="M42.62,99.5h-1.28c-2.11,0-3.86-1.87-3.86-4.09c0.02-1.87,0.87-2.74,3.05-2.71h0.44c2.6,0,2.5,1.51,2.5,1.84
	c0,1.47-1.25,2.4-2.41,3.05c0.55,0.12,0.9,0.12,1.25,0.12h0.84L42.62,99.5z M40.66,94.49c-0.66,0-1.02,0.33-1.02,0.99
	c0,0.26,0.05,0.54,0.14,0.79c0.45-0.23,1.53-0.87,1.53-1.44C41.31,94.49,40.91,94.49,40.66,94.49z"/>
<path class="st0" d="M47.98,94.59h-0.95c-0.45,0-0.6,0.04-0.6,0.25c0,0.12,0.11,0.24,0.18,0.33l0.94,1.18
	c0.35,0.44,0.64,0.94,0.64,1.52c0,0.85-0.64,1.63-1.66,1.63h-2.15l-0.53-1.79h1.17c0.15,0,0.73,0.12,0.73-0.15
	c0-0.17-0.21-0.4-0.3-0.52l-0.89-1.16c-0.35-0.45-0.65-0.9-0.65-1.5c0-0.46,0.35-1.53,1.78-1.53h1.77L47.98,94.59z"/>
<path class="st0" d="M51.28,92.85h1.11v1.74h-1.11v2.53c0,0.31,0.1,0.56,0.54,0.58h0.84l-0.53,1.79h-0.96c-1.16,0-2-0.43-2-2.04
	v-2.87H48.7v-1.74h0.47v-1.3l2.11-0.63V92.85z"/>
<path class="st0" d="M54.63,100.54h-2.06l0.9-3.05h2.06L54.63,100.54z"/>
<path class="st0" d="M67.71,99.5h-2.12c-2.11,0-3.86-1.87-3.86-4.09c0-1.31,0.64-2.55,2.76-2.55h3.22V99.5z M65.6,94.65h-0.68
	c-0.33,0-1.03,0-1.03,0.91c0,0.99,0.68,2.01,1.72,2.15V94.65z"/>
<path class="st0" d="M74.59,99.5h-3.38c-2.07,0-2.66-1.27-2.66-2.77c0-1.22,0.62-2.77,1.13-3.87h2.17
	c-0.39,1.04-1.07,2.64-1.07,3.73c0,1.07,0.59,1.12,1.46,1.12h0.23v-4.85h2.11V99.5z"/>
<path class="st0" d="M77.95,92.85h1.11v1.74h-1.11v2.53c0,0.31,0.1,0.56,0.54,0.58h0.84l-0.53,1.79h-0.96c-1.16,0-2-0.43-2-2.04
	v-2.87h-0.47v-1.74h0.47v-1.3l2.11-0.63V92.85z"/>
<path class="st0" d="M85.53,99.5H83.4c-2.11,0-3.86-1.87-3.86-4.09c0-1.31,0.64-2.55,2.76-2.55h3.22V99.5z M83.41,94.65h-0.68
	c-0.33,0-1.03,0-1.03,0.91c0,0.99,0.68,2.01,1.72,2.15V94.65z"/>
<path class="st0" d="M90.49,94.59h-0.95c-0.45,0-0.6,0.04-0.6,0.25c0,0.12,0.11,0.24,0.18,0.33l0.94,1.18
	c0.35,0.44,0.64,0.94,0.64,1.52c0,0.85-0.64,1.63-1.66,1.63h-2.15l-0.53-1.79h1.17c0.15,0,0.73,0.12,0.73-0.15
	c0-0.17-0.21-0.4-0.3-0.52l-0.89-1.16c-0.35-0.45-0.65-0.9-0.65-1.5c0-0.46,0.35-1.53,1.78-1.53h1.77L90.49,94.59z"/>
<path class="st0" d="M93.69,92.3h-2.11v-1.79h2.11V92.3z M93.69,99.5h-2.11v-6.64h2.11V99.5z"/>
<path class="st0" d="M106.1,90.51v8.99h-2.19c-2.11,0-3.86-1.87-3.86-4.09c0-1.31,0.64-2.55,2.76-2.55h1.18v-2.34H106.1z
	 M103.24,94.65c-0.33,0-1.03,0-1.03,0.91c0,0.99,0.68,2.01,1.72,2.15h0.07v-3.06H103.24z"/>
<path class="st0" d="M109.35,92.3h-2.11v-1.79h2.11V92.3z M109.35,99.5h-2.11v-6.64h2.11V99.5z"/>
<path class="st0" d="M119.36,92.7c2.74,0,2.72,2.17,2.72,2.52c0,2.09-1.19,4.48-3.18,4.48s-3.18-2.39-3.18-4.48
	c0-0.35-0.02-2.52,2.72-2.52H119.36z M119.92,95.41c0-0.65-0.37-0.91-1.02-0.91c-0.65,0-1.02,0.26-1.02,0.91
	c0,1.39,0.64,2.38,1.02,2.38C119.29,97.78,119.92,96.79,119.92,95.41z"/>
<path class="st0" d="M128.58,90.51v8.99h-2.19c-2.11,0-3.86-1.87-3.86-4.09c0-1.31,0.64-2.55,2.76-2.55h1.18v-2.34H128.58z
	 M125.72,94.65c-0.33,0-1.03,0-1.03,0.91c0,0.99,0.68,2.01,1.72,2.15h0.07v-3.06H125.72z"/>
<path class="st0" d="M131.84,92.3h-2.11v-1.79h2.11V92.3z M131.84,99.5h-2.11v-6.64h2.11V99.5z"/>
<path class="st0" d="M135.23,92.85h1.11v1.74h-1.11v2.53c0,0.31,0.1,0.56,0.54,0.58h0.84l-0.53,1.79h-0.96c-1.16,0-2-0.43-2-2.04
	v-2.87h-0.47v-1.74h0.47v-1.3l2.11-0.63V92.85z"/>
<path class="st0" d="M147.51,99.5h-1.28c-2.11,0-3.86-1.87-3.86-4.09c0.02-1.87,0.87-2.74,3.05-2.71h0.44c2.6,0,2.5,1.51,2.5,1.84
	c0,1.47-1.25,2.4-2.41,3.05c0.55,0.12,0.9,0.12,1.25,0.12h0.84L147.51,99.5z M145.55,94.49c-0.66,0-1.02,0.33-1.02,0.99
	c0,0.26,0.05,0.54,0.14,0.79c0.45-0.23,1.53-0.87,1.53-1.44C146.2,94.49,145.81,94.49,145.55,94.49z"/>
<path class="st0" d="M152.88,94.59h-0.95c-0.45,0-0.6,0.04-0.6,0.25c0,0.12,0.11,0.24,0.18,0.33l0.94,1.18
	c0.35,0.44,0.64,0.94,0.64,1.52c0,0.85-0.64,1.63-1.66,1.63h-2.15l-0.53-1.79h1.17c0.15,0,0.73,0.12,0.73-0.15
	c0-0.17-0.21-0.4-0.3-0.52l-0.89-1.16c-0.35-0.45-0.65-0.9-0.65-1.5c0-0.46,0.35-1.53,1.78-1.53h1.77L152.88,94.59z"/>
<path class="st0" d="M156.18,92.85h1.11v1.74h-1.11v2.53c0,0.31,0.1,0.56,0.54,0.58h0.84l-0.53,1.79h-0.96c-1.16,0-2-0.43-2-2.04
	v-2.87h-0.47v-1.74h0.47v-1.3l2.11-0.63V92.85z"/>
<path class="st0" d="M160.26,92.3h-2.11v-1.79h2.11V92.3z M160.26,99.5h-2.11v-6.64h2.11V99.5z"/>
<path class="st0" d="M165.2,94.59h-0.95c-0.45,0-0.6,0.04-0.6,0.25c0,0.12,0.11,0.24,0.18,0.33l0.94,1.18
	c0.35,0.44,0.64,0.94,0.64,1.52c0,0.85-0.64,1.63-1.66,1.63h-2.15l-0.53-1.79h1.17c0.15,0,0.73,0.12,0.73-0.15
	c0-0.17-0.21-0.4-0.3-0.52l-0.89-1.16c-0.35-0.45-0.65-0.9-0.65-1.5c0-0.46,0.35-1.53,1.78-1.53h1.77L165.2,94.59z"/>
<path class="st0" d="M177.51,90.51v8.99h-2.19c-2.11,0-3.86-1.87-3.86-4.09c0-1.31,0.64-2.55,2.76-2.55h1.18v-2.34H177.51z
	 M174.65,94.65c-0.33,0-1.03,0-1.03,0.91c0,0.99,0.68,2.01,1.72,2.15h0.07v-3.06H174.65z"/>
<path class="st0" d="M181.93,92.7c2.74,0,2.72,2.17,2.72,2.52c0,2.09-1.19,4.48-3.18,4.48s-3.18-2.39-3.18-4.48
	c0-0.35-0.02-2.52,2.72-2.52H181.93z M182.49,95.41c0-0.65-0.37-0.91-1.02-0.91c-0.65,0-1.02,0.26-1.02,0.91
	c0,1.39,0.64,2.38,1.02,2.38C181.85,97.78,182.49,96.79,182.49,95.41z"/>
<path class="st0" d="M187.58,99.5h-2.11v-8.99h2.11V99.5z"/>
<path class="st0" d="M194.45,99.5h-3.38c-2.07,0-2.66-1.27-2.66-2.77c0-1.22,0.62-2.77,1.13-3.87h2.17
	c-0.39,1.04-1.07,2.64-1.07,3.73c0,1.07,0.59,1.12,1.46,1.12h0.23v-4.85h2.11V99.5z"/>
<path class="st0" d="M198.82,92.85c2.12,0,2.77,1.24,2.77,2.55c0,1.87-1.25,3.7-3.87,4.25v2.15h-2.11v-8.94H198.82z M197.72,97.71
	c1.03-0.13,1.72-1.16,1.72-2.15c-0.01-0.91-0.72-0.91-1.05-0.91h-0.67V97.71z"/>
<path class="st0" d="M204.62,92.85h1.11v1.74h-1.11v2.53c0,0.31,0.1,0.56,0.54,0.58H206l-0.53,1.79h-0.96c-1.16,0-2-0.43-2-2.04
	v-2.87h-0.47v-1.74h0.47v-1.3l2.11-0.63V92.85z"/>
<path class="st0" d="M212.2,99.5h-2.12c-2.11,0-3.86-1.87-3.86-4.09c0-1.31,0.64-2.55,2.76-2.55h3.22V99.5z M210.09,94.65h-0.68
	c-0.33,0-1.03,0-1.03,0.91c0,0.99,0.68,2.01,1.72,2.15V94.65z"/>
<path class="st0" d="M215.62,92.85h1.11v1.74h-1.11v2.53c0,0.31,0.1,0.56,0.54,0.58H217l-0.53,1.79h-0.96c-1.16,0-2-0.43-2-2.04
	v-2.87h-0.47v-1.74h0.47v-1.3l2.11-0.63V92.85z"/>
<path class="st0" d="M222.35,99.5h-1.28c-2.11,0-3.86-1.87-3.86-4.09c0.02-1.87,0.87-2.74,3.05-2.71h0.44c2.6,0,2.5,1.51,2.5,1.84
	c0,1.47-1.25,2.4-2.41,3.05c0.55,0.12,0.9,0.12,1.25,0.12h0.84L222.35,99.5z M220.39,94.49c-0.66,0-1.02,0.33-1.02,0.99
	c0,0.26,0.05,0.54,0.14,0.79c0.45-0.23,1.53-0.87,1.53-1.44C221.04,94.49,220.65,94.49,220.39,94.49z"/>
<path class="st0" d="M231.63,99.5h-2.11v-8.99h2.11V99.5z"/>
<path class="st0" d="M234.93,92.3h-2.11v-1.79h2.11V92.3z M234.93,99.5h-2.11v-6.64h2.11V99.5z"/>
<path class="st0" d="M241.77,101.8h-2.11v-2.3h-1.16c-2.12,0-2.76-1.24-2.76-2.55c0-2.22,1.75-4.09,3.86-4.09h2.17V101.8z
	 M239.66,94.65h-0.04c-1.03,0.13-1.72,1.16-1.72,2.15c0,0.91,0.7,0.91,1.03,0.91h0.73V94.65z"/>
<path class="st0" d="M248.61,99.5h-3.38c-2.07,0-2.66-1.27-2.66-2.77c0-1.22,0.62-2.77,1.13-3.87h2.17
	c-0.39,1.04-1.07,2.64-1.07,3.73c0,1.07,0.59,1.12,1.46,1.12h0.23v-4.85h2.11V99.5z"/>
<path class="st0" d="M251.87,92.3h-2.11v-1.79h2.11V92.3z M251.87,99.5h-2.11v-6.64h2.11V99.5z"/>
<path class="st0" d="M264.25,101.8h-2.11v-2.3h-1.16c-2.12,0-2.76-1.24-2.76-2.55c0-2.22,1.75-4.09,3.86-4.09h2.17V101.8z
	 M262.14,94.65h-0.04c-1.03,0.13-1.72,1.16-1.72,2.15c0,0.91,0.7,0.91,1.03,0.91h0.73V94.65z"/>
<path class="st0" d="M271.09,99.5h-3.38c-2.07,0-2.66-1.27-2.66-2.77c0-1.22,0.62-2.77,1.13-3.87h2.17
	c-0.39,1.04-1.07,2.64-1.07,3.73c0,1.07,0.59,1.12,1.46,1.12h0.23v-4.85h2.11V99.5z"/>
<path class="st0" d="M274.35,92.3h-2.11v-1.79h2.11V92.3z M274.35,99.5h-2.11v-6.64h2.11V99.5z"/>
<path class="st0" d="M16.89,106.05h1.1c2.12,0,2.77,1.24,2.77,2.55c0,2.22-1.76,4.09-3.81,4.09h-2.18v-8.99h2.11V106.05z
	 M16.89,110.91c1.03-0.13,1.72-1.16,1.72-2.15c0-0.91-0.7-0.91-1.03-0.91h-0.68V110.91z"/>
<path class="st0" d="M23.69,112.7h-2.11v-8.99h2.11V112.7z"/>
<path class="st0" d="M30.48,112.7h-2.12c-2.11,0-3.86-1.87-3.86-4.09c0-1.31,0.64-2.55,2.76-2.55h3.22V112.7z M28.37,107.85h-0.68
	c-0.33,0-1.03,0-1.03,0.91c0,0.99,0.68,2.01,1.72,2.15V107.85z"/>
<path class="st0" d="M34.96,106.05c1.8,0,2.38,0.79,2.38,2.55v4.09h-2.11v-3.78c-0.02-0.86-0.03-1.05-0.92-1.07h-0.51v4.85h-2.11
	v-6.64H34.96z"/>
<path class="st0" d="M44.19,103.71v8.99H42c-2.11,0-3.86-1.87-3.86-4.09c0-1.31,0.64-2.55,2.76-2.55h1.18v-2.34H44.19z
	 M41.33,107.85c-0.33,0-1.03,0-1.03,0.91c0,0.99,0.68,2.01,1.72,2.15h0.07v-3.06H41.33z"/>
<path class="st0" d="M50.94,112.7h-2.12c-2.11,0-3.86-1.87-3.86-4.09c0-1.31,0.64-2.55,2.76-2.55h3.22V112.7z M48.83,107.85h-0.68
	c-0.33,0-1.03,0-1.03,0.91c0,0.99,0.68,2.01,1.72,2.15V107.85z"/>
<path class="st0" d="M56.92,112.7h-1.28c-2.11,0-3.86-1.87-3.86-4.09c0.02-1.87,0.87-2.74,3.05-2.71h0.44c2.6,0,2.5,1.51,2.5,1.84
	c0,1.47-1.25,2.4-2.41,3.05c0.55,0.12,0.9,0.12,1.25,0.12h0.84L56.92,112.7z M54.96,107.69c-0.66,0-1.02,0.33-1.02,0.99
	c0,0.26,0.05,0.54,0.14,0.79c0.45-0.23,1.53-0.87,1.53-1.44C55.61,107.69,55.21,107.69,54.96,107.69z"/>
<path class="st0" d="M62.28,107.79h-0.95c-0.45,0-0.6,0.04-0.6,0.25c0,0.12,0.11,0.24,0.18,0.33l0.94,1.18
	c0.35,0.44,0.64,0.94,0.64,1.52c0,0.85-0.64,1.63-1.66,1.63h-2.15l-0.53-1.79h1.17c0.15,0,0.73,0.12,0.73-0.15
	c0-0.17-0.21-0.4-0.3-0.52l-0.89-1.16c-0.35-0.45-0.65-0.9-0.65-1.5c0-0.46,0.35-1.53,1.78-1.53h1.77L62.28,107.79z"/>
<path class="st0" d="M74.11,112.7h-1.28c-2.11,0-3.86-1.87-3.86-4.09c0.02-1.87,0.87-2.74,3.05-2.71h0.44c2.6,0,2.5,1.51,2.5,1.84
	c0,1.47-1.25,2.4-2.41,3.05c0.55,0.12,0.9,0.12,1.25,0.12h0.84L74.11,112.7z M72.15,107.69c-0.66,0-1.02,0.33-1.02,0.99
	c0,0.26,0.05,0.54,0.14,0.79c0.45-0.23,1.53-0.87,1.53-1.44C72.8,107.69,72.4,107.69,72.15,107.69z"/>
<path class="st0" d="M77.94,106.05h1.11v1.74h-1.11v2.53c0,0.31,0.1,0.56,0.54,0.58h0.84l-0.53,1.79h-0.96c-1.16,0-2-0.43-2-2.04
	v-2.87h-0.47v-1.74h0.47v-1.3l2.11-0.63V106.05z"/>
<path class="st0" d="M90.64,112.7h-1.28c-2.11,0-3.86-1.87-3.86-4.09c0.02-1.87,0.87-2.74,3.05-2.71h0.44c2.6,0,2.5,1.51,2.5,1.84
	c0,1.47-1.25,2.4-2.41,3.05c0.55,0.12,0.9,0.12,1.25,0.12h0.84L90.64,112.7z M88.68,107.69c-0.66,0-1.02,0.33-1.02,0.99
	c0,0.26,0.05,0.54,0.14,0.79c0.45-0.23,1.53-0.87,1.53-1.44C89.33,107.69,88.94,107.69,88.68,107.69z"/>
<path class="st0" d="M94.47,106.05h1.11v1.74h-1.11v2.53c0,0.31,0.1,0.56,0.54,0.58h0.84l-0.53,1.79h-0.96c-1.16,0-2-0.43-2-2.04
	v-2.87h-0.47v-1.74h0.47v-1.3l2.11-0.63V106.05z"/>
<path class="st0" d="M102.12,112.7h-3.38c-2.07,0-2.66-1.27-2.66-2.77c0-1.22,0.62-2.77,1.13-3.87h2.17
	c-0.39,1.04-1.07,2.64-1.07,3.73c0,1.07,0.59,1.12,1.46,1.12H100v-4.85h2.11V112.7z"/>
<path class="st0" d="M107.01,107.79h-0.95c-0.45,0-0.6,0.04-0.6,0.25c0,0.12,0.11,0.24,0.18,0.33l0.94,1.18
	c0.35,0.44,0.64,0.94,0.64,1.52c0,0.85-0.64,1.63-1.66,1.63h-2.15l-0.53-1.79h1.17c0.15,0,0.73,0.12,0.73-0.15
	c0-0.17-0.21-0.4-0.3-0.52l-0.89-1.16c-0.35-0.45-0.65-0.9-0.65-1.5c0-0.46,0.35-1.53,1.78-1.53h1.77L107.01,107.79z"/>
<path class="st0" d="M118.83,112.7h-1.28c-2.11,0-3.86-1.87-3.86-4.09c0.02-1.87,0.87-2.74,3.05-2.71h0.44c2.6,0,2.5,1.51,2.5,1.84
	c0,1.47-1.25,2.4-2.41,3.05c0.55,0.12,0.9,0.12,1.25,0.12h0.84L118.83,112.7z M116.88,107.69c-0.66,0-1.02,0.33-1.02,0.99
	c0,0.26,0.05,0.54,0.14,0.79c0.45-0.23,1.53-0.87,1.53-1.44C117.53,107.69,117.13,107.69,116.88,107.69z"/>
<path class="st0" d="M124.2,107.79h-0.95c-0.45,0-0.6,0.04-0.6,0.25c0,0.12,0.11,0.24,0.18,0.33l0.94,1.18
	c0.35,0.44,0.64,0.94,0.64,1.52c0,0.85-0.64,1.63-1.66,1.63h-2.15l-0.53-1.79h1.17c0.15,0,0.73,0.12,0.73-0.15
	c0-0.17-0.21-0.4-0.3-0.52l-0.89-1.16c-0.35-0.45-0.65-0.9-0.65-1.5c0-0.46,0.35-1.53,1.78-1.53h1.77L124.2,107.79z"/>
<path class="st0" d="M127.5,106.05h1.11v1.74h-1.11v2.53c0,0.31,0.1,0.56,0.54,0.58h0.84l-0.53,1.79h-0.96c-1.16,0-2-0.43-2-2.04
	v-2.87h-0.47v-1.74h0.47v-1.3l2.11-0.63V106.05z"/>
<path class="st0" d="M131.58,105.5h-2.11v-1.79h2.11V105.5z M131.58,112.7h-2.11v-6.64h2.11V112.7z"/>
<path class="st0" d="M142.99,107.85h-1.43c-0.33,0-1.03,0-1.03,0.91c0,0.99,0.79,2.15,1.83,2.15h0.75l-0.53,1.79h-0.34
	c-2.11,0-3.86-1.87-3.86-4.09c0-1.31,0.64-2.55,2.76-2.55h1.33L142.99,107.85z"/>
<path class="st0" d="M147.08,105.9c2.74,0,2.72,2.17,2.72,2.52c0,2.09-1.19,4.48-3.18,4.48s-3.18-2.39-3.18-4.48
	c0-0.35-0.02-2.52,2.72-2.52H147.08z M147.64,108.61c0-0.65-0.37-0.91-1.02-0.91c-0.65,0-1.02,0.26-1.02,0.91
	c0,1.39,0.64,2.38,1.02,2.38C147,110.98,147.64,109.99,147.64,108.61z"/>
<path class="st0" d="M153.89,106.05c1.8,0,2.38,0.79,2.38,2.55v4.09h-2.11v-3.78c-0.02-0.86-0.03-1.05-0.92-1.07h-0.51v4.85h-2.11
	v-6.64H153.89z"/>
<path class="st0" d="M166.65,106.05c2.12,0,2.77,1.24,2.77,2.55c0,1.87-1.25,3.7-3.87,4.25V115h-2.11v-8.94H166.65z M165.55,110.91
	c1.03-0.13,1.72-1.16,1.72-2.15c-0.01-0.91-0.72-0.91-1.05-0.91h-0.67V110.91z"/>
<path class="st0" d="M175,112.7h-1.28c-2.11,0-3.86-1.87-3.86-4.09c0.02-1.87,0.87-2.74,3.05-2.71h0.44c2.6,0,2.5,1.51,2.5,1.84
	c0,1.47-1.25,2.4-2.41,3.05c0.55,0.12,0.9,0.12,1.25,0.12h0.84L175,112.7z M173.04,107.69c-0.66,0-1.02,0.33-1.02,0.99
	c0,0.26,0.05,0.54,0.14,0.79c0.45-0.23,1.53-0.87,1.53-1.44C173.69,107.69,173.29,107.69,173.04,107.69z"/>
<path class="st0" d="M178.68,106.05v0.38c0.42-0.4,0.9-0.53,1.47-0.54v1.9c-0.56,0.02-1.09,0.21-1.39,0.71v4.18h-2.11v-6.64H178.68z
	"/>
<path class="st0" d="M186.69,112.7h-3.38c-2.07,0-2.66-1.27-2.66-2.77c0-1.22,0.62-2.77,1.13-3.87h2.17
	c-0.39,1.04-1.07,2.64-1.07,3.73c0,1.07,0.59,1.12,1.46,1.12h0.23v-4.85h2.11V112.7z"/>
<path class="st0" d="M194.16,106.05c1.8,0,2.38,0.79,2.38,2.55v4.09h-2.06v-3.78c-0.02-0.86-0.03-1.05-0.92-1.07h-0.34v4.85h-2.06
	v-4.85h-1.27v4.85h-2.06v-6.64H194.16z"/>
<path class="st0" d="M209.36,115h-2.11v-2.3h-1.16c-2.12,0-2.76-1.24-2.76-2.55c0-2.22,1.75-4.09,3.86-4.09h2.17V115z
	 M207.25,107.85h-0.04c-1.03,0.13-1.72,1.16-1.72,2.15c0,0.91,0.7,0.91,1.03,0.91h0.73V107.85z"/>
<path class="st0" d="M216.21,112.7h-3.38c-2.07,0-2.66-1.27-2.66-2.77c0-1.22,0.62-2.77,1.13-3.87h2.17
	c-0.39,1.04-1.07,2.64-1.07,3.73c0,1.07,0.59,1.12,1.46,1.12h0.23v-4.85h2.11V112.7z"/>
<path class="st0" d="M222.11,112.7h-1.28c-2.11,0-3.86-1.87-3.86-4.09c0.02-1.87,0.87-2.74,3.05-2.71h0.44c2.6,0,2.5,1.51,2.5,1.84
	c0,1.47-1.25,2.4-2.41,3.05c0.55,0.12,0.9,0.12,1.25,0.12h0.84L222.11,112.7z M220.15,107.69c-0.66,0-1.02,0.33-1.02,0.99
	c0,0.26,0.05,0.54,0.14,0.79c0.45-0.23,1.53-0.87,1.53-1.44C220.8,107.69,220.41,107.69,220.15,107.69z"/>
<path class="st0" d="M232.97,106.05c1.8,0,2.38,0.79,2.38,2.55v4.09h-2.11v-3.78c-0.02-0.86-0.03-1.05-0.92-1.07h-0.51v4.85h-2.11
	v-6.64H232.97z"/>
<path class="st0" d="M239.8,105.9c2.74,0,2.72,2.17,2.72,2.52c0,2.09-1.19,4.48-3.18,4.48s-3.18-2.39-3.18-4.48
	c0-0.35-0.02-2.52,2.72-2.52H239.8z M240.36,108.61c0-0.65-0.37-0.91-1.02-0.91c-0.65,0-1.02,0.26-1.02,0.91
	c0,1.39,0.64,2.38,1.02,2.38C239.72,110.98,240.36,109.99,240.36,108.61z"/>
<path class="st0" d="M247.09,107.79h-0.95c-0.45,0-0.6,0.04-0.6,0.25c0,0.12,0.11,0.24,0.18,0.33l0.94,1.18
	c0.35,0.44,0.64,0.94,0.64,1.52c0,0.85-0.64,1.63-1.66,1.63h-2.15l-0.53-1.79h1.17c0.15,0,0.73,0.12,0.73-0.15
	c0-0.17-0.21-0.4-0.3-0.52l-0.89-1.16c-0.35-0.45-0.65-0.9-0.65-1.5c0-0.46,0.35-1.53,1.78-1.53h1.77L247.09,107.79z"/>
<path class="st0" d="M258.92,112.7h-1.28c-2.11,0-3.86-1.87-3.86-4.09c0.02-1.87,0.87-2.74,3.05-2.71h0.44c2.6,0,2.5,1.51,2.5,1.84
	c0,1.47-1.25,2.4-2.41,3.05c0.55,0.12,0.9,0.12,1.25,0.12h0.84L258.92,112.7z M256.96,107.69c-0.66,0-1.02,0.33-1.02,0.99
	c0,0.26,0.05,0.54,0.14,0.79c0.45-0.23,1.53-0.87,1.53-1.44C257.61,107.69,257.21,107.69,256.96,107.69z"/>
<path class="st0" d="M263.8,106.05c1.8,0,2.38,0.79,2.38,2.55v4.09h-2.11v-3.78c-0.02-0.86-0.03-1.05-0.92-1.07h-0.51v4.85h-2.11
	v-6.64H263.8z"/>
<path class="st0" d="M269.47,105.5h-2.11v-1.79h2.11V105.5z M269.47,112.7h-2.11v-6.64h2.11V112.7z"/>
<path class="st0" d="M274.41,107.79h-0.95c-0.45,0-0.6,0.04-0.6,0.25c0,0.12,0.11,0.24,0.18,0.33l0.94,1.18
	c0.35,0.44,0.64,0.94,0.64,1.52c0,0.85-0.64,1.63-1.66,1.63h-2.15l-0.53-1.79h1.17c0.15,0,0.73,0.12,0.73-0.15
	c0-0.17-0.21-0.4-0.3-0.52l-0.89-1.16c-0.35-0.45-0.65-0.9-0.65-1.5c0-0.46,0.35-1.53,1.78-1.53h1.77L274.41,107.79z"/>
<path class="st0" d="M20.36,125.9h-2.12c-2.11,0-3.86-1.87-3.86-4.09c0-1.31,0.64-2.55,2.76-2.55h3.22V125.9z M18.25,121.05h-0.68
	c-0.33,0-1.03,0-1.03,0.91c0,0.99,0.68,2.01,1.72,2.15V121.05z"/>
<path class="st0" d="M27.25,116.91v8.99h-2.19c-2.11,0-3.86-1.87-3.86-4.09c0-1.31,0.64-2.55,2.76-2.55h1.18v-2.34H27.25z
	 M24.39,121.05c-0.33,0-1.03,0-1.03,0.91c0,0.99,0.68,2.01,1.72,2.15h0.07v-3.06H24.39z"/>
<path class="st0" d="M30.51,118.7h-2.11v-1.79h2.11V118.7z M30.51,125.9h-2.11v-6.64h2.11V125.9z"/>
<path class="st0" d="M33.9,119.25h1.11v1.74H33.9v2.53c0,0.31,0.1,0.56,0.54,0.58h0.84l-0.53,1.79h-0.96c-1.16,0-2-0.43-2-2.04
	v-2.87h-0.47v-1.74h0.47v-1.3l2.11-0.63V119.25z"/>
<path class="st0" d="M49.45,125.9h-2.44l-2.09-6.64h2.22l1.08,4.26h0.02l1.08-4.26h2.22L49.45,125.9z"/>
<path class="st0" d="M55.18,119.1c2.74,0,2.72,2.17,2.72,2.52c0,2.09-1.19,4.48-3.18,4.48s-3.18-2.39-3.18-4.48
	c0-0.35-0.02-2.52,2.72-2.52H55.18z M55.74,121.81c0-0.65-0.37-0.91-1.02-0.91c-0.65,0-1.02,0.26-1.02,0.91
	c0,1.39,0.64,2.38,1.02,2.38C55.1,124.18,55.74,123.19,55.74,121.81z"/>
<path class="st0" d="M60.83,125.9h-2.11v-8.99h2.11V125.9z"/>
<path class="st0" d="M66.78,125.9h-1.28c-2.11,0-3.86-1.87-3.86-4.09c0.02-1.87,0.87-2.74,3.05-2.71h0.44c2.6,0,2.5,1.51,2.5,1.84
	c0,1.47-1.25,2.4-2.41,3.05c0.55,0.12,0.9,0.12,1.25,0.12h0.84L66.78,125.9z M64.83,120.89c-0.66,0-1.02,0.33-1.02,0.99
	c0,0.26,0.05,0.54,0.14,0.79c0.45-0.23,1.53-0.87,1.53-1.44C65.47,120.89,65.08,120.89,64.83,120.89z"/>
<path class="st0" d="M72.65,121.05h-1.43c-0.33,0-1.03,0-1.03,0.91c0,0.99,0.79,2.15,1.83,2.15h0.75l-0.53,1.79h-0.34
	c-2.11,0-3.86-1.87-3.86-4.09c0-1.31,0.64-2.55,2.76-2.55h1.33L72.65,121.05z"/>
<path class="st0" d="M78.22,125.9h-1.28c-2.11,0-3.86-1.87-3.86-4.09c0.02-1.87,0.87-2.74,3.05-2.71h0.44c2.6,0,2.5,1.51,2.5,1.84
	c0,1.47-1.25,2.4-2.41,3.05c0.55,0.12,0.9,0.12,1.25,0.12h0.84L78.22,125.9z M76.27,120.89c-0.66,0-1.02,0.33-1.02,0.99
	c0,0.26,0.05,0.54,0.14,0.79c0.45-0.23,1.53-0.87,1.53-1.44C76.91,120.89,76.52,120.89,76.27,120.89z"/>
<path class="st0" d="M81.91,119.25v0.38c0.42-0.4,0.9-0.53,1.47-0.54v1.9c-0.56,0.02-1.09,0.21-1.39,0.71v4.18h-2.11v-6.64H81.91z"
	/>
<path class="st0" d="M97.86,120.99h-0.95c-0.45,0-0.6,0.04-0.6,0.25c0,0.12,0.11,0.24,0.18,0.33l0.94,1.18
	c0.35,0.44,0.64,0.94,0.64,1.52c0,0.85-0.64,1.63-1.66,1.63h-2.15l-0.53-1.79h1.17c0.15,0,0.73,0.12,0.73-0.15
	c0-0.17-0.21-0.4-0.3-0.52l-0.89-1.15c-0.35-0.45-0.65-0.9-0.65-1.5c0-0.46,0.35-1.53,1.78-1.53h1.77L97.86,120.99z"/>
<path class="st0" d="M102.18,119.25c2.12,0,2.77,1.24,2.77,2.55c0,1.87-1.25,3.7-3.87,4.25v2.15h-2.11v-8.94H102.18z M101.08,124.11
	c1.03-0.13,1.72-1.16,1.72-2.15c-0.01-0.91-0.72-0.91-1.05-0.91h-0.67V124.11z"/>
<path class="st0" d="M110.53,125.9h-1.28c-2.11,0-3.86-1.87-3.86-4.09c0.02-1.87,0.87-2.74,3.05-2.71h0.44c2.6,0,2.5,1.51,2.5,1.84
	c0,1.47-1.25,2.4-2.41,3.05c0.55,0.12,0.9,0.12,1.25,0.12h0.84L110.53,125.9z M108.57,120.89c-0.66,0-1.02,0.33-1.02,0.99
	c0,0.26,0.05,0.54,0.14,0.79c0.45-0.23,1.53-0.87,1.53-1.44C109.22,120.89,108.82,120.89,108.57,120.89z"/>
<path class="st0" d="M114.21,119.25v0.38c0.42-0.4,0.9-0.53,1.47-0.54v1.9c-0.56,0.02-1.09,0.21-1.39,0.71v4.18h-2.11v-6.64H114.21z
	"/>
<path class="st0" d="M119.87,119.25c1.8,0,2.38,0.79,2.38,2.55v4.09h-2.11v-3.78c-0.02-0.86-0.03-1.05-0.92-1.07h-0.51v4.85h-2.11
	v-6.64H119.87z"/>
<path class="st0" d="M129.03,125.9h-2.12c-2.11,0-3.86-1.87-3.86-4.09c0-1.31,0.64-2.55,2.76-2.55h3.22V125.9z M126.92,121.05h-0.68
	c-0.33,0-1.03,0-1.03,0.91c0,0.99,0.68,2.01,1.72,2.15V121.05z"/>
<path class="st0" d="M132.45,119.25h1.11v1.74h-1.11v2.53c0,0.31,0.1,0.56,0.54,0.58h0.84l-0.53,1.79h-0.96c-1.16,0-2-0.43-2-2.04
	v-2.87h-0.47v-1.74h0.47v-1.3l2.11-0.63V119.25z"/>
<path class="st0" d="M140.1,125.9h-3.38c-2.07,0-2.66-1.27-2.66-2.77c0-1.22,0.62-2.77,1.13-3.87h2.17
	c-0.39,1.04-1.07,2.64-1.07,3.73c0,1.07,0.59,1.12,1.46,1.12h0.23v-4.85h2.11V125.9z"/>
<path class="st0" d="M143.31,119.25v0.38c0.42-0.4,0.9-0.53,1.47-0.54v1.9c-0.56,0.02-1.09,0.21-1.39,0.71v4.18h-2.11v-6.64H143.31z
	"/>
<path class="st0" d="M146.6,125.9h-1.98v-2.02h1.98V125.9z"/>
<path class="st0" d="M165.07,125.9h-3.55c-2.49,0-4.09-2.61-4.09-5.61c0-1.95,0.94-3.58,4.09-3.58c3.16,0,4.05,1.63,4.05,3.58
	c0,1.28-0.42,2.57-1.18,3.59h1.23L165.07,125.9z M163.15,120.4c0-1.2-0.48-1.58-1.64-1.58c-1.2,0-1.68,0.38-1.68,1.58
	c0,0.86,0.55,3.4,1.66,3.4S163.15,121.26,163.15,120.4z"/>
<path class="st0" d="M172.2,125.9h-3.38c-2.07,0-2.66-1.27-2.66-2.77c0-1.22,0.62-2.77,1.13-3.87h2.17
	c-0.39,1.04-1.07,2.64-1.07,3.73c0,1.07,0.59,1.12,1.46,1.12h0.23v-4.85h2.11V125.9z"/>
<path class="st0" d="M175.45,118.7h-2.11v-1.79h2.11V118.7z M175.45,125.9h-2.11v-6.64h2.11V125.9z"/>
<path class="st0" d="M190.75,121.05h-1.43c-0.33,0-1.03,0-1.03,0.91c0,0.99,0.79,2.15,1.83,2.15h0.75l-0.53,1.79h-0.34
	c-2.11,0-3.86-1.87-3.86-4.09c0-1.31,0.64-2.55,2.76-2.55h1.33L190.75,121.05z"/>
<path class="st0" d="M194.84,119.1c2.74,0,2.72,2.17,2.72,2.52c0,2.09-1.19,4.48-3.18,4.48s-3.18-2.39-3.18-4.48
	c0-0.35-0.02-2.52,2.72-2.52H194.84z M195.4,121.81c0-0.65-0.37-0.91-1.02-0.91c-0.65,0-1.02,0.26-1.02,0.91
	c0,1.39,0.64,2.38,1.02,2.38C194.77,124.18,195.4,123.19,195.4,121.81z"/>
<path class="st0" d="M204.71,119.25c1.8,0,2.38,0.79,2.38,2.55v4.09h-2.06v-3.78c-0.02-0.86-0.03-1.05-0.92-1.07h-0.34v4.85h-2.06
	v-4.85h-1.27v4.85h-2.06v-6.64H204.71z"/>
<path class="st0" d="M211.55,119.25c1.8,0,2.38,0.79,2.38,2.55v4.09h-2.11v-3.78c-0.02-0.86-0.03-1.05-0.92-1.07h-0.51v4.85h-2.11
	v-6.64H211.55z"/>
<path class="st0" d="M217.22,118.7h-2.11v-1.79h2.11V118.7z M217.22,125.9h-2.11v-6.64h2.11V125.9z"/>
<path class="st0" d="M222.16,120.99h-0.95c-0.45,0-0.6,0.04-0.6,0.25c0,0.12,0.11,0.24,0.18,0.33l0.94,1.18
	c0.35,0.44,0.64,0.94,0.64,1.52c0,0.85-0.64,1.63-1.66,1.63h-2.15l-0.53-1.79h1.17c0.15,0,0.73,0.12,0.73-0.15
	c0-0.17-0.21-0.4-0.3-0.52l-0.89-1.15c-0.35-0.45-0.65-0.9-0.65-1.5c0-0.46,0.35-1.53,1.78-1.53h1.77L222.16,120.99z"/>
<path class="st0" d="M227,120.99h-0.95c-0.45,0-0.6,0.04-0.6,0.25c0,0.12,0.11,0.24,0.18,0.33l0.94,1.18
	c0.35,0.44,0.64,0.94,0.64,1.52c0,0.85-0.64,1.63-1.66,1.63h-2.15l-0.53-1.79h1.17c0.15,0,0.73,0.12,0.73-0.15
	c0-0.17-0.21-0.4-0.3-0.52l-0.89-1.15c-0.35-0.45-0.65-0.9-0.65-1.5c0-0.46,0.35-1.53,1.78-1.53h1.77L227,120.99z"/>
<path class="st0" d="M240.06,118.7h-2.11v-1.79h2.11V118.7z M240.06,125.9h-2.11v-6.64h2.11V125.9z"/>
<path class="st0" d="M247.58,119.25c1.8,0,2.38,0.79,2.38,2.55v4.09h-2.06v-3.78c-0.02-0.86-0.03-1.05-0.92-1.07h-0.34v4.85h-2.06
	v-4.85h-1.27v4.85h-2.06v-6.64H247.58z"/>
<path class="st0" d="M254.39,119.25c2.12,0,2.77,1.24,2.77,2.55c0,1.87-1.25,3.7-3.87,4.25v2.15h-2.11v-8.94H254.39z M253.29,124.11
	c1.03-0.13,1.72-1.16,1.72-2.15c-0.01-0.91-0.72-0.91-1.05-0.91h-0.67V124.11z"/>
<path class="st0" d="M261.25,119.1c2.74,0,2.72,2.17,2.72,2.52c0,2.09-1.19,4.48-3.18,4.48s-3.18-2.39-3.18-4.48
	c0-0.35-0.02-2.52,2.72-2.52H261.25z M261.81,121.81c0-0.65-0.37-0.91-1.02-0.91c-0.65,0-1.02,0.26-1.02,0.91
	c0,1.39,0.64,2.38,1.02,2.38C261.17,124.18,261.81,123.19,261.81,121.81z"/>
<path class="st0" d="M266.86,119.25v0.38c0.42-0.4,0.9-0.53,1.47-0.54v1.9c-0.56,0.02-1.09,0.21-1.39,0.71v4.18h-2.11v-6.64H266.86z
	"/>
<path class="st0" d="M273.95,125.9h-1.28c-2.11,0-3.86-1.87-3.86-4.09c0.02-1.87,0.87-2.74,3.05-2.71h0.44c2.6,0,2.5,1.51,2.5,1.84
	c0,1.47-1.25,2.4-2.41,3.05c0.55,0.12,0.9,0.12,1.25,0.12h0.84L273.95,125.9z M272,120.89c-0.66,0-1.02,0.33-1.02,0.99
	c0,0.26,0.05,0.54,0.14,0.79c0.45-0.23,1.53-0.87,1.53-1.44C272.65,120.89,272.25,120.89,272,120.89z"/>
<path class="st0" d="M21.08,132.45c1.8,0,2.38,0.79,2.38,2.55v4.09H21.4v-3.78c-0.02-0.86-0.03-1.05-0.92-1.07h-0.34v4.85h-2.06
	v-4.85h-1.27v4.85h-2.06v-6.64H21.08z"/>
<path class="st0" d="M26.77,131.9h-2.11v-1.79h2.11V131.9z M26.77,139.1h-2.11v-6.64h2.11V139.1z"/>
<path class="st0" d="M31.22,132.45c1.8,0,2.38,0.79,2.38,2.55v4.09h-2.11v-3.78c-0.02-0.86-0.03-1.05-0.92-1.07h-0.51v4.85h-2.11
	v-6.64H31.22z"/>
<path class="st0" d="M36.89,131.9h-2.11v-1.79h2.11V131.9z M36.89,139.1h-2.11v-6.64h2.11V139.1z"/>
<path class="st0" d="M44.4,132.45c1.8,0,2.38,0.79,2.38,2.55v4.09h-2.06v-3.78c-0.02-0.86-0.03-1.05-0.92-1.07h-0.34v4.85H41.4
	v-4.85h-1.27v4.85h-2.06v-6.64H44.4z"/>
<path class="st0" d="M51.21,132.45c2.12,0,2.77,1.24,2.77,2.55c0,1.87-1.25,3.7-3.87,4.25v2.15H48v-8.94H51.21z M50.11,137.31
	c1.03-0.13,1.72-1.16,1.72-2.15c-0.01-0.91-0.72-0.91-1.05-0.91h-0.67V137.31z"/>
<path class="st0" d="M58.07,132.3c2.74,0,2.72,2.17,2.72,2.52c0,2.09-1.19,4.48-3.18,4.48s-3.18-2.39-3.18-4.48
	c0-0.35-0.02-2.52,2.72-2.52H58.07z M58.63,135.01c0-0.65-0.37-0.91-1.02-0.91c-0.65,0-1.02,0.26-1.02,0.91
	c0,1.39,0.64,2.38,1.02,2.38C57.99,137.38,58.63,136.39,58.63,135.01z"/>
<path class="st0" d="M63.68,132.45v0.38c0.42-0.4,0.9-0.53,1.47-0.54v1.9c-0.56,0.02-1.09,0.21-1.39,0.71v4.18h-2.11v-6.64H63.68z"
	/>
<path class="st0" d="M77.94,139.1h-2.12c-2.11,0-3.86-1.87-3.86-4.09c0-1.31,0.64-2.55,2.76-2.55h3.22V139.1z M75.83,134.25h-0.68
	c-0.33,0-1.03,0-1.03,0.91c0,0.99,0.68,2.01,1.72,2.15V134.25z"/>
<path class="st0" d="M82.9,134.19h-0.95c-0.45,0-0.6,0.04-0.6,0.25c0,0.12,0.11,0.24,0.18,0.33l0.94,1.18
	c0.35,0.44,0.64,0.94,0.64,1.52c0,0.85-0.64,1.63-1.66,1.63h-2.15l-0.53-1.79h1.17c0.15,0,0.73,0.12,0.73-0.15
	c0-0.17-0.21-0.4-0.3-0.52l-0.89-1.16c-0.35-0.45-0.65-0.9-0.65-1.5c0-0.46,0.35-1.53,1.78-1.53h1.77L82.9,134.19z"/>
<path class="st0" d="M87.22,132.45c2.12,0,2.77,1.24,2.77,2.55c0,1.87-1.25,3.7-3.87,4.25v2.15h-2.11v-8.94H87.22z M86.12,137.31
	c1.03-0.13,1.72-1.16,1.72-2.15c-0.01-0.91-0.72-0.91-1.05-0.91h-0.67V137.31z"/>
<path class="st0" d="M95.57,139.1h-1.28c-2.11,0-3.86-1.87-3.86-4.09c0.02-1.87,0.87-2.74,3.05-2.71h0.44c2.6,0,2.5,1.51,2.5,1.84
	c0,1.47-1.25,2.4-2.41,3.05c0.55,0.12,0.9,0.12,1.25,0.12h0.84L95.57,139.1z M93.61,134.09c-0.66,0-1.02,0.33-1.02,0.99
	c0,0.26,0.05,0.54,0.14,0.79c0.45-0.23,1.53-0.87,1.53-1.44C94.26,134.09,93.87,134.09,93.61,134.09z"/>
<path class="st0" d="M99.3,139.1h-2.11v-8.99h2.11V139.1z"/>
<path class="st0" d="M102.6,139.1h-2.11v-8.99h2.11V139.1z"/>
<path class="st0" d="M109.46,139.1h-3.38c-2.07,0-2.66-1.27-2.66-2.77c0-1.22,0.62-2.77,1.13-3.87h2.17
	c-0.39,1.04-1.07,2.64-1.07,3.73c0,1.07,0.59,1.12,1.46,1.12h0.23v-4.85h2.11V139.1z"/>
<path class="st0" d="M120.15,132.45c2.12,0,2.77,1.24,2.77,2.55c0,1.87-1.25,3.7-3.87,4.25v2.15h-2.11v-8.94H120.15z M119.05,137.31
	c1.03-0.13,1.72-1.16,1.72-2.15c-0.01-0.91-0.72-0.91-1.05-0.91h-0.67V137.31z"/>
<path class="st0" d="M125.95,132.45h1.11v1.74h-1.11v2.53c0,0.31,0.1,0.56,0.54,0.58h0.84l-0.53,1.79h-0.96c-1.16,0-2-0.43-2-2.04
	v-2.87h-0.47v-1.74h0.47v-1.3l2.11-0.63V132.45z"/>
<path class="st0" d="M133.53,139.1h-2.12c-2.11,0-3.86-1.87-3.86-4.09c0-1.31,0.64-2.55,2.76-2.55h3.22V139.1z M131.42,134.25h-0.68
	c-0.33,0-1.03,0-1.03,0.91c0,0.99,0.68,2.01,1.72,2.15V134.25z"/>
<path class="st0" d="M140.39,141.4h-2.11v-2.3h-1.16c-2.12,0-2.76-1.24-2.76-2.55c0-2.22,1.75-4.09,3.86-4.09h2.17V141.4z
	 M138.28,134.25h-0.04c-1.03,0.13-1.72,1.16-1.72,2.15c0,0.91,0.7,0.91,1.03,0.91h0.73V134.25z"/>
<path class="st0" d="M147.24,139.1h-3.38c-2.07,0-2.66-1.27-2.66-2.77c0-1.22,0.62-2.77,1.13-3.87h2.17
	c-0.39,1.04-1.07,2.64-1.07,3.73c0,1.07,0.59,1.12,1.46,1.12h0.23v-4.85h2.11V139.1z"/>
<path class="st0" d="M153.14,139.1h-1.28c-2.11,0-3.86-1.87-3.86-4.09c0.02-1.87,0.87-2.74,3.05-2.71h0.44c2.6,0,2.5,1.51,2.5,1.84
	c0,1.47-1.25,2.4-2.41,3.05c0.55,0.12,0.9,0.12,1.25,0.12h0.84L153.14,139.1z M151.19,134.09c-0.66,0-1.02,0.33-1.02,0.99
	c0,0.26,0.05,0.54,0.14,0.79c0.45-0.23,1.53-0.87,1.53-1.44C151.83,134.09,151.44,134.09,151.19,134.09z"/>
<path class="st0" d="M165.84,139.1h-1.28c-2.11,0-3.86-1.87-3.86-4.09c0.02-1.87,0.87-2.74,3.05-2.71h0.44c2.6,0,2.5,1.51,2.5,1.84
	c0,1.47-1.25,2.4-2.41,3.05c0.55,0.12,0.9,0.12,1.25,0.12h0.84L165.84,139.1z M163.88,134.09c-0.66,0-1.02,0.33-1.02,0.99
	c0,0.26,0.05,0.54,0.14,0.79c0.45-0.23,1.53-0.87,1.53-1.44C164.53,134.09,164.13,134.09,163.88,134.09z"/>
<path class="st0" d="M169.52,132.45v0.38c0.42-0.4,0.9-0.53,1.47-0.54v1.9c-0.56,0.02-1.09,0.21-1.39,0.71v4.18h-2.11v-6.64H169.52z
	"/>
<path class="st0" d="M173.97,131.9h-2.11v-1.79h2.11V131.9z M173.97,139.1h-2.11v-6.64h2.11V139.1z"/>
<path class="st0" d="M178.43,132.3c2.74,0,2.72,2.17,2.72,2.52c0,2.09-1.19,4.48-3.18,4.48s-3.18-2.39-3.18-4.48
	c0-0.35-0.02-2.52,2.72-2.52H178.43z M178.99,135.01c0-0.65-0.37-0.91-1.02-0.91c-0.65,0-1.02,0.26-1.02,0.91
	c0,1.39,0.64,2.38,1.02,2.38C178.35,137.38,178.99,136.39,178.99,135.01z"/>
<path class="st0" d="M184.04,132.45v0.38c0.42-0.4,0.9-0.53,1.47-0.54v1.9c-0.56,0.02-1.09,0.21-1.39,0.71v4.18h-2.11v-6.64H184.04z
	"/>
<path class="st0" d="M188.49,131.9h-2.11v-1.79h2.11V131.9z M188.49,139.1h-2.11v-6.64h2.11V139.1z"/>
<path class="st0" d="M192.95,132.3c2.74,0,2.72,2.17,2.72,2.52c0,2.09-1.19,4.48-3.18,4.48s-3.18-2.39-3.18-4.48
	c0-0.35-0.02-2.52,2.72-2.52H192.95z M193.51,135.01c0-0.65-0.37-0.91-1.02-0.91c-0.65,0-1.02,0.26-1.02,0.91
	c0,1.39,0.64,2.38,1.02,2.38C192.87,137.38,193.51,136.39,193.51,135.01z"/>
<path class="st0" d="M200.24,134.19h-0.95c-0.45,0-0.6,0.04-0.6,0.25c0,0.12,0.11,0.24,0.18,0.33l0.94,1.18
	c0.35,0.44,0.64,0.94,0.64,1.52c0,0.85-0.64,1.63-1.66,1.63h-2.15l-0.53-1.79h1.17c0.15,0,0.73,0.12,0.73-0.15
	c0-0.17-0.21-0.4-0.3-0.52l-0.89-1.16c-0.35-0.45-0.65-0.9-0.65-1.5c0-0.46,0.35-1.53,1.78-1.53h1.77L200.24,134.19z"/>
<path class="st0" d="M213.26,139.1h-2.12c-2.11,0-3.86-1.87-3.86-4.09c0-1.31,0.64-2.55,2.76-2.55h3.22V139.1z M211.15,134.25h-0.68
	c-0.33,0-1.03,0-1.03,0.91c0,0.99,0.68,2.01,1.72,2.15V134.25z"/>
<path class="st0" d="M217.7,132.45c2.12,0,2.77,1.24,2.77,2.55c0,1.87-1.25,3.7-3.87,4.25v2.15h-2.11v-8.94H217.7z M216.6,137.31
	c1.03-0.13,1.72-1.16,1.72-2.15c-0.01-0.91-0.72-0.91-1.05-0.91h-0.67V137.31z"/>
<path class="st0" d="M223.4,131.9h-2.11v-1.79h2.11V131.9z M223.4,139.1h-2.11v-6.64h2.11V139.1z"/>
<path class="st0" d="M226.8,132.45h1.11v1.74h-1.11v2.53c0,0.31,0.1,0.56,0.54,0.58h0.84l-0.53,1.79h-0.96c-1.16,0-2-0.43-2-2.04
	v-2.87h-0.47v-1.74h0.47v-1.3l2.11-0.63V132.45z"/>
<path class="st0" d="M230.88,131.9h-2.11v-1.79h2.11V131.9z M230.88,139.1h-2.11v-6.64h2.11V139.1z"/>
<path class="st0" d="M240.51,132.45h1.1c2.12,0,2.77,1.24,2.77,2.55c0,2.22-1.76,4.09-3.81,4.09h-2.18v-8.99h2.11V132.45z
	 M240.51,137.31c1.03-0.13,1.72-1.16,1.72-2.15c0-0.91-0.7-0.91-1.03-0.91h-0.68V137.31z"/>
<path class="st0" d="M247.31,139.1h-2.11v-8.99h2.11V139.1z"/>
<path class="st0" d="M254.11,139.1h-2.12c-2.11,0-3.86-1.87-3.86-4.09c0-1.31,0.64-2.55,2.76-2.55h3.22V139.1z M252,134.25h-0.68
	c-0.33,0-1.03,0-1.03,0.91c0,0.99,0.68,2.01,1.72,2.15V134.25z"/>
<path class="st0" d="M259.57,134.25h-1.43c-0.33,0-1.03,0-1.03,0.91c0,0.99,0.79,2.15,1.83,2.15h0.75l-0.53,1.79h-0.34
	c-2.11,0-3.86-1.87-3.86-4.09c0-1.31,0.64-2.55,2.76-2.55h1.33L259.57,134.25z"/>
<path class="st0" d="M264.63,134.25h-1.43c-0.33,0-1.03,0-1.03,0.91c0,0.99,0.79,2.15,1.83,2.15h0.75l-0.53,1.79h-0.34
	c-2.11,0-3.86-1.87-3.86-4.09c0-1.31,0.64-2.55,2.76-2.55h1.33L264.63,134.25z"/>
<path class="st0" d="M271.12,139.1h-3.38c-2.07,0-2.66-1.27-2.66-2.77c0-1.22,0.62-2.77,1.13-3.87h2.17
	c-0.39,1.04-1.07,2.64-1.07,3.73c0,1.07,0.59,1.12,1.46,1.12H269v-4.85h2.11V139.1z"/>
<path class="st0" d="M274.37,139.1h-2.11v-8.99h2.11V139.1z"/>
<path class="st0" d="M294.66,99.5h-2.11v-8.99h2.11V99.5z"/>
<path class="st0" d="M297.96,92.3h-2.11v-1.79h2.11V92.3z M297.96,99.5h-2.11v-6.64h2.11V99.5z"/>
<path class="st0" d="M301.36,92.85h1.11v1.74h-1.11v2.53c0,0.31,0.1,0.56,0.54,0.58h0.84l-0.53,1.79h-0.96c-1.16,0-2-0.43-2-2.04
	v-2.87h-0.47v-1.74h0.47v-1.3l2.11-0.63V92.85z"/>
<path class="st0" d="M308.94,99.5h-2.12c-2.11,0-3.86-1.87-3.86-4.09c0-1.31,0.64-2.55,2.76-2.55h3.22V99.5z M306.83,94.65h-0.68
	c-0.33,0-1.03,0-1.03,0.91c0,0.99,0.68,2.01,1.72,2.15V94.65z"/>
<path class="st0" d="M312.36,92.85h1.11v1.74h-1.11v2.53c0,0.31,0.1,0.56,0.54,0.58h0.84l-0.53,1.79h-0.96c-1.16,0-2-0.43-2-2.04
	v-2.87h-0.47v-1.74h0.47v-1.3l2.11-0.63V92.85z"/>
<path class="st0" d="M316.37,99.5h-1.98v-2.02h1.98V99.5z"/>
<path class="st0" d="M324.26,99.5h-2.35v-6.69h2.35v2.38c0.66-0.34,1.95-1.16,1.95-1.97c0-0.67-0.67-0.67-1.15-0.68h-3.59l0.55-2.02
	h3.65c2.22,0,2.95,1.24,2.95,2.48c0,1.39-0.99,3.09-4.36,4.52V99.5z"/>
<path class="st0" d="M335.01,99.5h-2.12c-2.11,0-3.86-1.87-3.86-4.09c0-1.31,0.64-2.55,2.76-2.55h3.22V99.5z M332.9,94.65h-0.68
	c-0.33,0-1.03,0-1.03,0.91c0,0.99,0.68,2.01,1.72,2.15V94.65z"/>
<path class="st0" d="M338.29,92.85v0.38c0.42-0.4,0.9-0.53,1.47-0.54v1.9c-0.56,0.02-1.09,0.21-1.39,0.71v4.18h-2.11v-6.64H338.29z"
	/>
<path class="st0" d="M346.29,99.5h-3.38c-2.07,0-2.66-1.27-2.66-2.77c0-1.22,0.62-2.77,1.13-3.87h2.17
	c-0.39,1.04-1.07,2.64-1.07,3.73c0,1.07,0.59,1.12,1.46,1.12h0.23v-4.85h2.11V99.5z"/>
<path class="st0" d="M353.76,92.85c1.8,0,2.38,0.79,2.38,2.55v4.09h-2.06v-3.78c-0.02-0.86-0.03-1.05-0.92-1.07h-0.34v4.85h-2.06
	v-4.85h-1.27v4.85h-2.06v-6.64H353.76z"/>
<path class="st0" d="M362.1,99.5h-1.28c-2.11,0-3.86-1.87-3.86-4.09c0.02-1.87,0.87-2.74,3.05-2.71h0.44c2.6,0,2.5,1.51,2.5,1.84
	c0,1.47-1.25,2.4-2.41,3.05c0.55,0.12,0.9,0.12,1.25,0.12h0.84L362.1,99.5z M360.14,94.49c-0.66,0-1.02,0.33-1.02,0.99
	c0,0.26,0.05,0.54,0.14,0.79c0.45-0.23,1.53-0.87,1.53-1.44C360.79,94.49,360.4,94.49,360.14,94.49z"/>
<path class="st0" d="M365.93,92.85h1.11v1.74h-1.11v2.53c0,0.31,0.1,0.56,0.54,0.58h0.84l-0.53,1.79h-0.96c-1.16,0-2-0.43-2-2.04
	v-2.87h-0.47v-1.74h0.47v-1.3l2.11-0.63V92.85z"/>
<path class="st0" d="M374.04,92.85v0.38c0.42-0.4,0.9-0.53,1.47-0.54v1.9c-0.56,0.02-1.09,0.21-1.39,0.71v4.18h-2.11v-6.64H374.04z"
	/>
<path class="st0" d="M381.98,99.5h-2.12c-2.11,0-3.86-1.87-3.86-4.09c0-1.31,0.64-2.55,2.76-2.55h3.22V99.5z M379.87,94.65h-0.68
	c-0.33,0-1.03,0-1.03,0.91c0,0.99,0.68,2.01,1.72,2.15V94.65z"/>
<path class="st0" d="M390.96,99.5h-2.44l-2.09-6.64h2.22l1.08,4.26h0.02l1.08-4.26h2.22L390.96,99.5z"/>
<path class="st0" d="M398.18,99.5h-1.28c-2.11,0-3.86-1.87-3.86-4.09c0.02-1.87,0.87-2.74,3.05-2.71h0.44c2.6,0,2.5,1.51,2.5,1.84
	c0,1.47-1.25,2.4-2.41,3.05c0.55,0.12,0.9,0.12,1.25,0.12h0.84L398.18,99.5z M396.22,94.49c-0.66,0-1.02,0.33-1.02,0.99
	c0,0.26,0.05,0.54,0.14,0.79c0.45-0.23,1.53-0.87,1.53-1.44C396.87,94.49,396.47,94.49,396.22,94.49z"/>
<path class="st0" d="M401.91,99.5h-2.11v-8.99h2.11V99.5z"/>
<path class="st0" d="M413.49,92.85c1.8,0,2.38,0.79,2.38,2.55v4.09h-2.06v-3.78c-0.02-0.86-0.03-1.05-0.92-1.07h-0.34v4.85h-2.06
	v-4.85h-1.27v4.85h-2.06v-6.64H413.49z"/>
<path class="st0" d="M420.34,92.7c2.74,0,2.72,2.17,2.72,2.52c0,2.09-1.19,4.48-3.18,4.48s-3.18-2.39-3.18-4.48
	c0-0.35-0.02-2.52,2.72-2.52H420.34z M420.91,95.41c0-0.65-0.37-0.91-1.02-0.91c-0.65,0-1.02,0.26-1.02,0.91
	c0,1.39,0.64,2.38,1.02,2.38C420.27,97.78,420.91,96.79,420.91,95.41z"/>
<path class="st0" d="M426,99.5h-2.11v-8.99H426V99.5z"/>
<path class="st0" d="M431.95,99.5h-1.28c-2.11,0-3.86-1.87-3.86-4.09c0.02-1.87,0.87-2.74,3.05-2.71h0.44c2.6,0,2.5,1.51,2.5,1.84
	c0,1.47-1.25,2.4-2.41,3.05c0.55,0.12,0.9,0.12,1.25,0.12h0.84L431.95,99.5z M429.99,94.49c-0.66,0-1.02,0.33-1.02,0.99
	c0,0.26,0.05,0.54,0.14,0.79c0.45-0.23,1.53-0.87,1.53-1.44C430.64,94.49,430.24,94.49,429.99,94.49z"/>
<path class="st0" d="M437.32,94.59h-0.95c-0.45,0-0.6,0.04-0.6,0.25c0,0.12,0.11,0.24,0.18,0.33l0.94,1.18
	c0.35,0.44,0.64,0.94,0.64,1.52c0,0.85-0.64,1.63-1.66,1.63h-2.15l-0.53-1.79h1.17c0.15,0,0.73,0.12,0.73-0.15
	c0-0.17-0.21-0.4-0.3-0.52l-0.89-1.16c-0.35-0.45-0.65-0.9-0.65-1.5c0-0.46,0.35-1.53,1.78-1.53h1.77L437.32,94.59z"/>
<path class="st0" d="M440.62,92.85h1.11v1.74h-1.11v2.53c0,0.31,0.1,0.56,0.54,0.58h0.84l-0.53,1.79h-0.96c-1.16,0-2-0.43-2-2.04
	v-2.87h-0.47v-1.74h0.47v-1.3l2.11-0.63V92.85z"/>
<path class="st0" d="M447.35,99.5h-1.28c-2.11,0-3.86-1.87-3.86-4.09c0.02-1.87,0.87-2.74,3.05-2.71h0.44c2.6,0,2.5,1.51,2.5,1.84
	c0,1.47-1.25,2.4-2.41,3.05c0.55,0.12,0.9,0.12,1.25,0.12h0.84L447.35,99.5z M445.39,94.49c-0.66,0-1.02,0.33-1.02,0.99
	c0,0.26,0.05,0.54,0.14,0.79c0.45-0.23,1.53-0.87,1.53-1.44C446.04,94.49,445.64,94.49,445.39,94.49z"/>
<path class="st0" d="M455.29,92.85c1.8,0,2.38,0.79,2.38,2.55v4.09h-2.06v-3.78c-0.02-0.86-0.03-1.05-0.92-1.07h-0.34v4.85h-2.06
	v-4.85h-1.27v4.85h-2.06v-6.64H455.29z"/>
<path class="st0" d="M465.05,92.3h-2.11v-1.79h2.11V92.3z M465.05,99.5h-2.11v-6.64h2.11V99.5z"/>
<path class="st0" d="M471.91,99.5h-3.38c-2.07,0-2.66-1.27-2.66-2.77c0-1.22,0.62-2.77,1.13-3.87h2.17
	c-0.39,1.04-1.07,2.64-1.07,3.73c0,1.07,0.59,1.12,1.46,1.12h0.23v-4.85h2.11V99.5z"/>
<path class="st0" d="M479.38,92.85c1.8,0,2.38,0.79,2.38,2.55v4.09h-2.06v-3.78c-0.02-0.86-0.03-1.05-0.92-1.07h-0.34v4.85h-2.06
	v-4.85h-1.27v4.85h-2.06v-6.64H479.38z"/>
<path class="st0" d="M490.73,99.5h-2.44l-2.09-6.64h2.22l1.08,4.26h0.02l1.08-4.26h2.22L490.73,99.5z"/>
<path class="st0" d="M496.46,92.7c2.74,0,2.72,2.17,2.72,2.52c0,2.09-1.19,4.48-3.18,4.48s-3.18-2.39-3.18-4.48
	c0-0.35-0.02-2.52,2.72-2.52H496.46z M497.02,95.41c0-0.65-0.37-0.91-1.02-0.91c-0.65,0-1.02,0.26-1.02,0.91
	c0,1.39,0.64,2.38,1.02,2.38C496.39,97.78,497.02,96.79,497.02,95.41z"/>
<path class="st0" d="M502.12,99.5H500v-8.99h2.11V99.5z"/>
<path class="st0" d="M506.58,92.7c2.74,0,2.72,2.17,2.72,2.52c0,2.09-1.19,4.48-3.18,4.48s-3.18-2.39-3.18-4.48
	c0-0.35-0.02-2.52,2.72-2.52H506.58z M507.14,95.41c0-0.65-0.37-0.91-1.02-0.91c-0.65,0-1.02,0.26-1.02,0.91
	c0,1.39,0.64,2.38,1.02,2.38C506.51,97.78,507.14,96.79,507.14,95.41z"/>
<path class="st0" d="M512.19,92.85v0.38c0.42-0.4,0.9-0.53,1.47-0.54v1.9c-0.56,0.02-1.09,0.21-1.39,0.71v4.18h-2.11v-6.64H512.19z"
	/>
<path class="st0" d="M520.66,92.85v0.38c0.42-0.4,0.9-0.53,1.47-0.54v1.9c-0.56,0.02-1.09,0.21-1.39,0.71v4.18h-2.11v-6.64H520.66z"
	/>
<path class="st0" d="M527.76,99.5h-1.28c-2.11,0-3.86-1.87-3.86-4.09c0.02-1.87,0.87-2.74,3.05-2.71h0.44c2.6,0,2.5,1.51,2.5,1.84
	c0,1.47-1.25,2.4-2.41,3.05c0.55,0.12,0.9,0.12,1.25,0.12h0.84L527.76,99.5z M525.8,94.49c-0.66,0-1.02,0.33-1.02,0.99
	c0,0.26,0.05,0.54,0.14,0.79c0.45-0.23,1.53-0.87,1.53-1.44C526.45,94.49,526.05,94.49,525.8,94.49z"/>
<path class="st0" d="M531.44,92.85v0.38c0.42-0.4,0.9-0.53,1.47-0.54v1.9c-0.56,0.02-1.09,0.21-1.39,0.71v4.18h-2.11v-6.64H531.44z"
	/>
<path class="st0" d="M538.54,99.5h-1.28c-2.11,0-3.86-1.87-3.86-4.09c0.02-1.87,0.87-2.74,3.05-2.71h0.44c2.6,0,2.5,1.51,2.5,1.84
	c0,1.47-1.25,2.4-2.41,3.05c0.55,0.12,0.9,0.12,1.25,0.12h0.84L538.54,99.5z M536.58,94.49c-0.66,0-1.02,0.33-1.02,0.99
	c0,0.26,0.05,0.54,0.14,0.79c0.45-0.23,1.53-0.87,1.53-1.44C537.23,94.49,536.83,94.49,536.58,94.49z"/>
<path class="st0" d="M543.39,92.85c2.12,0,2.77,1.24,2.77,2.55c0,1.87-1.25,3.7-3.87,4.25v2.15h-2.11v-8.94H543.39z M542.29,97.71
	c1.03-0.13,1.72-1.16,1.72-2.15c-0.01-0.91-0.72-0.91-1.05-0.91h-0.67V97.71z"/>
<path class="st0" d="M551.74,99.5h-1.28c-2.11,0-3.86-1.87-3.86-4.09c0.02-1.87,0.87-2.74,3.05-2.71h0.44c2.6,0,2.5,1.51,2.5,1.84
	c0,1.47-1.25,2.4-2.41,3.05c0.55,0.12,0.9,0.12,1.25,0.12h0.84L551.74,99.5z M549.78,94.49c-0.66,0-1.02,0.33-1.02,0.99
	c0,0.26,0.05,0.54,0.14,0.79c0.45-0.23,1.53-0.87,1.53-1.44C550.43,94.49,550.03,94.49,549.78,94.49z"/>
<path class="st0" d="M298.23,103.71v8.99h-2.19c-2.11,0-3.86-1.87-3.86-4.09c0-1.31,0.64-2.55,2.76-2.55h1.18v-2.34H298.23z
	 M295.36,107.85c-0.33,0-1.03,0-1.03,0.91c0,0.99,0.68,2.01,1.72,2.15h0.07v-3.06H295.36z"/>
<path class="st0" d="M302.65,105.9c2.74,0,2.72,2.17,2.72,2.52c0,2.09-1.19,4.48-3.18,4.48s-3.18-2.39-3.18-4.48
	c0-0.35-0.02-2.52,2.72-2.52H302.65z M303.21,108.61c0-0.65-0.37-0.91-1.02-0.91c-0.65,0-1.02,0.26-1.02,0.91
	c0,1.39,0.64,2.38,1.02,2.38C302.57,110.98,303.21,109.99,303.21,108.61z"/>
<path class="st0" d="M308.3,112.7h-2.11v-8.99h2.11V112.7z"/>
<path class="st0" d="M315.16,112.7h-3.38c-2.07,0-2.66-1.27-2.66-2.77c0-1.22,0.62-2.77,1.13-3.87h2.17
	c-0.39,1.04-1.07,2.64-1.07,3.73c0,1.07,0.59,1.12,1.46,1.12h0.23v-4.85h2.11V112.7z"/>
<path class="st0" d="M319.54,106.05c2.12,0,2.77,1.24,2.77,2.55c0,1.87-1.25,3.7-3.87,4.25V115h-2.11v-8.94H319.54z M318.44,110.91
	c1.03-0.13,1.72-1.16,1.72-2.15c-0.01-0.91-0.72-0.91-1.05-0.91h-0.67V110.91z"/>
<path class="st0" d="M325.34,106.05h1.11v1.74h-1.11v2.53c0,0.31,0.1,0.56,0.54,0.58h0.84l-0.53,1.79h-0.96c-1.16,0-2-0.43-2-2.04
	v-2.87h-0.47v-1.74h0.47v-1.3l2.11-0.63V106.05z"/>
<path class="st0" d="M332.92,112.7h-2.12c-2.11,0-3.86-1.87-3.86-4.09c0-1.31,0.64-2.55,2.76-2.55h3.22V112.7z M330.81,107.85h-0.68
	c-0.33,0-1.03,0-1.03,0.91c0,0.99,0.68,2.01,1.72,2.15V107.85z"/>
<path class="st0" d="M349.81,115h-2.11v-2.3h-1.16c-2.12,0-2.76-1.24-2.76-2.55c0-2.22,1.75-4.09,3.86-4.09h2.17V115z M347.7,107.85
	h-0.04c-1.03,0.13-1.72,1.16-1.72,2.15c0,0.91,0.7,0.91,1.03,0.91h0.73V107.85z"/>
<path class="st0" d="M356.66,112.7h-3.38c-2.07,0-2.66-1.27-2.66-2.77c0-1.22,0.62-2.77,1.13-3.87h2.17
	c-0.39,1.04-1.07,2.64-1.07,3.73c0,1.07,0.59,1.12,1.46,1.12h0.23v-4.85h2.11V112.7z"/>
<path class="st0" d="M361.08,105.9c2.74,0,2.72,2.17,2.72,2.52c0,2.09-1.19,4.48-3.18,4.48s-3.18-2.39-3.18-4.48
	c0-0.35-0.02-2.52,2.72-2.52H361.08z M361.64,108.61c0-0.65-0.37-0.91-1.02-0.91c-0.65,0-1.02,0.26-1.02,0.91
	c0,1.39,0.64,2.38,1.02,2.38C361,110.98,361.64,109.99,361.64,108.61z"/>
<path class="st0" d="M370.3,103.71v8.99h-2.19c-2.11,0-3.86-1.87-3.86-4.09c0-1.31,0.64-2.55,2.76-2.55h1.18v-2.34H370.3z
	 M367.44,107.85c-0.33,0-1.03,0-1.03,0.91c0,0.99,0.68,2.01,1.72,2.15h0.07v-3.06H367.44z"/>
<path class="st0" d="M373.55,105.5h-2.11v-1.79h2.11V105.5z M373.55,112.7h-2.11v-6.64h2.11V112.7z"/>
<path class="st0" d="M378.02,105.9c2.74,0,2.72,2.17,2.72,2.52c0,2.09-1.19,4.48-3.18,4.48s-3.18-2.39-3.18-4.48
	c0-0.35-0.02-2.52,2.72-2.52H378.02z M378.58,108.61c0-0.65-0.37-0.91-1.02-0.91c-0.65,0-1.02,0.26-1.02,0.91
	c0,1.39,0.64,2.38,1.02,2.38C377.94,110.98,378.58,109.99,378.58,108.61z"/>
<path class="st0" d="M395.3,112.7h-2.44l-2.09-6.64h2.22l1.08,4.26h0.02l1.08-4.26h2.22L395.3,112.7z"/>
<path class="st0" d="M401.03,105.9c2.74,0,2.72,2.17,2.72,2.52c0,2.09-1.19,4.48-3.18,4.48s-3.18-2.39-3.18-4.48
	c0-0.35-0.02-2.52,2.72-2.52H401.03z M401.59,108.61c0-0.65-0.37-0.91-1.02-0.91c-0.65,0-1.02,0.26-1.02,0.91
	c0,1.39,0.64,2.38,1.02,2.38C400.95,110.98,401.59,109.99,401.59,108.61z"/>
<path class="st0" d="M406.68,112.7h-2.11v-8.99h2.11V112.7z"/>
<path class="st0" d="M411.15,105.9c2.74,0,2.72,2.17,2.72,2.52c0,2.09-1.19,4.48-3.18,4.48s-3.18-2.39-3.18-4.48
	c0-0.35-0.02-2.52,2.72-2.52H411.15z M411.71,108.61c0-0.65-0.37-0.91-1.02-0.91c-0.65,0-1.02,0.26-1.02,0.91
	c0,1.39,0.64,2.38,1.02,2.38C411.07,110.98,411.71,109.99,411.71,108.61z"/>
<path class="st0" d="M416.76,106.05v0.38c0.42-0.4,0.9-0.53,1.47-0.54v1.9c-0.56,0.02-1.09,0.21-1.39,0.71v4.18h-2.11v-6.64H416.76z
	"/>
<path class="st0" d="M423.85,112.7h-1.28c-2.11,0-3.86-1.87-3.86-4.09c0.02-1.87,0.87-2.74,3.05-2.71h0.44c2.6,0,2.5,1.51,2.5,1.84
	c0,1.47-1.25,2.4-2.41,3.05c0.55,0.12,0.9,0.12,1.25,0.12h0.84L423.85,112.7z M421.9,107.69c-0.66,0-1.02,0.33-1.02,0.99
	c0,0.26,0.05,0.54,0.14,0.79c0.45-0.23,1.53-0.87,1.53-1.44C422.54,107.69,422.15,107.69,421.9,107.69z"/>
<path class="st0" d="M429.72,107.85h-1.43c-0.33,0-1.03,0-1.03,0.91c0,0.99,0.79,2.15,1.83,2.15h0.75l-0.53,1.79h-0.34
	c-2.11,0-3.86-1.87-3.86-4.09c0-1.31,0.64-2.55,2.76-2.55h1.33L429.72,107.85z"/>
<path class="st0" d="M435.29,112.7h-1.28c-2.11,0-3.86-1.87-3.86-4.09c0.02-1.87,0.87-2.74,3.05-2.71h0.44c2.6,0,2.5,1.51,2.5,1.84
	c0,1.47-1.25,2.4-2.41,3.05c0.55,0.12,0.9,0.12,1.25,0.12h0.84L435.29,112.7z M433.34,107.69c-0.66,0-1.02,0.33-1.02,0.99
	c0,0.26,0.05,0.54,0.14,0.79c0.45-0.23,1.53-0.87,1.53-1.44C433.99,107.69,433.59,107.69,433.34,107.69z"/>
<path class="st0" d="M438.98,106.05v0.38c0.42-0.4,0.9-0.53,1.47-0.54v1.9c-0.56,0.02-1.09,0.21-1.39,0.71v4.18h-2.11v-6.64H438.98z
	"/>
<path class="st0" d="M443.42,105.5h-2.11v-1.79h2.11V105.5z M443.42,112.7h-2.11v-6.64h2.11V112.7z"/>
<path class="st0" d="M446.82,106.05h1.11v1.74h-1.11v2.53c0,0.31,0.1,0.56,0.54,0.58h0.84l-0.53,1.79h-0.96c-1.16,0-2-0.43-2-2.04
	v-2.87h-0.47v-1.74h0.47v-1.3l2.11-0.63V106.05z"/>
<path class="st0" d="M460.93,112.7h-2.11v-8.99h2.11V112.7z"/>
<path class="st0" d="M467.73,112.7h-2.12c-2.11,0-3.86-1.87-3.86-4.09c0-1.31,0.64-2.55,2.76-2.55h3.22V112.7z M465.62,107.85h-0.68
	c-0.33,0-1.03,0-1.03,0.91c0,0.99,0.68,2.01,1.72,2.15V107.85z"/>
<path class="st0" d="M471.08,106.05h1.1c2.12,0,2.77,1.24,2.77,2.55c0,2.22-1.76,4.09-3.81,4.09h-2.18v-8.99h2.11V106.05z
	 M471.08,110.91c1.03-0.13,1.72-1.16,1.72-2.15c0-0.91-0.7-0.91-1.03-0.91h-0.68V110.91z"/>
<path class="st0" d="M479.04,105.9c2.74,0,2.72,2.17,2.72,2.52c0,2.09-1.19,4.48-3.18,4.48s-3.18-2.39-3.18-4.48
	c0-0.35-0.02-2.52,2.72-2.52H479.04z M479.6,108.61c0-0.65-0.37-0.91-1.02-0.91c-0.65,0-1.02,0.26-1.02,0.91
	c0,1.39,0.64,2.38,1.02,2.38C478.96,110.98,479.6,109.99,479.6,108.61z"/>
<path class="st0" d="M484.65,106.05v0.38c0.42-0.4,0.9-0.53,1.47-0.54v1.9c-0.56,0.02-1.09,0.21-1.39,0.71v4.18h-2.11v-6.64H484.65z
	"/>
<path class="st0" d="M492.66,112.7h-3.38c-2.07,0-2.66-1.27-2.66-2.77c0-1.22,0.62-2.77,1.13-3.87h2.17
	c-0.39,1.04-1.07,2.64-1.07,3.73c0,1.07,0.59,1.12,1.46,1.12h0.23v-4.85h2.11V112.7z"/>
<path class="st0" d="M500.13,106.05c1.8,0,2.38,0.79,2.38,2.55v4.09h-2.06v-3.78c-0.02-0.86-0.03-1.05-0.92-1.07h-0.34v4.85h-2.06
	v-4.85h-1.27v4.85h-2.06v-6.64H500.13z"/>
<path class="st0" d="M515.8,106.05v0.38c0.42-0.4,0.9-0.53,1.47-0.54v1.9c-0.56,0.02-1.09,0.21-1.39,0.71v4.18h-2.11v-6.64H515.8z"
	/>
<path class="st0" d="M522.9,112.7h-1.28c-2.11,0-3.86-1.87-3.86-4.09c0.02-1.87,0.87-2.74,3.05-2.71h0.44c2.6,0,2.5,1.51,2.5,1.84
	c0,1.47-1.25,2.4-2.41,3.05c0.55,0.12,0.9,0.12,1.25,0.12h0.84L522.9,112.7z M520.94,107.69c-0.66,0-1.02,0.33-1.02,0.99
	c0,0.26,0.05,0.54,0.14,0.79c0.45-0.23,1.53-0.87,1.53-1.44C521.59,107.69,521.19,107.69,520.94,107.69z"/>
<path class="st0" d="M526.58,106.05v0.38c0.42-0.4,0.9-0.53,1.47-0.54v1.9c-0.56,0.02-1.09,0.21-1.39,0.71v4.18h-2.11v-6.64H526.58z
	"/>
<path class="st0" d="M534.52,112.7h-2.12c-2.11,0-3.86-1.87-3.86-4.09c0-1.31,0.64-2.55,2.76-2.55h3.22V112.7z M532.41,107.85h-0.68
	c-0.33,0-1.03,0-1.03,0.91c0,0.99,0.68,2.01,1.72,2.15V107.85z"/>
<path class="st0" d="M537.94,106.05h1.11v1.74h-1.11v2.53c0,0.31,0.1,0.56,0.54,0.58h0.84l-0.53,1.79h-0.96c-1.16,0-2-0.43-2-2.04
	v-2.87h-0.47v-1.74h0.47v-1.3l2.11-0.63V106.05z"/>
<path class="st0" d="M545.59,112.7h-3.38c-2.07,0-2.66-1.27-2.66-2.77c0-1.22,0.62-2.77,1.13-3.87h2.17
	c-0.39,1.04-1.07,2.64-1.07,3.73c0,1.07,0.59,1.12,1.46,1.12h0.23v-4.85h2.11V112.7z"/>
<path class="st0" d="M548.8,106.05v0.38c0.42-0.4,0.9-0.53,1.47-0.54v1.9c-0.56,0.02-1.09,0.21-1.39,0.71v4.18h-2.11v-6.64H548.8z"
	/>
<path class="st0" d="M552.08,112.7h-1.98v-2.02h1.98V112.7z"/>
<path class="st0" d="M292.26,120.29c0-1.95,0.94-3.58,4.09-3.58c3.16,0,4.09,1.63,4.09,3.58c0,2.39-1.32,5.81-4.09,5.81
	C293.58,126.1,292.26,122.67,292.26,120.29z M297.99,120.4c0-1.2-0.48-1.58-1.64-1.58c-1.15,0-1.64,0.38-1.64,1.58
	c0,1.63,0.75,3.58,1.64,3.58C297.25,123.97,297.99,122.03,297.99,120.4z"/>
<path class="st0" d="M307.67,119.25c1.8,0,2.38,0.79,2.38,2.55v4.09h-2.06v-3.78c-0.02-0.86-0.03-1.05-0.92-1.07h-0.34v4.85h-2.06
	v-4.85h-1.27v4.85h-2.06v-6.64H307.67z"/>
<path class="st0" d="M314.52,119.25c1.8,0,2.38,0.79,2.38,2.55v4.09h-2.11v-3.78c-0.02-0.86-0.03-1.05-0.92-1.07h-0.51v4.85h-2.11
	v-6.64H314.52z"/>
<path class="st0" d="M320.18,118.7h-2.11v-1.79h2.11V118.7z M320.18,125.9h-2.11v-6.64h2.11V125.9z"/>
<path class="st0" d="M325.12,120.99h-0.95c-0.45,0-0.6,0.04-0.6,0.25c0,0.12,0.11,0.24,0.18,0.33l0.94,1.18
	c0.35,0.44,0.64,0.94,0.64,1.52c0,0.85-0.64,1.63-1.66,1.63h-2.15l-0.53-1.79h1.17c0.15,0,0.73,0.12,0.73-0.15
	c0-0.17-0.21-0.4-0.3-0.52l-0.89-1.15c-0.35-0.45-0.65-0.9-0.65-1.5c0-0.46,0.35-1.53,1.78-1.53h1.77L325.12,120.99z"/>
<path class="st0" d="M336.42,116.91v8.99h-2.19c-2.11,0-3.86-1.87-3.86-4.09c0-1.31,0.64-2.55,2.76-2.55h1.18v-2.34H336.42z
	 M333.56,121.05c-0.33,0-1.03,0-1.03,0.91c0,0.99,0.68,2.01,1.72,2.15h0.07v-3.06H333.56z"/>
<path class="st0" d="M340.84,119.1c2.74,0,2.72,2.17,2.72,2.52c0,2.09-1.19,4.48-3.18,4.48s-3.18-2.39-3.18-4.48
	c0-0.35-0.02-2.52,2.72-2.52H340.84z M341.4,121.81c0-0.65-0.37-0.91-1.02-0.91c-0.65,0-1.02,0.26-1.02,0.91
	c0,1.39,0.64,2.38,1.02,2.38C340.76,124.18,341.4,123.19,341.4,121.81z"/>
<path class="st0" d="M346.49,125.9h-2.11v-8.99h2.11V125.9z"/>
<path class="st0" d="M353.36,125.9h-3.38c-2.07,0-2.66-1.27-2.66-2.77c0-1.22,0.62-2.77,1.13-3.87h2.17
	c-0.39,1.04-1.07,2.64-1.07,3.73c0,1.07,0.59,1.12,1.46,1.12h0.23v-4.85h2.11V125.9z"/>
<path class="st0" d="M357.73,119.25c2.12,0,2.77,1.24,2.77,2.55c0,1.87-1.25,3.7-3.87,4.25v2.15h-2.11v-8.94H357.73z M356.63,124.11
	c1.03-0.13,1.72-1.16,1.72-2.15c-0.01-0.91-0.72-0.91-1.05-0.91h-0.67V124.11z"/>
<path class="st0" d="M363.53,119.25h1.11v1.74h-1.11v2.53c0,0.31,0.1,0.56,0.54,0.58h0.84l-0.53,1.79h-0.96c-1.16,0-2-0.43-2-2.04
	v-2.87h-0.47v-1.74h0.47v-1.3l2.11-0.63V119.25z"/>
<path class="st0" d="M371.11,125.9h-2.12c-2.11,0-3.86-1.87-3.86-4.09c0-1.31,0.64-2.55,2.76-2.55h3.22V125.9z M369,121.05h-0.68
	c-0.33,0-1.03,0-1.03,0.91c0,0.99,0.68,2.01,1.72,2.15V121.05z"/>
<path class="st0" d="M374.53,119.25h1.11v1.74h-1.11v2.53c0,0.31,0.1,0.56,0.54,0.58h0.84l-0.53,1.79h-0.96c-1.16,0-2-0.43-2-2.04
	v-2.87h-0.47v-1.74h0.47v-1.3l2.11-0.63V119.25z"/>
<path class="st0" d="M382.18,125.9h-3.38c-2.07,0-2.66-1.27-2.66-2.77c0-1.22,0.62-2.77,1.13-3.87h2.17
	c-0.39,1.04-1.07,2.64-1.07,3.73c0,1.07,0.59,1.12,1.46,1.12h0.23v-4.85h2.11V125.9z"/>
<path class="st0" d="M385.39,119.25v0.38c0.42-0.4,0.9-0.53,1.47-0.54v1.9c-0.56,0.02-1.09,0.21-1.39,0.71v4.18h-2.11v-6.64H385.39z
	"/>
<path class="st0" d="M388.66,125.9h-1.98v-2.02h1.98V125.9z"/>
<path class="st0" d="M394.66,125.9v-6.69h2.35v4.67h1.35c0.42,0,1.02,0,1.02-0.54c0-0.88-1.58-1.85-2.27-2.17l0.74-0.56
	c0.34-0.24,1.13-0.78,1.13-1.25c0-0.42-0.32-0.42-1.1-0.42h-3.67l0.55-2.02h4.25c2.1,0,2.63,1.09,2.63,2.08
	c0,0.88-0.55,1.47-1.19,2.02c0.89,0.64,1.58,1.54,1.58,2.68c0,1.02-0.58,2.2-3.05,2.2H394.66z"/>
<path class="st0" d="M407.79,125.9h-1.28c-2.11,0-3.86-1.87-3.86-4.09c0.02-1.87,0.87-2.74,3.05-2.71h0.44c2.6,0,2.5,1.51,2.5,1.84
	c0,1.47-1.25,2.4-2.41,3.05c0.55,0.12,0.9,0.12,1.25,0.12h0.84L407.79,125.9z M405.84,120.89c-0.66,0-1.02,0.33-1.02,0.99
	c0,0.26,0.05,0.54,0.14,0.79c0.45-0.23,1.53-0.87,1.53-1.44C406.49,120.89,406.09,120.89,405.84,120.89z"/>
<path class="st0" d="M415.02,125.9h-2.12c-2.11,0-3.86-1.87-3.86-4.09c0-1.31,0.64-2.55,2.76-2.55h3.22V125.9z M412.91,121.05h-0.68
	c-0.33,0-1.03,0-1.03,0.91c0,0.99,0.68,2.01,1.72,2.15V121.05z"/>
<path class="st0" d="M418.3,119.25v0.38c0.42-0.4,0.9-0.53,1.47-0.54v1.9c-0.56,0.02-1.09,0.21-1.39,0.71v4.18h-2.11v-6.64H418.3z"
	/>
<path class="st0" d="M424.88,121.05h-1.43c-0.33,0-1.03,0-1.03,0.91c0,0.99,0.79,2.15,1.83,2.15h0.75l-0.53,1.79h-0.34
	c-2.11,0-3.86-1.87-3.86-4.09c0-1.31,0.64-2.55,2.76-2.55h1.33L424.88,121.05z"/>
<path class="st0" d="M427.8,118.7h-2.11v-1.79h2.11V118.7z M427.8,125.9h-2.11v-6.64h2.11V125.9z"/>
<path class="st0" d="M432.22,119.25c2.12,0,2.77,1.24,2.77,2.55c0,1.87-1.25,3.7-3.87,4.25v2.15h-2.11v-8.94H432.22z M431.12,124.11
	c1.03-0.13,1.72-1.16,1.72-2.15c-0.01-0.91-0.72-0.91-1.05-0.91h-0.67V124.11z"/>
<path class="st0" d="M439.56,120.99h-0.95c-0.45,0-0.6,0.04-0.6,0.25c0,0.12,0.11,0.24,0.18,0.33l0.94,1.18
	c0.35,0.44,0.64,0.94,0.64,1.52c0,0.85-0.64,1.63-1.66,1.63h-2.15l-0.53-1.79h1.17c0.15,0,0.73,0.12,0.73-0.15
	c0-0.17-0.21-0.4-0.3-0.52l-0.89-1.15c-0.35-0.45-0.65-0.9-0.65-1.5c0-0.46,0.35-1.53,1.78-1.53h1.77L439.56,120.99z"/>
<path class="st0" d="M446.26,125.9h-2.12c-2.11,0-3.86-1.87-3.86-4.09c0-1.31,0.64-2.55,2.76-2.55h3.22V125.9z M444.15,121.05h-0.68
	c-0.33,0-1.03,0-1.03,0.91c0,0.99,0.68,2.01,1.72,2.15V121.05z"/>
<path class="st0" d="M453.8,119.25c1.8,0,2.38,0.79,2.38,2.55v4.09h-2.06v-3.78c-0.02-0.86-0.03-1.05-0.92-1.07h-0.34v4.85h-2.06
	v-4.85h-1.27v4.85h-2.06v-6.64H453.8z"/>
<path class="st0" d="M464.01,118.7h-2.11v-1.79h2.11V118.7z M464.01,125.9h-2.11v-6.64h2.11V125.9z"/>
<path class="st0" d="M468.44,119.25c2.12,0,2.77,1.24,2.77,2.55c0,1.87-1.25,3.7-3.87,4.25v2.15h-2.11v-8.94H468.44z M467.34,124.11
	c1.03-0.13,1.72-1.16,1.72-2.15c-0.01-0.91-0.72-0.91-1.05-0.91h-0.67V124.11z"/>
<path class="st0" d="M475.77,120.99h-0.95c-0.45,0-0.6,0.04-0.6,0.25c0,0.12,0.11,0.24,0.18,0.33l0.94,1.18
	c0.35,0.44,0.64,0.94,0.64,1.52c0,0.85-0.64,1.63-1.66,1.63h-2.15l-0.53-1.79h1.17c0.15,0,0.73,0.12,0.73-0.15
	c0-0.17-0.21-0.4-0.3-0.52l-0.89-1.15c-0.35-0.45-0.65-0.9-0.65-1.5c0-0.46,0.35-1.53,1.78-1.53h1.77L475.77,120.99z"/>
<path class="st0" d="M482.47,125.9h-2.12c-2.11,0-3.86-1.87-3.86-4.09c0-1.31,0.64-2.55,2.76-2.55h3.22V125.9z M480.36,121.05h-0.68
	c-0.33,0-1.03,0-1.03,0.91c0,0.99,0.68,2.01,1.72,2.15V121.05z"/>
<path class="st0" d="M486.92,119.25c2.12,0,2.77,1.24,2.77,2.55c0,1.87-1.25,3.7-3.87,4.25v2.15h-2.11v-8.94H486.92z M485.82,124.11
	c1.03-0.13,1.72-1.16,1.72-2.15c-0.01-0.91-0.72-0.91-1.05-0.91h-0.67V124.11z"/>
<path class="st0" d="M495.27,125.9h-1.28c-2.11,0-3.86-1.87-3.86-4.09c0.02-1.87,0.87-2.74,3.05-2.71h0.44c2.6,0,2.5,1.51,2.5,1.84
	c0,1.47-1.25,2.4-2.41,3.05c0.55,0.12,0.9,0.12,1.25,0.12h0.84L495.27,125.9z M493.31,120.89c-0.66,0-1.02,0.33-1.02,0.99
	c0,0.26,0.05,0.54,0.14,0.79c0.45-0.23,1.53-0.87,1.53-1.44C493.96,120.89,493.56,120.89,493.31,120.89z"/>
<path class="st0" d="M498.95,119.25v0.38c0.42-0.4,0.9-0.53,1.47-0.54v1.9c-0.56,0.02-1.09,0.21-1.39,0.71v4.18h-2.11v-6.64H498.95z
	"/>
<path class="st0" d="M503.39,118.7h-2.11v-1.79h2.11V118.7z M503.39,125.9h-2.11v-6.64h2.11V125.9z"/>
<path class="st0" d="M506.79,119.25h1.11v1.74h-1.11v2.53c0,0.31,0.1,0.56,0.54,0.58h0.84l-0.53,1.79h-0.96c-1.16,0-2-0.43-2-2.04
	v-2.87h-0.47v-1.74h0.47v-1.3l2.11-0.63V119.25z"/>
<path class="st0" d="M510.87,118.7h-2.11v-1.79h2.11V118.7z M510.87,125.9h-2.11v-6.64h2.11V125.9z"/>
<path class="st0" d="M517.67,125.9h-2.12c-2.11,0-3.86-1.87-3.86-4.09c0-1.31,0.64-2.55,2.76-2.55h3.22V125.9z M515.56,121.05h-0.68
	c-0.33,0-1.03,0-1.03,0.91c0,0.99,0.68,2.01,1.72,2.15V121.05z"/>
<path class="st0" d="M527.66,121.05h-1.43c-0.33,0-1.03,0-1.03,0.91c0,0.99,0.79,2.15,1.83,2.15h0.75l-0.53,1.79h-0.34
	c-2.11,0-3.86-1.87-3.86-4.09c0-1.31,0.64-2.55,2.76-2.55h1.33L527.66,121.05z"/>
<path class="st0" d="M531.75,119.1c2.74,0,2.72,2.17,2.72,2.52c0,2.09-1.19,4.48-3.18,4.48s-3.18-2.39-3.18-4.48
	c0-0.35-0.02-2.52,2.72-2.52H531.75z M532.31,121.81c0-0.65-0.37-0.91-1.02-0.91c-0.65,0-1.02,0.26-1.02,0.91
	c0,1.39,0.64,2.38,1.02,2.38C531.67,124.18,532.31,123.19,532.31,121.81z"/>
<path class="st0" d="M538.56,119.25c1.8,0,2.38,0.79,2.38,2.55v4.09h-2.11v-3.78c-0.02-0.86-0.03-1.05-0.92-1.07h-0.51v4.85h-2.11
	v-6.64H538.56z"/>
<path class="st0" d="M545.86,120.99h-0.95c-0.45,0-0.6,0.04-0.6,0.25c0,0.12,0.11,0.24,0.18,0.33l0.94,1.18
	c0.35,0.44,0.64,0.94,0.64,1.52c0,0.85-0.64,1.63-1.66,1.63h-2.15l-0.53-1.79h1.17c0.15,0,0.73,0.12,0.73-0.15
	c0-0.17-0.21-0.4-0.3-0.52l-0.89-1.15c-0.35-0.45-0.65-0.9-0.65-1.5c0-0.46,0.35-1.53,1.78-1.53h1.77L545.86,120.99z"/>
<path class="st0" d="M551.72,125.9h-1.28c-2.11,0-3.86-1.87-3.86-4.09c0.02-1.87,0.87-2.74,3.05-2.71h0.44c2.6,0,2.5,1.51,2.5,1.84
	c0,1.47-1.25,2.4-2.41,3.05c0.55,0.12,0.9,0.12,1.25,0.12h0.84L551.72,125.9z M549.76,120.89c-0.66,0-1.02,0.33-1.02,0.99
	c0,0.26,0.05,0.54,0.14,0.79c0.45-0.23,1.53-0.87,1.53-1.44C550.41,120.89,550.01,120.89,549.76,120.89z"/>
<path class="st0" d="M297.31,139.1h-1.28c-2.11,0-3.86-1.87-3.86-4.09c0.02-1.87,0.87-2.74,3.05-2.71h0.44c2.6,0,2.5,1.51,2.5,1.84
	c0,1.47-1.25,2.4-2.41,3.05c0.55,0.12,0.9,0.12,1.25,0.12h0.84L297.31,139.1z M295.35,134.09c-0.66,0-1.02,0.33-1.02,0.99
	c0,0.26,0.05,0.54,0.14,0.79c0.45-0.23,1.53-0.87,1.53-1.44C296,134.09,295.61,134.09,295.35,134.09z"/>
<path class="st0" d="M302.68,134.19h-0.95c-0.45,0-0.6,0.04-0.6,0.25c0,0.12,0.11,0.24,0.18,0.33l0.94,1.18
	c0.35,0.44,0.64,0.94,0.64,1.52c0,0.85-0.64,1.63-1.66,1.63h-2.15l-0.53-1.79h1.17c0.15,0,0.73,0.12,0.73-0.15
	c0-0.17-0.21-0.4-0.3-0.52l-0.89-1.16c-0.35-0.45-0.65-0.9-0.65-1.5c0-0.46,0.35-1.53,1.78-1.53h1.77L302.68,134.19z"/>
<path class="st0" d="M305.98,132.45h1.11v1.74h-1.11v2.53c0,0.31,0.1,0.56,0.54,0.58h0.84l-0.53,1.79h-0.96c-1.16,0-2-0.43-2-2.04
	v-2.87h-0.47v-1.74h0.47v-1.3l2.11-0.63V132.45z"/>
<path class="st0" d="M311.23,132.3c2.74,0,2.72,2.17,2.72,2.52c0,2.09-1.19,4.48-3.18,4.48s-3.18-2.39-3.18-4.48
	c0-0.35-0.02-2.52,2.72-2.52H311.23z M311.79,135.01c0-0.65-0.37-0.91-1.02-0.91c-0.65,0-1.02,0.26-1.02,0.91
	c0,1.39,0.64,2.38,1.02,2.38C311.15,137.38,311.79,136.39,311.79,135.01z"/>
<path class="st0" d="M316.84,132.45v0.38c0.42-0.4,0.9-0.53,1.47-0.54v1.9c-0.56,0.02-1.09,0.21-1.39,0.71v4.18h-2.11v-6.64H316.84z
	"/>
<path class="st0" d="M323.93,139.1h-1.28c-2.11,0-3.86-1.87-3.86-4.09c0.02-1.87,0.87-2.74,3.05-2.71h0.44c2.6,0,2.5,1.51,2.5,1.84
	c0,1.47-1.25,2.4-2.41,3.05c0.55,0.12,0.9,0.12,1.25,0.12h0.84L323.93,139.1z M321.97,134.09c-0.66,0-1.02,0.33-1.02,0.99
	c0,0.26,0.05,0.54,0.14,0.79c0.45-0.23,1.53-0.87,1.53-1.44C322.62,134.09,322.23,134.09,321.97,134.09z"/>
<path class="st0" d="M326.92,140.14h-2.06l0.9-3.05h2.06L326.92,140.14z"/>
<path class="st0" d="M334.91,132.45h1.11v1.74h-1.11v2.53c0,0.31,0.1,0.56,0.54,0.58h0.84l-0.53,1.79h-0.96c-1.16,0-2-0.43-2-2.04
	v-2.87h-0.47v-1.74h0.47v-1.3l2.11-0.63V132.45z"/>
<path class="st0" d="M341.64,139.1h-1.28c-2.11,0-3.86-1.87-3.86-4.09c0.02-1.87,0.87-2.74,3.05-2.71h0.44c2.6,0,2.5,1.51,2.5,1.84
	c0,1.47-1.25,2.4-2.41,3.05c0.55,0.12,0.9,0.12,1.25,0.12h0.84L341.64,139.1z M339.68,134.09c-0.66,0-1.02,0.33-1.02,0.99
	c0,0.26,0.05,0.54,0.14,0.79c0.45-0.23,1.53-0.87,1.53-1.44C340.33,134.09,339.94,134.09,339.68,134.09z"/>
<path class="st0" d="M349.58,132.45c1.8,0,2.38,0.79,2.38,2.55v4.09h-2.06v-3.78c-0.02-0.86-0.03-1.05-0.92-1.07h-0.34v4.85h-2.06
	v-4.85h-1.27v4.85h-2.06v-6.64H349.58z"/>
<path class="st0" d="M358.81,141.4h-2.11v-2.3h-1.16c-2.12,0-2.76-1.24-2.76-2.55c0-2.22,1.75-4.09,3.86-4.09h2.17V141.4z
	 M356.7,134.25h-0.04c-1.03,0.13-1.72,1.16-1.72,2.15c0,0.91,0.7,0.91,1.03,0.91h0.73V134.25z"/>
<path class="st0" d="M365.65,139.1h-3.38c-2.07,0-2.66-1.27-2.66-2.77c0-1.22,0.62-2.77,1.13-3.87h2.17
	c-0.39,1.04-1.07,2.64-1.07,3.73c0,1.07,0.59,1.12,1.46,1.12h0.23v-4.85h2.11V139.1z"/>
<path class="st0" d="M372.41,139.1h-2.12c-2.11,0-3.86-1.87-3.86-4.09c0-1.31,0.64-2.55,2.76-2.55h3.22V139.1z M370.3,134.25h-0.68
	c-0.33,0-1.03,0-1.03,0.91c0,0.99,0.68,2.01,1.72,2.15V134.25z"/>
<path class="st0" d="M379.94,132.45c1.8,0,2.38,0.79,2.38,2.55v4.09h-2.06v-3.78c-0.02-0.86-0.03-1.05-0.92-1.07H379v4.85h-2.06
	v-4.85h-1.27v4.85h-2.06v-6.64H379.94z"/>
<path class="st0" d="M384.89,140.14h-2.06l0.9-3.05h2.06L384.89,140.14z"/>
<path class="st0" d="M396.32,141.4h-2.11v-2.3h-1.16c-2.12,0-2.76-1.24-2.76-2.55c0-2.22,1.75-4.09,3.86-4.09h2.17V141.4z
	 M394.21,134.25h-0.04c-1.03,0.13-1.72,1.16-1.72,2.15c0,0.91,0.7,0.91,1.03,0.91h0.73V134.25z"/>
<path class="st0" d="M403.16,139.1h-3.38c-2.07,0-2.66-1.27-2.66-2.77c0-1.22,0.62-2.77,1.13-3.87h2.17
	c-0.39,1.04-1.07,2.64-1.07,3.73c0,1.07,0.59,1.12,1.46,1.12h0.23v-4.85h2.11V139.1z"/>
<path class="st0" d="M409.92,139.1h-2.12c-2.11,0-3.86-1.87-3.86-4.09c0-1.31,0.64-2.55,2.76-2.55h3.22V139.1z M407.81,134.25h-0.68
	c-0.33,0-1.03,0-1.03,0.91c0,0.99,0.68,2.01,1.72,2.15V134.25z"/>
<path class="st0" d="M417.45,132.45c1.8,0,2.38,0.79,2.38,2.55v4.09h-2.06v-3.78c-0.02-0.86-0.03-1.05-0.92-1.07h-0.34v4.85h-2.06
	v-4.85h-1.27v4.85h-2.06v-6.64H417.45z"/>
<path class="st0" d="M426.94,132.45v0.38c0.42-0.4,0.9-0.53,1.47-0.54v1.9c-0.56,0.02-1.09,0.21-1.39,0.71v4.18h-2.11v-6.64H426.94z
	"/>
<path class="st0" d="M434.04,139.1h-1.28c-2.11,0-3.86-1.87-3.86-4.09c0.02-1.87,0.87-2.74,3.05-2.71h0.44c2.6,0,2.5,1.51,2.5,1.84
	c0,1.47-1.25,2.4-2.41,3.05c0.55,0.12,0.9,0.12,1.25,0.12h0.84L434.04,139.1z M432.08,134.09c-0.66,0-1.02,0.33-1.02,0.99
	c0,0.26,0.05,0.54,0.14,0.79c0.45-0.23,1.53-0.87,1.53-1.44C432.73,134.09,432.33,134.09,432.08,134.09z"/>
<path class="st0" d="M437.76,132.45h1.17c1.8,0,2.38,0.79,2.38,2.55v4.09h-2.11v-3.78c-0.02-0.86-0.03-1.05-0.92-1.07h-0.51v4.85
	h-2.11v-8.99h2.11V132.45z"/>
<path class="st0" d="M447.24,139.1h-1.28c-2.11,0-3.86-1.87-3.86-4.09c0.02-1.87,0.87-2.74,3.05-2.71h0.44c2.6,0,2.5,1.51,2.5,1.84
	c0,1.47-1.25,2.4-2.41,3.05c0.55,0.12,0.9,0.12,1.25,0.12h0.84L447.24,139.1z M445.28,134.09c-0.66,0-1.02,0.33-1.02,0.99
	c0,0.26,0.05,0.54,0.14,0.79c0.45-0.23,1.53-0.87,1.53-1.44C445.93,134.09,445.53,134.09,445.28,134.09z"/>
<path class="st0" d="M452.12,132.45c1.8,0,2.38,0.79,2.38,2.55v4.09h-2.11v-3.78c-0.02-0.86-0.03-1.05-0.92-1.07h-0.51v4.85h-2.11
	v-6.64H452.12z"/>
<path class="st0" d="M461.35,130.11v8.99h-2.19c-2.11,0-3.86-1.87-3.86-4.09c0-1.31,0.64-2.55,2.76-2.55h1.18v-2.34H461.35z
	 M458.49,134.25c-0.33,0-1.03,0-1.03,0.91c0,0.99,0.68,2.01,1.72,2.15h0.07v-3.06H458.49z"/>
<path class="st0" d="M464.61,131.9h-2.11v-1.79h2.11V131.9z M464.61,139.1h-2.11v-6.64h2.11V139.1z"/>
<path class="st0" d="M471.86,132.45h1.11v1.74h-1.11v2.53c0,0.31,0.1,0.56,0.54,0.58h0.84l-0.53,1.79h-0.96c-1.16,0-2-0.43-2-2.04
	v-2.87h-0.47v-1.74h0.47v-1.3l2.11-0.63V132.45z"/>
<path class="st0" d="M475.94,131.9h-2.11v-1.79h2.11V131.9z M475.94,139.1h-2.11v-6.64h2.11V139.1z"/>
<path class="st0" d="M482.74,139.1h-2.12c-2.11,0-3.86-1.87-3.86-4.09c0-1.31,0.64-2.55,2.76-2.55h3.22V139.1z M480.62,134.25h-0.68
	c-0.33,0-1.03,0-1.03,0.91c0,0.99,0.68,2.01,1.72,2.15V134.25z"/>
<path class="st0" d="M486.16,132.45h1.11v1.74h-1.11v2.53c0,0.31,0.1,0.56,0.54,0.58h0.84L487,139.1h-0.96c-1.16,0-2-0.43-2-2.04
	v-2.87h-0.47v-1.74h0.47v-1.3l2.11-0.63V132.45z"/>
<path class="st0" d="M493.8,139.1h-3.38c-2.07,0-2.66-1.27-2.66-2.77c0-1.22,0.62-2.77,1.13-3.87h2.17
	c-0.39,1.04-1.07,2.64-1.07,3.73c0,1.07,0.59,1.12,1.46,1.12h0.23v-4.85h2.11V139.1z"/>
<path class="st0" d="M497.01,132.45v0.38c0.42-0.4,0.9-0.53,1.47-0.54v1.9c-0.56,0.02-1.09,0.21-1.39,0.71v4.18h-2.11v-6.64H497.01z
	"/>
<path class="st0" d="M508.81,139.1h-2.12c-2.11,0-3.86-1.87-3.86-4.09c0-1.31,0.64-2.55,2.76-2.55h3.22V139.1z M506.69,134.25h-0.68
	c-0.33,0-1.03,0-1.03,0.91c0,0.99,0.68,2.01,1.72,2.15V134.25z"/>
<path class="st0" d="M514.26,134.25h-1.43c-0.33,0-1.03,0-1.03,0.91c0,0.99,0.79,2.15,1.83,2.15h0.75l-0.53,1.79h-0.34
	c-2.11,0-3.86-1.87-3.86-4.09c0-1.31,0.64-2.55,2.76-2.55h1.33L514.26,134.25z"/>
<path class="st0" d="M519.32,134.25h-1.43c-0.33,0-1.03,0-1.03,0.91c0,0.99,0.79,2.15,1.83,2.15h0.75l-0.53,1.79h-0.34
	c-2.11,0-3.86-1.87-3.86-4.09c0-1.31,0.64-2.55,2.76-2.55h1.33L519.32,134.25z"/>
<path class="st0" d="M525.75,139.1h-2.12c-2.11,0-3.86-1.87-3.86-4.09c0-1.31,0.64-2.55,2.76-2.55h3.22V139.1z M523.63,134.25h-0.68
	c-0.33,0-1.03,0-1.03,0.91c0,0.99,0.68,2.01,1.72,2.15V134.25z"/>
<path class="st0" d="M529.17,132.45h1.11v1.74h-1.11v2.53c0,0.31,0.1,0.56,0.54,0.58h0.84l-0.53,1.79h-0.96c-1.16,0-2-0.43-2-2.04
	v-2.87h-0.47v-1.74h0.47v-1.3l2.11-0.63V132.45z"/>
<path class="st0" d="M536.75,139.1h-2.12c-2.11,0-3.86-1.87-3.86-4.09c0-1.31,0.64-2.55,2.76-2.55h3.22V139.1z M534.63,134.25h-0.68
	c-0.33,0-1.03,0-1.03,0.91c0,0.99,0.68,2.01,1.72,2.15V134.25z"/>
<path class="st0" d="M540,139.1h-1.98v-2.02H540V139.1z"/>
</svg>
