<?xml version="1.0" encoding="utf-8"?>
<!-- Generator: Adobe Illustrator 26.0.2, SVG Export Plug-In . SVG Version: 6.00 Build 0)  -->
<svg version="1.1" id="Calque_1" xmlns="http://www.w3.org/2000/svg" xmlns:xlink="http://www.w3.org/1999/xlink" x="0px" y="0px"
	 viewBox="0 0 566.93 155.91" style="enable-background:new 0 0 566.93 155.91;" xml:space="preserve">
<style type="text/css">
	.st0{fill:#222221;}
</style>
<path class="st0" d="M28.32,36.16c-0.14-0.31-1.06-2.16-1.44-2.98h-8.04c-0.17,0.43-1.27,2.71-1.39,2.98h-3.31
	c0.22-0.43,7.49-15.84,7.61-16.11h2.14c0.1,0.24,7.49,15.53,7.8,16.11H28.32z M22.82,24.55c-0.36,0.74-2.18,4.49-2.78,5.93h5.59
	C25.03,29.16,23.16,25.27,22.82,24.55z"/>
<path class="st0" d="M39.86,36.16h-6.55V20.15h6.5c2.16,0,4.13,1.78,4.13,4.01c0,1.56-0.82,2.76-1.8,3.29
	c1.08,0.34,2.57,1.63,2.57,3.98C44.71,34.03,42.62,36.16,39.86,36.16z M39.24,22.92h-3.1v3.55h3.07c1.06,0,1.78-0.82,1.78-1.78
	C40.99,23.71,40.22,22.92,39.24,22.92z M39.45,29.16h-3.31v4.22h3.38c1.18,0,2.06-1.01,2.06-2.11
	C41.59,30.12,40.7,29.16,39.45,29.16z"/>
<path class="st0" d="M52.44,19.8c2.04,0,3.6,0.91,4.58,1.99l-1.94,1.94c-0.58-0.6-1.49-1.2-2.59-1.2c-1.97,0-3.48,1.58-3.48,3.55
	c0,1.94,1.56,3.55,3.48,3.55c1.06,0,1.97-0.48,2.62-1.22c0.17,0.19,1.73,1.7,1.92,1.9c-0.98,1.03-2.59,2.06-4.58,2.06
	c-3.43,0-6.31-2.71-6.31-6.29C46.12,22.53,48.98,19.8,52.44,19.8z M56.32,33.91v2.26h-8.91v-2.26H56.32z"/>
<path class="st0" d="M63.38,36.16h-4.87V20.15h4.85c4.61,0,8.11,3.58,8.11,8.02C71.47,32.76,67.75,36.16,63.38,36.16z M63.31,22.94
	h-1.92v10.42h1.94c2.81,0,5.16-2.3,5.16-5.18C68.49,25.24,66.24,22.94,63.31,22.94z"/>
<path class="st0" d="M83.8,20.15v2.81h-7.15v3.72h5.62v2.81h-5.62v3.86h7.08v2.81h-9.96V20.15H83.8z"/>
<path class="st0" d="M88.94,22.96v3.77h5.59v2.83h-5.59v6.6h-2.9V20.15h9.38v2.81H88.94z"/>
<path class="st0" d="M102.28,32.32c-3.77,0-6.19-2.83-6.19-6.29c0-3.38,2.62-6.31,6.24-6.31c1.87,0,3.46,0.86,4.54,1.99
	c-0.24,0.24-1.82,1.7-2.06,1.94c-0.58-0.67-1.42-1.2-2.5-1.2c-1.97,0-3.41,1.61-3.41,3.67c0,2.16,1.49,3.67,3.38,3.67
	c1.56,0,2.76-0.82,3.07-2.28H102v-2.11h6.41c0.02,0.14,0.05,0.41,0.05,0.6C108.45,29.54,105.76,32.32,102.28,32.32z M97.27,36.16
	v-2.26h9.91v2.26H97.27z"/>
<path class="st0" d="M122.4,36.16v-6.55h-9v6.55h-2.93V20.15h2.93v6.6h9v-6.6h2.9v16.01H122.4z"/>
<path class="st0" d="M127.43,36.16v-2.83h1.82V22.99h-1.82v-2.83h6.46v2.83h-1.75v10.34h1.75v2.83H127.43z"/>
<path class="st0" d="M138.59,37.75c-0.84,0.77-2.28,1.99-2.76,2.4c-0.29-0.38-1.39-1.75-1.8-2.21c0.48-0.38,2.09-1.78,2.69-2.38
	c0.6-0.58,0.84-1.18,0.84-2.26V22.99h-2.62v-2.83h5.5v13.18C140.44,35.47,139.94,36.52,138.59,37.75z"/>
<path class="st0" d="M153.09,36.16c-0.36-0.58-3.48-5.83-3.94-6.6h-2.71v6.6h-2.9V20.15h2.9v6.55h2.66c0.36-0.6,3.53-5.98,3.84-6.55
	h3.58c-0.53,0.72-4.39,7.27-4.8,7.92c0.48,0.7,4.7,7.49,5.11,8.09H153.09z"/>
<path class="st0" d="M158.27,36.16V20.15h2.9v13.47h4.87v-3.94h2.76v6.48H158.27z"/>
<path class="st0" d="M184.24,36.16c0-0.86-0.43-9.72-0.46-10.73c-0.62,0.5-4.22,3.29-4.92,3.89c-0.65-0.53-4.32-3.36-4.92-3.84
	c-0.02,0.98-0.43,9.79-0.46,10.68h-2.98c0.1-1.18,0.89-15,0.96-16.35c1.01,0.82,6.75,5.5,7.42,6c0.77-0.58,6.6-5.38,7.39-6
	c0.07,1.13,0.91,15.36,0.96,16.35H184.24z"/>
<path class="st0" d="M192.93,25.99v10.18h-3V19.89c0.7,0.67,11.4,9.62,12.26,10.32V20.15h2.98v16.32
	C204.26,35.71,193.79,26.73,192.93,25.99z"/>
<path class="st0" d="M213.71,32.32c-3.48,0-6.29-2.81-6.29-6.26c0-3.5,2.81-6.31,6.29-6.31s6.29,2.81,6.29,6.31
	C220,29.52,217.19,32.32,213.71,32.32z M208.72,36.16v-2.26h10.01v2.26H208.72z M213.71,22.46c-1.92,0-3.46,1.61-3.46,3.6
	s1.54,3.55,3.46,3.55c1.94,0,3.48-1.56,3.48-3.55S215.66,22.46,213.71,22.46z"/>
<path class="st0" d="M228.5,30.6h-3.38v5.57h-2.9V20.15h6.24c2.95,0,5.28,2.33,5.28,5.23C233.73,28.12,231.5,30.6,228.5,30.6z
	 M228.33,22.96h-3.22v4.82h3.22c1.25,0,2.4-0.98,2.4-2.4C230.73,23.95,229.58,22.96,228.33,22.96z"/>
<path class="st0" d="M242.15,32.16v0.91h-2.35v-0.89c-2.9-0.58-5.09-3.05-5.09-6.14c0-3.48,2.81-6.29,6.26-6.29
	c3.48,0,6.31,2.81,6.31,6.29C247.29,29.08,245.06,31.7,242.15,32.16z M235.91,36.16v-2.26h10.2v2.26H235.91z M240.98,22.53
	c-1.92,0-3.48,1.66-3.48,3.65c0,1.68,1.15,2.9,2.33,3.24v-2.3h2.33v2.33c1.3-0.46,2.33-1.63,2.33-3.26
	C244.48,24.19,242.95,22.53,240.98,22.53z"/>
<path class="st0" d="M258.26,36.16c-0.29-0.5-3.12-4.99-3.5-5.57h-2.38v5.57h-2.88V20.15h6.79c2.95,0,5.18,2.4,5.18,5.26
	c0,2.42-1.63,4.2-3.53,4.75c0.34,0.5,3.5,5.47,3.86,6H258.26z M256.07,22.96h-3.7v4.85h3.72c1.42,0,2.38-1.1,2.38-2.4
	C258.47,24.14,257.51,22.96,256.07,22.96z"/>
<path class="st0" d="M269.82,36.55c-3.53,0-5.88-2.16-6.7-4.87c0.36-0.1,2.35-0.6,2.74-0.7c0.38,1.34,1.87,2.83,3.96,2.83
	c2.28,0,3.74-1.49,3.84-3.26c-0.62-0.17-9.55-3-10.37-3.24c-0.02-0.24-0.07-0.65-0.07-1.06c0-3.55,2.81-6.48,6.77-6.48
	c3.38,0,5.83,2.23,6.48,4.63c-0.41,0.12-2.3,0.53-2.78,0.62c-0.48-1.42-1.85-2.59-3.7-2.59c-2.09,0-3.67,1.42-3.79,3
	c0.77,0.22,9.65,3.05,10.3,3.24c0.1,0.31,0.14,0.96,0.14,1.39C276.64,33.69,273.86,36.55,269.82,36.55z"/>
<path class="st0" d="M286.29,22.96v13.2h-2.98v-13.2h-5.98v-2.81h14.83v2.81H286.29z"/>
<path class="st0" d="M300.64,36.43c-4.34,0-6.84-2.69-6.84-6.24V20.15h2.93v10.15c0,1.85,1.56,3.46,3.91,3.46
	c2.26,0,3.94-1.56,3.94-3.41v-10.2h2.86v10.03C307.43,33.67,304.5,36.43,300.64,36.43z"/>
<path class="st0" d="M318.69,36.36h-2.09c-0.29-0.67-7.13-15.29-7.56-16.2h3.26c0.36,0.77,4.99,10.92,5.4,11.67
	c0.38-0.79,5.06-10.92,5.38-11.67h3.19C325.94,20.88,318.98,35.73,318.69,36.36z"/>
<path class="st0" d="M342.5,36.52l-6.48-6.46l-6.5,6.46l-2.62-16.37h3.07l1.51,10.49l4.54-4.49l4.66,4.56l1.54-10.56h2.9
	L342.5,36.52z"/>
<path class="st0" d="M359.06,36.16c-0.48-0.62-4.27-5.26-4.7-5.81c-0.55,0.7-4.39,5.4-4.73,5.81h-3.77c0.48-0.55,6.1-7.39,6.58-8.04
	c-0.46-0.58-5.98-7.27-6.55-7.97h3.74c0.38,0.5,4.22,5.21,4.7,5.81c0.48-0.6,4.3-5.3,4.68-5.81h3.72c-0.46,0.53-6.12,7.51-6.53,8.04
	c0.46,0.58,6.12,7.44,6.55,7.97H359.06z"/>
<path class="st0" d="M374.01,31v5.16h-2.9V31c-0.43-0.58-7.92-10.11-8.52-10.85h3.72c0.43,0.55,5.76,7.3,6.31,8.02
	c0.53-0.67,5.74-7.42,6.19-8.02h3.65C381.95,20.76,374.42,30.48,374.01,31z"/>
<path class="st0" d="M387.33,33.57h5.4V31.1h2.78v5.06h-13.06c0.38-0.55,8.09-12.7,8.5-13.37h-5.35v2.47h-2.78v-5.11h13.1
	C395.46,20.85,387.69,33.02,387.33,33.57z"/>
<path class="st0" d="M402.42,29.92v-2.98h6.89v2.98H402.42z"/>
<path class="st0" d="M422.1,36.55c-3.07,0-5.57-2.54-5.57-5.59v-5.64c0-3.05,2.5-5.54,5.57-5.54c3.1,0,5.59,2.5,5.59,5.54v5.64
	C427.7,34,425.2,36.55,422.1,36.55z M424.94,25.36c0-1.54-1.22-2.88-2.81-2.88c-1.58,0-2.81,1.34-2.81,2.88V31
	c0,1.54,1.22,2.83,2.81,2.83c1.63,0,2.81-1.3,2.81-2.83V25.36z"/>
<path class="st0" d="M431.37,36.16V22.89h-2.21v-2.74h5.02v16.01H431.37z"/>
<path class="st0" d="M436.12,36.16v-2.3c0.5-0.41,3.96-3.36,6.34-5.42c1.49-1.3,2.18-2.14,2.18-3.34c0-1.32-1.1-2.64-2.9-2.64
	c-1.56,0-2.83,0.86-4.01,2.23c-0.31-0.41-1.44-1.85-1.68-2.16c1.49-1.61,3.67-2.76,5.9-2.76c3.14,0,5.66,2.23,5.66,5.38
	c0,2.23-1.44,3.74-3.34,5.26c-1.32,1.06-3.19,2.54-3.74,2.98h7.61v2.78H436.12z"/>
<path class="st0" d="M455.15,36.55c-2.98,0-4.75-1.2-6.07-2.71c0.34-0.31,1.56-1.54,1.87-1.87c0.84,0.94,2.14,1.99,4.06,1.99
	c1.92,0,3.48-1.27,3.48-3.36c0-1.63-1.32-2.95-3.07-2.95c-0.89,0-1.56,0.36-2.02,0.77c-0.31-0.29-1.15-1.15-1.51-1.46
	c0.46-0.43,3.65-3.62,4.15-4.15h-6.29v-2.64h10.44v1.66c-0.48,0.48-3.19,3.22-3.82,3.82c2.86-0.02,4.97,2.02,4.97,4.99
	C461.34,34.1,458.56,36.55,455.15,36.55z"/>
<path class="st0" d="M472.65,32.32v3.84h-2.69v-3.84h-7.54V30c0.43-0.58,7.15-9.31,7.56-9.89h2.66v9.62h2.16v2.59H472.65z
	 M469.96,23.95c-0.41,0.55-4.01,5.23-4.39,5.78h4.39V23.95z"/>
<path class="st0" d="M482.03,36.55c-2.93,0-4.94-1.61-5.83-3.77c0.46-0.17,2.16-0.86,2.62-1.08c0.36,1.03,1.34,2.18,3.19,2.18
	c1.8,0,3.22-1.2,3.22-3.1c0-1.78-1.51-2.93-3.02-2.93c-1.97,0-4.3,0.17-5.04,0.22v-7.92h9.91v2.62h-7.34v2.81
	c0.46-0.05,1.68-0.17,2.83-0.17c3.12,0,5.54,1.99,5.54,5.33C488.1,34.03,485.46,36.55,482.03,36.55z"/>
<path class="st0" d="M495.52,36.55c-3.22,0-6.07-2.54-6.07-5.88c0-1.66,0.62-3.02,1.54-4.63c1.2-2.11,3.65-5.74,4.42-6.7
	c0.43,0.26,1.78,1.1,2.23,1.39c-0.38,0.55-2.66,3.89-3.07,4.58c0.38-0.19,0.96-0.34,1.44-0.34c3.24,0,5.59,2.4,5.59,5.64
	C501.59,33.74,499,36.55,495.52,36.55z M495.52,27.4c-1.82,0-3.36,1.49-3.36,3.29c0,1.85,1.51,3.31,3.36,3.31
	c1.82,0,3.34-1.46,3.34-3.29S497.34,27.4,495.52,27.4z"/>
<path class="st0" d="M508.72,36.24h-2.98c0.19-0.43,5.35-12.91,5.59-13.47h-5.76v2.86h-2.71v-5.47h12.36
	C515.01,20.71,508.94,35.71,508.72,36.24z"/>
<path class="st0" d="M521.53,36.62c-3.65,0-6.05-2.06-6.05-5.16c0-2.52,1.56-3.77,2.66-4.15c-1.01-0.48-1.78-1.61-1.78-3.12
	c0-2.59,2.11-4.46,5.21-4.46c3.17,0,5.16,1.87,5.16,4.44c0,1.58-0.84,2.66-1.82,3.14c1.18,0.38,2.69,1.78,2.69,4.13
	C527.61,34.48,525.11,36.62,521.53,36.62z M521.56,28.58c-1.99,0-3.34,1.13-3.34,2.78c0,1.63,1.42,2.76,3.34,2.76
	c1.9,0,3.31-1.13,3.31-2.76C524.87,29.71,523.53,28.58,521.56,28.58z M521.53,22c-1.58,0-2.47,0.94-2.47,2.18
	c0,1.27,0.84,2.21,2.45,2.21c1.63,0,2.52-0.94,2.52-2.18C524.03,22.94,523.07,22,521.53,22z"/>
<path class="st0" d="M539.39,30.31c-1.2,2.09-3.72,5.74-4.46,6.65c-0.43-0.26-1.78-1.08-2.26-1.39c0.53-0.58,2.76-3.82,3.14-4.56
	c-0.41,0.19-0.98,0.34-1.46,0.34c-3.24,0-5.57-2.4-5.57-5.64c0-3.12,2.59-5.93,6.07-5.93c3.22,0,6.07,2.54,6.07,5.88
	C540.93,27.31,540.3,28.68,539.39,30.31z M534.85,22.32c-1.82,0-3.36,1.46-3.36,3.29s1.54,3.31,3.36,3.31c1.8,0,3.36-1.42,3.36-3.29
	C538.21,23.78,536.7,22.32,534.85,22.32z"/>
<path class="st0" d="M26.9,69.16c-0.14-0.36-1.27-2.95-1.46-3.38h-6.67c-0.14,0.29-1.32,3.02-1.46,3.38h-3.14
	c0.19-0.43,6.75-15.84,6.87-16.11h2.14c0.1,0.24,6.67,15.51,6.94,16.11H26.9z M22.08,57.84c-0.26,0.6-2.06,4.7-2.23,5.14h4.46
	C24.16,62.66,22.29,58.39,22.08,57.84z"/>
<path class="st0" d="M40.82,69.16H31.8V53.15h8.98c2.16,0,4.13,1.78,4.13,4.01c0,1.56-0.82,2.76-1.8,3.29
	c1.08,0.34,2.57,1.63,2.57,3.98C45.67,67.03,43.58,69.16,40.82,69.16z M40.17,55.94h-5.54v3.5h5.52c1.06,0,1.8-0.79,1.8-1.75
	C41.95,56.71,41.18,55.94,40.17,55.94z M40.39,62.18h-5.76v4.18h5.86c1.18,0,2.06-0.98,2.06-2.09
	C42.55,63.12,41.66,62.18,40.39,62.18z"/>
<path class="st0" d="M55.65,52.77c2.69,0,4.78,1.25,6.1,2.66c-0.22,0.22-1.75,1.8-2.06,2.09c-0.86-0.94-2.16-1.87-4.03-1.87
	c-2.95,0-5.4,2.45-5.4,5.52c0,3,2.42,5.5,5.4,5.5c1.63,0,3.07-0.79,4.06-1.92l2.04,2.04c-1.3,1.39-3.43,2.76-6.1,2.76
	c-4.56,0-8.42-3.62-8.42-8.38C47.23,56.44,51.04,52.77,55.65,52.77z"/>
<path class="st0" d="M70,69.16h-6.43V53.15h6.41c4.61,0,8.11,3.58,8.11,8.02C78.09,65.76,74.37,69.16,70,69.16z M69.93,55.94h-3.48
	v10.42h3.5c2.81,0,5.16-2.3,5.16-5.18C75.12,58.24,72.86,55.94,69.93,55.94z"/>
<path class="st0" d="M92.78,53.15v2.81h-9.46v3.72h7.56v2.81h-7.56v3.86h9.38v2.81H80.44V53.15H92.78z"/>
<path class="st0" d="M97.96,55.96v3.77h7.27v2.83h-7.27v6.6h-2.9V53.15h12.07v2.81H97.96z"/>
<path class="st0" d="M116.35,69.55c-4.66,0-8.26-3.77-8.26-8.38c0-4.49,3.5-8.4,8.33-8.4c2.5,0,4.61,1.13,6.05,2.66
	c-0.34,0.31-1.78,1.7-2.16,2.06c-0.89-1.03-2.23-1.87-3.91-1.87c-3.07,0-5.3,2.52-5.3,5.54c0,3.1,2.33,5.57,5.28,5.57
	c2.45,0,4.27-1.7,4.73-3.75h-5.16v-2.66h8.59c0.02,0.17,0.02,0.5,0.02,0.74C124.56,65.76,121,69.55,116.35,69.55z"/>
<path class="st0" d="M136.92,69.16v-6.55h-7.27v6.55h-2.9V53.15h2.9v6.6h7.27v-6.6h2.93v16.01H136.92z"/>
<path class="st0" d="M143.25,69.16V53.15h2.93v16.01H143.25z"/>
<path class="st0" d="M152.25,68.49c-0.82,0.77-2.26,1.99-2.74,2.4c-0.31-0.38-1.42-1.75-1.8-2.21c0.46-0.38,2.09-1.78,2.67-2.38
	c0.62-0.58,0.86-1.18,0.86-2.28v-8.04h-2.81v-2.83h5.66v10.92C154.1,66.19,153.62,67.27,152.25,68.49z"/>
<path class="st0" d="M168.88,69.16c-0.43-0.58-4.54-5.9-5.06-6.6h-3.77v6.6h-2.9V53.15h2.9v6.55h3.72c0.46-0.55,4.51-6,4.9-6.55
	h3.62c-0.55,0.7-5.54,7.32-6.03,7.92c0.5,0.62,5.88,7.51,6.31,8.09H168.88z"/>
<path class="st0" d="M173.97,69.16V53.15h2.9v13.27h6.67v-3.74h2.81v6.48H173.97z"/>
<path class="st0" d="M200.59,69.16V58.48c-0.6,0.48-3.96,3.07-4.68,3.62c-0.67-0.48-4.06-3.14-4.66-3.6v10.66h-2.86V52.84
	c1.03,0.77,6.6,4.94,7.54,5.66c0.77-0.6,6.72-5.04,7.51-5.66v16.32H200.59z"/>
<path class="st0" d="M209.56,59.52v9.65h-2.88V52.89c0.7,0.67,8.9,9.1,9.72,9.91v-9.65h2.86v16.32
	C218.42,68.61,210.35,60.33,209.56,59.52z"/>
<path class="st0" d="M230.08,69.55c-4.66,0-8.4-3.74-8.4-8.38c0-4.66,3.74-8.4,8.38-8.4c4.66,0,8.4,3.74,8.4,8.4
	C238.46,65.8,234.72,69.55,230.08,69.55z M230.06,55.6c-3,0-5.38,2.47-5.38,5.57c0,3.1,2.38,5.54,5.4,5.54c3.02,0,5.4-2.45,5.4-5.54
	C235.48,58.08,233.08,55.6,230.06,55.6z"/>
<path class="st0" d="M249.14,63.6h-5.35v5.57h-2.9V53.15h8.21c2.95,0,5.28,2.33,5.28,5.23C254.37,61.12,252.14,63.6,249.14,63.6z
	 M249.04,55.99h-5.26v4.8h5.26c1.25,0,2.38-1.01,2.38-2.4C251.42,56.97,250.29,55.99,249.04,55.99z"/>
<path class="st0" d="M265.36,69.33v2.23h-2.86v-2.23c-3.96-0.67-6.96-4.06-6.96-8.18c0-4.63,3.74-8.38,8.38-8.38
	c4.63,0,8.4,3.74,8.4,8.38C272.32,65.23,269.3,68.71,265.36,69.33z M263.92,55.58c-3,0-5.42,2.47-5.42,5.59
	c0,2.57,1.7,4.73,4.01,5.33v-3.12h2.86v3.12c2.35-0.62,4.01-2.83,4.01-5.33C269.37,58.08,266.95,55.58,263.92,55.58z"/>
<path class="st0" d="M284.99,69.16c-0.31-0.5-3.14-5.21-3.5-5.81h-3.89v5.81h-2.88V53.15h8.45c2.93,0,5.09,2.26,5.09,5.14
	c0,2.38-1.68,4.25-3.48,4.7c0.34,0.53,3.46,5.64,3.82,6.17H284.99z M282.86,55.96h-5.26v4.61h5.28c1.42,0,2.38-1.01,2.38-2.28
	S284.3,55.96,282.86,55.96z"/>
<path class="st0" d="M296.01,69.55c-3.29,0-5.35-2.21-5.95-4.61c0.43-0.12,2.23-0.5,2.74-0.62c0.41,1.49,1.7,2.52,3.31,2.52
	c1.85,0,3.05-1.1,3.22-3.12c-0.41-0.14-8.64-3.24-9.36-3.5c-0.02-0.31-0.05-0.84-0.05-1.34c0-3.17,2.52-6.1,6.1-6.1
	c3,0,5.42,1.97,6.05,4.58c-0.48,0.14-2.18,0.48-2.76,0.62c-0.31-1.32-1.46-2.5-3.22-2.5s-3.05,1.27-3.24,2.93
	c0.6,0.22,8.9,3.34,9.29,3.48c0.07,0.34,0.12,0.86,0.12,1.54C302.25,66.76,299.68,69.55,296.01,69.55z"/>
<path class="st0" d="M310.77,55.96v13.2h-2.95v-13.2h-4.66v-2.81h12.12v2.81H310.77z"/>
<path class="st0" d="M322.99,69.43c-3.41,0-6.1-2.69-6.1-6.14V53.15h2.93v10.3c0,1.66,1.32,3.14,3.17,3.14
	c1.78,0,3.17-1.42,3.17-3.14v-10.3h2.88v10.13C329.03,66.69,326.37,69.43,322.99,69.43z"/>
<path class="st0" d="M339.09,69.36H337c-0.26-0.77-6.07-15.29-6.43-16.2h3.14c0.29,0.77,4.08,10.61,4.39,11.43
	c0.31-0.84,4.1-10.68,4.34-11.43h3.1C345.26,53.9,339.35,68.71,339.09,69.36z"/>
<path class="st0" d="M360.93,69.55c-0.62-0.5-6-5.02-6.67-5.59c-0.67,0.6-5.83,4.92-6.65,5.59c-0.1-1.49-1.08-15.36-1.15-16.39h2.95
	c0.02,0.91,0.46,9.79,0.5,10.78c0.58-0.5,3.82-3.36,4.34-3.84c0.55,0.5,3.89,3.46,4.34,3.84c0.07-0.72,0.5-9.84,0.53-10.78h2.95
	C361.99,54.14,360.98,68.64,360.93,69.55z"/>
<path class="st0" d="M374.58,69.16c-0.46-0.62-3.6-5.04-3.98-5.59c-0.5,0.72-3.72,5.18-4.03,5.59h-3.5
	c0.43-0.55,5.35-7.42,5.81-8.04c-0.43-0.6-5.28-7.27-5.81-7.97h3.62c0.36,0.5,3.53,4.92,3.98,5.54c0.43-0.62,3.62-5.02,3.96-5.54
	h3.5c-0.38,0.53-5.33,7.46-5.74,7.99c0.43,0.6,5.42,7.49,5.78,8.02H374.58z"/>
<path class="st0" d="M387.86,62.13v7.03h-2.9v-7.03c-0.43-0.58-6.43-8.23-7.06-8.98h3.65c0.43,0.55,4.39,5.67,4.94,6.36
	c0.53-0.67,4.49-5.76,4.94-6.36h3.48C394.39,53.76,388.29,61.6,387.86,62.13z"/>
<path class="st0" d="M400.14,66.38h6v-3.05h2.78v5.83h-14.11c0.58-0.79,8.81-12.53,9.29-13.23h-5.86v3.07h-2.79v-5.86h13.99
	C408.93,53.9,400.62,65.71,400.14,66.38z"/>
<path class="st0" d="M19.95,96.54c-0.07-0.17-0.58-1.35-0.67-1.55h-3.06c-0.07,0.13-0.61,1.39-0.67,1.55H14.1
	c0.09-0.2,3.09-7.26,3.15-7.38h0.98c0.04,0.11,3.06,7.11,3.18,7.38H19.95z M17.74,91.35c-0.12,0.27-0.95,2.16-1.02,2.35h2.05
	C18.69,93.56,17.83,91.6,17.74,91.35z"/>
<path class="st0" d="M23.56,91.87v4.67h-1.38v-7.46c0.32,0.31,5.23,4.41,5.62,4.73V89.2h1.36v7.48
	C28.76,96.33,23.96,92.21,23.56,91.87z"/>
<path class="st0" d="M34.08,90.49v6.05h-1.36v-6.05h-2.74V89.2h6.8v1.29H34.08z"/>
<path class="st0" d="M40.66,96.66c-1.99,0-3.13-1.23-3.13-2.86v-4.6h1.34v4.65c0,0.85,0.71,1.58,1.79,1.58c1.03,0,1.8-0.71,1.8-1.56
	V89.2h1.31v4.6C43.77,95.39,42.43,96.66,40.66,96.66z"/>
<path class="st0" d="M47.93,96.71c-1.62,0-2.7-0.99-3.07-2.23c0.17-0.04,1.08-0.27,1.25-0.32c0.18,0.62,0.86,1.3,1.82,1.3
	c1.04,0,1.72-0.68,1.76-1.5c-0.29-0.08-4.38-1.38-4.75-1.49c-0.01-0.11-0.03-0.3-0.03-0.48c0-1.63,1.29-2.97,3.1-2.97
	c1.55,0,2.67,1.02,2.97,2.12c-0.19,0.05-1.06,0.24-1.28,0.29c-0.22-0.65-0.85-1.19-1.69-1.19c-0.96,0-1.68,0.65-1.74,1.38
	c0.35,0.1,4.42,1.4,4.72,1.49c0.04,0.14,0.07,0.44,0.07,0.64C51.05,95.4,49.78,96.71,47.93,96.71z"/>
<path class="st0" d="M67.28,96.54c-0.13-0.23-1.43-2.29-1.61-2.55h-1.09v2.55h-1.32V89.2h3.11c1.35,0,2.38,1.1,2.38,2.41
	c0,1.11-0.75,1.92-1.62,2.18c0.15,0.23,1.61,2.51,1.77,2.75H67.28z M66.28,90.49h-1.69v2.22h1.71c0.65,0,1.09-0.51,1.09-1.1
	C67.38,91.03,66.94,90.49,66.28,90.49z"/>
<path class="st0" d="M74.43,89.2v1.29h-3.28v1.71h2.57v1.29h-2.57v1.77h3.25v1.29h-4.57V89.2H74.43z"/>
<path class="st0" d="M77.91,89.03c0.94,0,1.65,0.42,2.1,0.91l-0.89,0.89c-0.26-0.27-0.68-0.55-1.19-0.55c-0.9,0-1.6,0.73-1.6,1.63
	c0,0.89,0.72,1.63,1.6,1.63c0.48,0,0.9-0.22,1.2-0.56c0.08,0.09,0.79,0.78,0.88,0.87c-0.45,0.47-1.19,0.95-2.1,0.95
	c-1.57,0-2.89-1.24-2.89-2.88C75.02,90.29,76.33,89.03,77.91,89.03z M79.7,95.5v1.03h-4.08V95.5H79.7z"/>
<path class="st0" d="M84.22,90.49v6.05h-1.36v-6.05h-2.74V89.2h6.8v1.29H84.22z"/>
<path class="st0" d="M87.2,96.54v-1.3h0.84V90.5H87.2v-1.3h2.96v1.3h-0.8v4.74h0.8v1.3H87.2z"/>
<path class="st0" d="M93.82,96.71c-1.62,0-2.7-0.99-3.07-2.23c0.17-0.04,1.08-0.27,1.25-0.32c0.18,0.62,0.86,1.3,1.82,1.3
	c1.04,0,1.72-0.68,1.76-1.5c-0.29-0.08-4.38-1.38-4.75-1.49c-0.01-0.11-0.03-0.3-0.03-0.48c0-1.63,1.29-2.97,3.1-2.97
	c1.55,0,2.67,1.02,2.97,2.12c-0.19,0.05-1.06,0.24-1.28,0.29c-0.22-0.65-0.85-1.19-1.69-1.19c-0.96,0-1.68,0.65-1.74,1.38
	c0.35,0.1,4.42,1.4,4.72,1.49c0.04,0.14,0.07,0.44,0.07,0.64C96.95,95.4,95.67,96.71,93.82,96.71z"/>
<path class="st0" d="M100.9,94.7v0.42h-1.08v-0.41c-1.33-0.26-2.33-1.4-2.33-2.82c0-1.6,1.29-2.88,2.87-2.88
	c1.59,0,2.89,1.29,2.89,2.88C103.26,93.29,102.24,94.49,100.9,94.7z M98.04,96.54V95.5h4.68v1.03H98.04z M100.37,90.29
	c-0.88,0-1.6,0.76-1.6,1.67c0,0.77,0.53,1.33,1.07,1.48v-1.06h1.07v1.07c0.59-0.21,1.07-0.75,1.07-1.5
	C101.97,91.05,101.27,90.29,100.37,90.29z"/>
<path class="st0" d="M118.52,96.66c-1.99,0-3.13-1.23-3.13-2.86v-4.6h1.34v4.65c0,0.85,0.71,1.58,1.79,1.58
	c1.03,0,1.8-0.71,1.8-1.56V89.2h1.31v4.6C121.63,95.39,120.29,96.66,118.52,96.66z"/>
<path class="st0" d="M128.9,96.54c-0.07-0.14-0.48-0.99-0.66-1.36h-3.69c-0.08,0.2-0.58,1.24-0.64,1.36h-1.52
	c0.1-0.2,3.43-7.26,3.49-7.38h0.98c0.04,0.11,3.43,7.12,3.58,7.38H128.9z M126.38,91.21c-0.17,0.34-1,2.06-1.28,2.72h2.56
	C127.39,93.32,126.53,91.54,126.38,91.21z"/>
<path class="st0" d="M133.87,96.71c-1.62,0-2.7-0.99-3.07-2.23c0.17-0.04,1.08-0.27,1.25-0.32c0.18,0.62,0.86,1.3,1.82,1.3
	c1.04,0,1.72-0.68,1.76-1.5c-0.29-0.08-4.38-1.38-4.75-1.49c-0.01-0.11-0.03-0.3-0.03-0.48c0-1.63,1.29-2.97,3.1-2.97
	c1.55,0,2.67,1.02,2.97,2.12c-0.19,0.05-1.06,0.24-1.28,0.29c-0.22-0.65-0.85-1.19-1.69-1.19c-0.96,0-1.68,0.65-1.74,1.38
	c0.35,0.1,4.42,1.4,4.72,1.49c0.04,0.14,0.07,0.44,0.07,0.64C137,95.4,135.72,96.71,133.87,96.71z"/>
<path class="st0" d="M140.93,93.98h-1.55v2.55h-1.33V89.2h2.86c1.35,0,2.42,1.07,2.42,2.4C143.33,92.85,142.31,93.98,140.93,93.98z
	 M140.86,90.49h-1.47v2.21h1.47c0.57,0,1.1-0.45,1.1-1.1C141.96,90.94,141.43,90.49,140.86,90.49z"/>
<path class="st0" d="M148.84,89.2v1.29h-3.28v1.71h2.57v1.29h-2.57v1.77h3.25v1.29h-4.57V89.2H148.84z"/>
<path class="st0" d="M153.83,96.54c-0.13-0.23-1.43-2.29-1.61-2.55h-1.09v2.55h-1.32V89.2h3.11c1.35,0,2.38,1.1,2.38,2.41
	c0,1.11-0.75,1.92-1.62,2.18c0.15,0.23,1.61,2.51,1.77,2.75H153.83z M152.82,90.49h-1.69v2.22h1.71c0.65,0,1.09-0.51,1.09-1.1
	C153.92,91.03,153.49,90.49,152.82,90.49z"/>
<path class="st0" d="M162.12,96.54c-0.07-0.14-0.48-0.99-0.66-1.36h-3.69c-0.08,0.2-0.58,1.24-0.64,1.36h-1.52
	c0.1-0.2,3.43-7.26,3.49-7.38h0.98c0.04,0.11,3.43,7.12,3.58,7.38H162.12z M159.6,91.21c-0.17,0.34-1,2.06-1.28,2.72h2.56
	C160.61,93.32,159.75,91.54,159.6,91.21z"/>
<path class="st0" d="M177.79,96.54h-2.23V89.2h2.22c2.11,0,3.72,1.64,3.72,3.67C181.5,94.98,179.8,96.54,177.79,96.54z
	 M177.76,90.48h-0.88v4.77h0.89c1.29,0,2.37-1.06,2.37-2.38C180.14,91.53,179.1,90.48,177.76,90.48z"/>
<path class="st0" d="M182.05,96.54v-1.3h0.84V90.5h-0.84v-1.3h2.96v1.3h-0.8v4.74h0.8v1.3H182.05z"/>
<path class="st0" d="M188.67,96.71c-1.62,0-2.7-0.99-3.07-2.23c0.16-0.04,1.08-0.27,1.25-0.32c0.18,0.62,0.86,1.3,1.82,1.3
	c1.04,0,1.72-0.68,1.76-1.5c-0.29-0.08-4.38-1.38-4.75-1.49c-0.01-0.11-0.03-0.3-0.03-0.48c0-1.63,1.29-2.97,3.1-2.97
	c1.55,0,2.67,1.02,2.97,2.12c-0.19,0.05-1.06,0.24-1.28,0.29c-0.22-0.65-0.85-1.19-1.69-1.19c-0.96,0-1.68,0.65-1.74,1.38
	c0.35,0.1,4.42,1.4,4.72,1.49c0.04,0.14,0.07,0.44,0.07,0.64C191.8,95.4,190.52,96.71,188.67,96.71z"/>
<path class="st0" d="M203.5,96.54v-1.3h0.84V90.5h-0.84v-1.3h2.96v1.3h-0.8v4.74h0.8v1.3H203.5z"/>
<path class="st0" d="M210.53,96.66c-1.99,0-3.13-1.23-3.13-2.86v-4.6h1.34v4.65c0,0.85,0.71,1.58,1.79,1.58
	c1.03,0,1.8-0.71,1.8-1.56V89.2h1.31v4.6C213.64,95.39,212.3,96.66,210.53,96.66z"/>
<path class="st0" d="M221.19,96.54c0-0.4-0.2-4.46-0.21-4.92c-0.29,0.23-1.94,1.51-2.25,1.78c-0.3-0.24-1.98-1.54-2.26-1.76
	c-0.01,0.45-0.2,4.49-0.21,4.9h-1.36c0.04-0.54,0.41-6.88,0.44-7.49c0.46,0.37,3.09,2.52,3.4,2.75c0.35-0.26,3.03-2.46,3.39-2.75
	c0.03,0.52,0.42,7.04,0.44,7.49H221.19z"/>
<path class="st0" d="M226.74,94.7v0.42h-1.08v-0.41c-1.33-0.26-2.33-1.4-2.33-2.82c0-1.6,1.29-2.88,2.87-2.88
	c1.59,0,2.89,1.29,2.89,2.88C229.1,93.29,228.07,94.49,226.74,94.7z M223.88,96.54V95.5h4.68v1.03H223.88z M226.2,90.29
	c-0.88,0-1.6,0.76-1.6,1.67c0,0.77,0.53,1.33,1.07,1.48v-1.06h1.07v1.07c0.59-0.21,1.07-0.75,1.07-1.5
	C227.81,91.05,227.11,90.29,226.2,90.29z"/>
<path class="st0" d="M233.2,96.66c-1.99,0-3.13-1.23-3.13-2.86v-4.6h1.34v4.65c0,0.85,0.71,1.58,1.79,1.58c1.03,0,1.8-0.71,1.8-1.56
	V89.2h1.31v4.6C236.31,95.39,234.97,96.66,233.2,96.66z"/>
<path class="st0" d="M237.28,96.54v-1.3h0.84V90.5h-0.84v-1.3h2.96v1.3h-0.8v4.74h0.8v1.3H237.28z"/>
<path class="st0" d="M255.06,96.71c-1.62,0-2.7-0.99-3.07-2.23c0.17-0.04,1.08-0.27,1.25-0.32c0.18,0.62,0.86,1.3,1.82,1.3
	c1.04,0,1.72-0.68,1.76-1.5c-0.29-0.08-4.38-1.38-4.75-1.49c-0.01-0.11-0.03-0.3-0.03-0.48c0-1.63,1.29-2.97,3.1-2.97
	c1.55,0,2.67,1.02,2.97,2.12c-0.19,0.05-1.06,0.24-1.28,0.29c-0.22-0.65-0.85-1.19-1.69-1.19c-0.96,0-1.68,0.65-1.74,1.38
	c0.35,0.1,4.42,1.4,4.72,1.49c0.04,0.14,0.07,0.44,0.07,0.64C258.18,95.4,256.9,96.71,255.06,96.71z"/>
<path class="st0" d="M262.33,96.66c-1.99,0-3.13-1.23-3.13-2.86v-4.6h1.34v4.65c0,0.85,0.71,1.58,1.79,1.58
	c1.03,0,1.8-0.71,1.8-1.56V89.2h1.31v4.6C265.44,95.39,264.1,96.66,262.33,96.66z"/>
<path class="st0" d="M272.99,96.54c0-0.4-0.2-4.46-0.21-4.92c-0.29,0.23-1.94,1.51-2.25,1.78c-0.3-0.24-1.98-1.54-2.26-1.76
	c-0.01,0.45-0.2,4.49-0.21,4.9h-1.36c0.04-0.54,0.41-6.88,0.44-7.49c0.46,0.37,3.09,2.52,3.4,2.75c0.35-0.26,3.03-2.46,3.39-2.75
	c0.03,0.52,0.42,7.04,0.44,7.49H272.99z"/>
<path class="st0" d="M20.6,109.74c-0.07-0.14-0.48-0.99-0.66-1.36h-3.69c-0.08,0.2-0.58,1.24-0.64,1.36h-1.52
	c0.1-0.2,3.43-7.26,3.49-7.38h0.98c0.04,0.11,3.43,7.12,3.58,7.38H20.6z M18.08,104.41c-0.17,0.34-1,2.06-1.28,2.72h2.56
	C19.09,106.52,18.23,104.74,18.08,104.41z"/>
<path class="st0" d="M25.97,109.86c-1.99,0-3.13-1.23-3.13-2.86v-4.6h1.34v4.65c0,0.85,0.71,1.58,1.79,1.58
	c1.03,0,1.8-0.71,1.8-1.56v-4.68h1.31v4.6C29.09,108.59,27.74,109.86,25.97,109.86z"/>
<path class="st0" d="M33.97,103.69v6.05h-1.36v-6.05h-2.74v-1.29h6.8v1.29H33.97z"/>
<path class="st0" d="M42.06,102.4v1.29h-3.28v1.71h2.57v1.29h-2.57v1.77h3.25v1.29h-4.57v-7.34H42.06z"/>
<path class="st0" d="M46.49,103.69v6.05h-1.36v-6.05h-2.74v-1.29h6.8v1.29H46.49z"/>
<path class="st0" d="M53.07,109.86c-1.99,0-3.13-1.23-3.13-2.86v-4.6h1.34v4.65c0,0.85,0.71,1.58,1.79,1.58
	c1.03,0,1.8-0.71,1.8-1.56v-4.68h1.31v4.6C56.18,108.59,54.84,109.86,53.07,109.86z"/>
<path class="st0" d="M61.67,109.74c-0.13-0.23-1.43-2.29-1.61-2.55h-1.09v2.55h-1.32v-7.34h3.11c1.35,0,2.38,1.1,2.38,2.41
	c0,1.11-0.75,1.92-1.62,2.18c0.15,0.23,1.61,2.51,1.77,2.75H61.67z M60.67,103.69h-1.69v2.22h1.71c0.65,0,1.09-0.51,1.09-1.1
	C61.77,104.23,61.33,103.69,60.67,103.69z"/>
<path class="st0" d="M63.56,111v-2.92h1.26v1.65C64.59,109.98,63.96,110.62,63.56,111z"/>
<path class="st0" d="M78.03,103.69v6.05h-1.36v-6.05h-2.74v-1.29h6.8v1.29H78.03z"/>
<path class="st0" d="M86.11,102.4v1.29h-3.28v1.71h2.57v1.29h-2.57v1.77h3.25v1.29h-4.57v-7.34H86.11z"/>
<path class="st0" d="M93.2,109.74c0-0.4-0.2-4.46-0.21-4.92c-0.29,0.23-1.94,1.51-2.25,1.78c-0.3-0.24-1.98-1.54-2.26-1.76
	c-0.01,0.45-0.2,4.49-0.21,4.9h-1.36c0.04-0.54,0.41-6.88,0.44-7.49c0.46,0.37,3.09,2.52,3.4,2.75c0.35-0.26,3.03-2.46,3.39-2.75
	c0.03,0.52,0.42,7.04,0.44,7.49H93.2z"/>
<path class="st0" d="M95.56,109.74v-1.65h1.31v1.65H95.56z"/>
<path class="st0" d="M110.15,102.22c1.23,0,2.19,0.57,2.79,1.22c-0.1,0.1-0.8,0.83-0.95,0.96c-0.4-0.43-0.99-0.86-1.85-0.86
	c-1.35,0-2.48,1.12-2.48,2.53c0,1.38,1.11,2.52,2.48,2.52c0.75,0,1.41-0.36,1.86-0.88l0.93,0.94c-0.59,0.64-1.57,1.26-2.79,1.26
	c-2.09,0-3.86-1.66-3.86-3.84C106.28,103.91,108.03,102.22,110.15,102.22z"/>
<path class="st0" d="M116.19,107.98c-1.59,0-2.88-1.29-2.88-2.87c0-1.61,1.29-2.89,2.88-2.89c1.6,0,2.88,1.29,2.88,2.89
	C119.08,106.69,117.79,107.98,116.19,107.98z M113.91,109.74v-1.03h4.59v1.03H113.91z M116.19,103.46c-0.88,0-1.58,0.74-1.58,1.65
	s0.7,1.63,1.58,1.63c0.89,0,1.6-0.71,1.6-1.63S117.09,103.46,116.19,103.46z"/>
<path class="st0" d="M126.16,109.74c0-0.4-0.2-4.46-0.21-4.92c-0.29,0.23-1.94,1.51-2.25,1.78c-0.3-0.24-1.98-1.54-2.26-1.76
	c-0.01,0.45-0.2,4.49-0.21,4.9h-1.36c0.04-0.54,0.41-6.88,0.44-7.49c0.46,0.37,3.09,2.52,3.4,2.75c0.35-0.26,3.03-2.46,3.39-2.75
	c0.03,0.52,0.42,7.04,0.44,7.49H126.16z"/>
<path class="st0" d="M130.14,105.07v4.67h-1.38v-7.46c0.32,0.31,5.23,4.41,5.62,4.73v-4.61h1.36v7.48
	C135.33,109.53,130.54,105.41,130.14,105.07z"/>
<path class="st0" d="M136.74,109.74v-1.3h0.84v-4.74h-0.84v-1.3h2.96v1.3h-0.8v4.74h0.8v1.3H136.74z"/>
<path class="st0" d="M143.36,109.91c-1.62,0-2.7-0.99-3.07-2.23c0.16-0.04,1.08-0.27,1.25-0.32c0.18,0.62,0.86,1.3,1.82,1.3
	c1.04,0,1.72-0.68,1.76-1.5c-0.29-0.08-4.38-1.38-4.75-1.49c-0.01-0.11-0.03-0.3-0.03-0.48c0-1.63,1.29-2.97,3.1-2.97
	c1.55,0,2.67,1.02,2.97,2.12c-0.19,0.05-1.06,0.24-1.28,0.29c-0.22-0.65-0.85-1.19-1.69-1.19c-0.96,0-1.68,0.65-1.74,1.38
	c0.35,0.1,4.42,1.4,4.72,1.49c0.04,0.14,0.07,0.44,0.07,0.64C146.49,108.61,145.21,109.91,143.36,109.91z"/>
<path class="st0" d="M150.01,102.23c0.94,0,1.65,0.42,2.1,0.91l-0.89,0.89c-0.26-0.27-0.68-0.55-1.19-0.55c-0.9,0-1.6,0.73-1.6,1.63
	c0,0.89,0.72,1.63,1.6,1.63c0.48,0,0.9-0.22,1.2-0.56c0.08,0.09,0.79,0.78,0.88,0.87c-0.45,0.47-1.19,0.95-2.1,0.95
	c-1.57,0-2.89-1.24-2.89-2.88C147.11,103.49,148.42,102.23,150.01,102.23z M151.79,108.7v1.03h-4.08v-1.03H151.79z"/>
<path class="st0" d="M160.99,109.74v-1.3h0.84v-4.74h-0.84v-1.3h2.96v1.3h-0.8v4.74h0.8v1.3H160.99z"/>
<path class="st0" d="M170.72,109.74c-0.07-0.14-0.48-0.99-0.66-1.36h-3.69c-0.08,0.2-0.58,1.24-0.64,1.36h-1.52
	c0.1-0.2,3.43-7.26,3.49-7.38h0.98c0.04,0.11,3.43,7.12,3.58,7.38H170.72z M168.2,104.41c-0.17,0.34-1,2.06-1.28,2.72h2.56
	C169.21,106.52,168.36,104.74,168.2,104.41z"/>
<path class="st0" d="M175.69,109.91c-1.62,0-2.7-0.99-3.07-2.23c0.16-0.04,1.08-0.27,1.25-0.32c0.18,0.62,0.86,1.3,1.82,1.3
	c1.04,0,1.72-0.68,1.76-1.5c-0.29-0.08-4.38-1.38-4.75-1.49c-0.01-0.11-0.03-0.3-0.03-0.48c0-1.63,1.29-2.97,3.1-2.97
	c1.55,0,2.67,1.02,2.97,2.12c-0.19,0.05-1.06,0.24-1.28,0.29c-0.22-0.65-0.85-1.19-1.69-1.19c-0.96,0-1.68,0.65-1.74,1.38
	c0.35,0.1,4.42,1.4,4.72,1.49c0.04,0.14,0.07,0.44,0.07,0.64C178.82,108.61,177.54,109.91,175.69,109.91z"/>
<path class="st0" d="M182.75,107.19h-1.55v2.55h-1.33v-7.34h2.86c1.35,0,2.42,1.07,2.42,2.4
	C185.15,106.05,184.13,107.19,182.75,107.19z M182.68,103.69h-1.47v2.21h1.47c0.57,0,1.1-0.45,1.1-1.1
	C183.78,104.14,183.25,103.69,182.68,103.69z"/>
<path class="st0" d="M185.56,109.74v-1.3h0.84v-4.74h-0.84v-1.3h2.96v1.3h-0.8v4.74h0.8v1.3H185.56z"/>
<path class="st0" d="M192.18,109.91c-1.62,0-2.7-0.99-3.07-2.23c0.16-0.04,1.08-0.27,1.25-0.32c0.18,0.62,0.86,1.3,1.82,1.3
	c1.04,0,1.72-0.68,1.76-1.5c-0.29-0.08-4.38-1.38-4.75-1.49c-0.01-0.11-0.03-0.3-0.03-0.48c0-1.63,1.29-2.97,3.1-2.97
	c1.55,0,2.67,1.02,2.97,2.12c-0.19,0.05-1.06,0.24-1.28,0.29c-0.22-0.65-0.85-1.19-1.69-1.19c-0.96,0-1.68,0.65-1.74,1.38
	c0.35,0.1,4.42,1.4,4.72,1.49c0.04,0.14,0.07,0.44,0.07,0.64C195.31,108.61,194.03,109.91,192.18,109.91z"/>
<path class="st0" d="M207.15,109.74h-2.23v-7.34h2.22c2.11,0,3.72,1.64,3.72,3.67C210.86,108.18,209.15,109.74,207.15,109.74z
	 M207.12,103.68h-0.88v4.77h0.89c1.29,0,2.37-1.06,2.37-2.38C209.49,104.73,208.46,103.68,207.12,103.68z"/>
<path class="st0" d="M214.33,107.98c-1.59,0-2.88-1.29-2.88-2.87c0-1.61,1.29-2.89,2.88-2.89c1.6,0,2.88,1.29,2.88,2.89
	C217.22,106.69,215.93,107.98,214.33,107.98z M212.05,109.74v-1.03h4.59v1.03H212.05z M214.33,103.46c-0.88,0-1.58,0.74-1.58,1.65
	s0.7,1.63,1.58,1.63c0.89,0,1.6-0.71,1.6-1.63S215.23,103.46,214.33,103.46z"/>
<path class="st0" d="M218.23,109.74v-7.34h1.33v6.17h2.23v-1.8h1.26v2.97H218.23z"/>
<path class="st0" d="M226.48,107.98c-1.59,0-2.88-1.29-2.88-2.87c0-1.61,1.29-2.89,2.88-2.89c1.6,0,2.88,1.29,2.88,2.89
	C229.36,106.69,228.07,107.98,226.48,107.98z M224.19,109.74v-1.03h4.59v1.03H224.19z M226.48,103.46c-0.88,0-1.58,0.74-1.58,1.65
	s0.7,1.63,1.58,1.63c0.89,0,1.6-0.71,1.6-1.63S227.37,103.46,226.48,103.46z"/>
<path class="st0" d="M234.39,109.74c-0.13-0.23-1.43-2.29-1.61-2.55h-1.09v2.55h-1.32v-7.34h3.11c1.35,0,2.38,1.1,2.38,2.41
	c0,1.11-0.75,1.92-1.62,2.18c0.15,0.23,1.61,2.51,1.77,2.75H234.39z M233.39,103.69h-1.69v2.22h1.71c0.65,0,1.09-0.51,1.09-1.1
	C234.49,104.23,234.05,103.69,233.39,103.69z"/>
<path class="st0" d="M241.53,102.4v1.29h-3.28v1.71h2.57v1.29h-2.57v1.77h3.25v1.29h-4.57v-7.34H241.53z"/>
<path class="st0" d="M246.52,109.74c-0.13-0.23-1.43-2.29-1.61-2.55h-1.09v2.55h-1.32v-7.34h3.11c1.35,0,2.38,1.1,2.38,2.41
	c0,1.11-0.75,1.92-1.62,2.18c0.15,0.23,1.61,2.51,1.77,2.75H246.52z M245.52,103.69h-1.69v2.22h1.71c0.65,0,1.09-0.51,1.09-1.1
	C246.62,104.23,246.18,103.69,245.52,103.69z"/>
<path class="st0" d="M248.51,109.74v-1.3h0.84v-4.74h-0.84v-1.3h2.96v1.3h-0.8v4.74h0.8v1.3H248.51z"/>
<path class="st0" d="M255.45,109.74h-3v-7.34h2.98c0.99,0,1.89,0.81,1.89,1.84c0,0.71-0.37,1.27-0.82,1.51
	c0.5,0.15,1.18,0.75,1.18,1.83C257.67,108.76,256.72,109.74,255.45,109.74z M255.17,103.66h-1.42v1.63h1.41
	c0.48,0,0.81-0.37,0.81-0.81C255.97,104.03,255.62,103.66,255.17,103.66z M255.27,106.52h-1.52v1.94h1.55
	c0.54,0,0.95-0.46,0.95-0.97C256.24,106.97,255.84,106.52,255.27,106.52z"/>
<path class="st0" d="M261.84,109.86c-1.99,0-3.13-1.23-3.13-2.86v-4.6h1.34v4.65c0,0.85,0.71,1.58,1.79,1.58
	c1.03,0,1.8-0.71,1.8-1.56v-4.68h1.31v4.6C264.96,108.59,263.61,109.86,261.84,109.86z"/>
<path class="st0" d="M269.11,109.91c-1.62,0-2.7-0.99-3.07-2.23c0.16-0.04,1.08-0.27,1.25-0.32c0.18,0.62,0.86,1.3,1.82,1.3
	c1.04,0,1.72-0.68,1.76-1.5c-0.29-0.08-4.38-1.38-4.75-1.49c-0.01-0.11-0.03-0.3-0.03-0.48c0-1.63,1.29-2.97,3.1-2.97
	c1.55,0,2.67,1.02,2.97,2.12c-0.19,0.05-1.06,0.24-1.28,0.29c-0.22-0.65-0.85-1.19-1.69-1.19c-0.96,0-1.68,0.65-1.74,1.38
	c0.35,0.1,4.42,1.4,4.72,1.49c0.04,0.14,0.07,0.44,0.07,0.64C272.24,108.61,270.96,109.91,269.11,109.91z"/>
<path class="st0" d="M273.09,111v-2.92h1.26v1.65C274.12,109.98,273.48,110.62,273.09,111z"/>
<path class="st0" d="M18.48,123.03h-0.96c-0.13-0.31-3.27-7.01-3.47-7.43h1.5c0.17,0.35,2.29,5.01,2.48,5.35
	c0.18-0.36,2.32-5.01,2.46-5.35h1.46C21.81,115.93,18.61,122.74,18.48,123.03z"/>
<path class="st0" d="M22.19,122.94v-1.3h0.84v-4.74h-0.84v-1.3h2.96v1.3h-0.8v4.74h0.8v1.3H22.19z"/>
<path class="st0" d="M29.54,116.89v6.05h-1.36v-6.05h-2.74v-1.29h6.8v1.29H29.54z"/>
<path class="st0" d="M43.1,121.1v0.42h-1.08v-0.41c-1.33-0.26-2.33-1.4-2.33-2.82c0-1.6,1.29-2.88,2.87-2.88
	c1.59,0,2.89,1.29,2.89,2.88C45.45,119.69,44.43,120.89,43.1,121.1z M40.24,122.94v-1.03h4.68v1.03H40.24z M42.56,116.69
	c-0.88,0-1.6,0.76-1.6,1.67c0,0.77,0.53,1.33,1.07,1.48v-1.06h1.07v1.07c0.59-0.21,1.07-0.75,1.07-1.5
	C44.17,117.45,43.46,116.69,42.56,116.69z"/>
<path class="st0" d="M49.56,123.06c-1.99,0-3.13-1.23-3.13-2.86v-4.6h1.34v4.65c0,0.85,0.71,1.58,1.79,1.58
	c1.03,0,1.8-0.71,1.8-1.56v-4.68h1.31v4.6C52.67,121.79,51.33,123.06,49.56,123.06z"/>
<path class="st0" d="M53.64,122.94v-1.3h0.84v-4.74h-0.84v-1.3h2.96v1.3h-0.8v4.74h0.8v1.3H53.64z"/>
<path class="st0" d="M59.81,122.94h-2.23v-7.34h2.22c2.11,0,3.72,1.64,3.72,3.67C63.52,121.38,61.81,122.94,59.81,122.94z
	 M59.78,116.88H58.9v4.77h0.89c1.29,0,2.37-1.06,2.37-2.38C62.15,117.93,61.12,116.88,59.78,116.88z"/>
<path class="st0" d="M69.17,115.6v1.29h-3.28v1.71h2.57v1.29h-2.57v1.77h3.25v1.29h-4.57v-7.34H69.17z"/>
<path class="st0" d="M76.27,122.94c0-0.4-0.2-4.46-0.21-4.92c-0.29,0.23-1.94,1.51-2.25,1.78c-0.3-0.24-1.98-1.54-2.26-1.76
	c-0.01,0.45-0.2,4.49-0.21,4.9h-1.36c0.04-0.54,0.41-6.88,0.44-7.49c0.46,0.37,3.09,2.52,3.4,2.75c0.35-0.26,3.03-2.46,3.39-2.75
	c0.03,0.52,0.42,7.04,0.44,7.49H76.27z"/>
<path class="st0" d="M90.6,115.6v1.29h-3.28v1.71h2.57v1.29h-2.57v1.77h3.25v1.29H86v-7.34H90.6z"/>
<path class="st0" d="M95.03,116.89v6.05h-1.36v-6.05h-2.74v-1.29h6.8v1.29H95.03z"/>
<path class="st0" d="M105.65,122.94v-7.34h1.33v6.17h2.23v-1.8h1.26v2.97H105.65z"/>
<path class="st0" d="M117.27,122.94c-0.07-0.14-0.48-0.99-0.66-1.36h-3.69c-0.08,0.2-0.58,1.24-0.64,1.36h-1.52
	c0.1-0.2,3.43-7.26,3.49-7.38h0.98c0.04,0.11,3.43,7.12,3.58,7.38H117.27z M114.75,117.61c-0.17,0.34-1,2.06-1.28,2.72h2.56
	C115.77,119.73,114.91,117.94,114.75,117.61z"/>
<path class="st0" d="M122.56,122.94h-3v-7.34h2.98c0.99,0,1.89,0.81,1.89,1.84c0,0.71-0.37,1.27-0.82,1.51
	c0.5,0.15,1.18,0.75,1.18,1.83C124.79,121.96,123.83,122.94,122.56,122.94z M122.28,116.86h-1.42v1.63h1.41
	c0.48,0,0.81-0.37,0.81-0.81C123.08,117.23,122.73,116.86,122.28,116.86z M122.38,119.73h-1.52v1.94h1.55
	c0.54,0,0.95-0.46,0.95-0.97C123.36,120.17,122.95,119.73,122.38,119.73z"/>
<path class="st0" d="M128.28,121.18c-1.59,0-2.88-1.29-2.88-2.87c0-1.61,1.29-2.89,2.88-2.89c1.6,0,2.88,1.29,2.88,2.89
	C131.17,119.89,129.88,121.18,128.28,121.18z M125.99,122.94v-1.03h4.59v1.03H125.99z M128.28,116.66c-0.88,0-1.58,0.74-1.58,1.65
	s0.7,1.63,1.58,1.63c0.89,0,1.6-0.71,1.6-1.63S129.17,116.66,128.28,116.66z"/>
<path class="st0" d="M136.19,122.94c-0.13-0.23-1.43-2.29-1.61-2.55h-1.09v2.55h-1.32v-7.34h3.11c1.35,0,2.38,1.1,2.38,2.41
	c0,1.11-0.75,1.92-1.62,2.18c0.15,0.23,1.61,2.51,1.77,2.75H136.19z M135.19,116.89h-1.69v2.22h1.71c0.65,0,1.09-0.51,1.09-1.1
	C136.29,117.43,135.85,116.89,135.19,116.89z"/>
<path class="st0" d="M143.33,115.6v1.29h-3.28v1.71h2.57v1.29h-2.57v1.77h3.25v1.29h-4.57v-7.34H143.33z"/>
<path class="st0" d="M147.24,120.39h-1.55v2.55h-1.33v-7.34h2.86c1.35,0,2.42,1.07,2.42,2.4
	C149.63,119.25,148.61,120.39,147.24,120.39z M147.16,116.89h-1.47v2.21h1.47c0.57,0,1.1-0.45,1.1-1.1
	C148.26,117.34,147.73,116.89,147.16,116.89z"/>
<path class="st0" d="M155.15,115.6v1.29h-3.28v1.71h2.57v1.29h-2.57v1.77h3.25v1.29h-4.57v-7.34H155.15z"/>
<path class="st0" d="M158.4,122.94h-2.23v-7.34h2.22c2.11,0,3.72,1.64,3.72,3.67C162.11,121.38,160.4,122.94,158.4,122.94z
	 M158.37,116.88h-0.88v4.77h0.89c1.29,0,2.37-1.06,2.37-2.38C160.74,117.93,159.71,116.88,158.37,116.88z"/>
<path class="st0" d="M174.89,115.6v1.29h-3.28v1.71h2.57v1.29h-2.57v1.77h3.25v1.29h-4.57v-7.34H174.89z"/>
<path class="st0" d="M179.32,116.89v6.05h-1.36v-6.05h-2.74v-1.29h6.8v1.29H179.32z"/>
<path class="st0" d="M185.9,123.06c-1.99,0-3.13-1.23-3.13-2.86v-4.6h1.34v4.65c0,0.85,0.71,1.58,1.79,1.58
	c1.03,0,1.8-0.71,1.8-1.56v-4.68h1.31v4.6C189.01,121.79,187.67,123.06,185.9,123.06z"/>
<path class="st0" d="M194.5,122.94c-0.13-0.23-1.43-2.29-1.61-2.55h-1.09v2.55h-1.32v-7.34h3.11c1.35,0,2.38,1.1,2.38,2.41
	c0,1.11-0.75,1.92-1.62,2.18c0.15,0.23,1.61,2.51,1.77,2.75H194.5z M193.5,116.89h-1.69v2.22h1.71c0.65,0,1.09-0.51,1.09-1.1
	C194.6,117.43,194.16,116.89,193.5,116.89z"/>
<path class="st0" d="M196.49,122.94v-1.3h0.84v-4.74h-0.84v-1.3h2.96v1.3h-0.8v4.74h0.8v1.3H196.49z"/>
<path class="st0" d="M206.23,122.94c-0.07-0.14-0.48-0.99-0.66-1.36h-3.69c-0.08,0.2-0.58,1.24-0.64,1.36h-1.52
	c0.1-0.2,3.43-7.26,3.49-7.38h0.98c0.04,0.11,3.43,7.12,3.58,7.38H206.23z M203.71,117.61c-0.17,0.34-1,2.06-1.28,2.72H205
	C204.72,119.73,203.86,117.94,203.71,117.61z"/>
<path class="st0" d="M220.24,115.6v1.29h-3.28v1.71h2.57v1.29h-2.57v1.77h3.25v1.29h-4.57v-7.34H220.24z"/>
<path class="st0" d="M226.6,122.94c-0.22-0.29-1.96-2.41-2.16-2.66c-0.25,0.32-2.01,2.47-2.17,2.66h-1.73
	c0.22-0.25,2.79-3.39,3.01-3.69c-0.21-0.26-2.74-3.33-3-3.65h1.72c0.18,0.23,1.94,2.39,2.16,2.66c0.22-0.28,1.97-2.43,2.15-2.66
	h1.71c-0.21,0.24-2.8,3.44-2.99,3.69c0.21,0.26,2.81,3.41,3,3.65H226.6z"/>
<path class="st0" d="M240.79,115.6v1.29h-3.28v1.71h2.57v1.29h-2.57v1.77h3.25v1.29h-4.57v-7.34H240.79z"/>
<path class="st0" d="M244.9,123.06c-1.99,0-3.13-1.23-3.13-2.86v-4.6h1.34v4.65c0,0.85,0.71,1.58,1.79,1.58
	c1.03,0,1.8-0.71,1.8-1.56v-4.68h1.31v4.6C248.02,121.79,246.67,123.06,244.9,123.06z"/>
<path class="st0" d="M255.56,122.94c0-0.4-0.2-4.46-0.21-4.92c-0.29,0.23-1.94,1.51-2.25,1.78c-0.3-0.24-1.98-1.54-2.26-1.76
	c-0.01,0.45-0.2,4.49-0.21,4.9h-1.36c0.04-0.54,0.41-6.88,0.44-7.49c0.46,0.37,3.09,2.52,3.4,2.75c0.35-0.26,3.03-2.46,3.39-2.75
	c0.03,0.52,0.42,7.04,0.44,7.49H255.56z"/>
<path class="st0" d="M261.12,121.1v0.42h-1.08v-0.41c-1.33-0.26-2.33-1.4-2.33-2.82c0-1.6,1.29-2.88,2.87-2.88
	c1.59,0,2.89,1.29,2.89,2.88C263.47,119.69,262.45,120.89,261.12,121.1z M258.26,122.94v-1.03h4.68v1.03H258.26z M260.58,116.69
	c-0.88,0-1.6,0.76-1.6,1.67c0,0.77,0.53,1.33,1.07,1.48v-1.06h1.07v1.07c0.59-0.21,1.07-0.75,1.07-1.5
	C262.18,117.45,261.48,116.69,260.58,116.69z"/>
<path class="st0" d="M267.57,123.06c-1.99,0-3.13-1.23-3.13-2.86v-4.6h1.34v4.65c0,0.85,0.71,1.58,1.79,1.58
	c1.03,0,1.8-0.71,1.8-1.56v-4.68h1.31v4.6C270.69,121.79,269.35,123.06,267.57,123.06z"/>
<path class="st0" d="M271.65,122.94v-1.3h0.84v-4.74h-0.84v-1.3h2.96v1.3h-0.8v4.74h0.8v1.3H271.65z"/>
<path class="st0" d="M18.48,136.23h-0.96c-0.13-0.31-3.27-7.01-3.47-7.43h1.5c0.17,0.35,2.29,5.01,2.48,5.35
	c0.18-0.36,2.32-5.01,2.46-5.35h1.46C21.81,129.13,18.61,135.94,18.48,136.23z"/>
<path class="st0" d="M22.19,136.14v-1.3h0.84v-4.74h-0.84v-1.3h2.96v1.3h-0.8v4.74h0.8v1.3H22.19z"/>
<path class="st0" d="M28.36,136.14h-2.23v-7.34h2.22c2.11,0,3.72,1.64,3.72,3.67C32.07,134.58,30.36,136.14,28.36,136.14z
	 M28.33,130.08h-0.88v4.77h0.89c1.29,0,2.37-1.06,2.37-2.38C30.7,131.13,29.67,130.08,28.33,130.08z"/>
<path class="st0" d="M45.95,136.14c0-0.4-0.2-4.46-0.21-4.92c-0.29,0.23-1.94,1.51-2.25,1.78c-0.3-0.24-1.98-1.54-2.26-1.76
	c-0.01,0.45-0.2,4.49-0.21,4.9h-1.36c0.04-0.54,0.41-6.88,0.44-7.49c0.46,0.37,3.09,2.52,3.4,2.75c0.35-0.26,3.03-2.46,3.39-2.75
	c0.03,0.52,0.42,7.04,0.44,7.49H45.95z"/>
<path class="st0" d="M50.98,134.38c-1.59,0-2.88-1.29-2.88-2.87c0-1.61,1.29-2.89,2.88-2.89c1.6,0,2.88,1.29,2.88,2.89
	C53.86,133.09,52.57,134.38,50.98,134.38z M48.69,136.14v-1.03h4.59v1.03H48.69z M50.98,129.86c-0.88,0-1.58,0.74-1.58,1.65
	s0.7,1.63,1.58,1.63c0.89,0,1.6-0.71,1.6-1.63S51.87,129.86,50.98,129.86z"/>
<path class="st0" d="M54.87,136.14v-7.34h1.33v6.17h2.23v-1.8h1.26v2.97H54.87z"/>
<path class="st0" d="M65.3,128.8v1.29h-3.28v1.71h2.57v1.29h-2.57v1.77h3.25v1.29H60.7v-7.34H65.3z"/>
<path class="st0" d="M67.7,131.47v4.67h-1.38v-7.46c0.32,0.31,5.23,4.41,5.62,4.73v-4.61h1.36v7.48
	C72.89,135.93,68.09,131.82,67.7,131.47z"/>
<path class="st0" d="M77.03,136.14H74.8v-7.34h2.22c2.11,0,3.72,1.64,3.72,3.67C80.74,134.58,79.04,136.14,77.03,136.14z M77,130.08
	h-0.88v4.77h0.89c1.29,0,2.37-1.06,2.37-2.38C79.38,131.13,78.34,130.08,77,130.08z"/>
<path class="st0" d="M86.4,128.8v1.29h-3.28v1.71h2.57v1.29h-2.57v1.77h3.25v1.29H81.8v-7.34H86.4z"/>
<path class="st0" d="M96.86,136.31c-1.62,0-2.7-0.99-3.07-2.23c0.16-0.04,1.08-0.27,1.25-0.32c0.18,0.62,0.86,1.3,1.82,1.3
	c1.04,0,1.72-0.68,1.76-1.5c-0.29-0.08-4.38-1.38-4.75-1.49c-0.01-0.11-0.03-0.3-0.03-0.48c0-1.63,1.29-2.97,3.1-2.97
	c1.55,0,2.67,1.02,2.97,2.12c-0.19,0.05-1.06,0.24-1.28,0.29c-0.22-0.65-0.85-1.19-1.69-1.19c-0.96,0-1.68,0.65-1.74,1.38
	c0.35,0.1,4.42,1.4,4.72,1.49c0.04,0.14,0.07,0.44,0.07,0.64C99.98,135.01,98.7,136.31,96.86,136.31z"/>
<path class="st0" d="M103.69,136.31c-1.62,0-2.7-0.99-3.07-2.23c0.17-0.04,1.08-0.27,1.25-0.32c0.18,0.62,0.86,1.3,1.82,1.3
	c1.04,0,1.72-0.68,1.76-1.5c-0.29-0.08-4.38-1.38-4.75-1.49c-0.01-0.11-0.03-0.3-0.03-0.48c0-1.63,1.29-2.97,3.1-2.97
	c1.55,0,2.67,1.02,2.97,2.12c-0.19,0.05-1.06,0.24-1.28,0.29c-0.22-0.65-0.85-1.19-1.69-1.19c-0.96,0-1.68,0.65-1.74,1.38
	c0.35,0.1,4.42,1.4,4.72,1.49c0.04,0.14,0.07,0.44,0.07,0.64C106.81,135.01,105.54,136.31,103.69,136.31z"/>
<path class="st0" d="M112.47,128.8v1.29h-3.28v1.71h2.57v1.29h-2.57v1.77h3.25v1.29h-4.57v-7.34H112.47z"/>
<path class="st0" d="M116.44,134.3v0.42h-1.08v-0.41c-1.33-0.26-2.33-1.4-2.33-2.82c0-1.6,1.29-2.88,2.87-2.88
	c1.59,0,2.89,1.29,2.89,2.88C118.79,132.89,117.77,134.09,116.44,134.3z M113.58,136.14v-1.03h4.68v1.03H113.58z M115.9,129.89
	c-0.88,0-1.6,0.76-1.6,1.67c0,0.77,0.53,1.33,1.07,1.49v-1.06h1.07v1.07c0.59-0.21,1.07-0.75,1.07-1.5
	C117.5,130.65,116.8,129.89,115.9,129.89z"/>
<path class="st0" d="M122.89,136.26c-1.99,0-3.13-1.23-3.13-2.86v-4.6h1.34v4.65c0,0.85,0.71,1.58,1.79,1.58
	c1.03,0,1.8-0.71,1.8-1.56v-4.68h1.31v4.6C126.01,134.99,124.66,136.26,122.89,136.26z"/>
<path class="st0" d="M132.08,128.8v1.29h-3.28v1.71h2.57v1.29h-2.57v1.77h3.25v1.29h-4.57v-7.34H132.08z"/>
<path class="st0" d="M142.54,136.31c-1.62,0-2.7-0.99-3.07-2.23c0.16-0.04,1.08-0.27,1.25-0.32c0.18,0.62,0.86,1.3,1.82,1.3
	c1.04,0,1.72-0.68,1.76-1.5c-0.29-0.08-4.38-1.38-4.75-1.49c-0.01-0.11-0.03-0.3-0.03-0.48c0-1.63,1.29-2.97,3.1-2.97
	c1.55,0,2.67,1.02,2.97,2.12c-0.19,0.05-1.06,0.24-1.28,0.29c-0.22-0.65-0.85-1.19-1.69-1.19c-0.96,0-1.68,0.65-1.74,1.38
	c0.35,0.1,4.42,1.4,4.72,1.49c0.04,0.14,0.07,0.44,0.07,0.64C145.66,135.01,144.39,136.31,142.54,136.31z"/>
<path class="st0" d="M149.81,136.26c-1.99,0-3.13-1.23-3.13-2.86v-4.6h1.34v4.65c0,0.85,0.71,1.58,1.79,1.58
	c1.03,0,1.8-0.71,1.8-1.56v-4.68h1.31v4.6C152.92,134.99,151.58,136.26,149.81,136.26z"/>
<path class="st0" d="M160.47,136.14c0-0.4-0.2-4.46-0.21-4.92c-0.29,0.23-1.94,1.51-2.25,1.78c-0.3-0.24-1.98-1.54-2.26-1.76
	c-0.01,0.45-0.2,4.49-0.21,4.9h-1.36c0.04-0.54,0.41-6.88,0.44-7.49c0.46,0.37,3.09,2.52,3.4,2.75c0.35-0.26,3.03-2.46,3.39-2.75
	c0.03,0.52,0.42,7.04,0.44,7.49H160.47z"/>
<path class="st0" d="M171.16,130.09v1.73h2.56v1.3h-2.56v3.03h-1.33v-7.34h4.3v1.29H171.16z"/>
<path class="st0" d="M180.78,136.14c-0.07-0.14-0.48-0.99-0.66-1.36h-3.69c-0.08,0.2-0.58,1.24-0.64,1.36h-1.52
	c0.1-0.2,3.43-7.26,3.49-7.38h0.98c0.04,0.11,3.43,7.12,3.58,7.38H180.78z M178.26,130.81c-0.17,0.34-1,2.06-1.28,2.72h2.56
	C179.27,132.93,178.41,131.14,178.26,130.81z"/>
<path class="st0" d="M185.53,128.64c0.94,0,1.65,0.42,2.1,0.91l-0.89,0.89c-0.26-0.27-0.68-0.55-1.19-0.55c-0.9,0-1.6,0.73-1.6,1.63
	c0,0.89,0.72,1.63,1.6,1.63c0.48,0,0.9-0.22,1.2-0.56c0.08,0.09,0.79,0.78,0.88,0.87c-0.45,0.47-1.19,0.95-2.1,0.95
	c-1.57,0-2.89-1.24-2.89-2.88C182.63,129.89,183.94,128.64,185.53,128.64z M187.31,135.1v1.03h-4.08v-1.03H187.31z"/>
<path class="st0" d="M192.97,128.8v1.29h-3.28v1.71h2.57v1.29h-2.57v1.77h3.25v1.29h-4.57v-7.34H192.97z"/>
<path class="st0" d="M196.68,136.31c-1.62,0-2.7-0.99-3.07-2.23c0.17-0.04,1.08-0.27,1.25-0.32c0.18,0.62,0.86,1.3,1.82,1.3
	c1.04,0,1.72-0.68,1.76-1.5c-0.29-0.08-4.38-1.38-4.75-1.49c-0.01-0.11-0.03-0.3-0.03-0.48c0-1.63,1.29-2.97,3.1-2.97
	c1.55,0,2.67,1.02,2.97,2.12c-0.19,0.05-1.06,0.24-1.28,0.29c-0.22-0.65-0.85-1.19-1.69-1.19c-0.96,0-1.68,0.65-1.74,1.38
	c0.35,0.1,4.42,1.4,4.72,1.49c0.04,0.14,0.07,0.44,0.07,0.64C199.8,135.01,198.53,136.31,196.68,136.31z"/>
<path class="st0" d="M213.41,136.14c-0.07-0.14-0.48-0.99-0.66-1.36h-3.69c-0.08,0.2-0.58,1.24-0.64,1.36h-1.52
	c0.1-0.2,3.43-7.26,3.49-7.38h0.98c0.04,0.11,3.43,7.12,3.58,7.38H213.41z M210.89,130.81c-0.17,0.34-1,2.06-1.28,2.72h2.56
	C211.9,132.93,211.05,131.14,210.89,130.81z"/>
<path class="st0" d="M219.71,136.14c-0.13-0.23-1.43-2.29-1.61-2.55h-1.09v2.55h-1.32v-7.34h3.11c1.35,0,2.38,1.1,2.38,2.41
	c0,1.11-0.75,1.92-1.62,2.18c0.15,0.23,1.61,2.51,1.77,2.75H219.71z M218.71,130.09h-1.69v2.22h1.71c0.65,0,1.09-0.51,1.09-1.1
	C219.81,130.63,219.37,130.09,218.71,130.09z"/>
<path class="st0" d="M225.3,136.26c-1.99,0-3.13-1.23-3.13-2.86v-4.6h1.34v4.65c0,0.85,0.71,1.58,1.79,1.58
	c1.03,0,1.8-0.71,1.8-1.56v-4.68h1.31v4.6C228.42,134.99,227.07,136.26,225.3,136.26z"/>
<path class="st0" d="M232.77,133.59h-1.55v2.55h-1.33v-7.34h2.86c1.35,0,2.42,1.07,2.42,2.4
	C235.17,132.45,234.15,133.59,232.77,133.59z M232.69,130.09h-1.47v2.21h1.47c0.57,0,1.1-0.45,1.1-1.1
	C233.79,130.54,233.27,130.09,232.69,130.09z"/>
<path class="st0" d="M239.49,130.09v6.05h-1.36v-6.05h-2.74v-1.29h6.8v1.29H239.49z"/>
<path class="st0" d="M242.47,136.14v-1.3h0.84v-4.74h-0.84v-1.3h2.96v1.3h-0.8v4.74h0.8v1.3H242.47z"/>
<path class="st0" d="M248.83,134.38c-1.59,0-2.88-1.29-2.88-2.87c0-1.61,1.29-2.89,2.88-2.89c1.6,0,2.88,1.29,2.88,2.89
	C251.71,133.09,250.43,134.38,248.83,134.38z M246.54,136.14v-1.03h4.59v1.03H246.54z M248.83,129.86c-0.88,0-1.58,0.74-1.58,1.65
	s0.7,1.63,1.58,1.63c0.89,0,1.6-0.71,1.6-1.63S249.72,129.86,248.83,129.86z"/>
<path class="st0" d="M256.74,136.14c-0.13-0.23-1.43-2.29-1.61-2.55h-1.09v2.55h-1.32v-7.34h3.11c1.35,0,2.38,1.1,2.38,2.41
	c0,1.11-0.75,1.92-1.62,2.18c0.15,0.23,1.61,2.51,1.77,2.75H256.74z M255.74,130.09h-1.69v2.22h1.71c0.65,0,1.09-0.51,1.09-1.1
	C256.84,130.63,256.4,130.09,255.74,130.09z"/>
<path class="st0" d="M262.33,136.26c-1.99,0-3.13-1.23-3.13-2.86v-4.6h1.34v4.65c0,0.85,0.71,1.58,1.79,1.58
	c1.03,0,1.8-0.71,1.8-1.56v-4.68h1.31v4.6C265.44,134.99,264.1,136.26,262.33,136.26z"/>
<path class="st0" d="M272.99,136.14c0-0.4-0.2-4.46-0.21-4.92c-0.29,0.23-1.94,1.51-2.25,1.78c-0.3-0.24-1.98-1.54-2.26-1.76
	c-0.01,0.45-0.2,4.49-0.21,4.9h-1.36c0.04-0.54,0.41-6.88,0.44-7.49c0.46,0.37,3.09,2.52,3.4,2.75c0.35-0.26,3.03-2.46,3.39-2.75
	c0.03,0.52,0.42,7.04,0.44,7.49H272.99z"/>
<path class="st0" d="M296.28,96.63h-0.96c-0.13-0.31-3.27-7.01-3.47-7.43h1.5c0.17,0.35,2.29,5.01,2.48,5.35
	c0.18-0.36,2.32-5.01,2.46-5.35h1.46C299.6,89.53,296.41,96.34,296.28,96.63z"/>
<path class="st0" d="M305.09,89.2v1.29h-3.28v1.71h2.57v1.29h-2.57v1.77h3.25v1.29h-4.57V89.2H305.09z"/>
<path class="st0" d="M307.49,91.87v4.67h-1.38v-7.46c0.32,0.31,5.23,4.41,5.62,4.73V89.2h1.36v7.48
	C312.68,96.33,307.88,92.21,307.49,91.87z"/>
<path class="st0" d="M316.83,96.54h-2.23V89.2h2.22c2.11,0,3.72,1.64,3.72,3.67C320.53,94.98,318.83,96.54,316.83,96.54z
	 M316.79,90.48h-0.88v4.77h0.89c1.29,0,2.37-1.06,2.37-2.38C319.17,91.53,318.13,90.48,316.79,90.48z"/>
<path class="st0" d="M327.39,96.54c-0.07-0.14-0.48-0.99-0.66-1.36h-3.69c-0.08,0.2-0.58,1.24-0.64,1.36h-1.52
	c0.1-0.2,3.43-7.26,3.49-7.38h0.98c0.04,0.11,3.43,7.12,3.58,7.38H327.39z M324.87,91.21c-0.17,0.34-1,2.06-1.28,2.72h2.56
	C325.88,93.32,325.02,91.54,324.87,91.21z"/>
<path class="st0" d="M344.63,96.63h-0.96c-0.13-0.31-3.27-7.01-3.47-7.43h1.5c0.17,0.35,2.29,5.01,2.48,5.35
	c0.18-0.36,2.32-5.01,2.46-5.35h1.46C347.96,89.53,344.77,96.34,344.63,96.63z"/>
<path class="st0" d="M351.27,94.78c-1.59,0-2.88-1.29-2.88-2.87c0-1.61,1.29-2.89,2.88-2.89c1.6,0,2.88,1.29,2.88,2.89
	C354.15,93.49,352.86,94.78,351.27,94.78z M348.98,96.54V95.5h4.59v1.03H348.98z M351.27,90.26c-0.88,0-1.58,0.74-1.58,1.65
	s0.7,1.63,1.58,1.63c0.89,0,1.6-0.71,1.6-1.63S352.16,90.26,351.27,90.26z"/>
<path class="st0" d="M355.16,96.54V89.2h1.33v6.17h2.23v-1.8h1.26v2.97H355.16z"/>
<path class="st0" d="M364.08,96.66c-1.99,0-3.13-1.23-3.13-2.86v-4.6h1.34v4.65c0,0.85,0.71,1.58,1.79,1.58
	c1.03,0,1.8-0.71,1.8-1.56V89.2h1.31v4.6C367.2,95.39,365.85,96.66,364.08,96.66z"/>
<path class="st0" d="M371.55,93.98H370v2.55h-1.33V89.2h2.86c1.35,0,2.42,1.07,2.42,2.4C373.95,92.85,372.93,93.98,371.55,93.98z
	 M371.47,90.49H370v2.21h1.47c0.57,0,1.1-0.45,1.1-1.1C372.57,90.94,372.04,90.49,371.47,90.49z"/>
<path class="st0" d="M378.27,90.49v6.05h-1.36v-6.05h-2.74V89.2h6.8v1.29H378.27z"/>
<path class="st0" d="M384.85,96.66c-1.99,0-3.13-1.23-3.13-2.86v-4.6h1.34v4.65c0,0.85,0.71,1.58,1.79,1.58
	c1.03,0,1.8-0.71,1.8-1.56V89.2h1.31v4.6C387.96,95.39,386.62,96.66,384.85,96.66z"/>
<path class="st0" d="M393.45,96.54c-0.13-0.23-1.43-2.29-1.61-2.55h-1.09v2.55h-1.32V89.2h3.11c1.35,0,2.38,1.1,2.38,2.41
	c0,1.11-0.75,1.92-1.62,2.18c0.15,0.23,1.61,2.51,1.77,2.75H393.45z M392.45,90.49h-1.69v2.22h1.71c0.65,0,1.09-0.51,1.09-1.1
	C393.55,91.03,393.11,90.49,392.45,90.49z"/>
<path class="st0" d="M413.02,96.54c-0.07-0.14-0.48-0.99-0.66-1.36h-3.69c-0.08,0.2-0.58,1.24-0.64,1.36h-1.52
	c0.1-0.2,3.43-7.26,3.49-7.38h0.98c0.04,0.11,3.43,7.12,3.58,7.38H413.02z M410.5,91.21c-0.17,0.34-1,2.06-1.28,2.72h2.56
	C411.51,93.32,410.65,91.54,410.5,91.21z"/>
<path class="st0" d="M418.31,96.54h-3V89.2h2.98c0.99,0,1.89,0.81,1.89,1.84c0,0.71-0.37,1.27-0.82,1.51
	c0.49,0.15,1.18,0.75,1.18,1.83C420.53,95.56,419.58,96.54,418.31,96.54z M418.02,90.46h-1.42v1.63h1.41c0.48,0,0.81-0.37,0.81-0.81
	C418.83,90.83,418.48,90.46,418.02,90.46z M418.12,93.32h-1.52v1.94h1.55c0.54,0,0.95-0.46,0.95-0.97
	C419.1,93.77,418.7,93.32,418.12,93.32z"/>
<path class="st0" d="M424.03,94.78c-1.59,0-2.88-1.29-2.88-2.87c0-1.61,1.29-2.89,2.88-2.89c1.6,0,2.88,1.29,2.88,2.89
	C426.91,93.49,425.63,94.78,424.03,94.78z M421.74,96.54V95.5h4.59v1.03H421.74z M424.03,90.26c-0.88,0-1.58,0.74-1.58,1.65
	s0.7,1.63,1.58,1.63c0.89,0,1.6-0.71,1.6-1.63S424.92,90.26,424.03,90.26z"/>
<path class="st0" d="M431.94,96.54c-0.13-0.23-1.43-2.29-1.61-2.55h-1.09v2.55h-1.32V89.2h3.11c1.35,0,2.38,1.1,2.38,2.41
	c0,1.11-0.75,1.92-1.62,2.18c0.15,0.23,1.61,2.51,1.77,2.75H431.94z M430.94,90.49h-1.69v2.22h1.71c0.65,0,1.09-0.51,1.09-1.1
	C432.04,91.03,431.6,90.49,430.94,90.49z"/>
<path class="st0" d="M438.45,96.54c-0.13-0.23-1.43-2.29-1.61-2.55h-1.09v2.55h-1.32V89.2h3.11c1.35,0,2.38,1.1,2.38,2.41
	c0,1.11-0.75,1.92-1.62,2.18c0.15,0.23,1.61,2.51,1.77,2.75H438.45z M437.45,90.49h-1.69v2.22h1.71c0.65,0,1.09-0.51,1.09-1.1
	C438.55,91.03,438.11,90.49,437.45,90.49z"/>
<path class="st0" d="M443.32,94.78c-1.59,0-2.88-1.29-2.88-2.87c0-1.61,1.29-2.89,2.88-2.89c1.6,0,2.88,1.29,2.88,2.89
	C446.21,93.49,444.92,94.78,443.32,94.78z M441.04,96.54V95.5h4.59v1.03H441.04z M443.32,90.26c-0.88,0-1.58,0.74-1.58,1.65
	s0.7,1.63,1.58,1.63c0.89,0,1.6-0.71,1.6-1.63S444.22,90.26,443.32,90.26z"/>
<path class="st0" d="M451.23,96.54c-0.13-0.23-1.43-2.29-1.61-2.55h-1.09v2.55h-1.32V89.2h3.11c1.35,0,2.38,1.1,2.38,2.41
	c0,1.11-0.75,1.92-1.62,2.18c0.15,0.23,1.61,2.51,1.77,2.75H451.23z M450.23,90.49h-1.69v2.22h1.71c0.65,0,1.09-0.51,1.09-1.1
	C451.33,91.03,450.89,90.49,450.23,90.49z"/>
<path class="st0" d="M453.22,96.54v-1.3h0.84V90.5h-0.84v-1.3h2.96v1.3h-0.8v4.74h0.8v1.3H453.22z"/>
<path class="st0" d="M459.58,94.78c-1.59,0-2.88-1.29-2.88-2.87c0-1.61,1.29-2.89,2.88-2.89c1.6,0,2.88,1.29,2.88,2.89
	C462.46,93.49,461.18,94.78,459.58,94.78z M457.29,96.54V95.5h4.59v1.03H457.29z M459.58,90.26c-0.88,0-1.58,0.74-1.58,1.65
	s0.7,1.63,1.58,1.63c0.89,0,1.6-0.71,1.6-1.63S460.47,90.26,459.58,90.26z"/>
<path class="st0" d="M478.44,96.63h-0.96c-0.13-0.31-3.27-7.01-3.47-7.43h1.5c0.17,0.35,2.29,5.01,2.48,5.35
	c0.18-0.36,2.32-5.01,2.46-5.35h1.46C481.76,89.53,478.57,96.34,478.44,96.63z"/>
<path class="st0" d="M485.07,94.78c-1.59,0-2.88-1.29-2.88-2.87c0-1.61,1.29-2.89,2.88-2.89c1.6,0,2.88,1.29,2.88,2.89
	C487.95,93.49,486.66,94.78,485.07,94.78z M482.78,96.54V95.5h4.59v1.03H482.78z M485.07,90.26c-0.88,0-1.58,0.74-1.58,1.65
	s0.7,1.63,1.58,1.63c0.89,0,1.6-0.71,1.6-1.63S485.96,90.26,485.07,90.26z"/>
<path class="st0" d="M488.96,96.54V89.2h1.33v6.17h2.23v-1.8h1.26v2.97H488.96z"/>
<path class="st0" d="M497.88,96.66c-1.99,0-3.13-1.23-3.13-2.86v-4.6h1.34v4.65c0,0.85,0.71,1.58,1.79,1.58
	c1.03,0,1.8-0.71,1.8-1.56V89.2H501v4.6C501,95.39,499.65,96.66,497.88,96.66z"/>
<path class="st0" d="M508.54,96.54c0-0.4-0.2-4.46-0.21-4.92c-0.29,0.23-1.94,1.51-2.25,1.78c-0.3-0.24-1.98-1.54-2.26-1.76
	c-0.01,0.45-0.2,4.49-0.21,4.9h-1.36c0.04-0.54,0.41-6.88,0.44-7.49c0.46,0.37,3.09,2.52,3.4,2.75c0.35-0.26,3.03-2.46,3.39-2.75
	c0.03,0.52,0.42,7.04,0.44,7.49H508.54z"/>
<path class="st0" d="M526.44,96.54c-0.13-0.23-1.43-2.29-1.61-2.55h-1.09v2.55h-1.32V89.2h3.11c1.35,0,2.38,1.1,2.38,2.41
	c0,1.11-0.75,1.92-1.62,2.18c0.15,0.23,1.61,2.51,1.77,2.75H526.44z M525.44,90.49h-1.69v2.22h1.71c0.65,0,1.09-0.51,1.09-1.1
	C526.54,91.03,526.1,90.49,525.44,90.49z"/>
<path class="st0" d="M533.58,89.2v1.29h-3.28v1.71h2.57v1.29h-2.57v1.77h3.25v1.29h-4.57V89.2H533.58z"/>
<path class="st0" d="M535.98,91.87v4.67h-1.38v-7.46c0.32,0.31,5.23,4.41,5.62,4.73V89.2h1.36v7.48
	C541.17,96.33,536.37,92.21,535.98,91.87z"/>
<path class="st0" d="M542.58,96.54v-1.3h0.84V90.5h-0.84v-1.3h2.96v1.3h-0.8v4.74h0.8v1.3H542.58z"/>
<path class="st0" d="M549.2,96.71c-1.62,0-2.7-0.99-3.07-2.23c0.17-0.04,1.08-0.27,1.25-0.32c0.18,0.62,0.86,1.3,1.82,1.3
	c1.04,0,1.72-0.68,1.76-1.5c-0.29-0.08-4.38-1.38-4.75-1.49c-0.01-0.11-0.03-0.3-0.03-0.48c0-1.63,1.29-2.97,3.1-2.97
	c1.55,0,2.67,1.02,2.97,2.12c-0.19,0.05-1.06,0.24-1.28,0.29c-0.22-0.65-0.85-1.19-1.69-1.19c-0.96,0-1.68,0.65-1.74,1.38
	c0.35,0.1,4.42,1.4,4.72,1.49c0.04,0.14,0.07,0.44,0.07,0.64C552.32,95.4,551.05,96.71,549.2,96.71z"/>
<path class="st0" d="M292.09,109.74v-1.3h0.84v-4.74h-0.84v-1.3h2.96v1.3h-0.8v4.74h0.8v1.3H292.09z"/>
<path class="st0" d="M298.91,107.19h-1.55v2.55h-1.33v-7.34h2.86c1.35,0,2.42,1.07,2.42,2.4
	C301.3,106.05,300.28,107.19,298.91,107.19z M298.83,103.69h-1.47v2.21h1.47c0.57,0,1.1-0.45,1.1-1.1
	C299.93,104.14,299.4,103.69,298.83,103.69z"/>
<path class="st0" d="M301.71,109.74v-1.3h0.84v-4.74h-0.84v-1.3h2.96v1.3h-0.8v4.74h0.8v1.3H301.71z"/>
<path class="st0" d="M310.25,102.4v1.29h-3.28v1.71h2.57v1.29h-2.57v1.77h3.25v1.29h-4.57v-7.34H310.25z"/>
<path class="st0" d="M312.65,105.07v4.67h-1.38v-7.46c0.32,0.31,5.23,4.41,5.62,4.73v-4.61h1.36v7.48
	C317.84,109.53,313.04,105.41,312.65,105.07z"/>
<path class="st0" d="M319.24,109.74v-1.3h0.84v-4.74h-0.84v-1.3h2.96v1.3h-0.8v4.74h0.8v1.3H319.24z"/>
<path class="st0" d="M329.26,109.74c0-0.4-0.2-4.46-0.21-4.92c-0.29,0.23-1.94,1.51-2.25,1.78c-0.3-0.24-1.98-1.54-2.26-1.76
	c-0.01,0.45-0.2,4.49-0.21,4.9h-1.36c0.04-0.54,0.41-6.88,0.44-7.49c0.46,0.37,3.09,2.52,3.4,2.75c0.35-0.26,3.03-2.46,3.39-2.75
	c0.03,0.52,0.42,7.04,0.44,7.49H329.26z"/>
<path class="st0" d="M338.13,103.69v1.73h2.56v1.3h-2.56v3.03h-1.33v-7.34h4.3v1.29H338.13z"/>
<path class="st0" d="M345.04,109.86c-1.99,0-3.13-1.23-3.13-2.86v-4.6h1.34v4.65c0,0.85,0.71,1.58,1.79,1.58
	c1.03,0,1.8-0.71,1.8-1.56v-4.68h1.31v4.6C348.15,108.59,346.81,109.86,345.04,109.86z"/>
<path class="st0" d="M352,107.98c-1.73,0-2.84-1.3-2.84-2.88c0-1.55,1.2-2.89,2.86-2.89c0.86,0,1.58,0.4,2.08,0.91
	c-0.11,0.11-0.84,0.78-0.95,0.89c-0.26-0.31-0.65-0.55-1.14-0.55c-0.9,0-1.56,0.74-1.56,1.68c0,0.99,0.68,1.68,1.55,1.68
	c0.71,0,1.27-0.37,1.41-1.05h-1.54v-0.97h2.94c0.01,0.07,0.02,0.19,0.02,0.28C354.83,106.7,353.6,107.98,352,107.98z M349.7,109.74
	v-1.03h4.54v1.03H349.7z"/>
<path class="st0" d="M355.25,109.74v-1.3h0.84v-4.74h-0.84v-1.3h2.96v1.3h-0.8v4.74h0.8v1.3H355.25z"/>
<path class="st0" d="M362.6,103.69v6.05h-1.36v-6.05h-2.74v-1.29h6.8v1.29H362.6z"/>
<path class="st0" d="M371.88,109.74c-0.07-0.14-0.48-0.99-0.66-1.36h-3.69c-0.08,0.2-0.58,1.24-0.64,1.36h-1.52
	c0.1-0.2,3.43-7.26,3.49-7.38h0.98c0.04,0.11,3.43,7.12,3.58,7.38H371.88z M369.36,104.41c-0.17,0.34-1,2.06-1.28,2.72h2.56
	C370.37,106.52,369.52,104.74,369.36,104.41z"/>
<path class="st0" d="M377.58,103.69v6.05h-1.36v-6.05h-2.74v-1.29h6.8v1.29H377.58z"/>
<path class="st0" d="M385.5,109.74v-1.3h0.84v-4.74h-0.84v-1.3h2.96v1.3h-0.8v4.74h0.8v1.3H385.5z"/>
<path class="st0" d="M395.23,109.74c-0.07-0.14-0.48-0.99-0.66-1.36h-3.69c-0.08,0.2-0.58,1.24-0.64,1.36h-1.52
	c0.1-0.2,3.43-7.26,3.49-7.38h0.98c0.04,0.11,3.43,7.12,3.58,7.38H395.23z M392.71,104.41c-0.17,0.34-1,2.06-1.28,2.72H394
	C393.73,106.52,392.87,104.74,392.71,104.41z"/>
<path class="st0" d="M400.93,103.69v6.05h-1.36v-6.05h-2.74v-1.29h6.8v1.29H400.93z"/>
<path class="st0" d="M409.02,102.4v1.29h-3.28v1.71h2.57v1.29h-2.57v1.77h3.25v1.29h-4.57v-7.34H409.02z"/>
<path class="st0" d="M413.45,103.69v6.05h-1.36v-6.05h-2.74v-1.29h6.8v1.29H413.45z"/>
<path class="st0" d="M420.03,109.86c-1.99,0-3.13-1.23-3.13-2.86v-4.6h1.34v4.65c0,0.85,0.71,1.58,1.79,1.58
	c1.03,0,1.8-0.71,1.8-1.56v-4.68h1.31v4.6C423.14,108.59,421.8,109.86,420.03,109.86z"/>
<path class="st0" d="M428.63,109.74c-0.13-0.23-1.43-2.29-1.61-2.55h-1.09v2.55h-1.32v-7.34h3.11c1.35,0,2.38,1.1,2.38,2.41
	c0,1.11-0.75,1.92-1.62,2.18c0.15,0.23,1.61,2.51,1.77,2.75H428.63z M427.63,103.69h-1.69v2.22h1.71c0.65,0,1.09-0.51,1.09-1.1
	C428.73,104.23,428.29,103.69,427.63,103.69z"/>
<path class="st0" d="M430.53,111v-2.92h1.26v1.65C431.57,109.98,430.93,110.62,430.53,111z"/>
<path class="st0" d="M440.39,107.98c-1.59,0-2.88-1.29-2.88-2.87c0-1.61,1.29-2.89,2.88-2.89c1.6,0,2.88,1.29,2.88,2.89
	C443.27,106.69,441.98,107.98,440.39,107.98z M438.1,109.74v-1.03h4.59v1.03H438.1z M440.39,103.46c-0.88,0-1.58,0.74-1.58,1.65
	s0.7,1.63,1.58,1.63c0.89,0,1.6-0.71,1.6-1.63S441.28,103.46,440.39,103.46z"/>
<path class="st0" d="M450.35,109.74c0-0.4-0.2-4.46-0.21-4.92c-0.29,0.23-1.94,1.51-2.25,1.78c-0.3-0.24-1.98-1.54-2.26-1.76
	c-0.01,0.45-0.2,4.49-0.21,4.9h-1.36c0.04-0.54,0.41-6.88,0.44-7.49c0.46,0.37,3.09,2.52,3.4,2.75c0.35-0.26,3.03-2.46,3.39-2.75
	c0.03,0.52,0.42,7.04,0.44,7.49H450.35z"/>
<path class="st0" d="M454.33,105.07v4.67h-1.38v-7.46c0.32,0.31,5.23,4.41,5.62,4.73v-4.61h1.36v7.48
	C459.53,109.53,454.73,105.41,454.33,105.07z"/>
<path class="st0" d="M460.93,109.74v-1.3h0.84v-4.74h-0.84v-1.3h2.96v1.3h-0.8v4.74h0.8v1.3H460.93z"/>
<path class="st0" d="M470.34,109.74v-3h-4.13v3h-1.34v-7.34h1.34v3.03h4.13v-3.03h1.33v7.34H470.34z"/>
<path class="st0" d="M472.65,109.74v-1.3h0.84v-4.74h-0.84v-1.3h2.96v1.3h-0.8v4.74h0.8v1.3H472.65z"/>
<path class="st0" d="M480,103.69v6.05h-1.36v-6.05h-2.74v-1.29h6.8v1.29H480z"/>
<path class="st0" d="M492.44,109.74c-0.13-0.23-1.43-2.29-1.61-2.55h-1.09v2.55h-1.32v-7.34h3.11c1.35,0,2.38,1.1,2.38,2.41
	c0,1.11-0.75,1.92-1.62,2.18c0.15,0.23,1.61,2.51,1.77,2.75H492.44z M491.44,103.69h-1.69v2.22h1.71c0.65,0,1.09-0.51,1.09-1.1
	C492.54,104.23,492.1,103.69,491.44,103.69z"/>
<path class="st0" d="M499.58,102.4v1.29h-3.28v1.71h2.57v1.29h-2.57v1.77h3.25v1.29h-4.57v-7.34H499.58z"/>
<path class="st0" d="M504.57,109.74c-0.13-0.23-1.43-2.29-1.61-2.55h-1.09v2.55h-1.32v-7.34h3.11c1.35,0,2.38,1.1,2.38,2.41
	c0,1.11-0.75,1.92-1.62,2.18c0.15,0.23,1.61,2.51,1.77,2.75H504.57z M503.57,103.69h-1.69v2.22h1.71c0.65,0,1.09-0.51,1.09-1.1
	C504.67,104.23,504.23,103.69,503.57,103.69z"/>
<path class="st0" d="M509.87,109.91c-1.62,0-2.7-0.99-3.07-2.23c0.17-0.04,1.08-0.27,1.25-0.32c0.18,0.62,0.86,1.3,1.82,1.3
	c1.04,0,1.72-0.68,1.76-1.5c-0.29-0.08-4.38-1.38-4.75-1.49c-0.01-0.11-0.03-0.3-0.03-0.48c0-1.63,1.29-2.97,3.1-2.97
	c1.55,0,2.67,1.02,2.97,2.12c-0.19,0.05-1.06,0.24-1.28,0.29c-0.22-0.65-0.85-1.19-1.69-1.19c-0.96,0-1.68,0.65-1.74,1.38
	c0.35,0.1,4.42,1.4,4.72,1.49c0.04,0.14,0.07,0.44,0.07,0.64C513,108.61,511.72,109.91,509.87,109.91z"/>
<path class="st0" d="M516.93,107.19h-1.55v2.55h-1.33v-7.34h2.86c1.35,0,2.42,1.07,2.42,2.4
	C519.33,106.05,518.31,107.19,516.93,107.19z M516.86,103.69h-1.47v2.21h1.47c0.57,0,1.1-0.45,1.1-1.1
	C517.96,104.14,517.43,103.69,516.86,103.69z"/>
<path class="st0" d="M524.84,102.4v1.29h-3.28v1.71h2.57v1.29h-2.57v1.77h3.25v1.29h-4.57v-7.34H524.84z"/>
<path class="st0" d="M529.83,109.74c-0.13-0.23-1.43-2.29-1.61-2.55h-1.09v2.55h-1.32v-7.34h3.11c1.35,0,2.38,1.1,2.38,2.41
	c0,1.11-0.75,1.92-1.62,2.18c0.15,0.23,1.61,2.51,1.77,2.75H529.83z M528.83,103.69h-1.69v2.22h1.71c0.65,0,1.09-0.51,1.09-1.1
	C529.93,104.23,529.49,103.69,528.83,103.69z"/>
<path class="st0" d="M536.98,102.4v1.29h-3.28v1.71h2.57v1.29h-2.57v1.77h3.25v1.29h-4.57v-7.34H536.98z"/>
<path class="st0" d="M542.43,109.74v-1.3h0.84v-4.74h-0.84v-1.3h2.96v1.3h-0.8v4.74h0.8v1.3H542.43z"/>
<path class="st0" d="M548.6,109.74h-2.23v-7.34h2.22c2.11,0,3.72,1.64,3.72,3.67C552.31,108.18,550.61,109.74,548.6,109.74z
	 M548.57,103.68h-0.88v4.77h0.89c1.29,0,2.37-1.06,2.37-2.38C550.95,104.73,549.91,103.68,548.57,103.68z"/>
<path class="st0" d="M298.66,122.94c0-0.4-0.2-4.46-0.21-4.92c-0.29,0.23-1.94,1.51-2.25,1.78c-0.3-0.24-1.98-1.54-2.26-1.76
	c-0.01,0.45-0.2,4.49-0.21,4.9h-1.36c0.04-0.54,0.41-6.88,0.44-7.49c0.46,0.37,3.09,2.52,3.4,2.75c0.35-0.26,3.03-2.46,3.39-2.75
	c0.03,0.52,0.42,7.04,0.44,7.49H298.66z"/>
<path class="st0" d="M307.07,122.94c-0.07-0.14-0.48-0.99-0.66-1.36h-3.69c-0.08,0.2-0.58,1.24-0.64,1.36h-1.52
	c0.1-0.2,3.43-7.26,3.49-7.38h0.98c0.04,0.11,3.43,7.12,3.58,7.38H307.07z M304.55,117.61c-0.17,0.34-1,2.06-1.28,2.72h2.56
	C305.56,119.73,304.7,117.94,304.55,117.61z"/>
<path class="st0" d="M311.73,121.18c-1.73,0-2.84-1.3-2.84-2.88c0-1.55,1.2-2.89,2.86-2.89c0.86,0,1.58,0.4,2.08,0.91
	c-0.11,0.11-0.84,0.78-0.95,0.89c-0.26-0.31-0.65-0.55-1.14-0.55c-0.9,0-1.56,0.74-1.56,1.68c0,0.99,0.68,1.68,1.55,1.68
	c0.71,0,1.27-0.37,1.41-1.05h-1.54v-0.97h2.94c0.01,0.07,0.02,0.19,0.02,0.28C314.56,119.9,313.33,121.18,311.73,121.18z
	 M309.43,122.94v-1.03h4.54v1.03H309.43z"/>
<path class="st0" d="M316.86,118.27v4.67h-1.38v-7.46c0.32,0.31,5.23,4.41,5.62,4.73v-4.61h1.36v7.48
	C322.05,122.73,317.25,118.61,316.86,118.27z"/>
<path class="st0" d="M323.46,122.94v-1.3h0.84v-4.74h-0.84v-1.3h2.96v1.3h-0.8v4.74h0.8v1.3H323.46z"/>
<path class="st0" d="M333.47,122.94c0-0.4-0.2-4.46-0.21-4.92c-0.29,0.23-1.94,1.51-2.25,1.78c-0.3-0.24-1.98-1.54-2.26-1.76
	c-0.01,0.45-0.2,4.49-0.21,4.9h-1.36c0.04-0.54,0.41-6.88,0.44-7.49c0.46,0.37,3.09,2.52,3.4,2.75c0.35-0.26,3.03-2.46,3.39-2.75
	c0.03,0.52,0.42,7.04,0.44,7.49H333.47z"/>
<path class="st0" d="M335.57,122.94v-1.3h0.84v-4.74h-0.84v-1.3h2.96v1.3h-0.8v4.74h0.8v1.3H335.57z"/>
<path class="st0" d="M340.88,118.27v4.67h-1.38v-7.46c0.32,0.31,5.23,4.41,5.62,4.73v-4.61h1.36v7.48
	C346.07,122.73,341.28,118.61,340.88,118.27z"/>
<path class="st0" d="M351.4,116.89v6.05h-1.36v-6.05h-2.74v-1.29h6.8v1.29H351.4z"/>
<path class="st0" d="M360.55,123.03h-0.96c-0.13-0.31-3.27-7.01-3.47-7.43h1.5c0.17,0.35,2.29,5.01,2.48,5.35
	c0.18-0.36,2.32-5.01,2.46-5.35h1.46C363.87,115.93,360.68,122.74,360.55,123.03z"/>
<path class="st0" d="M369.36,115.6v1.29h-3.28v1.71h2.57v1.29h-2.57v1.77h3.25v1.29h-4.57v-7.34H369.36z"/>
<path class="st0" d="M371.76,118.27v4.67h-1.38v-7.46c0.32,0.31,5.23,4.41,5.62,4.73v-4.61h1.36v7.48
	C376.95,122.73,372.15,118.61,371.76,118.27z"/>
<path class="st0" d="M381.1,122.94h-2.23v-7.34h2.22c2.11,0,3.72,1.64,3.72,3.67C384.8,121.38,383.1,122.94,381.1,122.94z
	 M381.06,116.88h-0.88v4.77h0.89c1.29,0,2.37-1.06,2.37-2.38C383.44,117.93,382.41,116.88,381.06,116.88z"/>
<path class="st0" d="M385.35,122.94v-1.3h0.84v-4.74h-0.84v-1.3h2.96v1.3h-0.8v4.74h0.8v1.3H385.35z"/>
<path class="st0" d="M392.7,116.89v6.05h-1.36v-6.05h-2.74v-1.29h6.8v1.29H392.7z"/>
<path class="st0" d="M403.97,122.94c-0.07-0.14-0.48-0.99-0.66-1.36h-3.69c-0.08,0.2-0.58,1.24-0.64,1.36h-1.52
	c0.1-0.2,3.43-7.26,3.49-7.38h0.98c0.04,0.11,3.43,7.12,3.58,7.38H403.97z M401.45,117.61c-0.17,0.34-1,2.06-1.28,2.72h2.56
	C402.46,119.73,401.6,117.94,401.45,117.61z"/>
<path class="st0" d="M411.18,121.1v0.42h-1.08v-0.41c-1.33-0.26-2.33-1.4-2.33-2.82c0-1.6,1.29-2.88,2.87-2.88
	c1.59,0,2.89,1.29,2.89,2.88C413.54,119.69,412.51,120.89,411.18,121.1z M408.32,122.94v-1.03H413v1.03H408.32z M410.64,116.69
	c-0.88,0-1.6,0.76-1.6,1.67c0,0.77,0.53,1.33,1.07,1.48v-1.06h1.07v1.07c0.59-0.21,1.07-0.75,1.07-1.5
	C412.25,117.45,411.55,116.69,410.64,116.69z"/>
<path class="st0" d="M417.64,123.06c-1.99,0-3.13-1.23-3.13-2.86v-4.6h1.34v4.65c0,0.85,0.71,1.58,1.79,1.58
	c1.03,0,1.8-0.71,1.8-1.56v-4.68h1.31v4.6C420.75,121.79,419.41,123.06,417.64,123.06z"/>
<path class="st0" d="M421.72,122.94v-1.3h0.84v-4.74h-0.84v-1.3h2.96v1.3h-0.8v4.74h0.8v1.3H421.72z"/>
<path class="st0" d="M431.46,122.94c-0.07-0.14-0.48-0.99-0.66-1.36h-3.69c-0.08,0.2-0.58,1.24-0.64,1.36h-1.52
	c0.1-0.2,3.43-7.26,3.49-7.38h0.98c0.04,0.11,3.43,7.12,3.58,7.38H431.46z M428.94,117.61c-0.17,0.34-1,2.06-1.28,2.72h2.56
	C429.95,119.73,429.09,117.94,428.94,117.61z"/>
<path class="st0" d="M437.15,116.89v6.05h-1.36v-6.05h-2.74v-1.29h6.8v1.29H437.15z"/>
<path class="st0" d="M443.73,123.06c-1.99,0-3.13-1.23-3.13-2.86v-4.6h1.34v4.65c0,0.85,0.71,1.58,1.79,1.58
	c1.03,0,1.8-0.71,1.8-1.56v-4.68h1.31v4.6C446.84,121.79,445.5,123.06,443.73,123.06z"/>
<path class="st0" d="M452.33,122.94c-0.13-0.23-1.43-2.29-1.61-2.55h-1.09v2.55h-1.32v-7.34h3.11c1.35,0,2.38,1.1,2.38,2.41
	c0,1.11-0.75,1.92-1.62,2.18c0.15,0.23,1.61,2.51,1.77,2.75H452.33z M451.33,116.89h-1.69v2.22h1.71c0.65,0,1.09-0.51,1.09-1.1
	C452.43,117.43,451.99,116.89,451.33,116.89z"/>
<path class="st0" d="M456.3,122.94v-1.3h0.84v-4.74h-0.84v-1.3h2.96v1.3h-0.8v4.74h0.8v1.3H456.3z"/>
<path class="st0" d="M463.65,116.89v6.05h-1.36v-6.05h-2.74v-1.29h6.8v1.29H463.65z"/>
<path class="st0" d="M471.74,115.6v1.29h-3.28v1.71h2.57v1.29h-2.57v1.77h3.25v1.29h-4.57v-7.34H471.74z"/>
<path class="st0" d="M475.22,115.44c0.94,0,1.65,0.42,2.1,0.91l-0.89,0.89c-0.26-0.27-0.68-0.55-1.19-0.55c-0.9,0-1.6,0.73-1.6,1.63
	c0,0.89,0.72,1.63,1.6,1.63c0.48,0,0.9-0.22,1.2-0.56c0.08,0.09,0.79,0.78,0.88,0.87c-0.45,0.47-1.19,0.95-2.1,0.95
	c-1.57,0-2.89-1.24-2.89-2.88C472.33,116.69,473.64,115.44,475.22,115.44z M477.01,121.9v1.03h-4.08v-1.03H477.01z"/>
<path class="st0" d="M482.67,115.6v1.29h-3.28v1.71h2.57v1.29h-2.57v1.77h3.25v1.29h-4.57v-7.34H482.67z"/>
<path class="st0" d="M489.49,122.94c-0.07-0.14-0.48-0.99-0.66-1.36h-3.69c-0.08,0.2-0.58,1.24-0.64,1.36h-1.52
	c0.1-0.2,3.43-7.26,3.49-7.38h0.98c0.04,0.11,3.43,7.12,3.58,7.38H489.49z M486.97,117.61c-0.17,0.34-1,2.06-1.28,2.72h2.56
	C487.98,119.73,487.13,117.94,486.97,117.61z"/>
<path class="st0" d="M495.19,116.89v6.05h-1.36v-6.05h-2.74v-1.29h6.8v1.29H495.19z"/>
<path class="st0" d="M503.27,115.6v1.29h-3.28v1.71h2.57v1.29h-2.57v1.77h3.25v1.29h-4.57v-7.34H503.27z"/>
<path class="st0" d="M510.37,122.94c0-0.4-0.2-4.46-0.21-4.92c-0.29,0.23-1.94,1.51-2.25,1.78c-0.3-0.24-1.98-1.54-2.26-1.76
	c-0.01,0.45-0.2,4.49-0.21,4.9h-1.36c0.04-0.54,0.41-6.88,0.44-7.49c0.46,0.37,3.09,2.52,3.4,2.75c0.35-0.26,3.03-2.46,3.39-2.75
	c0.03,0.52,0.42,7.04,0.44,7.49H510.37z"/>
<path class="st0" d="M516.28,116.89v1.73h2.56v1.3h-2.56v3.03h-1.33v-7.34h4.3v1.29H516.28z"/>
<path class="st0" d="M525.9,122.94c-0.07-0.14-0.48-0.99-0.66-1.36h-3.69c-0.08,0.2-0.58,1.24-0.64,1.36h-1.52
	c0.1-0.2,3.43-7.26,3.49-7.38h0.98c0.04,0.11,3.43,7.12,3.58,7.38H525.9z M523.38,117.61c-0.17,0.34-1,2.06-1.28,2.72h2.56
	C524.39,119.73,523.53,117.94,523.38,117.61z"/>
<path class="st0" d="M530.65,115.44c0.94,0,1.65,0.42,2.1,0.91l-0.89,0.89c-0.26-0.27-0.68-0.55-1.19-0.55c-0.9,0-1.6,0.73-1.6,1.63
	c0,0.89,0.72,1.63,1.6,1.63c0.48,0,0.9-0.22,1.2-0.56c0.08,0.09,0.79,0.78,0.88,0.87c-0.45,0.47-1.19,0.95-2.1,0.95
	c-1.57,0-2.89-1.24-2.89-2.88C527.76,116.69,529.07,115.44,530.65,115.44z M532.43,121.9v1.03h-4.08v-1.03H532.43z"/>
<path class="st0" d="M535.95,115.44c0.94,0,1.65,0.42,2.1,0.91l-0.89,0.89c-0.26-0.27-0.68-0.55-1.19-0.55c-0.9,0-1.6,0.73-1.6,1.63
	c0,0.89,0.72,1.63,1.6,1.63c0.48,0,0.9-0.22,1.2-0.56c0.08,0.09,0.79,0.78,0.88,0.87c-0.45,0.47-1.19,0.95-2.1,0.95
	c-1.57,0-2.89-1.24-2.89-2.88C533.06,116.69,534.37,115.44,535.95,115.44z M537.74,121.9v1.03h-4.08v-1.03H537.74z"/>
<path class="st0" d="M541.97,123.06c-1.99,0-3.13-1.23-3.13-2.86v-4.6h1.34v4.65c0,0.85,0.71,1.58,1.79,1.58
	c1.03,0,1.8-0.71,1.8-1.56v-4.68h1.31v4.6C545.08,121.79,543.74,123.06,541.97,123.06z"/>
<path class="st0" d="M549.24,123.11c-1.62,0-2.7-0.99-3.07-2.23c0.17-0.04,1.08-0.27,1.25-0.32c0.18,0.62,0.86,1.3,1.82,1.3
	c1.04,0,1.72-0.68,1.76-1.5c-0.29-0.08-4.38-1.38-4.75-1.49c-0.01-0.11-0.03-0.3-0.03-0.48c0-1.63,1.29-2.97,3.1-2.97
	c1.55,0,2.67,1.02,2.97,2.12c-0.19,0.05-1.06,0.24-1.28,0.29c-0.22-0.65-0.85-1.19-1.69-1.19c-0.96,0-1.68,0.65-1.74,1.38
	c0.35,0.1,4.42,1.4,4.72,1.49c0.04,0.14,0.07,0.44,0.07,0.64C552.36,121.81,551.09,123.11,549.24,123.11z"/>
<path class="st0" d="M294.83,136.14h-2.23v-7.34h2.22c2.11,0,3.72,1.64,3.72,3.67C298.53,134.58,296.83,136.14,294.83,136.14z
	 M294.79,130.08h-0.88v4.77h0.89c1.29,0,2.37-1.06,2.37-2.38C297.17,131.13,296.13,130.08,294.79,130.08z"/>
<path class="st0" d="M302.01,134.38c-1.59,0-2.88-1.29-2.88-2.87c0-1.61,1.29-2.89,2.88-2.89c1.6,0,2.88,1.29,2.88,2.89
	C304.89,133.09,303.6,134.38,302.01,134.38z M299.72,136.14v-1.03h4.59v1.03H299.72z M302.01,129.86c-0.88,0-1.58,0.74-1.58,1.65
	s0.7,1.63,1.58,1.63c0.89,0,1.6-0.71,1.6-1.63S302.9,129.86,302.01,129.86z"/>
<path class="st0" d="M305.9,136.14v-7.34h1.33v6.17h2.23v-1.8h1.26v2.97H305.9z"/>
<path class="st0" d="M314.82,136.26c-1.99,0-3.13-1.23-3.13-2.86v-4.6h1.34v4.65c0,0.85,0.71,1.58,1.79,1.58
	c1.03,0,1.8-0.71,1.8-1.56v-4.68h1.31v4.6C317.94,134.99,316.59,136.26,314.82,136.26z"/>
<path class="st0" d="M322.29,133.59h-1.55v2.55h-1.33v-7.34h2.86c1.35,0,2.42,1.07,2.42,2.4
	C324.69,132.45,323.67,133.59,322.29,133.59z M322.22,130.09h-1.47v2.21h1.47c0.57,0,1.1-0.45,1.1-1.1
	C323.32,130.54,322.79,130.09,322.22,130.09z"/>
<path class="st0" d="M329.01,130.09v6.05h-1.36v-6.05h-2.74v-1.29h6.8v1.29H329.01z"/>
<path class="st0" d="M338.3,136.14c-0.07-0.14-0.48-0.99-0.66-1.36h-3.69c-0.08,0.2-0.58,1.24-0.64,1.36h-1.52
	c0.1-0.2,3.43-7.26,3.49-7.38h0.98c0.04,0.11,3.43,7.12,3.58,7.38H338.3z M335.78,130.81c-0.17,0.34-1,2.06-1.28,2.72h2.56
	C336.79,132.93,335.93,131.14,335.78,130.81z"/>
<path class="st0" d="M343.27,136.31c-1.62,0-2.7-0.99-3.07-2.23c0.16-0.04,1.08-0.27,1.25-0.32c0.18,0.62,0.86,1.3,1.82,1.3
	c1.04,0,1.72-0.68,1.76-1.5c-0.29-0.08-4.38-1.38-4.75-1.49c-0.01-0.11-0.03-0.3-0.03-0.48c0-1.63,1.29-2.97,3.1-2.97
	c1.55,0,2.67,1.02,2.97,2.12c-0.19,0.05-1.06,0.24-1.28,0.29c-0.22-0.65-0.85-1.19-1.69-1.19c-0.96,0-1.68,0.65-1.74,1.38
	c0.35,0.1,4.42,1.4,4.72,1.49c0.04,0.14,0.07,0.44,0.07,0.64C346.39,135.01,345.12,136.31,343.27,136.31z"/>
<path class="st0" d="M354.52,128.8v1.29h-3.28v1.71h2.57v1.29h-2.57v1.77h3.25v1.29h-4.57v-7.34H354.52z"/>
<path class="st0" d="M358.23,136.31c-1.62,0-2.7-0.99-3.07-2.23c0.17-0.04,1.08-0.27,1.25-0.32c0.18,0.62,0.86,1.3,1.82,1.3
	c1.04,0,1.72-0.68,1.76-1.5c-0.29-0.08-4.38-1.38-4.75-1.49c-0.01-0.11-0.03-0.3-0.03-0.48c0-1.63,1.29-2.97,3.1-2.97
	c1.55,0,2.67,1.02,2.97,2.12c-0.19,0.05-1.06,0.24-1.28,0.29c-0.22-0.65-0.85-1.19-1.69-1.19c-0.96,0-1.68,0.65-1.74,1.38
	c0.35,0.1,4.42,1.4,4.72,1.49c0.04,0.14,0.07,0.44,0.07,0.64C361.35,135.01,360.08,136.31,358.23,136.31z"/>
<path class="st0" d="M365.05,136.31c-1.62,0-2.7-0.99-3.07-2.23c0.17-0.04,1.08-0.27,1.25-0.32c0.18,0.62,0.86,1.3,1.82,1.3
	c1.04,0,1.72-0.68,1.76-1.5c-0.29-0.08-4.38-1.38-4.75-1.49c-0.01-0.11-0.03-0.3-0.03-0.48c0-1.63,1.29-2.97,3.1-2.97
	c1.55,0,2.67,1.02,2.97,2.12c-0.19,0.05-1.06,0.24-1.28,0.29c-0.22-0.65-0.85-1.19-1.69-1.19c-0.96,0-1.68,0.65-1.74,1.38
	c0.35,0.1,4.42,1.4,4.72,1.49c0.04,0.14,0.07,0.44,0.07,0.64C368.17,135.01,366.9,136.31,365.05,136.31z"/>
<path class="st0" d="M368.72,136.14v-1.3h0.84v-4.74h-0.84v-1.3h2.96v1.3h-0.8v4.74h0.8v1.3H368.72z"/>
<path class="st0" d="M377.82,136.31c-1.62,0-2.7-0.99-3.07-2.23c0.16-0.04,1.08-0.27,1.25-0.32c0.18,0.62,0.86,1.3,1.82,1.3
	c1.04,0,1.72-0.68,1.76-1.5c-0.29-0.08-4.38-1.38-4.75-1.49c-0.01-0.11-0.03-0.3-0.03-0.48c0-1.63,1.29-2.97,3.1-2.97
	c1.55,0,2.67,1.02,2.97,2.12c-0.19,0.05-1.06,0.24-1.28,0.29c-0.22-0.65-0.85-1.19-1.69-1.19c-0.96,0-1.68,0.65-1.74,1.38
	c0.35,0.1,4.42,1.4,4.72,1.49c0.04,0.14,0.07,0.44,0.07,0.64C380.94,135.01,379.67,136.31,377.82,136.31z"/>
<path class="st0" d="M387.8,136.14c-0.07-0.14-0.48-0.99-0.66-1.36h-3.69c-0.08,0.2-0.58,1.24-0.64,1.36h-1.52
	c0.1-0.2,3.43-7.26,3.49-7.38h0.98c0.04,0.11,3.43,7.12,3.58,7.38H387.8z M385.28,130.81c-0.17,0.34-1,2.06-1.28,2.72h2.56
	C386.29,132.93,385.43,131.14,385.28,130.81z"/>
<path class="st0" d="M396.16,136.14c0-0.4-0.2-4.46-0.21-4.92c-0.29,0.23-1.94,1.51-2.25,1.78c-0.3-0.24-1.98-1.54-2.26-1.76
	c-0.01,0.45-0.2,4.49-0.21,4.9h-1.36c0.04-0.54,0.41-6.88,0.44-7.49c0.46,0.37,3.09,2.52,3.4,2.75c0.35-0.26,3.03-2.46,3.39-2.75
	c0.03,0.52,0.42,7.04,0.44,7.49H396.16z"/>
<path class="st0" d="M406.71,136.14v-3h-4.13v3h-1.34v-7.34h1.34v3.03h4.13v-3.03h1.33v7.34H406.71z"/>
<path class="st0" d="M409.01,136.14v-1.3h0.84v-4.74h-0.84v-1.3h2.96v1.3h-0.8v4.74h0.8v1.3H409.01z"/>
<path class="st0" d="M412.95,136.14v-7.34h1.33v6.17h2.23v-1.8h1.26v2.97H412.95z"/>
<path class="st0" d="M427.33,136.14c0-0.4-0.2-4.46-0.21-4.92c-0.29,0.23-1.94,1.51-2.25,1.78c-0.3-0.24-1.98-1.54-2.26-1.76
	c-0.01,0.45-0.2,4.49-0.21,4.9h-1.36c0.04-0.54,0.41-6.88,0.44-7.49c0.46,0.37,3.09,2.52,3.4,2.75c0.35-0.26,3.03-2.46,3.39-2.75
	c0.03,0.52,0.42,7.04,0.44,7.49H427.33z"/>
<path class="st0" d="M435.73,136.14c-0.07-0.14-0.48-0.99-0.66-1.36h-3.69c-0.08,0.2-0.58,1.24-0.64,1.36h-1.52
	c0.1-0.2,3.43-7.26,3.49-7.38h0.98c0.04,0.11,3.43,7.12,3.58,7.38H435.73z M433.21,130.81c-0.17,0.34-1,2.06-1.28,2.72h2.56
	C434.23,132.93,433.37,131.14,433.21,130.81z"/>
<path class="st0" d="M441.87,131.47v4.67h-1.38v-7.46c0.32,0.31,5.23,4.41,5.62,4.73v-4.61h1.36v7.48
	C447.06,135.93,442.27,131.82,441.87,131.47z"/>
<path class="st0" d="M453.58,128.8v1.29h-3.28v1.71h2.57v1.29h-2.57v1.77h3.25v1.29h-4.57v-7.34H453.58z"/>
<path class="st0" d="M460.67,136.14c0-0.4-0.2-4.46-0.21-4.92c-0.29,0.23-1.94,1.51-2.25,1.78c-0.3-0.24-1.98-1.54-2.26-1.76
	c-0.01,0.45-0.2,4.49-0.21,4.9h-1.36c0.04-0.54,0.41-6.88,0.44-7.49c0.46,0.37,3.09,2.52,3.4,2.75c0.35-0.26,3.03-2.46,3.39-2.75
	c0.03,0.52,0.42,7.04,0.44,7.49H460.67z"/>
<path class="st0" d="M471.55,136.14c-0.07-0.14-0.48-0.99-0.66-1.36h-3.69c-0.08,0.2-0.58,1.24-0.64,1.36h-1.52
	c0.1-0.2,3.43-7.26,3.49-7.38h0.98c0.04,0.11,3.43,7.12,3.58,7.38H471.55z M469.03,130.81c-0.17,0.34-1,2.06-1.28,2.72h2.56
	C470.04,132.93,469.18,131.14,469.03,130.81z"/>
<path class="st0" d="M473.84,136.14v-7.34h1.33v6.17h2.23v-1.8h1.26v2.97H473.84z"/>
<path class="st0" d="M483.08,130.09v6.05h-1.36v-6.05h-2.74v-1.29h6.8v1.29H483.08z"/>
<path class="st0" d="M491.16,128.8v1.29h-3.28v1.71h2.57v1.29h-2.57v1.77h3.25v1.29h-4.57v-7.34H491.16z"/>
<path class="st0" d="M496.15,136.14c-0.13-0.23-1.43-2.29-1.61-2.55h-1.09v2.55h-1.32v-7.34h3.11c1.35,0,2.38,1.1,2.38,2.41
	c0,1.11-0.75,1.92-1.62,2.18c0.15,0.23,1.61,2.51,1.77,2.75H496.15z M495.14,130.09h-1.69v2.22h1.71c0.65,0,1.09-0.51,1.09-1.1
	C496.24,130.63,495.8,130.09,495.14,130.09z"/>
<path class="st0" d="M498.11,136.14v-1.65h1.31v1.65H498.11z"/>
</svg>
